<svg viewBox="0 0 300 301" fill="none" xmlns="http://www.w3.org/2000/svg">
  <style>
    path {
    fill: black;
    }
    @media (prefers-color-scheme: dark) {
    path { fill: white; }
    }
  </style>
  <g clip-path="url(#clip0_2017_9)">
    <path
      d="M262.34 249.809C260.223 247.698 258.426 246.452 256.844 245.998C255.241 245.537 253.808 245.88 252.702 246.99L251.661 248.029C240.758 258.932 228.063 267.492 213.927 273.471C199.299 279.658 183.755 282.796 167.727 282.796C151.699 282.796 136.154 279.659 121.526 273.471C107.392 267.493 94.6971 258.933 83.7939 248.03C72.4348 236.671 63.8756 223.977 58.3533 210.299C52.9696 196.963 51.2109 186.932 50.6329 183.636C50.5782 183.327 50.5362 183.083 50.5025 182.907C49.7622 179.026 46.1901 178.754 41.0553 179.54C38.92 179.866 32.4231 180.86 33.0413 185.534L33.0568 185.642C34.7816 196.48 37.8145 207.069 42.0892 217.177C48.958 233.417 58.7882 247.998 71.3079 260.516C83.8276 273.036 98.4087 282.867 114.648 289.735C131.46 296.848 149.318 300.455 167.727 300.455C186.125 300.455 203.984 296.846 220.805 289.729C237.039 282.864 251.621 273.031 264.146 260.505C264.176 260.477 264.859 259.797 265.234 259.39C266.612 257.889 267.811 255.263 262.34 249.808V249.809ZM167.557 32.5972C149.967 32.5972 131.256 36.1484 117.509 42.0946C116.04 42.6699 115.162 43.8506 114.968 45.509C114.788 47.0726 115.21 49.1376 116.261 51.8226C117.114 54.0016 119.378 59.7883 123.762 58.1162C137.831 52.7489 153.384 49.7931 167.557 49.7931C183.616 49.7931 199.19 52.9367 213.848 59.1355C225.494 64.0634 236.484 71.1793 248.432 81.5328C249.303 82.2886 250.228 82.6715 251.18 82.6715C253.509 82.6715 255.743 80.3831 257.654 78.2388C260.845 74.6593 263.036 71.6844 259.892 68.7076C248.483 57.8992 235.98 49.825 220.545 43.2981C203.761 36.1976 185.933 32.5972 167.557 32.5972ZM143.577 181.322C143.598 183.31 145.417 185.053 146.504 186.094L146.846 186.424C148.709 188.257 150.484 189.187 152.121 189.187C153.477 189.187 154.312 188.546 154.608 188.27C155.429 187.507 164.714 178.098 165.601 177.2L175.957 187.523C176.916 188.603 177.958 189.145 179.172 189.178C180.825 189.178 182.628 188.195 184.529 186.255C188.997 181.692 186.761 179.232 185.679 178.043L175.187 167.546L186.13 156.526C188.529 153.929 186.411 151.17 184.297 149.056C181.227 145.987 178.267 145.194 176.368 146.943L165.488 157.843L154.485 146.836C153.916 146.284 153.151 145.977 152.358 145.983C150.891 145.983 149.157 146.974 147.2 148.93C143.817 152.313 143.091 154.652 144.852 156.518L155.859 167.491L144.917 178.452C144.017 179.35 143.566 180.316 143.577 181.322ZM73.8024 197.573C73.868 197.755 75.4216 202.052 76.3224 204.183C81.2657 215.871 88.3452 226.37 97.3639 235.389C106.376 244.4 116.877 251.48 128.576 256.427C140.685 261.551 153.546 264.147 166.801 264.147C180.054 264.147 192.915 261.549 205.027 256.426C216.721 251.48 227.222 244.4 236.238 235.384C245.254 226.37 252.332 215.869 257.28 204.174C262.402 192.063 265 179.202 265 165.948C265 152.693 262.402 139.832 257.279 127.721C252.333 116.028 245.254 105.526 236.238 96.5105C227.225 87.4963 216.723 80.4168 205.027 75.4689C192.917 70.346 180.055 67.7485 166.801 67.7485C153.39 67.7485 139.989 70.418 128.048 75.4689C118.502 79.5069 102.346 89.9024 92.8883 99.6568L92.8336 99.7134V18.8968L228.588 18.8959C233.529 18.8412 233.529 11.9432 233.529 9.67571C233.529 7.40918 233.529 0.51294 228.574 0.455502L81.7854 0.45459C77.7893 0.45459 75.3158 3.77871 75.3158 6.8585V120.612C75.3158 124.281 79.8872 126.932 84.1349 127.84C92.4297 129.611 94.3461 126.96 96.3774 124.155L96.6473 123.783C99.7481 119.175 109.441 109.421 109.537 109.324C124.663 94.1984 144.885 85.8698 166.481 85.8698C187.974 85.8698 208.14 94.1993 223.265 109.324C238.44 124.501 246.799 144.61 246.799 165.948C246.799 187.363 238.484 207.471 223.385 222.57C208.479 237.477 187.655 246.025 166.254 246.025C151.76 246.025 137.768 242.163 125.782 234.854L125.832 165.687C125.832 156.464 129.835 146.439 136.539 138.868C144.203 130.213 154.766 125.447 166.281 125.447C177.434 125.447 187.848 129.68 195.61 137.368C203.315 145.001 207.558 155.17 207.558 166.003C207.558 189.117 189.383 207.222 166.181 207.222C161.708 207.222 153.577 205.247 153.242 205.165C148.558 203.77 146.565 210.274 145.908 212.417C143.387 220.662 147.177 222.297 147.962 222.541C155.429 224.858 160.324 225.297 166.747 225.297C199.501 225.297 226.149 198.637 226.149 165.867C226.149 133.36 199.517 106.913 166.783 106.913C150.753 106.913 135.693 113.041 124.38 124.167C113.606 134.764 107.426 148.893 107.426 162.928L107.42 163.277C107.367 165.027 107.334 206.491 107.324 220.098L107.262 220.03C101.106 213.213 95.0208 202.778 90.9855 192.117C89.4046 187.939 85.8316 188.678 80.9566 190.18C78.8278 190.836 72.35 192.831 73.7814 197.514L73.8024 197.573Z"
      fill="#0A0A08" />
  </g>
  <defs>
    <clipPath id="clip0_2017_9">
      <rect width="300" height="300" fill="white" transform="translate(0 0.45459)" />
    </clipPath>
  </defs>
</svg>