<svg width="300" height="306" viewBox="0 0 300 306" fill="none" xmlns="http://www.w3.org/2000/svg">
  <g clip-path="url(#clip0_2016_2)">
    <path
      d="M144.061 285.807C97.6989 283.478 55.327 256.687 33.681 215.423C10.439 172.64 12.9439 117.127 41.7941 77.3164C70.6222 34.7553 123.257 12.1774 176.281 22.4684C227.076 31.9719 268.839 72.3037 280 121.285C292.435 169.458 275.311 223.008 236.497 254.801C211.127 276.459 177.81 287.582 144.061 285.818V285.807Z"
      fill="white" />
    <path
      d="M143.173 302.681C90.8849 300.056 43.0977 269.857 18.6852 223.344C-7.52731 175.119 -4.70235 112.544 27.8352 67.6691C60.3476 19.6938 119.71 -5.75614 179.51 5.84388C236.798 16.5563 283.898 62.0187 296.485 117.231C310.51 171.531 291.198 231.894 247.423 267.731C218.81 292.144 181.235 304.682 143.173 302.694V302.681ZM239.485 202.057C226.297 194.152 213.085 186.29 199.848 178.469C188.56 197.006 163.785 206.569 142.723 199.281C117.423 191.294 100.298 161.944 111.623 135.106C121.635 109.994 146.498 101.269 166.085 104.306C179.285 106.798 191.023 114.267 198.873 125.169C212.335 117.281 225.473 109.944 238.535 101.981C213.16 63.0065 161.648 48.3064 117.835 67.5562C78.7104 85.344 56.71 126.056 62.9849 166.544C69.7349 211.519 109.61 247.619 159.435 246.594C175.436 246.446 191.145 242.293 205.129 234.513C219.111 226.733 230.923 215.575 239.485 202.057Z"
      fill="#0056D2" />
  </g>
  <defs>
    <clipPath id="clip0_2016_2">
      <rect width="300" height="305.455" fill="white" />
    </clipPath>
  </defs>
</svg>