<svg width="1624" height="1744" viewBox="0 0 1624 1744" fill="none"
  xmlns="http://www.w3.org/2000/svg">
  <g clip-path="url(#clip0_2004_2)">
    <path
      d="M411.499 1670.34L342.337 1566.8L182.775 1586.17L12.9883 179.615L1414.18 16.9771L1476.73 883.786H1535.71L1598.27 1516.47L786.861 1620.13L767.201 1459.28C766.01 1467.02 748.257 1485.01 686.776 1495.02C683.916 1627.99 693.312 1670.3 599.981 1708.88C506.65 1747.46 411.499 1670.34 411.499 1670.34Z"
      fill="white" stroke="black" />
    <path
      d="M1359.97 1234.17L1215.44 1138.83L1094.88 1340.23L954.65 1299.23L831.182 1487.69L837.511 1547.01L1508.82 1423.31L1469.82 1003.85L1359.97 1234.17ZM733.925 1053.32L841.63 1038.51C859.056 1046.34 871.188 1049.32 892.084 1054.63C924.625 1063.11 962.298 1071.25 1018.09 1043.13C1031.07 1036.7 1058.11 1011.97 1069.05 997.868L1510.34 917.81L1555.36 1462.67L799.351 1598.93L733.925 1053.32ZM1553.65 856.986L1510.09 865.284L1426.41 0.638672L0.5 165.988L176.167 1591.6L343.07 1567.38C329.742 1548.35 308.988 1525.32 273.546 1495.84C224.39 1455 241.776 1385.64 270.767 1341.84C309.13 1267.82 506.789 1173.77 495.59 1055.47C491.573 1012.46 484.736 956.46 444.811 918.094C443.31 934.021 446.008 949.359 446.008 949.359C446.008 949.359 429.616 928.441 421.44 899.916C413.325 888.981 406.955 885.491 398.333 870.884C392.186 887.784 392.997 907.382 392.997 907.382C392.997 907.382 379.587 875.692 377.417 848.952C369.464 860.922 367.456 883.665 367.456 883.665C367.456 883.665 350.029 833.716 354.005 806.813C346.053 783.401 322.479 736.941 329.153 631.34C372.67 661.833 468.466 654.59 505.794 599.569C518.19 581.35 526.67 531.603 499.607 433.59C482.221 370.737 439.171 277.147 422.394 241.643L420.385 243.083C429.23 271.69 447.469 331.662 454.468 360.735C475.648 448.928 481.328 479.624 471.387 520.282C462.928 555.624 442.64 578.753 391.212 604.6C339.784 630.529 271.538 567.432 267.216 563.942C217.249 524.137 178.602 459.194 174.281 427.646C169.797 393.115 194.182 372.381 206.476 344.139C188.887 349.171 169.27 358.098 169.27 358.098C169.27 358.098 192.681 333.873 221.55 312.916C233.499 305.003 240.518 299.972 253.117 289.503C234.879 289.199 220.069 289.726 220.069 289.726C220.069 289.726 250.479 273.293 282.006 261.323C258.939 260.308 236.867 261.16 236.867 261.16C236.867 261.16 304.728 230.809 358.326 208.533C395.188 193.418 431.198 197.881 451.425 227.137C477.981 265.461 505.876 286.277 564.993 299.181C601.287 283.092 612.323 274.814 657.929 262.398C698.077 218.251 729.603 212.529 729.603 212.529C729.603 212.529 713.962 226.873 709.783 249.413C732.545 231.479 757.498 216.506 757.498 216.506C757.498 216.506 747.842 228.435 738.834 247.385L740.924 250.489C767.48 234.562 798.702 222.004 798.702 222.004C798.702 222.004 789.775 233.284 779.307 247.892C799.331 247.729 839.946 248.744 855.709 250.529C948.767 252.578 968.08 151.137 1003.79 138.416C1048.5 122.449 1068.48 112.792 1144.68 187.636C1210.07 251.889 1261.15 366.903 1235.79 392.669C1214.53 414.053 1172.58 384.33 1126.08 326.367C1101.51 295.671 1082.93 259.395 1074.22 213.28C1066.88 174.367 1038.29 151.786 1038.29 151.786C1038.29 151.786 1054.89 188.67 1054.89 221.253C1054.89 239.046 1057.12 305.571 1085.64 342.902C1082.82 348.359 1081.51 369.905 1078.38 374.024C1045.19 333.914 973.923 305.206 962.298 296.746C1001.64 328.984 1092.06 403.036 1126.79 474.005C1159.63 541.118 1140.28 602.632 1156.89 618.558C1161.62 623.123 1227.53 705.25 1240.21 746.517C1262.33 818.438 1241.53 894.012 1212.58 940.898L1131.74 953.497C1119.91 950.211 1111.94 948.567 1101.33 942.42C1107.17 932.073 1118.79 906.266 1118.92 900.951L1114.35 892.937C1089.19 928.583 1047.04 963.195 1012.02 983.078C966.193 1009.05 913.365 1005.05 878.978 994.399C781.376 964.291 689.09 898.334 666.835 881.007C666.835 881.007 666.145 894.844 670.344 897.948C694.953 925.702 751.331 975.916 805.823 1010.91L689.658 1023.69L744.575 1451.33C720.231 1454.82 716.437 1456.52 689.78 1460.32C666.287 1377.32 621.351 1323.13 572.235 1291.56C528.922 1263.73 469.176 1257.46 411.986 1268.78L408.314 1273.04C448.077 1268.9 495.022 1274.66 543.245 1305.19C590.575 1335.12 628.715 1412.42 642.754 1458.96C660.728 1518.44 673.164 1582.07 624.779 1649.51C590.352 1697.45 489.849 1723.94 408.659 1666.63C430.346 1701.51 459.661 1730.03 499.12 1735.41C557.71 1743.36 613.317 1733.2 651.599 1693.9C684.282 1660.3 701.607 1590.04 697.042 1516.05L748.755 1508.54L767.419 1641.35L1623.5 1538.27L1553.65 856.986ZM1032.82 496.322C1030.42 501.779 1026.67 505.35 1032.31 523.102L1032.65 524.117L1033.55 526.409L1035.9 531.725C1046.06 552.5 1057.22 572.098 1075.87 582.1C1080.69 581.289 1085.69 580.741 1090.86 580.477C1108.37 579.706 1119.42 582.486 1126.44 586.26C1127.07 582.77 1127.21 577.657 1126.83 570.13C1125.47 543.816 1132.04 499.061 1081.47 475.506C1062.37 466.64 1035.6 469.379 1026.67 480.436C1028.29 480.639 1029.75 480.984 1030.89 481.369C1044.38 486.096 1035.23 490.742 1032.82 496.322ZM1174.56 741.85C1167.93 738.198 1136.93 739.639 1115.14 742.236C1073.63 747.125 1028.82 761.53 1019 769.199C1001.15 782.995 1009.26 807.057 1022.45 816.937C1059.43 844.57 1091.85 863.093 1126.08 858.589C1147.09 855.83 1165.62 822.557 1178.74 792.368C1187.73 771.573 1187.73 749.134 1174.56 741.85ZM807.08 528.905C818.786 517.787 748.775 503.179 694.446 540.225C654.378 567.554 653.1 626.146 691.463 659.358C695.298 662.645 698.462 664.978 701.424 666.885C712.623 661.61 725.384 656.274 740.072 651.507C764.883 643.452 785.515 639.293 802.475 637.082C810.59 628.013 820.024 612.046 817.67 583.135C814.465 543.918 784.744 550.146 807.08 528.905Z"
      fill="#632CA6" />
  </g>
  <defs>
    <clipPath id="clip0_2004_2">
      <rect width="1624" height="1743" fill="white" transform="translate(0 0.5)" />
    </clipPath>
  </defs>
</svg>