<svg width="300" height="300" viewBox="0 0 300 300" fill="none" xmlns="http://www.w3.org/2000/svg">
<path d="M110.078 155.25L130.32 222.517L120.526 242.11C114.648 253.865 100.282 259.09 88.5273 253.212C76.7727 247.334 71.5486 232.967 77.4268 221.21L110.078 155.25Z" fill="#92C746"/>
<path d="M222.396 35.0807L161.012 159.821L140.77 92.5523L179.297 13.5287C185.175 1.77408 199.541 -3.45168 211.295 2.42646C223.702 8.30459 228.274 22.6721 222.396 35.0807Z" fill="#92C746"/>
<path d="M130.32 222.517L161.666 159.167L194.97 268.886C198.235 281.295 191.052 295.01 178.645 298.927C166.236 302.847 152.523 295.662 148.605 283.254L130.32 222.517Z" fill="#D50F67"/>
<path d="M140.77 91.8997L109.423 155.249L80.6901 61.8566C77.4266 49.4479 84.6095 35.7345 97.0164 31.8152C109.423 28.55 123.137 35.7346 127.056 48.1432L140.77 91.8997Z" fill="#D50F67"/>
<path d="M140.77 92.5522L161.012 159.821L130.32 223.169L109.424 155.25L140.77 92.5522Z" fill="#3BA510"/>
</svg>
