<svg width="300" height="300" viewBox="0 0 300 300" fill="none" xmlns="http://www.w3.org/2000/svg">
<path d="M262.34 249.354C260.223 247.243 258.426 245.997 256.844 245.543C255.241 245.083 253.808 245.425 252.702 246.535L251.661 247.574C240.758 258.478 228.063 267.038 213.927 273.017C199.299 279.204 183.755 282.341 167.727 282.341C151.699 282.341 136.154 279.205 121.526 273.017C107.392 267.039 94.6971 258.479 83.7939 247.575C72.4348 236.216 63.8756 223.522 58.3533 209.845C52.9696 196.508 51.2109 186.477 50.6329 183.182C50.5782 182.872 50.5362 182.628 50.5025 182.452C49.7622 178.571 46.1901 178.299 41.0553 179.085C38.92 179.412 32.4231 180.405 33.0413 185.08L33.0568 185.187C34.7816 196.026 37.8145 206.615 42.0892 216.723C48.958 232.962 58.7882 247.543 71.3079 260.061C83.8276 272.582 98.4087 282.412 114.648 289.28C131.46 296.393 149.318 300 167.727 300C186.125 300 203.984 296.391 220.805 289.275C237.039 282.409 251.621 272.576 264.146 260.05C264.176 260.022 264.859 259.343 265.234 258.935C266.612 257.435 267.811 254.809 262.34 249.353V249.354ZM167.557 32.1426C149.967 32.1426 131.256 35.6938 117.509 41.64C116.04 42.2153 115.162 43.396 114.968 45.0544C114.788 46.618 115.21 48.683 116.261 51.368C117.114 53.547 119.378 59.3337 123.762 57.6616C137.831 52.2943 153.384 49.3386 167.557 49.3386C183.616 49.3386 199.19 52.4822 213.848 58.6809C225.494 63.6088 236.484 70.7247 248.432 81.0782C249.303 81.834 250.228 82.2169 251.18 82.2169C253.509 82.2169 255.743 79.9285 257.654 77.7842C260.845 74.2048 263.036 71.2298 259.892 68.2531C248.483 57.4446 235.98 49.3705 220.545 42.8435C203.761 35.743 185.933 32.1426 167.557 32.1426ZM143.577 180.868C143.598 182.855 145.417 184.598 146.504 185.64L146.846 185.97C148.709 187.802 150.484 188.732 152.121 188.732C153.477 188.732 154.312 188.091 154.608 187.816C155.429 187.053 164.714 177.644 165.601 176.746L175.957 187.068C176.916 188.149 177.958 188.69 179.172 188.723C180.825 188.723 182.628 187.74 184.529 185.801C188.997 181.238 186.761 178.777 185.679 177.588L175.187 167.092L186.13 156.072C188.529 153.474 186.411 150.715 184.297 148.601C181.227 145.532 178.267 144.74 176.368 146.489L165.488 157.388L154.485 146.382C153.916 145.829 153.151 145.522 152.358 145.528C150.891 145.528 149.157 146.52 147.2 148.475C143.817 151.859 143.091 154.197 144.852 156.063L155.859 167.036L144.917 177.997C144.017 178.896 143.566 179.861 143.577 180.868ZM73.8024 197.118C73.868 197.3 75.4216 201.597 76.3224 203.728C81.2657 215.416 88.3452 225.916 97.3639 234.934C106.376 243.946 116.877 251.025 128.576 255.972C140.685 261.096 153.546 263.693 166.801 263.693C180.054 263.693 192.915 261.094 205.027 255.971C216.721 251.025 227.222 243.946 236.238 234.93C245.254 225.916 252.332 215.414 257.28 203.72C262.402 191.609 265 178.747 265 165.493C265 152.239 262.402 139.377 257.279 127.267C252.333 115.573 245.254 105.072 236.238 96.0559C227.225 87.0417 216.723 79.9623 205.027 75.0144C192.917 69.8914 180.055 67.2939 166.801 67.2939C153.39 67.2939 139.989 69.9634 128.048 75.0144C118.502 79.0524 102.346 89.4478 92.8883 99.2022L92.8336 99.2588V18.4422L228.588 18.4413C233.529 18.3866 233.529 11.4886 233.529 9.22112C233.529 6.95459 233.529 0.05835 228.574 0.000911718L81.7854 0C77.7893 0 75.3158 3.32413 75.3158 6.40391V120.157C75.3158 123.827 79.8872 126.477 84.1349 127.385C92.4297 129.157 94.3461 126.505 96.3774 123.7L96.6473 123.328C99.748 118.72 109.441 108.967 109.537 108.869C124.663 93.7438 144.885 85.4152 166.481 85.4152C187.974 85.4152 208.14 93.7447 223.265 108.869C238.44 124.047 246.799 144.155 246.799 165.493C246.799 186.909 238.484 207.017 223.385 222.116C208.479 237.022 187.655 245.57 166.254 245.57C151.76 245.57 137.768 241.708 125.782 234.399L125.832 165.233C125.832 156.01 129.835 145.984 136.539 138.413C144.203 129.758 154.766 124.992 166.281 124.992C177.434 124.992 187.848 129.225 195.61 136.914C203.315 144.547 207.558 154.716 207.558 165.549C207.558 188.663 189.383 206.768 166.181 206.768C161.708 206.768 153.577 204.792 153.242 204.71C148.558 203.315 146.565 209.819 145.908 211.963C143.387 220.207 147.177 221.842 147.962 222.086C155.429 224.403 160.324 224.842 166.747 224.842C199.501 224.842 226.149 198.182 226.149 165.412C226.149 132.906 199.517 106.459 166.783 106.459C150.753 106.459 135.693 112.586 124.38 123.713C113.606 134.31 107.426 148.439 107.426 162.474L107.42 162.822C107.367 164.572 107.334 206.036 107.324 219.644L107.262 219.576C101.106 212.759 95.0208 202.323 90.9855 191.662C89.4046 187.484 85.8316 188.223 80.9566 189.725C78.8278 190.381 72.35 192.376 73.7814 197.06L73.8024 197.118Z" fill="#0A0A08"/>
</svg>
