<svg width="300" height="300" viewBox="0 0 300 300" fill="none" xmlns="http://www.w3.org/2000/svg">
<path d="M263.263 242.205C141.823 300 66.4567 251.645 18.2121 222.275C15.2267 220.424 10.1526 222.707 14.5551 227.764C30.6278 247.253 83.3014 294.225 152.056 294.225C220.857 294.225 261.788 256.684 266.908 250.135C271.994 243.642 268.402 240.06 263.262 242.205H263.263ZM297.369 223.37C294.108 219.123 277.539 218.331 267.111 219.612C256.668 220.856 240.992 227.239 242.355 231.071C243.054 232.507 244.482 231.863 251.656 231.218C258.85 230.5 279.003 227.957 283.202 233.446C287.421 238.974 276.775 265.305 274.83 269.552C272.952 273.799 275.548 274.894 279.077 272.066C282.557 269.238 288.858 261.916 293.086 251.555C297.286 241.136 299.848 226.603 297.369 223.37Z" fill="#FF9900"/>
<path d="M263.263 242.205C141.823 300 66.4567 251.645 18.2121 222.275C15.2267 220.424 10.1526 222.707 14.5551 227.764C30.6278 247.253 83.3014 294.225 152.056 294.225C220.857 294.225 261.788 256.684 266.908 250.135C271.994 243.642 268.402 240.06 263.262 242.205H263.263ZM297.369 223.37C294.108 219.123 277.539 218.331 267.111 219.612C256.668 220.856 240.992 227.239 242.355 231.071C243.054 232.507 244.482 231.863 251.656 231.218C258.85 230.5 279.003 227.957 283.202 233.446C287.421 238.974 276.775 265.305 274.83 269.552C272.952 273.799 275.548 274.894 279.077 272.066C282.557 269.238 288.858 261.916 293.086 251.555C297.286 241.136 299.848 226.603 297.369 223.37Z" fill="#FF9900"/>
<path fill-rule="evenodd" clip-rule="evenodd" d="M181.609 124.275C181.609 139.439 181.992 152.086 174.327 165.553C168.14 176.503 158.341 183.236 147.392 183.236C132.445 183.236 123.741 171.849 123.741 155.042C123.741 121.865 153.467 115.844 181.609 115.844V124.275ZM220.861 219.151C218.288 221.449 214.565 221.614 211.664 220.081C198.744 209.351 196.444 204.369 189.327 194.131C167.976 215.921 152.866 222.435 125.165 222.435C92.4263 222.435 66.9141 202.233 66.9141 161.776C66.9141 130.188 84.0507 108.672 108.411 98.1613C129.544 88.8533 159.053 87.2112 181.609 84.6389V79.6018C181.609 70.3492 182.319 59.4002 176.9 51.4077C172.137 44.2357 163.049 41.2792 155.055 41.2792C140.22 41.2792 126.971 48.8885 123.741 64.6554C123.083 68.16 120.511 71.6093 117.007 71.7732L79.2317 67.7227C76.0571 67.0095 72.5536 64.4373 73.4295 59.564C82.134 13.797 123.466 0 160.474 0C179.417 0 204.162 5.03714 219.108 19.3812C238.051 37.0636 236.244 60.6591 236.244 86.3353V146.994C236.244 165.225 243.799 173.218 250.916 183.073C253.434 186.576 253.982 190.793 250.806 193.419C242.868 200.043 228.743 212.362 220.97 219.26L220.86 219.151" fill="black"/>
</svg>
