<svg width="300" height="300" viewBox="0 0 300 300" fill="none" xmlns="http://www.w3.org/2000/svg">
<g clip-path="url(#clip0_2002_10191)">
<path d="M234.445 158.011C234.312 133.511 245.393 115.02 267.823 101.402C255.273 83.4446 236.315 73.5648 211.281 71.6288C187.583 69.7597 161.682 85.4473 152.202 85.4473C142.189 85.4473 119.225 72.2964 101.201 72.2964C63.9514 72.8972 24.3652 102.003 24.3652 161.215C24.3652 178.705 27.5695 196.773 33.9781 215.421C42.5228 239.92 73.3639 300 105.54 298.999C122.363 298.598 134.245 287.049 156.141 287.049C177.369 287.049 188.384 298.999 207.142 298.999C239.586 298.531 267.489 243.925 275.634 219.359C232.109 198.865 234.445 159.279 234.445 158.011ZM196.662 48.3979C214.886 26.769 213.217 7.0761 212.683 0C196.595 0.934579 177.97 10.9479 167.356 23.2977C155.674 36.5154 148.798 52.8705 150.266 71.2951C167.69 72.6302 183.578 63.6849 196.662 48.3979Z" fill="black"/>
</g>
<defs>
<clipPath id="clip0_2002_10191">
<rect width="300" height="300" fill="white"/>
</clipPath>
</defs>
</svg>
