<svg width="300" height="300" viewBox="0 0 300 300" fill="none" xmlns="http://www.w3.org/2000/svg">
<path d="M234.758 157.801C198.72 157.801 169.51 187.011 169.51 223.043C169.51 259.078 198.72 288.294 234.758 288.294C270.791 288.294 300 259.078 300 223.043C300 187.011 270.791 157.801 234.758 157.801ZM65.2448 157.804C29.2125 157.807 0 187.011 0 223.046C0 259.078 29.2125 288.291 65.2448 288.291C101.28 288.291 130.493 259.078 130.493 223.046C130.493 187.01 101.28 157.804 65.2417 157.804H65.2448ZM215.245 76.2449C215.245 112.277 186.036 141.496 150.003 141.496C113.965 141.496 84.7553 112.277 84.7553 76.2449C84.7553 40.2125 113.965 11 150.003 11C186.035 11 215.242 40.2125 215.242 76.2449H215.245Z" fill="url(#paint0_radial_2023_2915)"/>
<defs>
<radialGradient id="paint0_radial_2023_2915" cx="0" cy="0" r="1" gradientUnits="userSpaceOnUse" gradientTransform="translate(150.041 162.72) scale(198.9 183.846)">
<stop stop-color="#FFB900"/>
<stop offset="0.6" stop-color="#F95D8F"/>
<stop offset="0.999" stop-color="#F95353"/>
</radialGradient>
</defs>
</svg>
