<svg width="300" height="300" viewBox="0 0 300 300" fill="none" xmlns="http://www.w3.org/2000/svg">
<g clip-path="url(#clip0_2002_10198)">
<path d="M88.901 138.656C87.5244 136.859 85.492 135.68 83.2484 135.378C81.0049 135.075 78.7329 135.674 76.9298 137.043C75.869 137.88 75.0134 138.947 74.4281 140.165L0.92633 287.21C-0.114705 289.294 -0.285699 291.706 0.450934 293.916C1.18757 296.126 2.77154 297.953 4.85469 298.995C6.07234 299.611 7.41851 299.93 8.78306 299.925H111.189C112.83 299.967 114.446 299.53 115.842 298.667C117.237 297.804 118.351 296.553 119.046 295.067C141.148 249.415 127.75 180.007 88.901 138.656Z" fill="url(#paint0_linear_2002_10198)"/>
<path d="M142.926 4.84329C124.603 33.0396 113.925 65.5149 111.938 99.0832C109.952 132.651 116.726 166.16 131.596 196.32L180.97 295.067C181.699 296.526 182.82 297.754 184.208 298.612C185.596 299.47 187.195 299.925 188.826 299.925H291.212C292.367 299.928 293.51 299.703 294.578 299.262C295.645 298.821 296.615 298.174 297.431 297.358C298.248 296.541 298.895 295.572 299.336 294.504C299.776 293.437 300.002 292.293 299.999 291.138C300 289.776 299.689 288.433 299.089 287.21L157.875 4.80194C157.205 3.38683 156.146 2.19107 154.823 1.35373C153.5 0.516387 151.967 0.0718689 150.401 0.0718689C148.835 0.0718689 147.301 0.516387 145.978 1.35373C144.655 2.19107 143.597 3.38683 142.926 4.80194V4.84329Z" fill="#2684FF"/>
</g>
<defs>
<linearGradient id="paint0_linear_2002_10198" x1="129.363" y1="161.13" x2="51.747" y2="295.563" gradientUnits="userSpaceOnUse">
<stop stop-color="#0052CC"/>
<stop offset="0.92" stop-color="#2684FF"/>
</linearGradient>
<clipPath id="clip0_2002_10198">
<rect width="300" height="300" fill="white"/>
</clipPath>
</defs>
</svg>
