<svg width="300" height="300" viewBox="0 0 300 300" fill="none" xmlns="http://www.w3.org/2000/svg">
<path d="M228.648 242.435L198.617 149.995L277.231 92.8803H180.054L150.02 0.442697L150.011 0.41761H247.202L277.244 92.8699L277.246 92.8678L277.271 92.8542C294.717 146.488 276.749 207.492 228.648 242.434V242.435ZM71.3834 242.435L71.3594 242.453L149.995 299.583L228.648 242.437L150.02 185.305L71.3834 242.435ZM22.7824 92.8563C4.41651 149.394 25.7353 209.302 71.3688 242.447L71.3761 242.417L101.413 149.983L22.8148 92.8782H119.969L150.004 0.441652L150.011 0.416565H52.8137L22.7824 92.8563Z" fill="#EB5424"/>
</svg>
