<svg width="300" height="300" viewBox="0 0 300 300" fill="none" xmlns="http://www.w3.org/2000/svg">
<path d="M100.014 8.58202H188.786L96.6315 281.787C96.1603 283.183 95.4745 284.496 94.5989 285.68C93.7251 286.865 92.6713 287.904 91.475 288.763C90.2786 289.622 88.9585 290.289 87.5559 290.739C86.1534 291.189 84.6908 291.422 83.2207 291.422H14.1336C11.891 291.422 9.67836 290.889 7.68323 289.862C5.68598 288.837 3.96192 287.351 2.65415 285.526C1.34552 283.702 0.489427 281.593 0.156484 279.372C-0.177288 277.152 0.0252253 274.883 0.741522 272.757L86.5996 18.2089C87.0684 16.8138 87.7547 15.5012 88.6323 14.3161C89.5061 13.1311 90.5636 12.0923 91.7562 11.2334C92.9525 10.3746 94.2726 9.7071 95.6752 9.25707C97.0778 8.80704 98.5404 8.57452 100.011 8.57452V8.57827L100.014 8.58202Z" fill="url(#paint0_linear_2002_10203)"/>
<path d="M263.66 291.422H183.948C183.059 291.422 182.171 291.339 181.293 291.17C180.419 291.005 179.56 290.758 178.732 290.432C177.903 290.105 177.108 289.7 176.354 289.228C175.601 288.752 174.894 288.207 174.243 287.6L83.7867 203.122C82.83 202.229 82.1636 201.069 81.8741 199.792C81.5848 198.515 81.6866 197.181 82.1662 195.963C82.6457 194.745 83.4809 193.7 84.563 192.963C85.6468 192.228 86.9256 191.834 88.2345 191.834H229.004L263.652 291.425L263.66 291.422Z" fill="#0078D4"/>
<path d="M189.105 8.58202L126.964 191.853L228.498 191.83L263.327 291.422H183.915C183.094 291.414 182.272 291.339 181.462 291.193C180.652 291.047 179.857 290.833 179.085 290.548C177.536 289.984 176.095 289.158 174.824 288.107L113.763 231.118L96.6693 281.529C96.2268 282.789 95.6193 283.985 94.8617 285.084C93.3434 287.294 91.2666 289.063 88.8426 290.21C87.6357 290.781 86.3581 291.189 85.0436 291.422H14.1752C11.91 291.429 9.6749 290.889 7.66101 289.847C5.64682 288.805 3.91304 287.294 2.60622 285.441C1.29939 283.587 0.457952 281.447 0.153022 279.2C-0.150805 276.952 0.0897049 274.664 0.854318 272.528L86.5737 18.4002C87.02 16.9788 87.6913 15.64 88.5613 14.4324C89.4276 13.2248 90.4852 12.1598 91.6853 11.2822C92.8853 10.4046 94.2204 9.7221 95.6343 9.26457C97.0481 8.80704 98.5295 8.57452 100.018 8.58202H189.109H189.105Z" fill="url(#paint1_linear_2002_10203)"/>
<path d="M299.258 272.757C299.975 274.884 300.176 277.152 299.847 279.372C299.514 281.592 298.659 283.701 297.353 285.526C296.045 287.35 294.321 288.835 292.325 289.861C290.329 290.886 288.117 291.421 285.873 291.422H186.934C189.177 291.422 191.39 290.885 193.389 289.862C195.384 288.838 197.109 287.349 198.418 285.526C199.727 283.704 200.582 281.592 200.915 279.372C201.249 277.152 201.047 274.883 200.33 272.757L114.468 18.2014C113.523 15.3973 111.722 12.9603 109.319 11.2335C108.127 10.3746 106.807 9.71086 105.408 9.26083C104.009 8.8108 102.546 8.58203 101.08 8.58203H200.015C201.485 8.58203 202.944 8.8108 204.347 9.26083C205.746 9.71086 207.066 10.3784 208.262 11.2335C209.455 12.0923 210.508 13.1311 211.382 14.3124C212.256 15.4937 212.939 16.8063 213.411 18.2014L299.273 272.757H299.258Z" fill="url(#paint2_linear_2002_10203)"/>
<defs>
<linearGradient id="paint0_linear_2002_10203" x1="132.413" y1="29.5459" x2="40.1566" y2="302.076" gradientUnits="userSpaceOnUse">
<stop stop-color="#114A8B"/>
<stop offset="1" stop-color="#0669BC"/>
</linearGradient>
<linearGradient id="paint1_linear_2002_10203" x1="161.177" y1="156.529" x2="139.838" y2="163.767" gradientUnits="userSpaceOnUse">
<stop stop-opacity="0.3"/>
<stop offset="0.1" stop-opacity="0.2"/>
<stop offset="0.3" stop-opacity="0.1"/>
<stop offset="0.6" stop-opacity="0.1"/>
<stop offset="1" stop-opacity="0"/>
</linearGradient>
<linearGradient id="paint2_linear_2002_10203" x1="149.402" y1="21.5954" x2="250.659" y2="291.351" gradientUnits="userSpaceOnUse">
<stop stop-color="#3CCBF4"/>
<stop offset="1" stop-color="#2892DF"/>
</linearGradient>
</defs>
</svg>
