<svg width="300" height="300" viewBox="0 0 300 300" fill="none" xmlns="http://www.w3.org/2000/svg">
<path d="M35.1191 128.628C53.3604 77.108 88.1708 17.2344 158.419 17.2344C228.667 17.2344 263.407 109.621 267.793 172.28" stroke="#1D2D35" stroke-width="25" stroke-linecap="round" stroke-linejoin="round"/>
<path opacity="0.4" d="M295.852 207.369L86.5707 293.561L4 93.191L41.7345 77.5957L213.282 7L295.852 207.369Z" fill="#FFE000"/>
<path d="M286.035 230.066L64.431 275.877L20.5 63.6018L57.7479 55.8741L242.174 17.7913L286.035 230.066Z" fill="#FFE000"/>
<path d="M158.421 17.0948C228.669 17.0948 263.41 109.621 267.796 172.28C249.346 204.306 205.137 216.35 158.421 216.35C139.466 216.699 120.659 212.94 103.293 205.333C85.9277 197.726 70.4142 186.45 57.8184 172.28C57.8184 172.28 79.8187 112.894 100.357 112.754C115.396 112.754 128.206 140.603 140.25 140.603C152.295 140.603 177.289 87.1336 177.289 87.1336" stroke="#1D2D35" stroke-width="25" stroke-linecap="round" stroke-linejoin="round"/>
</svg>
