<svg width="300" height="300" viewBox="0 0 300 300" fill="none" xmlns="http://www.w3.org/2000/svg">
<path d="M150.001 0.0970154C78.5581 0.0970154 19.873 19.2337 19.873 43.4733C19.873 49.8522 35.1818 140.432 41.5607 176.153C44.1126 192.738 86.2129 215.701 150.001 215.701C213.79 215.701 254.614 192.738 258.441 176.153C264.82 140.432 280.129 49.8522 280.129 43.4733C278.854 19.2337 221.444 0.0970154 150.001 0.0970154ZM150.001 186.359C127.037 186.359 109.177 168.498 109.177 145.535C109.177 122.571 127.037 104.71 150.001 104.71C172.964 104.71 190.825 122.571 190.825 145.535C190.825 167.222 172.964 186.359 150.001 186.359ZM150.001 56.2311C104.074 56.2311 67.0762 48.5752 67.0762 38.3704C67.0762 28.1635 104.074 20.5097 150.001 20.5097C195.928 20.5097 232.925 28.1635 232.925 38.3704C232.925 48.5762 195.928 56.2311 150.001 56.2311Z" fill="#205081"/>
<path d="M244.158 210.598C241.606 210.598 240.331 211.874 240.331 211.874C240.331 211.874 208.436 237.39 151.027 237.39C93.6173 237.39 61.7238 211.874 61.7238 211.874C61.7238 211.874 59.1719 210.598 57.8959 210.598C55.3439 210.598 52.793 211.874 52.793 215.702V216.977C57.8969 243.768 61.7238 262.905 61.7238 265.457C65.5508 284.593 103.824 299.903 149.751 299.903C195.679 299.903 233.952 284.593 237.779 265.457C237.779 262.905 241.607 243.768 246.71 216.977V215.701C247.986 213.149 246.71 210.598 244.158 210.598Z" fill="#205081"/>
<path d="M150.001 164.671C161.274 164.671 170.413 155.532 170.413 144.259C170.413 132.985 161.274 123.846 150.001 123.846C138.727 123.846 129.588 132.985 129.588 144.259C129.588 155.532 138.727 164.671 150.001 164.671Z" fill="#205081"/>
</svg>
