<svg width="300" height="300" viewBox="0 0 300 300" fill="none" xmlns="http://www.w3.org/2000/svg">
<path d="M159.667 1.98529C203.224 22.1895 247.495 43.0544 290.991 63.3845C293.312 64.47 296.356 65.2086 296.359 68.4948C296.364 71.7868 293.325 72.5197 290.998 73.6063C247.332 94.0381 203.649 114.434 159.949 134.794C153.291 137.893 146.456 137.853 139.79 134.747C96.007 114.333 52.236 93.893 8.47734 73.4265C6.22505 72.3731 3.39108 71.5761 3.47925 68.3735C3.56169 65.3769 6.27314 64.5983 8.43955 63.5849C52.3827 43.0521 96.7712 22.1964 140.772 1.78949C145.423 -0.364329 154.821 -0.216619 159.667 1.98529ZM149.863 299.749C146.695 299.749 144.321 298.547 139.794 296.852C96.0705 276.571 52.401 256.173 8.73497 235.769C6.41398 234.685 3.40825 233.919 3.43573 230.612C3.46436 227.322 6.47237 226.596 8.79451 225.492C16.0369 222.048 23.317 218.681 30.5938 215.309C37.8647 211.939 45.0865 211.986 52.3781 215.404C81.3247 228.973 110.301 242.473 139.259 256.013C146.45 259.375 153.579 259.305 160.761 255.941C189.801 242.346 218.85 228.769 247.907 215.209C254.768 212.006 261.72 211.917 268.613 215.04C276.365 218.552 284.059 222.19 291.759 225.809C292.9 226.346 294.058 226.952 295.014 227.756C297.072 229.491 297.099 231.839 294.999 233.521C293.722 234.544 292.195 235.296 290.697 235.994C247.384 256.232 204.076 276.481 160.704 296.592C157.333 298.154 153.033 299.749 149.863 299.749ZM149.71 218.654C148.261 218.654 142.633 217.117 139.43 215.63C95.8861 195.409 52.401 175.061 8.91245 154.724C6.57657 153.632 3.53077 152.927 3.47009 149.672C3.40596 146.22 6.59375 145.53 8.99833 144.386C16.322 140.899 23.6663 137.451 31.0369 134.064C38.0262 130.854 45.027 130.929 52.0105 134.19C81.2491 147.848 110.488 161.509 139.747 175.121C146.52 178.272 153.398 178.247 160.177 175.092C189.52 161.428 218.844 147.722 248.184 134.049C254.967 130.888 261.822 130.889 268.609 133.988C276.345 137.517 284.033 141.152 291.729 144.767C292.786 145.264 293.87 145.788 294.775 146.507C297.111 148.362 297.091 150.812 294.729 152.668C293.82 153.383 292.74 153.911 291.683 154.406C247.748 174.944 203.822 195.501 159.834 215.923C156.811 217.328 151.157 218.654 149.71 218.654Z" fill="black"/>
</svg>
