<svg width="300" height="300" viewBox="0 0 300 300" fill="none" xmlns="http://www.w3.org/2000/svg">
<path d="M231.022 58.2552L256.879 51.597L257.072 51.8809L257.725 208.008L256.879 208.857L251.551 209.085L231.325 205.936L231.022 205.14V58.2552ZM81.4766 219.703L81.5719 219.71L149.826 239.543L150 239.677L150.297 239.914L150.201 299.344L150 299.597L81.4766 266.308V219.703Z" fill="#7A3E65"/>
<path d="M231.022 205.14L150.112 224.516L109.489 214.711L81.4766 219.703L150 239.677L255.757 211.044L256.879 208.857L231.022 205.14Z" fill="#CFB2C1"/>
<path d="M218.524 79.8923L217.865 79.1408L150.737 59.6358L150 59.9197L149.326 59.5756L43.698 90.0341L43.1211 90.7395L43.9689 91.204L68.1244 94.7458L68.9783 94.4558L149.888 75.0803L190.511 84.8859L218.524 79.8923Z" fill="#512843"/>
<path d="M68.9774 241.341L43.1202 247.583L43.075 247.434L42.0566 91.8893L43.1202 90.7395L68.9774 94.4559V241.341Z" fill="#C17B9E"/>
<path d="M103.887 181.006L150 186.415L150.347 185.899L150.534 113.771L150 113.18L103.887 118.59V181.006Z" fill="#7A3E65"/>
<path d="M196.114 181.006L150 186.415V113.18L196.114 118.59V181.006ZM218.523 79.8923L150 59.9197V0L218.523 33.288V79.8923Z" fill="#C17B9E"/>
<path d="M150 0L21.5723 61.9997V237.596L43.1211 247.583V90.7395L150 59.9197V0Z" fill="#7A3E65"/>
<path d="M256.879 51.597V208.857L150 239.677V299.597L278.428 237.596V61.9997L256.879 51.597Z" fill="#C17B9E"/>
</svg>
