<svg width="300" height="300" viewBox="0 0 300 300" fill="none" xmlns="http://www.w3.org/2000/svg">
<path d="M16.7509 225.837C13.6595 230.871 10.1581 236.771 7.39452 241.442C6.78559 242.484 6.39916 243.643 6.2235 244.837C6.05676 246.036 6.12036 247.256 6.41087 248.431C6.69191 249.614 7.20716 250.714 7.90977 251.698C8.61238 252.681 9.50235 253.524 10.5211 254.18L72.6202 292.45C73.6858 293.117 74.892 293.562 76.1449 293.761C77.3862 293.96 78.6743 293.913 79.9039 293.609C81.1335 293.305 82.2928 292.766 83.3116 292.017C84.3303 291.268 85.1852 290.319 85.8292 289.231C88.3352 285.063 91.5087 279.666 94.9163 273.906C119.531 233.552 144.474 238.492 189.031 259.67L250.626 288.868C251.78 289.421 253.032 289.736 254.31 289.794C255.587 289.852 256.864 289.653 258.062 289.207C259.257 288.762 260.358 288.083 261.283 287.205C262.22 286.327 262.957 285.274 263.473 284.103L293.041 217.454C293.544 216.331 293.825 215.125 293.86 213.896C293.907 212.678 293.708 211.449 293.287 210.301C292.865 209.154 292.233 208.089 291.413 207.176C290.593 206.263 289.61 205.525 288.497 204.975C275.511 198.864 249.666 186.84 226.504 175.508C142.249 134.873 71.1564 137.554 16.7509 225.837Z" fill="url(#paint0_linear_97_285)"/>
<path d="M283.219 74.3355C286.345 69.3015 289.846 63.4128 292.575 58.7417C293.196 57.6764 293.605 56.4939 293.781 55.2647C293.957 54.0472 293.886 52.7945 293.582 51.6004C293.271 50.4033 292.73 49.2781 291.989 48.2873C291.25 47.2935 290.323 46.4542 289.261 45.8171L227.256 7.54666C226.178 6.87936 224.984 6.43449 223.731 6.23547C222.478 6.03645 221.201 6.09499 219.972 6.38766C218.742 6.69205 217.583 7.23057 216.564 7.97983C215.545 8.72908 214.691 9.67735 214.035 10.7661C211.587 14.9338 208.355 20.3308 204.948 26.0907C180.239 66.6323 155.531 61.6919 110.927 40.5138L49.3897 11.3046C48.2421 10.7544 47.0009 10.4266 45.7362 10.3564C44.4715 10.2744 43.195 10.4617 42.0006 10.8832C40.8062 11.3046 39.7054 11.9602 38.7686 12.8148C37.8201 13.6695 37.0706 14.6997 36.532 15.847L6.96377 82.6827C5.94757 84.9496 5.85102 87.5224 6.69444 89.8591C7.116 91.0181 7.76006 92.0834 8.57978 92.9966C9.39949 93.9097 10.3949 94.659 11.5073 95.1975C24.5407 101.32 50.3851 113.332 73.501 124.676C157.533 165.299 228.848 162.63 283.219 74.3355Z" fill="url(#paint1_linear_97_285)"/>
<defs>
<linearGradient id="paint0_linear_97_285" x1="291.05" y1="312.268" x2="103.477" y2="204.439" gradientUnits="userSpaceOnUse">
<stop stop-color="#0052CC"/>
<stop offset="0.92" stop-color="#2380FB"/>
<stop offset="1" stop-color="#2684FF"/>
</linearGradient>
<linearGradient id="paint1_linear_97_285" x1="8.91117" y1="-12.1329" x2="196.53" y2="95.6958" gradientUnits="userSpaceOnUse">
<stop stop-color="#0052CC"/>
<stop offset="0.92" stop-color="#2380FB"/>
<stop offset="1" stop-color="#2684FF"/>
</linearGradient>
</defs>
</svg>
