<svg width="300" height="300" viewBox="0 0 300 300" fill="none" xmlns="http://www.w3.org/2000/svg">
<g clip-path="url(#clip0_2023_2961)">
<path d="M175.85 141.412C153.925 141.412 137.05 159.25 137.05 180.288C137.05 202.2 153.925 218.85 177.737 218.85L177.538 218.875C197.413 218.875 214.1 202.5 214.1 180.875C214.1 158.375 197.4 141.412 175.825 141.412H175.85ZM0 0V300H300V0H0ZM258.663 260.087H213.963V242.462C200.213 255.962 186.175 260.838 167.525 260.838C148.5 260.838 132.125 254.65 118.4 242.275C100.3 226.337 90.925 205.15 90.925 180.575C90.925 158.075 99.675 137.9 116.05 122.15C130.675 107.825 148.487 100.525 168.362 100.525C187.362 100.525 201.988 106.937 212.488 120.4V51.9625L258.65 42.4V42.375L258.675 42.4125L258.65 42.4V260.087H258.663Z" fill="black"/>
</g>
<defs>
<clipPath id="clip0_2023_2961">
<rect width="300" height="300" fill="white"/>
</clipPath>
</defs>
</svg>
