<svg width="300" height="300" viewBox="0 0 300 300" fill="none" xmlns="http://www.w3.org/2000/svg">
<path d="M80.74 287.384L68.836 269.564L41.3726 272.897L12.1494 30.805L253.318 2.81213L264.085 152.005H274.236L285.003 260.9L145.346 278.742L141.962 251.056C141.757 252.389 138.702 255.486 128.12 257.209C127.628 280.095 129.245 287.378 113.181 294.018C97.117 300.658 80.74 287.384 80.74 287.384Z" fill="white" stroke="black"/>
<path d="M243.988 212.312L219.112 195.902L198.361 230.567L174.225 223.51L152.975 255.947L154.064 266.157L269.608 244.866L262.895 172.67L243.988 212.312ZM136.235 181.184L154.773 178.635C157.772 179.983 159.86 180.496 163.457 181.41C169.058 182.869 175.542 184.27 185.145 179.431C187.379 178.324 192.033 174.067 193.916 171.64L269.869 157.861L277.618 251.641L147.496 275.093L136.235 181.184ZM277.324 147.392L269.826 148.82L255.423 0L10 28.4594L40.2353 273.832L68.9621 269.663C66.6682 266.388 63.096 262.424 56.9959 257.35C48.5353 250.32 51.5277 238.382 56.5176 230.844C63.1205 218.104 97.141 201.916 95.2134 181.554C94.522 174.152 93.3453 164.513 86.4735 157.91C86.2151 160.651 86.6795 163.291 86.6795 163.291C86.6795 163.291 83.8582 159.691 82.451 154.781C81.0542 152.899 79.9578 152.298 78.4738 149.784C77.4158 152.693 77.5554 156.066 77.5554 156.066C77.5554 156.066 75.2473 150.612 74.8738 146.009C73.505 148.069 73.1594 151.984 73.1594 151.984C73.1594 151.984 70.1599 143.387 70.8442 138.756C69.4756 134.727 65.4181 126.73 66.5668 108.554C74.0568 113.803 90.5449 112.556 96.9697 103.086C99.1033 99.9503 100.563 91.388 95.9048 74.5183C92.9124 63.7002 85.5028 47.5918 82.6152 41.481L82.2694 41.7288C83.7917 46.6526 86.931 56.9748 88.1356 61.9787C91.7811 77.1582 92.7587 82.4415 91.0477 89.4395C89.5917 95.5224 86.0998 99.5033 77.2482 103.952C68.3966 108.415 56.6503 97.5548 55.9064 96.9541C47.3062 90.103 40.6544 78.9252 39.9107 73.4952C39.1389 67.5519 43.336 63.9832 45.452 59.1223C42.4246 59.9884 39.0482 61.5248 39.0482 61.5248C39.0482 61.5248 43.0776 57.3553 48.0465 53.7483C50.1031 52.3863 51.3112 51.5204 53.4797 49.7185C50.3406 49.6662 47.7916 49.7569 47.7916 49.7569C47.7916 49.7569 53.0256 46.9285 58.452 44.8682C54.4818 44.6935 50.6828 44.8402 50.6828 44.8402C50.6828 44.8402 62.3628 39.6162 71.588 35.7822C77.9325 33.1806 84.1305 33.9488 87.6119 38.9842C92.1826 45.5804 96.9838 49.1632 107.159 51.3842C113.406 48.615 115.305 47.1903 123.155 45.0532C130.065 37.4548 135.491 36.4699 135.491 36.4699C135.491 36.4699 132.799 38.9388 132.08 42.8183C135.997 39.7316 140.292 37.1544 140.292 37.1544C140.292 37.1544 138.63 39.2076 137.08 42.4692L137.44 43.0035C142.01 40.2622 147.384 38.1007 147.384 38.1007C147.384 38.1007 145.848 40.0422 144.046 42.5565C147.492 42.5285 154.483 42.7032 157.196 43.0104C173.213 43.3631 176.537 25.9033 182.683 23.7138C190.379 20.9656 193.818 19.3035 206.933 32.1854C218.188 43.2445 226.979 63.0403 222.614 67.4751C218.955 71.1557 211.735 66.0398 203.731 56.0634C199.503 50.7801 196.305 44.5364 194.805 36.5992C193.542 29.9016 188.621 26.015 188.621 26.015C188.621 26.015 191.478 32.3634 191.478 37.9715C191.478 41.034 191.862 52.4841 196.771 58.9094C196.286 59.8486 196.06 63.557 195.522 64.266C189.809 57.3624 177.543 52.4212 175.542 50.9651C182.313 56.5138 197.876 69.2594 203.854 81.4744C209.506 93.0257 206.176 103.613 209.034 106.354C209.849 107.14 221.193 121.276 223.375 128.378C227.182 140.757 223.602 153.765 218.62 161.835L204.706 164.003C202.67 163.438 201.298 163.155 199.472 162.097C200.477 160.316 202.477 155.874 202.499 154.959L201.713 153.58C197.382 159.715 190.127 165.672 184.1 169.095C176.212 173.565 167.12 172.876 161.201 171.043C144.402 165.861 128.518 154.509 124.688 151.526C124.688 151.526 124.569 153.908 125.292 154.442C129.527 159.219 139.231 167.862 148.61 173.885L128.616 176.085L138.068 249.689C133.878 250.289 133.225 250.582 128.637 251.236C124.593 236.95 116.859 227.623 108.405 222.19C100.95 217.4 90.6671 216.32 80.8238 218.269L80.1917 219.002C87.0356 218.289 95.1157 219.281 103.416 224.536C111.562 229.687 118.127 242.992 120.543 251.002C123.636 261.24 125.777 272.191 117.449 283.799C111.524 292.05 94.2253 296.61 80.2511 286.746C83.9838 292.749 89.0294 297.658 95.821 298.584C105.905 299.952 115.476 298.203 122.065 291.439C127.691 285.656 130.672 273.563 129.887 260.828L138.787 259.536L142 282.394L289.346 264.653L277.324 147.392ZM187.68 85.3156C187.267 86.2548 186.621 86.8694 187.592 89.9249L187.651 90.0995L187.806 90.494L188.21 91.409C189.959 94.9847 191.88 98.3579 195.089 100.079C195.919 99.9398 196.78 99.8455 197.67 99.8001C200.683 99.6674 202.585 100.146 203.793 100.795C203.902 100.195 203.926 99.3147 203.861 98.0192C203.626 93.4901 204.757 85.787 196.053 81.7328C192.766 80.2068 188.158 80.6782 186.621 82.5813C186.9 82.6162 187.151 82.6756 187.348 82.7419C189.67 83.5555 188.095 84.3551 187.68 85.3156ZM212.076 127.575C210.935 126.947 205.599 127.195 201.849 127.642C194.704 128.483 186.991 130.962 185.301 132.282C182.229 134.657 183.625 138.798 185.895 140.499C192.26 145.255 197.84 148.443 203.731 147.668C207.348 147.193 210.537 141.466 212.795 136.27C214.343 132.691 214.343 128.829 212.076 127.575ZM148.826 90.9237C150.841 89.0101 138.791 86.4958 129.44 92.872C122.544 97.5758 122.324 107.66 128.927 113.377C129.587 113.943 130.131 114.344 130.641 114.672C132.569 113.764 134.765 112.846 137.293 112.026C141.563 110.639 145.114 109.923 148.034 109.543C149.43 107.982 151.054 105.234 150.649 100.258C150.097 93.5076 144.982 94.5796 148.826 90.9237Z" fill="#632CA6"/>
</svg>
