<svg width="300" height="300" viewBox="0 0 300 300" fill="none" xmlns="http://www.w3.org/2000/svg">
<path d="M244.99 160.913V154.516H300.001V167.309H244.99V160.913ZM244.99 140.444V134.047H300.001V146.84H244.99V140.444ZM244.99 119.974V113.578H300.001V126.371H244.99V119.974ZM244.99 98.8657V92.4691H300.001V105.902H244.99V98.8657ZM244.99 79.0362V72H300.001V86.0725H244.99V79.0362Z" fill="#B1E3FA"/>
<path d="M122.176 160.913V154.516H177.186V167.309H122.176V160.913ZM122.176 140.443V134.047H177.186V146.84H122.176V140.443ZM122.176 119.974V113.578H177.186V126.371H122.176V119.974ZM122.176 98.8656V92.4691H177.186V105.902H122.176V98.8656Z" fill="#F7BACF"/>
<path d="M183.582 160.913V154.516H238.593V167.309H183.582V160.913ZM183.582 140.444V134.047H238.593V146.84H183.582V140.444Z" fill="#E7EE9F"/>
<path d="M61.4082 222.32V215.923H115.14V228.716H61.4082V222.32ZM61.4082 201.211V194.814H115.14V207.608H61.4082V201.211ZM61.4082 180.742V174.345H115.14V187.139H61.4082V180.742Z" fill="#FEEA3A"/>
<path d="M0 160.913V154.516H53.7313V167.309H0V160.913ZM0 140.444V134.047H53.7313V146.84H0V140.444Z" fill="#FE9D7F"/>
<path d="M245.629 222.32V215.923H299.36V228.716H245.629V222.32ZM245.629 201.211V194.814H299.36V207.608H245.629V201.211ZM245.629 180.742V174.345H299.36V187.139H245.629V180.742Z" fill="#4EC2F6"/>
<path d="M184.221 222.32V215.923H237.952V228.716H184.221V222.32ZM184.221 201.211V194.814H237.952V207.608H184.221V201.211ZM184.221 180.742V174.345H237.952V187.139H184.221V180.742Z" fill="#CCDB38"/>
<path d="M122.814 222.32V215.923H176.546V228.716H122.814V222.32ZM122.814 201.211V194.814H176.546V207.608H122.814V201.211ZM122.814 180.742V174.345H176.546V187.139H122.814V180.742Z" fill="#FE3F80"/>
<path d="M0 222.32V215.923H53.7313V228.716H0V222.32ZM0 201.211V194.814H53.7313V207.608H0V201.211ZM0 180.742V174.345H53.7313V187.139H0V180.742Z" fill="#FE3D02"/>
</svg>
