<svg width="300" height="300" viewBox="0 0 300 300" fill="none" xmlns="http://www.w3.org/2000/svg">
<g clip-path="url(#clip0_2023_2853)">
<path d="M149.505 300V241.731C211.356 241.731 259.163 180.511 235.559 115.498C226.809 91.4212 207.606 72.2083 183.519 63.4685C118.506 39.8752 57.3173 87.6815 57.3068 149.511L57.2963 149.533H-0.972656C-0.972656 50.9995 94.2199 -25.7154 197.459 6.52313C242.576 20.5993 278.428 56.4514 292.515 101.569C324.753 204.818 248.028 300 149.505 300Z" fill="#0069FF"/>
<path fill-rule="evenodd" clip-rule="evenodd" d="M149.64 241.876H91.5391V183.786L91.5496 183.775H149.629L149.64 183.786V241.876Z" fill="#0069FF"/>
<path fill-rule="evenodd" clip-rule="evenodd" d="M91.5253 286.515H46.8914L46.8809 286.504V241.87H91.5358V286.504L91.5253 286.515Z" fill="#0069FF"/>
<path fill-rule="evenodd" clip-rule="evenodd" d="M46.9168 241.876H9.49952L9.47852 241.865V204.469L9.49952 204.438H46.8958L46.9168 204.448V241.876Z" fill="#0069FF"/>
</g>
<defs>
<clipPath id="clip0_2023_2853">
<rect width="300" height="300" fill="white"/>
</clipPath>
</defs>
</svg>
