<svg width="300" height="300" viewBox="0 0 300 300" fill="none" xmlns="http://www.w3.org/2000/svg">
<g clip-path="url(#clip0_2023_2853)">
<path d="M149.506 300V241.731C211.357 241.731 259.164 180.511 235.56 115.498C226.81 91.4212 207.607 72.2083 183.52 63.4685C118.507 39.8752 57.3182 87.6815 57.3077 149.511L57.2972 149.532H-0.97168C-0.97168 50.9995 94.2208 -25.7154 197.46 6.52313C242.577 20.5993 278.429 56.4514 292.516 101.569C324.754 204.818 248.029 300 149.506 300Z" fill="#0069FF"/>
<path fill-rule="evenodd" clip-rule="evenodd" d="M149.642 241.876H91.541V183.786L91.5515 183.775H149.631L149.642 183.786V241.876Z" fill="#0069FF"/>
<path fill-rule="evenodd" clip-rule="evenodd" d="M91.5253 286.515H46.8914L46.8809 286.504V241.87H91.5358V286.504L91.5253 286.515Z" fill="#0069FF"/>
<path fill-rule="evenodd" clip-rule="evenodd" d="M46.9168 241.876H9.49952L9.47852 241.865V204.469L9.49952 204.438H46.8958L46.9168 204.448V241.876Z" fill="#0069FF"/>
</g>
<defs>
<clipPath id="clip0_2023_2853">
<rect width="300" height="300" fill="white"/>
</clipPath>
</defs>
</svg>
