<svg width="300" height="300" viewBox="0 0 300 300" fill="none" xmlns="http://www.w3.org/2000/svg">
<g clip-path="url(#clip0_2023_2022)">
<path d="M21.7775 149.775C21.7775 78.9225 79.4025 21.2975 150.225 21.2975C173.022 21.2975 194.44 27.2975 213.039 37.7663L223.207 19.1675C202.21 7.35003 178.092 0.450029 152.385 0.0300293H149.955C67.6138 0.180029 0.9 66.3838 0 148.575V150.015C0.09 193.001 18.2088 231.696 47.185 259.024L62.0037 243.006C37.2562 219.578 21.7775 186.431 21.7775 149.775ZM254.525 42.5663L240.096 58.0738C263.884 81.4113 278.702 113.869 278.702 149.775C278.702 220.598 221.078 278.223 150.255 278.223C127.968 278.223 106.999 272.523 88.73 262.504L78.0525 281.521C99.41 293.251 123.918 299.94 149.985 299.97C232.806 299.97 300 232.808 300 149.985C299.94 107.839 282.512 69.8025 254.525 42.5663ZM24.5375 149.775C24.5375 185.651 39.6863 218.049 63.8625 240.966L78.6225 225.008C58.735 206.05 46.285 179.353 46.285 149.775C46.285 92.45 92.9012 45.835 150.225 45.835C168.762 45.835 186.163 50.725 201.25 59.2738L211.689 40.1963C193.513 29.9375 172.542 24.0875 150.225 24.0875C80.9325 24.0575 24.5375 80.4525 24.5375 149.775ZM254.165 149.775C254.165 207.1 207.549 253.715 150.225 253.715C132.316 253.715 115.429 249.155 100.7 241.146L90.05 260.104C107.929 269.883 128.447 275.463 150.225 275.463C219.517 275.463 275.912 219.068 275.912 149.775C275.912 114.679 261.454 82.9413 238.206 60.1138L223.419 76.0425C242.406 94.88 254.165 120.948 254.165 149.775ZM229.807 149.775C229.807 193.661 194.11 229.328 150.255 229.328C137.137 229.343 124.22 226.095 112.669 219.878L102.08 238.715C116.417 246.515 132.826 250.925 150.255 250.925C206.05 250.925 251.435 205.54 251.435 149.745C251.435 121.758 240.006 96.38 221.557 78.0225L206.829 93.86C221.018 108.26 229.807 127.998 229.807 149.775ZM49.075 149.775C49.075 178.543 61.1638 204.55 80.5125 222.998L95.18 207.129C80.0925 192.641 70.6725 172.304 70.6725 149.775C70.6725 105.89 106.369 70.2225 150.225 70.2225C164.504 70.2225 177.913 74.0325 189.521 80.6625L199.9 61.7038C185.201 53.395 168.254 48.595 150.225 48.595C94.46 48.595 49.075 93.98 49.075 149.775ZM205.69 149.775C205.69 180.403 180.852 205.24 150.225 205.24C141.247 205.246 132.402 203.063 124.458 198.88L114.019 217.479C125.151 223.454 137.591 226.577 150.225 226.566C192.581 226.566 227.017 192.131 227.017 149.775C227.017 128.808 218.559 109.789 204.91 95.93L190.391 111.559C199.84 121.518 205.69 134.956 205.69 149.775ZM73.4325 149.775C73.4325 171.493 82.4912 191.111 97.04 205.09L111.5 189.461L111.68 189.641C101.241 179.563 94.7312 165.434 94.7312 149.805C94.7312 119.178 119.539 94.34 150.196 94.34C160.305 94.34 169.754 97.07 177.914 101.81L188.172 83.0913C176.612 76.4703 163.518 72.9952 150.196 73.0125C107.9 72.9525 73.4325 107.419 73.4325 149.775ZM156.945 149.775C156.945 153.465 153.915 156.464 150.225 156.464C146.535 156.464 143.506 153.464 143.506 149.775C143.506 146.055 146.506 143.056 150.225 143.056C153.915 143.056 156.945 146.056 156.945 149.775ZM107.689 149.775C107.689 126.288 126.738 107.239 150.195 107.239C173.683 107.239 192.701 126.258 192.701 149.775C192.701 173.263 173.653 192.281 150.195 192.281C126.738 192.281 107.689 173.263 107.689 149.775ZM109.549 149.775C109.609 172.243 127.758 190.391 150.195 190.421C172.633 190.421 190.87 172.213 190.87 149.775C190.841 127.308 172.663 109.129 150.195 109.1C127.758 109.1 109.549 127.308 109.549 149.775Z" fill="black"/>
</g>
<defs>
<clipPath id="clip0_2023_2022">
<rect width="300" height="300" fill="white"/>
</clipPath>
</defs>
</svg>
