<svg width="300" height="300" viewBox="0 0 300 300" fill="none" xmlns="http://www.w3.org/2000/svg">
<path d="M250.352 0H49.6479C32.722 0 18.9414 13.7795 18.9414 30.855V233.358C18.9414 250.433 32.7209 264.213 49.6469 264.213H219.498L211.559 236.503L230.731 254.327L248.854 271.103L281.057 299.561V30.855C281.057 13.7795 267.278 0 250.352 0ZM192.537 195.614C192.537 195.614 187.145 189.173 182.651 183.481C202.273 177.939 209.762 165.657 209.762 165.657C203.621 169.702 197.779 172.548 192.537 174.494C185.048 177.64 177.858 179.736 170.819 180.935C156.44 183.631 143.259 182.882 132.026 180.785C123.488 179.137 116.149 176.741 110.008 174.345C106.563 172.997 102.819 171.349 99.0731 169.252C98.6247 168.952 98.1752 168.803 97.7257 168.503C97.4267 168.353 97.2762 168.204 97.1267 168.054C94.4308 166.556 92.9329 165.508 92.9329 165.508C92.9329 165.508 100.123 177.49 119.144 183.181C114.652 188.874 109.109 195.613 109.109 195.613C76.0069 194.565 63.4264 172.847 63.4264 172.847C63.4264 124.618 84.9946 85.5246 84.9946 85.5246C106.563 69.3481 127.083 69.7976 127.083 69.7976L128.581 71.5956C101.621 79.3823 89.1885 91.2164 89.1885 91.2164C89.1885 91.2164 92.4834 89.4195 98.0247 86.873C114.052 79.8328 126.784 77.8864 132.026 77.4369C132.924 77.2864 133.673 77.1369 134.572 77.1369C144.61 75.8293 154.767 75.7289 164.828 76.8379C179.056 78.4853 194.335 82.6792 209.911 91.2164C209.911 91.2164 198.079 79.9833 172.616 72.1945L174.713 69.7986C174.713 69.7986 195.233 69.3481 216.801 85.5256C216.801 85.5256 238.37 124.618 238.37 172.847C238.37 172.847 225.638 194.565 192.537 195.613V195.614ZM122.889 125.666C114.352 125.666 107.612 133.155 107.612 142.291C107.612 151.428 114.501 158.917 122.889 158.917C131.427 158.917 138.166 151.428 138.166 142.291C138.317 133.155 131.426 125.666 122.889 125.666ZM177.559 125.666C169.021 125.666 162.281 133.155 162.281 142.291C162.281 151.428 169.172 158.917 177.559 158.917C186.097 158.917 192.836 151.428 192.836 142.291C192.836 133.155 186.097 125.666 177.559 125.666Z" fill="#7289DA"/>
</svg>
