<svg width="300" height="300" viewBox="0 0 300 300" fill="none" xmlns="http://www.w3.org/2000/svg">
<path d="M49.5746 58.107H77.7477C79.361 58.107 80.6584 56.793 80.6615 55.1921C80.6615 55.1817 80.3197 31.0513 80.3197 24.341V24.2613C80.3197 18.7501 81.4765 13.9452 83.4911 9.91857L84.4539 8.11027C84.33 8.13357 84.2169 8.19612 84.1313 8.28867L29.4264 62.5364C29.3261 62.6187 29.2545 62.7306 29.2216 62.856C30.353 62.296 31.9002 61.5307 32.1189 61.4345C36.8829 59.2849 42.6594 58.107 49.5746 58.107ZM268.653 52.2001C266.416 40.2283 259.298 34.3282 252.863 32.0085C245.92 29.499 231.842 26.8996 214.153 24.8146C199.922 23.1387 183.195 23.2721 173.092 23.5844C171.879 15.2788 166.054 7.69091 159.535 5.06405C142.167 -1.92661 115.333 -0.237765 108.443 1.69308C102.969 3.22317 96.9088 6.35886 93.5362 11.1911C91.2744 14.4189 89.8111 18.5541 89.7997 24.3311C89.7997 27.6007 89.8907 35.3029 89.9739 42.1462C90.0567 49.0107 90.1467 55.1502 90.1467 55.1921C90.1436 61.3037 85.1903 66.2776 79.0518 66.2854H50.8927C44.8861 66.2854 40.2968 67.2948 36.7909 68.8874C33.2798 70.4817 30.7931 72.6307 28.9036 75.1733C25.1427 80.2222 24.4896 86.4528 24.5051 92.811C24.5051 92.811 24.5605 98.0068 25.8124 108.063C26.8533 115.845 35.2918 170.203 43.3068 186.736C46.4146 193.167 48.4846 195.846 54.5899 198.682C68.1932 204.506 99.2652 210.986 113.828 212.841C128.365 214.701 137.489 218.611 142.926 207.21C142.944 207.181 144.014 204.374 145.488 200.255C150.209 185.95 150.865 173.258 150.865 164.073C150.865 163.139 152.235 163.097 152.235 164.073C152.235 170.557 150.996 193.504 168.33 199.66C175.173 202.086 189.369 204.25 203.792 205.94C216.834 207.438 226.298 212.571 226.298 246.03C226.298 266.386 222.022 269.178 199.67 269.178C181.551 269.178 174.645 269.647 174.645 255.252C174.645 243.618 186.151 244.837 194.679 244.837C198.488 244.837 195.724 242.004 195.724 234.826C195.724 227.686 200.189 223.559 195.966 223.454C166.477 222.643 149.125 223.421 149.125 260.301C149.125 293.781 161.938 299.998 203.791 299.998C236.607 299.998 248.174 298.924 261.723 256.882C264.406 248.583 270.89 223.255 274.813 180.729C277.296 153.84 272.476 72.6834 268.653 52.2001ZM211.45 141.904C207.396 141.762 203.496 142.018 199.86 142.602C200.883 134.338 204.295 124.196 216.379 124.621C229.757 125.081 231.631 137.725 231.679 146.289C226.038 143.774 219.055 142.171 211.45 141.904Z" fill="#807F83"/>
</svg>
