<svg width="300" height="300" viewBox="0 0 300 300" fill="none" xmlns="http://www.w3.org/2000/svg">
<path d="M49.5756 58.107H77.7486C79.362 58.107 80.6594 56.793 80.6625 55.1921C80.6625 55.1817 80.3207 31.0513 80.3207 24.341V24.2613C80.3207 18.7501 81.4774 13.9452 83.4921 9.91857L84.4549 8.11027C84.331 8.13357 84.2179 8.19612 84.1322 8.28867L29.4274 62.5364C29.3271 62.6187 29.2555 62.7306 29.2226 62.856C30.354 62.296 31.9011 61.5307 32.1199 61.4345C36.8839 59.2849 42.6604 58.107 49.5756 58.107ZM268.654 52.2001C266.417 40.2283 259.299 34.3282 252.864 32.0085C245.921 29.499 231.843 26.8996 214.154 24.8146C199.923 23.1387 183.196 23.2721 173.093 23.5844C171.88 15.2788 166.055 7.69091 159.536 5.06405C142.168 -1.92661 115.334 -0.237765 108.444 1.69308C102.97 3.22317 96.9097 6.35886 93.5372 11.1911C91.2754 14.4189 89.812 18.5541 89.8007 24.3311C89.8007 27.6007 89.8917 35.3029 89.9749 42.1462C90.0577 49.0107 90.1476 55.1502 90.1476 55.1921C90.1445 61.3037 85.1912 66.2776 79.0528 66.2854H50.8937C44.887 66.2854 40.2978 67.2948 36.7919 68.8874C33.2808 70.4817 30.794 72.6307 28.9046 75.1733C25.1437 80.2222 24.4906 86.4528 24.5061 92.811C24.5061 92.811 24.5615 98.0068 25.8134 108.063C26.8543 115.845 35.2928 170.203 43.3078 186.736C46.4156 193.167 48.4855 195.846 54.5909 198.682C68.1942 204.506 99.2662 210.986 113.829 212.841C128.366 214.701 137.49 218.611 142.927 207.21C142.945 207.181 144.015 204.374 145.489 200.255C150.21 185.95 150.866 173.258 150.866 164.073C150.866 163.139 152.236 163.097 152.236 164.073C152.236 170.557 150.997 193.504 168.331 199.66C175.174 202.086 189.37 204.25 203.793 205.94C216.835 207.438 226.299 212.571 226.299 246.03C226.299 266.386 222.023 269.178 199.671 269.178C181.551 269.178 174.646 269.647 174.646 255.252C174.646 243.618 186.152 244.837 194.68 244.837C198.489 244.837 195.725 242.004 195.725 234.826C195.725 227.686 200.19 223.559 195.967 223.454C166.478 222.643 149.126 223.421 149.126 260.301C149.126 293.781 161.939 299.998 203.792 299.998C236.607 299.998 248.175 298.924 261.724 256.882C264.407 248.583 270.891 223.255 274.814 180.729C277.297 153.84 272.477 72.6834 268.654 52.2001ZM211.451 141.904C207.397 141.762 203.497 142.018 199.861 142.602C200.884 134.338 204.296 124.196 216.38 124.621C229.757 125.081 231.632 137.725 231.68 146.289C226.039 143.774 219.056 142.171 211.451 141.904Z" fill="#807F83"/>
</svg>
