<svg width="300" height="300" viewBox="0 0 300 300" fill="none" xmlns="http://www.w3.org/2000/svg">
<g clip-path="url(#clip0_2002_10246)">
<path fill-rule="evenodd" clip-rule="evenodd" d="M150 0C232.843 0 300 67.1574 300 150C300 232.843 232.843 300 150 300C67.1574 300 0 232.843 0 150C0 67.1574 67.1574 0 150 0Z" fill="#006AFF"/>
<path d="M169.489 298.741V182.878H202.153L206.483 142.1H169.489L169.544 121.689C169.544 111.053 170.554 105.357 185.831 105.357H206.254V64.5715H173.582C134.339 64.5715 120.528 84.3523 120.528 117.622V142.103H96.0645V182.885H120.528V297.098C130.058 298.997 139.911 300 149.999 300C156.516 300 163.026 299.58 169.489 298.741Z" fill="white"/>
</g>
<defs>
<clipPath id="clip0_2002_10246">
<rect width="300" height="300" fill="white"/>
</clipPath>
</defs>
</svg>
