<svg width="300" height="300" viewBox="0 0 300 300" fill="none" xmlns="http://www.w3.org/2000/svg">
<path fill-rule="evenodd" clip-rule="evenodd" d="M259.102 84.0667L255.655 85.7837C246.233 74.108 237.27 64.1494 228.767 55.9077C220.264 47.666 211.991 41.5993 203.948 37.7074C200.041 35.8759 192.975 34.3306 182.748 33.0715C172.521 31.8123 160.629 31.1828 147.07 31.1828C144.772 31.1828 142.129 31.24 139.142 31.3545C136.154 31.4689 133.282 31.5834 130.524 31.6979C127.766 31.8123 125.181 31.9268 122.768 32.0413C120.355 32.1557 118.574 32.213 117.425 32.213C117.195 33.5866 116.908 34.9602 116.563 36.3338C116.218 37.7074 115.931 39.3099 115.701 41.1414C115.471 42.9729 115.242 45.3195 115.012 48.1812C114.782 51.0429 114.552 54.5341 114.322 58.6549C114.093 66.6677 113.92 75.4244 113.805 84.9252C113.69 94.426 113.633 103.412 113.633 111.882V144.506H119.838C123.515 144.506 127.594 144.391 132.075 144.162C136.556 143.933 141.21 143.647 146.036 143.304C150.862 142.96 154.884 142.445 158.101 141.758C166.374 139.927 172.924 137.523 177.75 134.547C182.576 131.571 186.367 128.022 189.125 123.901C191.883 119.781 193.836 115.259 194.985 110.337C196.134 105.415 197.168 100.092 198.088 94.3688H202.224V204.944H198.088C196.249 197.618 193.606 189.892 190.159 181.765C186.712 173.637 182.576 167.399 177.75 163.049C173.383 159.157 168.73 156.238 163.789 154.292C158.848 152.347 153.045 151.145 146.381 150.687C142.934 150.458 139.946 150.286 137.418 150.172C134.89 150.057 132.477 150 130.179 150H113.633V192.582C113.633 198.992 113.69 204.887 113.805 210.267C113.92 215.647 113.978 220.283 113.978 224.175C114.207 231.501 114.61 238.426 115.184 244.951C115.759 251.475 117.08 256.34 119.148 259.545C121.217 262.75 124.721 265.211 129.662 266.928C134.603 268.645 141.785 269.733 151.207 270.191V273.625H40.8984V270.191C46.6437 269.275 51.9867 267.787 56.9276 265.727C61.8685 263.666 65.9476 260.804 69.1649 257.141C70.314 255.768 71.2332 253.765 71.9226 251.132C72.6121 248.499 73.244 245.466 73.8186 242.032C74.3931 238.598 74.7952 234.992 75.0251 231.215C75.2549 227.437 75.3698 223.717 75.3698 220.054C75.3698 216.849 75.4272 212.499 75.5421 207.005C75.657 201.51 75.7719 195.501 75.8868 188.976C76.0017 182.451 76.0592 175.755 76.0592 168.887V82.0063C76.0592 77.8854 76.0017 73.6502 75.8868 69.3004C75.7719 64.9506 75.5421 60.8298 75.1974 56.9379C74.8527 53.046 74.2782 49.5548 73.4738 46.4642C72.6695 43.3735 71.5779 41.1414 70.1991 39.7678C66.7519 36.1048 63.075 33.7583 59.1682 32.7281C55.2615 31.6979 50.2057 30.7249 44.0009 29.8091V26.3751H235.661L259.102 84.0667Z" fill="black"/>
</svg>
