<svg width="300" height="300" viewBox="0 0 300 300" fill="none" xmlns="http://www.w3.org/2000/svg">
<path d="M237.5 50.4375H255C259.137 50.4375 262.5 53.8001 262.5 57.9376V242.063C262.5 246.2 259.137 249.563 255 249.563H237.5V50.4375ZM275 75.3251H292.5C296.637 75.3251 300 78.6875 300 82.825V217.163C300 221.3 296.637 224.663 292.5 224.663H275V75.3251ZM7.5 25.55H217.5C221.637 25.55 225 28.9126 225 33.0501V266.95C225 271.088 221.637 274.45 217.5 274.45H7.5C3.3625 274.45 0 271.088 0 266.95V33.0501C0 28.9126 3.3625 25.55 7.5 25.55ZM52.5 65.3751C51.125 65.3751 50 66.5 50 67.875V159.75C50 160.313 50.1875 160.863 50.55 161.313C51.4125 162.388 52.9875 162.575 54.0625 161.713L169.413 69.8375C170.013 69.3625 170.35 68.6376 170.35 67.8876C170.35 66.5126 169.225 65.3875 167.85 65.3875L52.5 65.3751ZM50 214.813C50 215.313 50.15 215.813 50.4375 216.225C51.2125 217.363 52.775 217.65 53.9125 216.875L148.612 152.075C149.287 151.613 149.7 150.838 149.7 150.013C149.7 148.638 148.575 147.513 147.2 147.513H86.125C85.5625 147.513 85.025 147.7 84.5875 148.038L50.9625 174.313C50.35 174.788 50 175.513 50 176.288V214.813ZM51.075 229.275C50.4 229.738 50 230.513 50 231.325V232.413C50 233.738 51.075 234.813 52.4 234.813H87.5C88.875 234.813 90 233.688 90 232.313V207.038C90 206.525 89.85 206.025 89.55 205.613C88.7625 204.475 87.2 204.2 86.075 204.988L51.075 229.275Z" fill="black"/>
</svg>
