<svg width="300" height="300" viewBox="0 0 300 300" fill="none" xmlns="http://www.w3.org/2000/svg">
<g clip-path="url(#clip0_2002_10260)">
<path d="M299.566 0.326172H0.109375V300H299.566V0.326172Z" fill="black"/>
<path d="M75.2441 54.4763H131.569V63.7188H84.5954V89.5977H126.35V98.8402H84.5954V136.245H75.2441C75.2441 136.136 75.2441 54.4763 75.2441 54.4763Z" fill="white"/>
<path d="M73.6133 216.165L82.747 214.099C84.3781 225.408 92.207 232.149 104.929 232.149C116.346 232.149 125.371 226.821 125.371 218.123C125.371 211.925 120.804 206.705 102.972 201.377C82.747 195.614 76.0055 188.22 76.0055 177.347C76.0055 163.32 87.3139 155.817 103.733 155.817C122.109 155.817 130.264 165.169 133.091 177.999L123.958 180.065C121.674 169.518 114.498 165.06 103.407 165.06C92.9681 165.06 85.5741 168.974 85.5741 176.477C85.5741 182.566 90.3585 187.242 106.886 192.461C126.567 198.55 135.049 205.183 135.049 217.796C135.049 233.454 121.892 241.609 105.146 241.609C87.6401 241.501 75.6792 232.476 73.6133 216.165Z" fill="white"/>
<path d="M146.248 198.876C146.248 174.629 162.123 155.709 186.48 155.709C210.728 155.709 226.386 174.737 226.386 198.876C226.386 210.946 222.363 221.385 215.621 228.996C218.883 232.258 222.036 235.52 225.19 239L218.448 245.524C215.186 242.044 211.815 238.565 208.444 235.194C202.247 239.217 194.853 241.501 186.48 241.501C162.993 241.501 146.248 223.559 146.248 198.876ZM201.377 228.235C198.223 225.19 195.07 222.254 191.808 219.427L198.332 212.795C201.812 215.839 205.291 218.992 208.553 222.146C213.446 216.274 216.382 208.228 216.382 198.768C216.382 179.63 204.748 165.06 186.48 165.06C168.213 165.06 156.469 179.63 156.469 198.768C156.469 218.449 169.191 232.258 186.48 232.258C192.026 232.258 197.027 230.953 201.377 228.235Z" fill="white"/>
</g>
<defs>
<clipPath id="clip0_2002_10260">
<rect width="300" height="300" fill="white"/>
</clipPath>
</defs>
</svg>
