<svg width="300" height="300" viewBox="0 0 300 300" fill="none" xmlns="http://www.w3.org/2000/svg">
<g clip-path="url(#clip0_2002_10268)">
<path d="M126.47 0.00219727C109.861 0.00219703 93.4139 3.27406 78.0689 9.63092C62.7239 15.9878 48.7813 25.3052 37.0376 37.0509C25.2938 48.7967 15.9788 62.7407 9.62449 78.0868C3.2702 93.4329 0.00111254 109.88 0.00390804 126.49V299.997H173.509C243.356 299.997 299.984 243.378 299.998 173.53V0.00219727H126.47ZM229.022 51.6008C229.024 56.985 227.964 62.3168 225.901 67.2903C223.839 72.2639 220.815 76.7814 217.003 80.584C209.293 88.2741 198.848 92.5915 187.958 92.5888H143.919V127.745H203.416V168.891H144.214V253.633H95.4557V40.9109H143.918V79.4902C145.186 57.8267 163.164 40.9109 184.913 40.9109H229.089L229.022 51.6008Z" fill="black"/>
</g>
<defs>
<clipPath id="clip0_2002_10268">
<rect width="300" height="300" fill="white"/>
</clipPath>
</defs>
</svg>
