<svg width="300" height="300" viewBox="0 0 300 300" fill="none" xmlns="http://www.w3.org/2000/svg">
<g clip-path="url(#clip0_2002_10282)">
<path d="M150 3.71252C67.125 3.71252 0 70.875 0 153.713C0 220 42.975 276.213 102.562 296.025C110.062 297.438 112.812 292.8 112.812 288.813C112.812 285.25 112.688 275.813 112.625 263.313C70.9 272.363 62.1 243.188 62.1 243.188C55.275 225.875 45.4125 221.25 45.4125 221.25C31.825 211.95 46.4625 212.138 46.4625 212.138C61.525 213.188 69.4375 227.588 69.4375 227.588C82.8125 250.525 104.55 243.9 113.125 240.063C114.475 230.363 118.338 223.75 122.625 220C89.3125 216.25 54.3 203.35 54.3 145.875C54.3 129.5 60.1125 116.125 69.7375 105.625C68.05 101.838 62.9875 86.5875 71.05 65.925C71.05 65.925 83.6125 61.9 112.3 81.3C124.3 77.9625 137.05 76.3125 149.8 76.2375C162.55 76.3125 175.3 77.9625 187.3 81.3C215.8 61.9 228.362 65.925 228.362 65.925C236.425 86.5875 231.363 101.838 229.863 105.625C239.425 116.125 245.237 129.5 245.237 145.875C245.237 203.5 210.175 216.188 176.8 219.875C182.05 224.375 186.925 233.575 186.925 247.625C186.925 267.7 186.738 283.825 186.738 288.7C186.738 292.638 189.363 297.325 197.05 295.825C257.062 276.15 300 219.9 300 153.713C300 70.875 232.837 3.71252 150 3.71252Z" fill="black"/>
</g>
<defs>
<clipPath id="clip0_2002_10282">
<rect width="300" height="300" fill="white"/>
</clipPath>
</defs>
</svg>
