<svg width="300" height="300" viewBox="0 0 300 300" fill="none" xmlns="http://www.w3.org/2000/svg">
<g clip-path="url(#clip0_2002_10284)">
<path d="M295.018 119.875L294.596 118.797L253.763 12.2312C252.932 10.1425 251.461 8.37073 249.561 7.16999C247.659 5.98965 245.442 5.42116 243.207 5.54128C240.972 5.6614 238.828 6.46434 237.064 7.84169C235.32 9.25859 234.054 11.1785 233.44 13.3403L205.869 97.6933H94.2262L66.6553 13.3403C66.0574 11.1668 64.7892 9.23719 63.0313 7.82607C61.2673 6.44871 59.1232 5.64577 56.8885 5.52565C54.6537 5.40554 52.4359 5.97403 50.5345 7.15437C48.6386 8.35996 47.1688 10.1302 46.3325 12.2155L5.42127 118.735L5.01512 119.813C-0.862995 135.171 -1.58855 152.024 2.94784 167.831C7.48424 183.638 17.0367 197.542 30.1648 207.446L30.3054 207.555L30.6803 207.821L92.8828 254.402L123.656 277.693L142.401 291.846C144.594 293.511 147.271 294.412 150.024 294.412C152.777 294.412 155.455 293.511 157.647 291.846L176.392 277.693L207.166 254.402L269.743 207.54L269.899 207.415C282.998 197.509 292.528 183.62 297.058 167.834C301.587 152.048 300.871 135.219 295.018 119.875Z" fill="#E24329"/>
<path d="M295.017 119.875L294.595 118.797C274.699 122.881 255.95 131.309 239.688 143.478L150.008 211.289C180.547 234.392 207.134 254.465 207.134 254.465L269.711 207.602L269.867 207.477C282.985 197.572 292.53 183.673 297.065 167.874C301.601 152.075 300.882 135.23 295.017 119.875Z" fill="#FC6D26"/>
<path d="M92.8828 254.465L123.656 277.756L142.401 291.908C144.594 293.573 147.271 294.474 150.024 294.474C152.777 294.474 155.455 293.573 157.647 291.908L176.392 277.756L207.166 254.465C207.166 254.465 180.547 234.33 150.009 211.289C119.47 234.33 92.8828 254.465 92.8828 254.465Z" fill="#FCA326"/>
<path d="M60.3132 143.478C44.0642 131.284 25.3192 122.834 5.42127 118.735L5.01512 119.812C-0.862995 135.171 -1.58855 152.024 2.94784 167.831C7.48424 183.638 17.0367 197.542 30.1648 207.446L30.3054 207.555L30.6803 207.821L92.8828 254.402C92.8828 254.402 119.438 234.33 150.009 211.226L60.3132 143.478Z" fill="#FC6D26"/>
</g>
<defs>
<clipPath id="clip0_2002_10284">
<rect width="300" height="300" fill="white"/>
</clipPath>
</defs>
</svg>
