<svg width="300" height="300" viewBox="0 0 300 300" fill="none" xmlns="http://www.w3.org/2000/svg">
<path d="M20.4545 262.058H68.1818V146.149L0 95.0126V241.603C0 252.922 9.17045 262.058 20.4545 262.058Z" fill="#4285F4"/>
<path d="M231.818 262.058H279.546C290.864 262.058 300 252.888 300 241.603V95.0126L231.818 146.149" fill="#34A853"/>
<path d="M231.818 57.5126V146.149L300 95.0126V67.7398C300 42.4444 271.125 28.0239 250.909 43.1944" fill="#FBBC04"/>
<path d="M68.1816 146.149V57.5126L150 118.876L231.818 57.5126V146.149L150 207.513" fill="#EA4335"/>
<path d="M0 67.7398V95.0126L68.1818 146.149V57.5126L49.0909 43.1944C28.8409 28.0239 0 42.4444 0 67.7398Z" fill="#C5221F"/>
</svg>
