<svg width="300" height="300" viewBox="0 0 300 300" fill="none" xmlns="http://www.w3.org/2000/svg">
<g clip-path="url(#clip0_2023_2053)">
<path d="M142.875 299.938C97.7748 297.338 64.4498 273.975 62.2748 236.463C70.9623 236.55 79.4623 236.3 88.1498 236.388C90.9498 253.163 101.462 266.763 121.687 274.213C141.475 280.413 168.4 279.963 185.212 272.038C202.1 264.088 212.025 249.263 216.5 227.325C219.15 214.3 219.45 205.65 219.387 190.825L219.325 170.438H218.587C203.025 202.488 177.15 214.563 148.712 213.875C76.9623 213.2 52.7123 157.2 54.6123 106.3C54.7373 40.7875 94.8623 -0.412457 149.075 0.112543C178.5 -1.63746 206.637 17.1375 218.5 42.2375L219.237 42.2625L219.262 5.78754L245.5 5.83754L245.475 202.3C243.062 290.3 190.775 300.925 142.862 299.938H142.875ZM219.125 104.525C217.925 63.7751 199.112 21.775 150.337 21.4625C100.912 21.25 80.0248 66.3626 80.2873 107.088C80.1248 150.075 100.825 185.9 139.075 191.613C195.725 199 220.962 148.975 219.125 104.525Z" fill="black"/>
</g>
<defs>
<clipPath id="clip0_2023_2053">
<rect width="300" height="300" fill="white"/>
</clipPath>
</defs>
</svg>
