<svg width="300" height="300" viewBox="0 0 300 300" fill="none" xmlns="http://www.w3.org/2000/svg">
<g clip-path="url(#clip0_2033_349)">
<path d="M22.6804 246.907L35.9107 269.759C38.6598 274.57 42.6117 278.351 47.2509 281.1L94.5017 199.313H0C0 204.639 1.37457 209.966 4.12371 214.777L22.6804 246.907Z" fill="#0066DA"/>
<path d="M150 103.093L102.749 21.3065C98.11 24.0557 94.1581 27.8357 91.4089 32.6467L4.12371 183.849C1.42513 188.557 0.003593 193.887 0 199.313H94.5017L150 103.093Z" fill="#00AC47"/>
<path d="M252.752 281.1C257.391 278.351 261.343 274.57 264.092 269.759L269.59 260.309L295.879 214.777C298.628 209.966 300.003 204.639 300.003 199.313H205.494L225.604 238.832L252.752 281.1Z" fill="#EA4335"/>
<path d="M150.001 103.093L197.252 21.3058C192.613 18.5567 187.286 17.1821 181.788 17.1821H118.214C112.716 17.1821 107.389 18.7285 102.75 21.3058L150.001 103.093Z" fill="#00832D"/>
<path d="M205.497 199.313H94.5009L47.25 281.1C51.8892 283.849 57.2156 285.223 62.7139 285.223H237.284C242.783 285.223 248.109 283.677 252.748 281.1L205.497 199.313Z" fill="#2684FC"/>
<path d="M252.236 108.248L208.593 32.6467C205.844 27.8357 201.892 24.0557 197.253 21.3065L150.002 103.093L205.5 199.313H299.83C299.83 193.987 298.456 188.66 295.706 183.849L252.236 108.248Z" fill="#FFBA00"/>
</g>
<defs>
<clipPath id="clip0_2033_349">
<rect width="300" height="300" fill="white"/>
</clipPath>
</defs>
</svg>
