<svg width="300" height="300" viewBox="0 0 300 300" fill="none" xmlns="http://www.w3.org/2000/svg">
<path d="M6.90096 210.24L106.501 39.7266C119.153 47.1748 182.949 82.4817 193.253 89.1955L93.6527 259.72C82.7596 274.109 -6.89904 232.078 6.90096 210.23V210.24Z" fill="#FBBC04"/>
<path d="M293.067 210.236L193.467 39.733C179.543 16.5606 149.554 8.13992 124.923 21.8261C100.292 35.5123 92.7916 64.9951 106.716 89.202L206.316 259.726C220.24 282.888 250.23 291.309 274.861 277.623C298.416 263.936 306.992 233.409 293.067 210.257V210.236Z" fill="#4285F4"/>
<path d="M49.9965 284.213C77.6089 284.213 99.9931 262.385 99.9931 235.458C99.9931 208.532 77.6089 186.703 49.9965 186.703C22.3842 186.703 0 208.532 0 235.458C0 262.385 22.3842 284.213 49.9965 284.213Z" fill="#34A853"/>
</svg>
