<svg width="300" height="300" viewBox="0 0 300 300" fill="none" xmlns="http://www.w3.org/2000/svg">
<path fill-rule="evenodd" clip-rule="evenodd" d="M260.544 296.5H278.493C282.482 296.5 286.071 292.912 286.071 288.926V96.7816C286.071 78.0456 270.915 62.4986 251.77 62.4986H229.035C225.046 62.4986 221.456 58.9109 221.456 54.9245V37.783C221.855 18.6483 206.699 3.5 187.553 3.5H41.5713C22.4261 3.5 7.26953 18.6483 7.26953 37.783V230.724C7.26953 249.461 22.4261 264.609 41.5713 265.007H210.687C212.283 265.007 213.878 265.406 215.075 266.203L256.556 295.304C257.752 296.101 259.348 296.5 260.544 296.5ZM219.462 237.501H41.9702C37.5827 237.501 34.3919 234.312 34.3919 229.927V38.1816C34.3919 34.1952 37.9816 30.6075 41.9702 30.6075H187.155C191.143 30.6075 194.733 34.1952 194.733 38.1816V55.3231C194.733 59.3095 191.143 62.8973 187.155 62.8973H79.064C75.0754 62.8973 71.4857 66.485 71.4857 70.4714V198.435C71.4857 202.421 75.0754 206.009 79.064 206.009H214.277C218.265 206.009 221.855 202.421 221.855 198.435V97.1803C221.855 93.1939 225.445 89.6061 229.433 89.6061H251.77C255.758 89.6061 259.348 93.1939 259.348 97.1803V254.244C259.348 258.231 254.96 260.224 252.168 258.231L223.849 238.697C222.653 237.9 221.057 237.501 219.462 237.501ZM190.744 178.503H102.198C100.203 178.503 98.608 176.908 98.608 174.915V93.1939C98.608 91.2007 100.203 89.6061 102.198 89.6061H190.744C192.739 89.6061 194.334 91.2007 194.334 93.1939V174.516C194.334 176.51 193.137 178.503 190.744 178.503Z" fill="#161616"/>
</svg>
