<svg width="300" height="300" viewBox="0 0 300 300" fill="none" xmlns="http://www.w3.org/2000/svg">
<path d="M150.563 289.849C227.488 289.849 289.848 227.489 289.848 150.564C289.848 73.6386 227.488 11.2783 150.563 11.2783C73.6376 11.2783 11.2773 73.6386 11.2773 150.564C11.2773 227.489 73.6376 289.849 150.563 289.849Z" fill="#2E88FF"/>
<path fill-rule="evenodd" clip-rule="evenodd" d="M150 300C67.1572 300 0 232.843 0 150C0 67.1572 67.1572 0 150 0C232.843 0 300 67.1572 300 150C300 232.843 232.843 300 150 300ZM150 278.572C221.008 278.572 278.572 221.008 278.572 150C278.572 78.992 221.008 21.4283 150 21.4283C78.992 21.4283 21.4283 78.992 21.4283 150C21.4283 221.008 78.992 278.572 150 278.572ZM169.173 120.677V249.248H130.827V120.677H76.6922V82.3301H223.308V120.676L169.173 120.677Z" fill="white"/>
</svg>
