<svg width="300" height="300" viewBox="0 0 300 300" fill="none" xmlns="http://www.w3.org/2000/svg">
<g clip-path="url(#clip0_2002_10298)">
<path d="M151 0C111.218 0 73.0644 15.8035 44.934 43.934C16.8035 72.0644 1 110.218 1 150C1 189.782 16.8035 227.936 44.934 256.066C73.0644 284.196 111.218 300 151 300C190.782 300 228.936 284.196 257.066 256.066C285.196 227.936 301 189.782 301 150C301 110.218 285.196 72.0644 257.066 43.934C228.936 15.8035 190.782 0 151 0ZM150.913 64C206.913 64 225.85 101.813 226.712 123.3H186.225C185.363 111.275 175.012 93.225 150.025 93.225C123.325 93.225 106.1 116.437 106.1 144.8C106.1 173.175 123.325 196.362 150.025 196.362C174.15 196.362 184.5 177.462 188.812 158.55H150.025V143.075H231.387V222.163H195.7V172.3C193.113 190.35 181.925 225.6 137.987 225.6C94.0375 225.6 68.1875 190.35 68.1875 146.525C68.1875 100.963 96.6375 64 150.913 64Z" fill="#FF90E8"/>
</g>
<defs>
<clipPath id="clip0_2002_10298">
<rect width="300" height="300" fill="white"/>
</clipPath>
</defs>
</svg>
