<svg width="300" height="300" viewBox="0 0 300 300" fill="none" xmlns="http://www.w3.org/2000/svg">
<g clip-path="url(#clip0_2002_10302)">
<path d="M142.713 139.25C149.026 148.625 146.213 158.9 137.963 164.462C129.713 170.012 119.151 168.75 112.838 159.375C106.513 150 109.313 139.725 117.563 134.162C125.813 128.612 136.388 129.875 142.713 139.25ZM205.426 135.825C197.176 141.375 194.376 151.65 200.688 161.025C207.013 170.4 217.588 171.675 225.838 166.112C234.088 160.562 236.888 150.287 230.576 140.912C224.251 131.537 213.676 130.262 205.426 135.825ZM298.201 47.25L237.876 82.975L240.826 86.375C268.626 119.037 285.713 166.487 293.913 193.95C296.31 201.949 296.837 210.393 295.455 218.628C294.072 226.864 290.816 234.672 285.938 241.45C268.113 266.188 229.976 300 154.613 300C72.3631 300 29.6131 259.375 9.06309 234.362C4.7381 229.089 1.87305 222.773 0.754331 216.045C-0.364389 209.318 0.302414 202.414 2.68809 196.025C14.0506 165.475 37.2631 106.95 55.9006 85.7125C66.4038 73.6843 78.6026 63.2498 92.1131 54.7375L30.0006 6.67496C26.6256 4.07496 29.5756 -1.22504 33.5631 0.262462L134.526 37.8375C139.276 37.0125 144.001 36.5875 148.651 36.5875C166.238 36.5875 182.863 40.425 199.576 50.1375L296.376 41.45C299.701 41.15 301.088 45.5875 298.201 47.25ZM195.476 217.95C188.743 220.368 181.581 221.358 174.446 220.859C167.31 220.36 160.356 218.381 154.026 215.05C153.113 214.587 152.238 215.737 152.938 216.487C158.651 222.612 168.851 233.362 175.013 238.675C176.288 239.775 178.251 239.637 179.388 238.387L196.501 219.487C197.163 218.75 196.401 217.613 195.476 217.95ZM198.476 203.5L176.026 178.275C175.62 177.823 175.121 177.463 174.564 177.219C174.007 176.976 173.404 176.855 172.797 176.864C172.189 176.874 171.59 177.014 171.041 177.274C170.492 177.535 170.005 177.91 169.613 178.375L151.613 199.825C151.413 200.061 151.263 200.335 151.173 200.632C151.084 200.928 151.056 201.24 151.093 201.547C151.129 201.854 151.228 202.151 151.385 202.418C151.541 202.685 151.751 202.917 152.001 203.1C156.163 206.087 166.351 212.6 176.276 212.6C185.451 212.6 193.801 209.037 197.826 207.012C198.133 206.856 198.401 206.63 198.608 206.354C198.814 206.077 198.955 205.756 199.017 205.417C199.08 205.077 199.064 204.727 198.97 204.395C198.876 204.063 198.707 203.756 198.476 203.5ZM218.676 98.3875C214.926 97.9625 211.138 98.825 207.901 100.737L185.301 114.112C179.676 117.462 172.551 117 167.401 112.975L147.738 97.75C141.186 92.6349 133.617 88.9783 125.538 87.025C91.8131 79.05 68.8881 96.775 51.6131 130.025C35.1131 161.762 44.3256 207.325 85.0131 218.15C127.988 229.575 156.388 181.862 167.738 165.962C168.245 165.256 168.912 164.681 169.684 164.283C170.457 163.885 171.313 163.676 172.182 163.673C173.051 163.671 173.908 163.875 174.683 164.269C175.457 164.662 176.128 165.234 176.638 165.937C194.238 189.887 217.963 215.537 243.388 210.4C276.588 203.712 272.663 161.587 262.288 139.15C253.101 119.3 239.413 100.725 218.663 98.375L218.676 98.3875Z" fill="black"/>
</g>
<defs>
<clipPath id="clip0_2002_10302">
<rect width="300" height="300" fill="white"/>
</clipPath>
</defs>
</svg>
