<svg width="300" height="300" viewBox="0 0 300 300" fill="none" xmlns="http://www.w3.org/2000/svg">
<g clip-path="url(#clip0_2023_2102)">
<path d="M112.01 58.7737L112.031 58.7542C128.585 46.6964 148.965 39.5828 171.011 39.5828C183.332 39.5828 195.049 41.4992 205.931 45.5953C206.638 45.8502 207.572 46.0106 207.997 46.0106C210.599 46.0106 212.509 44.2248 212.525 41.6956C212.531 39.9766 211.679 38.5434 210.576 37.5266C181.748 10.9825 151.124 0.0217285 151.124 0.0217285C82.781 27.3502 32.5254 93.4389 31.085 168.968C30.4671 190.453 35.5984 212.366 47.135 232.347C53.9781 244.206 62.5465 254.457 72.3239 262.961C53.6111 254.631 37.2691 240.538 26.2415 221.451C20.0789 210.775 15.8729 199.675 13.977 188.211C13.8516 187.474 13.5298 186.579 13.3129 186.218C12.0185 183.966 9.5119 183.196 7.31583 184.463C5.8158 185.304 5.00975 186.768 4.68692 188.221C-3.89584 226.458 1.9295 258.465 1.9295 258.465C60.6085 304.646 144.56 314.749 211.173 276.307C242.506 258.207 262.61 228.122 269.007 195.191L269.028 195.233C271.189 215.607 267.148 236.793 256.129 255.902C249.971 266.567 242.457 275.757 233.477 283.15C232.894 283.629 232.286 284.356 232.074 284.717C230.776 286.962 231.367 289.517 233.549 290.793C235.04 291.667 236.7 291.632 238.124 291.176C275.536 279.496 300.333 258.455 300.333 258.455C310.812 185.823 278.91 109.469 214.6 70.3545C184.403 51.5985 146.664 46.7848 112.01 58.7737ZM248.82 150.015C249.785 154.834 250.322 159.788 250.322 164.824C250.322 212.22 205.917 250.623 151.129 250.623C96.3388 250.623 51.9342 212.219 51.9342 164.824C51.9342 159.788 52.4648 154.834 53.4343 150.015C74.0224 128.903 110.063 114.873 151.128 114.873C192.186 114.873 228.231 128.903 248.82 150.015Z" fill="black"/>
<path d="M132.807 129.027C140.433 131.705 145.907 138.966 145.907 147.512C145.907 158.333 137.151 167.088 126.331 167.088C117.786 167.088 110.521 161.626 107.851 153.982C105.394 159.78 104.134 166.014 104.145 172.311C104.145 198.274 125.184 219.291 151.131 219.291C177.083 219.291 198.115 198.274 198.115 172.311C198.115 146.359 177.076 125.32 151.131 125.32C144.836 125.316 138.605 126.577 132.807 129.027Z" fill="black"/>
</g>
<defs>
<clipPath id="clip0_2023_2102">
<rect width="300" height="300" fill="white"/>
</clipPath>
</defs>
</svg>
