<svg width="300" height="300" viewBox="0 0 300 300" fill="none" xmlns="http://www.w3.org/2000/svg">
<g clip-path="url(#clip0_2023_2105)">
<path d="M264.337 38.0375C264.312 36.625 263.475 35.7625 261.975 35.65C259.854 35.424 257.728 35.2364 255.6 35.0875L253.575 34.9625C249.06 34.6593 244.537 34.4675 240.012 34.3875L237.3 34.325C235.15 34.2875 232.925 34.275 230.65 34.275L228.288 34.2625C224.6 34.2625 220.775 34.3 216.8 34.3875L215.475 34.425C211.849 34.5051 208.224 34.6134 204.6 34.75L201.638 34.8625C197.45 35.025 193.188 35.225 188.8 35.475L188.65 35.4875C184.188 35.75 179.6 36.05 174.962 36.375L171.525 36.6375C167.725 36.925 163.913 37.2375 160.025 37.5875L156.9 37.85C152.15 38.2875 147.325 38.775 142.45 39.2875C141.45 39.4 140.438 39.525 139.425 39.625C135.438 40.0625 131.413 40.5375 127.363 41.0375L123.238 41.5625C118.2 42.2 113.163 42.875 108.088 43.6125C107.422 43.7044 106.773 43.8939 106.162 44.175C105.7 44.3979 105.287 44.7126 104.95 45.1L104.912 45.125C104.35 45.8125 104.325 46.625 104.963 47.3625C105 47.4125 104.988 47.4625 105.025 47.5125L148.625 90.7125L65.7625 173.162C64.9 174 64.9125 175.225 65.7625 176.3C76.4625 189.963 83.7625 198.713 92.55 207.45C101.287 216.238 110.025 223.525 123.713 234.238C124.175 234.629 124.757 234.854 125.363 234.875C125.64 234.873 125.915 234.816 126.171 234.706C126.426 234.597 126.657 234.437 126.85 234.238L209.313 151.375L252.5 194.975C252.66 195.152 252.855 195.296 253.072 195.397C253.289 195.498 253.523 195.554 253.763 195.562C254.963 195.562 256.1 194.087 256.413 191.912C265.738 127.65 267.438 66.275 264.337 38.0375ZM198.375 300L277.825 220.537L278.15 220.213L280.1 218.275L280.025 218.2C285.572 212.3 289.16 204.83 290.3 196.812C300.35 127.687 301.587 64.425 298.475 34.9125C297.783 26.3684 294.09 18.3448 288.05 12.2625C281.959 6.16491 273.93 2.38495 265.35 1.575C255.725 0.525 243.45 0 228.975 0C191.488 0 145.637 3.55 103.188 9.7125C94.1222 10.9683 85.7797 15.3496 79.6 22.1L0 101.713V300H198.375ZM217.475 216.162C215.588 216.162 210.437 221.225 210.437 223.825C210.438 224.154 210.308 224.47 210.076 224.704C209.844 224.939 209.529 225.072 209.2 225.075C208.871 225.072 208.556 224.939 208.324 224.704C208.092 224.47 207.962 224.154 207.962 223.825C207.962 221.225 202.825 216.162 200.925 216.162C200.596 216.159 200.281 216.026 200.049 215.792C199.817 215.558 199.687 215.242 199.688 214.913C199.688 214.238 200.237 213.687 200.925 213.687C202.825 213.687 207.962 208.638 207.962 206.013C207.962 205.325 208.512 204.787 209.2 204.787C209.875 204.787 210.437 205.325 210.437 206.013C210.437 208.638 215.588 213.687 217.475 213.687C217.773 213.73 218.046 213.878 218.243 214.106C218.44 214.333 218.549 214.624 218.549 214.925C218.549 215.226 218.44 215.517 218.243 215.744C218.046 215.971 217.773 216.12 217.475 216.162ZM67.5 88.0625C69.9625 88.0625 76.6875 81.4625 76.6875 78.05C76.6907 77.6255 76.8599 77.2191 77.1589 76.9177C77.458 76.6164 77.863 76.444 78.2875 76.4375C79.175 76.4375 79.8875 77.1625 79.8875 78.05C79.8875 81.45 86.6125 88.0625 89.075 88.0625C89.9625 88.0625 90.675 88.775 90.675 89.6625C90.675 90.0868 90.5064 90.4938 90.2064 90.7939C89.9063 91.0939 89.4993 91.2625 89.075 91.2625C86.6125 91.2625 79.8875 97.8625 79.8875 101.275C79.8875 101.699 79.7189 102.106 79.4189 102.406C79.1188 102.706 78.7118 102.875 78.2875 102.875C77.8632 102.875 77.4562 102.706 77.1561 102.406C76.8561 102.106 76.6875 101.699 76.6875 101.275C76.6875 97.8625 69.9625 91.2625 67.5 91.2625C67.0757 91.2625 66.6687 91.0939 66.3686 90.7939C66.0686 90.4938 65.9 90.0868 65.9 89.6625C65.9 89.2382 66.0686 88.8312 66.3686 88.5311C66.6687 88.2311 67.0757 88.0625 67.5 88.0625ZM17.625 128.812C17.625 128 18.3375 127.588 19.1125 127.338C27.7375 124.488 34.975 117.338 36.65 107.913C36.7875 107.113 37.3125 106.438 38.125 106.438C38.95 106.438 39.4625 107.113 39.6125 107.913C41.275 117.338 48.5 124.488 57.125 127.338C57.9 127.588 58.6 128 58.6 128.812C58.6 129.625 57.9 130.037 57.125 130.3C48.5 133.137 41.2625 140.288 39.5875 149.713C39.45 150.512 38.925 151.2 38.1 151.2C37.2875 151.2 36.775 150.525 36.625 149.713C34.95 140.288 27.7125 133.137 19.0875 130.3C18.325 130.025 17.625 129.625 17.625 128.812ZM37.1875 245.15C35.775 245.15 31.9375 248.925 31.9375 250.887C31.9375 251.387 31.5125 251.8 31.0125 251.8C30.7693 251.8 30.5359 251.704 30.3628 251.534C30.1897 251.363 30.0908 251.131 30.0875 250.887C30.0875 248.925 26.25 245.15 24.8375 245.15C24.5943 245.15 24.3609 245.054 24.1878 244.884C24.0147 244.713 23.9158 244.481 23.9125 244.237C23.9125 243.75 24.3375 243.325 24.8375 243.325C26.25 243.325 30.0875 239.55 30.0875 237.613C30.0875 237.088 30.5 236.7 31.0125 236.7C31.5125 236.7 31.9375 237.088 31.9375 237.613C31.9375 239.55 35.775 243.325 37.1875 243.325C37.6875 243.325 38.1 243.75 38.1 244.237C38.1 244.48 38.0039 244.712 37.8327 244.883C37.6616 245.054 37.4295 245.15 37.1875 245.15ZM44.2875 207.062C42.5375 207.062 37.775 211.75 37.775 214.162C37.7918 214.323 37.7747 214.485 37.7249 214.638C37.675 214.791 37.5935 214.932 37.4857 215.052C37.3779 215.172 37.2461 215.267 37.0989 215.333C36.9517 215.398 36.7924 215.432 36.6312 215.432C36.4701 215.432 36.3108 215.398 36.1636 215.333C36.0164 215.267 35.8846 215.172 35.7768 215.052C35.669 214.932 35.5875 214.791 35.5376 214.638C35.4878 214.485 35.4707 214.323 35.4875 214.162C35.4875 211.75 30.725 207.062 28.975 207.062C28.8262 207.064 28.6786 207.036 28.5406 206.98C28.4027 206.925 28.2772 206.842 28.1714 206.737C28.0656 206.633 27.9816 206.508 27.9243 206.371C27.867 206.234 27.8375 206.086 27.8375 205.938C27.8375 205.3 28.35 204.787 28.975 204.787C30.725 204.787 35.4875 200.1 35.4875 197.688C35.4875 197.538 35.5174 197.389 35.5755 197.251C35.6336 197.113 35.7187 196.988 35.8258 196.883C35.9329 196.778 36.0599 196.696 36.1993 196.641C36.3387 196.586 36.4877 196.559 36.6375 196.562C36.7863 196.561 36.9339 196.589 37.0719 196.645C37.2098 196.7 37.3353 196.783 37.4411 196.888C37.5469 196.992 37.6309 197.117 37.6882 197.254C37.7455 197.391 37.775 197.539 37.775 197.688C37.775 200.1 42.5375 204.787 44.2875 204.787C44.5892 204.787 44.8785 204.907 45.0918 205.121C45.3052 205.334 45.425 205.623 45.425 205.925C45.425 206.227 45.3052 206.516 45.0918 206.729C44.8785 206.943 44.5892 207.062 44.2875 207.062ZM85.9625 261.837C83.425 261.837 76.4875 268.663 76.4875 272.175C76.4875 273.087 75.7375 273.837 74.8375 273.837C74.3966 273.837 73.9737 273.662 73.6619 273.351C73.3502 273.039 73.175 272.616 73.175 272.175C73.175 268.663 66.2375 261.837 63.7 261.837C63.2601 261.834 62.8391 261.658 62.528 261.347C62.217 261.036 62.0408 260.615 62.0375 260.175C62.0375 259.262 62.775 258.525 63.7 258.525C66.25 258.525 73.175 251.712 73.175 248.175C73.175 247.288 73.925 246.525 74.8375 246.525C75.75 246.525 76.4875 247.288 76.4875 248.175C76.4875 251.712 83.425 258.525 85.9625 258.525C86.8875 258.525 87.625 259.262 87.625 260.175C87.625 260.616 87.4498 261.039 87.1381 261.351C86.8263 261.662 86.4034 261.837 85.9625 261.837ZM109.987 251.763C96.4125 241.125 86.625 233.038 76.825 223.175C66.9625 213.375 58.875 203.6 48.2375 190C40.4125 180 41.1625 166.288 50.0375 157.413L50.05 157.4L50.075 157.387L117.05 90.75L89.3625 63.325L89.325 63.2875L89.3 63.25C82.8 56.75 80.55 47.375 83.4 38.775C85.25 33.1875 89.2 28.75 94.2375 25.6625C95.6956 24.7101 97.25 23.9141 98.875 23.2875C100.755 22.5171 102.718 21.9676 104.725 21.65C104.788 21.65 104.838 21.6125 104.9 21.6C146.825 15.5 192.037 12 228.962 12H228.988C243.05 12 254.887 12.5125 264.212 13.5125C270.075 14.0875 275.5 16.625 279.562 20.7125C283.663 24.85 286.125 30.3 286.587 36.175C289.625 65.0625 288.387 126.838 278.45 195.1C278.438 195.225 278.375 195.3 278.362 195.413C277.949 197.945 277.192 200.409 276.113 202.738C276.038 202.912 275.987 203.087 275.887 203.262C271.725 212 263.375 217.8 253.75 217.8C247.375 217.8 241.35 215.3 236.775 210.713L236.737 210.688L236.688 210.637L209.288 182.95L142.625 249.938L142.613 249.962H142.6C140.344 252.234 137.66 254.037 134.704 255.266C131.747 256.496 128.577 257.127 125.375 257.125C119.875 257.125 114.412 255.238 109.987 251.763ZM142.188 277.888C140.45 277.888 135.713 282.55 135.713 284.963C135.713 285.111 135.683 285.259 135.626 285.396C135.568 285.533 135.484 285.658 135.379 285.762C135.273 285.867 135.147 285.95 135.009 286.005C134.871 286.061 134.724 286.089 134.575 286.087C134.277 286.087 133.99 285.969 133.779 285.758C133.569 285.547 133.45 285.261 133.45 284.963C133.45 282.55 128.712 277.888 126.962 277.888C126.664 277.888 126.378 277.769 126.167 277.558C125.956 277.347 125.838 277.061 125.838 276.763C125.838 276.464 125.956 276.178 126.167 275.967C126.378 275.756 126.664 275.638 126.962 275.638C128.7 275.638 133.45 270.975 133.45 268.562C133.45 268.264 133.569 267.978 133.779 267.767C133.99 267.556 134.277 267.438 134.575 267.438C135.2 267.438 135.713 267.95 135.713 268.562C135.713 270.975 140.45 275.638 142.188 275.638C142.812 275.638 143.325 276.125 143.325 276.763C143.325 277.4 142.825 277.888 142.188 277.888ZM168.625 247.425C171.725 247.425 180.15 239.15 180.15 234.888C180.15 233.788 181.05 232.875 182.163 232.875C183.262 232.875 184.175 233.788 184.175 234.888C184.175 239.15 192.6 247.425 195.688 247.425C196.8 247.425 197.7 248.337 197.7 249.438C197.702 249.702 197.651 249.965 197.55 250.21C197.45 250.455 197.301 250.677 197.114 250.864C196.927 251.051 196.705 251.2 196.46 251.3C196.215 251.401 195.952 251.452 195.688 251.45C192.6 251.45 184.175 259.725 184.175 264.013C184.175 264.547 183.963 265.061 183.586 265.44C183.209 265.819 182.697 266.034 182.163 266.038C181.628 266.034 181.116 265.819 180.739 265.44C180.362 265.061 180.15 264.547 180.15 264.013C180.15 259.725 171.725 251.45 168.625 251.45C168.091 251.45 167.579 251.238 167.202 250.861C166.825 250.483 166.613 249.971 166.613 249.438C166.613 248.904 166.825 248.392 167.202 248.014C167.579 247.637 168.091 247.425 168.625 247.425Z" fill="#30DDA1"/>
</g>
<defs>
<clipPath id="clip0_2023_2105">
<rect width="300" height="300" fill="white"/>
</clipPath>
</defs>
</svg>
