<svg width="300" height="300" viewBox="0 0 300 300" fill="none" xmlns="http://www.w3.org/2000/svg">
<g clip-path="url(#clip0_2023_2406)">
<path d="M76.0722 298.939C58.231 298.128 48.5392 295.159 42.0929 292.644C33.5513 289.318 27.4616 285.36 21.0509 278.958C14.6402 272.556 10.6726 266.467 7.3647 257.925C4.85036 251.479 1.8813 241.787 1.06993 223.946C0.178322 204.66 0 198.874 0 150.013C0 101.153 0.196154 95.3755 1.06102 76.0722C1.87238 58.231 4.85927 48.5571 7.35578 42.0929C10.6815 33.5513 14.6491 27.4616 21.042 21.042C27.4438 14.6402 33.5334 10.6637 42.084 7.35578C48.5303 4.84144 58.2221 1.87238 76.0632 1.06102C95.3577 0.178322 101.153 0 149.996 0C198.856 0 204.633 0.196154 223.937 1.06102C241.778 1.87238 251.452 4.85927 257.916 7.35578C266.458 10.6637 272.547 14.6402 278.958 21.042C285.369 27.4438 289.318 33.5424 292.644 42.084C295.159 48.5303 298.128 58.2221 298.939 76.0632C299.822 95.3666 300 101.144 300 150.004C300 198.847 299.822 204.642 298.939 223.946C298.128 241.787 295.141 251.479 292.644 257.925C289.318 266.467 285.36 272.556 278.958 278.958C272.556 285.36 266.458 289.318 257.916 292.644C251.47 295.159 241.778 298.128 223.937 298.939C204.651 299.822 198.856 300 149.996 300C101.153 300 95.3577 299.831 76.0722 298.939Z" fill="url(#paint0_radial_2023_2406)"/>
<path d="M76.0722 298.939C58.231 298.128 48.5392 295.159 42.0929 292.644C33.5513 289.318 27.4616 285.36 21.0509 278.958C14.6402 272.556 10.6726 266.467 7.3647 257.925C4.85036 251.479 1.8813 241.787 1.06993 223.946C0.178322 204.66 0 198.874 0 150.013C0 101.153 0.196154 95.3755 1.06102 76.0722C1.87238 58.231 4.85927 48.5571 7.35578 42.0929C10.6815 33.5513 14.6491 27.4616 21.042 21.042C27.4438 14.6402 33.5334 10.6637 42.084 7.35578C48.5303 4.84144 58.2221 1.87238 76.0632 1.06102C95.3577 0.178322 101.153 0 149.996 0C198.856 0 204.633 0.196154 223.937 1.06102C241.778 1.87238 251.452 4.85927 257.916 7.35578C266.458 10.6637 272.547 14.6402 278.958 21.042C285.369 27.4438 289.318 33.5424 292.644 42.084C295.159 48.5303 298.128 58.2221 298.939 76.0632C299.822 95.3666 300 101.144 300 150.004C300 198.847 299.822 204.642 298.939 223.946C298.128 241.787 295.141 251.479 292.644 257.925C289.318 266.467 285.36 272.556 278.958 278.958C272.556 285.36 266.458 289.318 257.916 292.644C251.47 295.159 241.778 298.128 223.937 298.939C204.651 299.822 198.856 300 149.996 300C101.153 300 95.3577 299.831 76.0722 298.939Z" fill="url(#paint1_radial_2023_2406)"/>
<path d="M113.168 150.639C113.168 130.122 129.796 113.486 150.313 113.486C170.829 113.486 187.466 130.122 187.466 150.639C187.466 171.156 170.829 187.793 150.313 187.793C129.796 187.793 113.168 171.156 113.168 150.639ZM93.0837 150.639C93.0837 182.247 118.705 207.868 150.313 207.868C181.92 207.868 207.541 182.247 207.541 150.639C207.541 119.032 181.92 93.4104 150.313 93.4104C118.705 93.4104 93.0846 119.03 93.0846 150.639M196.434 91.1412C196.433 93.7864 197.216 96.3724 198.685 98.5724C200.153 100.772 202.242 102.487 204.685 103.501C207.128 104.514 209.817 104.78 212.412 104.265C215.006 103.75 217.39 102.477 219.261 100.607C221.132 98.7376 222.407 96.3551 222.924 93.761C223.441 91.1668 223.177 88.4776 222.166 86.0334C221.155 83.5892 219.441 81.4998 217.243 80.0293C215.044 78.5589 212.458 77.7735 209.813 77.7724H209.808C206.262 77.7741 202.862 79.1829 200.355 81.6895C197.847 84.1962 196.437 87.5956 196.434 91.1412ZM105.286 241.359C94.4202 240.864 88.5142 239.054 84.5893 237.525C79.3859 235.499 75.6732 233.086 71.7698 229.188C67.8663 225.29 65.45 221.581 63.4332 216.378C61.9032 212.455 60.0932 206.547 59.5993 195.681C59.059 183.933 58.9511 180.404 58.9511 150.641C58.9511 120.878 59.0679 117.359 59.5993 105.601C60.0941 94.7353 61.9175 88.8391 63.4332 84.9044C65.4589 79.701 67.8716 75.9883 71.7698 72.0848C75.6679 68.1814 79.377 65.7651 84.5893 63.7483C88.5124 62.2183 94.4202 60.4083 105.286 59.9144C117.034 59.374 120.563 59.2662 150.313 59.2662C180.062 59.2662 183.595 59.3812 195.352 59.9161C206.218 60.411 212.115 62.2343 216.049 63.7501C221.253 65.7669 224.965 68.1885 228.869 72.0866C232.772 75.9847 235.18 79.7027 237.205 84.9062C238.735 88.8293 240.545 94.7371 241.039 105.603C241.58 117.361 241.687 120.88 241.687 150.643C241.687 180.406 241.58 183.925 241.039 195.682C240.544 206.549 238.725 212.455 237.205 216.379C235.18 221.583 232.767 225.296 228.869 229.19C224.971 233.085 221.253 235.501 216.049 237.527C212.126 239.057 206.218 240.867 195.352 241.361C183.604 241.901 180.075 242.009 150.313 242.009C120.55 242.009 117.031 241.901 105.286 241.361M104.363 39.8629C92.4988 40.4033 84.3914 42.2845 77.3111 45.0396C69.983 47.8848 63.7711 51.7017 57.5682 57.8949C51.3653 64.088 47.5581 70.3007 44.713 77.6378C41.9579 84.7225 40.0766 92.8255 39.5363 104.69C38.987 116.573 38.8613 120.373 38.8613 150.639C38.8613 180.906 38.987 184.705 39.5363 196.588C40.0766 208.454 41.9579 216.556 44.713 223.641C47.5581 230.969 51.3662 237.193 57.5682 243.384C63.7702 249.574 69.9741 253.386 77.3111 256.239C84.4048 258.994 92.4988 260.875 104.363 261.416C116.253 261.956 120.046 262.09 150.313 262.09C180.579 262.09 184.378 261.965 196.262 261.416C208.127 260.875 216.229 258.994 223.314 256.239C230.642 253.386 236.854 249.577 243.057 243.384C249.26 237.19 253.059 230.969 255.912 223.641C258.667 216.556 260.557 208.453 261.089 196.588C261.629 184.696 261.755 180.906 261.755 150.639C261.755 120.373 261.629 116.573 261.089 104.69C260.549 92.8246 258.667 84.7181 255.912 77.6378C253.059 70.3096 249.25 64.0978 243.057 57.8949C236.864 51.6919 230.642 47.8848 223.323 45.0396C216.229 42.2845 208.126 40.3943 196.271 39.8629C184.385 39.3199 180.588 39.188 150.326 39.188C120.064 39.188 116.258 39.3137 104.368 39.8629" fill="white"/>
</g>
<defs>
<radialGradient id="paint0_radial_2023_2406" cx="0" cy="0" r="1" gradientUnits="userSpaceOnUse" gradientTransform="translate(19.4157 293.428) scale(380.889)">
<stop offset="0.09" stop-color="#FA8F21"/>
<stop offset="0.78" stop-color="#D82D7E"/>
</radialGradient>
<radialGradient id="paint1_radial_2023_2406" cx="0" cy="0" r="1" gradientUnits="userSpaceOnUse" gradientTransform="translate(207.799 283.795) scale(335.186)">
<stop offset="0.64" stop-color="#8C3AAA" stop-opacity="0"/>
<stop offset="1" stop-color="#8C3AAA"/>
</radialGradient>
<clipPath id="clip0_2023_2406">
<rect width="300" height="300" fill="white"/>
</clipPath>
</defs>
</svg>
