<svg width="300" height="301" viewBox="0 0 300 301" fill="none" xmlns="http://www.w3.org/2000/svg">
<path d="M291.191 142.488L162.167 13.4647L149.74 0.799805L52.5369 97.9237L8.1306 142.488C5.90711 144.715 4.6582 147.732 4.6582 150.879C4.6582 154.025 5.90711 157.043 8.1306 159.269L96.864 248.003L149.74 300.799L246.864 203.676L248.368 202.172L291.191 159.111C293.366 156.891 294.585 153.908 294.585 150.8C294.585 147.692 293.366 144.708 291.191 142.488ZM149.74 195.048L105.413 150.72L149.74 106.393L194.067 150.72L149.74 195.048Z" fill="#0082FF"/>
<path d="M149.743 106.393C135.802 92.4495 127.943 73.5565 127.884 53.8392C127.825 34.1219 135.569 15.182 149.427 1.15527L52.4609 98.1209L105.258 150.918L149.743 106.393Z" fill="url(#paint0_linear_2033_92)"/>
<path d="M194.111 150.602L149.744 195.048C156.704 201.983 162.226 210.223 165.994 219.297C169.762 228.371 171.702 238.099 171.702 247.924C171.702 257.749 169.762 267.477 165.994 276.551C162.226 285.624 156.704 293.865 149.744 300.8L246.987 203.557L194.111 150.602Z" fill="url(#paint1_linear_2033_92)"/>
<defs>
<linearGradient id="paint0_linear_2033_92" x1="141.748" y1="61.551" x2="79.8488" y2="123.451" gradientUnits="userSpaceOnUse">
<stop offset="0.18" stop-color="#0050D3"/>
<stop offset="1" stop-color="#0082FF"/>
</linearGradient>
<linearGradient id="paint1_linear_2033_92" x1="158.135" y1="239.375" x2="219.916" y2="177.594" gradientUnits="userSpaceOnUse">
<stop offset="0.18" stop-color="#0050D3"/>
<stop offset="1" stop-color="#0082FF"/>
</linearGradient>
</defs>
</svg>
