<svg width="300" height="300" viewBox="0 0 300 300" fill="none" xmlns="http://www.w3.org/2000/svg">
<g clip-path="url(#clip0_2032_37)">
<path d="M3.67623 184.568C3.00873 181.723 6.39867 179.931 8.46537 181.997L118.003 291.534C120.069 293.601 118.277 296.991 115.432 296.324C60.1545 283.356 16.6434 239.845 3.67623 184.568ZM0.00567404 140.667C-0.0472572 141.517 0.27229 142.347 0.874389 142.949L157.051 299.125C157.653 299.727 158.483 300.048 159.333 299.994C166.44 299.551 173.414 298.614 180.22 297.216C182.513 296.745 183.31 293.928 181.654 292.272L7.72785 118.345C6.07227 116.69 3.25434 117.487 2.78333 119.78C1.38558 126.586 0.448368 133.56 0.00567404 140.667ZM12.6328 89.1162C12.1333 90.2376 12.3877 91.548 13.2557 92.4162L207.584 286.744C208.452 287.612 209.762 287.867 210.884 287.367C216.242 284.98 221.435 282.289 226.44 279.315C228.097 278.331 228.352 276.055 226.99 274.693L25.307 73.0101C23.9447 71.6478 21.6688 71.9034 20.6848 73.5597C17.7108 78.5649 15.0195 83.7579 12.6328 89.1162ZM37.9761 54.222C36.8658 53.1117 36.7971 51.3309 37.8432 50.1597C65.3385 19.3779 105.334 0 149.856 0C232.778 0 300 67.2219 300 150.144C300 194.666 280.622 234.661 249.84 262.157C248.669 263.203 246.888 263.134 245.778 262.024L37.9761 54.222Z" fill="#222326"/>
</g>
<defs>
<clipPath id="clip0_2032_37">
<rect width="300" height="300" fill="white"/>
</clipPath>
</defs>
</svg>
