<svg width="300" height="300" viewBox="0 0 300 300" fill="none" xmlns="http://www.w3.org/2000/svg">
<g clip-path="url(#clip0_2002_10304)">
<path fill-rule="evenodd" clip-rule="evenodd" d="M61.3994 0H238.6C272.369 0 299.999 27.63 299.999 61.3994V238.6C299.999 272.369 272.369 299.999 238.6 299.999H61.3994C27.63 300 0 272.37 0 238.6V61.3994C0 27.63 27.63 0 61.3994 0Z" fill="#00C300"/>
<path fill-rule="evenodd" clip-rule="evenodd" d="M149.709 49.6946C210.495 49.6946 259.772 89.1533 259.772 137.828C259.772 154.83 253.756 170.704 243.34 184.167C242.825 184.934 242.152 185.78 241.303 186.716L241.238 186.786C237.68 191.042 233.674 195.039 229.269 198.727C198.832 226.86 148.734 260.354 142.122 255.186C136.374 250.695 151.589 228.725 134.036 225.068C132.811 224.928 131.59 224.777 130.379 224.605L130.356 224.604V224.602C78.7987 217.278 39.6465 181.215 39.6465 137.828C39.6449 89.1533 88.9225 49.6946 149.709 49.6946Z" fill="white"/>
<path fill-rule="evenodd" clip-rule="evenodd" d="M85.8495 165.94H108.047C111.205 165.94 113.788 163.357 113.788 160.199V159.72C113.788 156.563 111.205 153.98 108.047 153.98H92.0684V117.625C92.0684 114.467 89.4859 111.885 86.3283 111.885H85.8495C82.6919 111.885 80.1094 114.467 80.1094 117.625V160.198C80.1094 163.357 82.6919 165.94 85.8495 165.94ZM223.4 139.254V138.775C223.4 135.618 220.816 133.035 217.659 133.035H201.681V123.946H217.659C220.816 123.946 223.4 121.364 223.4 118.206V117.727C223.4 114.57 220.816 111.987 217.659 111.987H195.461C192.303 111.987 189.721 114.57 189.721 117.727V160.301C189.721 163.458 192.303 166.042 195.461 166.042H217.659C220.816 166.042 223.4 163.458 223.4 160.301V159.822C223.4 156.664 220.816 154.082 217.659 154.082H201.681V144.993H217.659C220.816 144.994 223.4 142.411 223.4 139.254ZM180.71 164.229L180.712 164.226C181.774 163.155 182.371 161.708 182.372 160.2V117.627C182.372 114.469 179.789 111.886 176.631 111.886H176.152C172.994 111.886 170.412 114.469 170.412 117.627V142.618L149.664 114.789C148.673 113.059 146.807 111.886 144.68 111.886H144.201C141.043 111.886 138.46 114.469 138.46 117.627V160.2C138.46 163.358 141.043 165.941 144.201 165.941H144.68C147.837 165.941 150.42 163.358 150.42 160.2V134.741L171.317 163.284C171.446 163.484 171.586 163.676 171.738 163.859L171.739 163.86C172.313 164.643 173.098 165.18 173.974 165.508C174.646 165.786 175.382 165.94 176.151 165.94H176.63C177.565 165.941 178.487 165.71 179.312 165.27C179.886 164.997 180.37 164.644 180.71 164.229ZM124.161 165.94H124.64C127.797 165.94 130.38 163.357 130.38 160.199V117.626C130.38 114.468 127.797 111.886 124.64 111.886H124.161C121.003 111.886 118.42 114.468 118.42 117.626V160.199C118.42 163.357 121.003 165.94 124.161 165.94Z" fill="#00C300"/>
</g>
<defs>
<clipPath id="clip0_2002_10304">
<rect width="300" height="300" fill="white"/>
</clipPath>
</defs>
</svg>
