<svg width="300" height="300" viewBox="0 0 300 300" fill="none" xmlns="http://www.w3.org/2000/svg">
<g clip-path="url(#clip0_2002_10310)">
<path d="M0 21.4898C0 9.62812 9.93047 0 22.1719 0H277.828C290.074 0 300 9.62812 300 21.4898V278.514C300 290.379 290.074 300 277.828 300H22.1719C9.93164 300 0 290.38 0 278.517V21.4863V21.4898Z" fill="#006699"/>
<path d="M91.1672 251.06V115.999H46.275V251.06H91.1719H91.1672ZM68.7305 97.562C84.382 97.562 94.1262 87.1909 94.1262 74.23C93.8332 60.9737 84.382 50.8921 69.0281 50.8921C53.6637 50.8921 43.6289 60.9737 43.6289 74.2288C43.6289 87.1897 53.3695 97.5608 68.4363 97.5608H68.727L68.7305 97.562ZM116.016 251.06H160.904V175.644C160.904 171.613 161.197 167.571 162.383 164.692C165.627 156.623 173.013 148.271 185.418 148.271C201.657 148.271 208.158 160.656 208.158 178.814V251.06H253.045V173.62C253.045 132.137 230.902 112.833 201.367 112.833C177.152 112.833 166.518 126.367 160.609 135.585H160.908V116.004H116.018C116.604 128.674 116.014 251.065 116.014 251.065L116.016 251.06Z" fill="white"/>
</g>
<defs>
<clipPath id="clip0_2002_10310">
<rect width="300" height="300" fill="white"/>
</clipPath>
</defs>
</svg>
