<svg width="300" height="300" viewBox="0 0 300 300" fill="none" xmlns="http://www.w3.org/2000/svg">
<path d="M110.68 147.945C110.68 155.624 109.874 159.458 104.305 159.458C98.4904 159.458 97.5727 155.972 97.5727 149.002V87.7035H52.4252V159.698C52.4252 172.222 55.4416 182.537 62.5094 190.643C69.5758 198.741 78.3085 202.794 89.219 202.794C96.5977 202.794 104.006 200.53 111.699 195.984C107.46 212.036 97.9354 220.063 83.6431 220.063C79.1704 220.063 74.8994 218.808 67.8439 216.295C67.8439 216.295 61.1662 214.175 52.4252 209.089V246.494C52.4252 246.494 61.1198 251.941 67.8439 254.474C76.0803 257.604 84.1886 259.172 92.3527 259.172C110.962 259.172 126.526 252.044 139.637 237.796C150.627 225.816 155.829 210.075 155.829 190.585V87.7035H110.68V147.945ZM213.042 41.551C159.463 46.3769 163.107 103.669 163.107 103.669V203.857C192.235 203.857 206.796 189.874 206.796 170.512V157.427H228.282V113.849H206.796V108.016C206.796 101.205 208.599 95.9617 211.622 92.2785C214.581 88.6839 218.904 86.8566 224.292 86.7748C227.885 86.8157 234.489 88.0062 235.824 93.1867L235.922 93.5985V139.019C235.922 155.7 239.066 169.09 245.82 179.192C251.154 187.099 258.121 193.361 266.953 197.987C275.786 202.603 285.075 204.903 295.05 204.903C296.15 204.903 298.15 204.872 300 204.789V158.636C290.765 158.636 286.804 156.929 283.864 153.4C280.917 149.877 279.494 142.902 279.494 134.185H295.218V87.7035H280.327C277.524 70.2734 267.058 44.0178 228.233 41.0928C228.233 41.0928 223.636 40.9196 220.033 41.0464C217.224 41.1473 213.042 41.551 213.042 41.551ZM60.4053 200.23L60.438 200.299C55.413 203.374 49.5125 205.509 45.1461 206.638V206.875L44.9947 206.659C42.3206 207.247 39.6697 207.568 37.1197 207.568C26.1151 207.568 17.2978 203.482 10.1741 195.31C3.0491 187.133 0 176.73 0 164.097V44.0192H45.1461V164.099C45.1461 176.733 48.1584 187.136 55.2889 195.31C56.8431 197.1 58.5555 198.747 60.4053 200.23Z" fill="url(#paint0_linear_2023_2188)"/>
<defs>
<linearGradient id="paint0_linear_2023_2188" x1="149.999" y1="259.172" x2="149.999" y2="41.0014" gradientUnits="userSpaceOnUse">
<stop stop-color="#3CBFB8"/>
<stop offset="1" stop-color="#2CA39C"/>
</linearGradient>
</defs>
</svg>
