<svg width="300" height="300" viewBox="0 0 300 300" fill="none" xmlns="http://www.w3.org/2000/svg">
<g clip-path="url(#clip0_97_306)">
<path d="M32.4016 181.778C32.4016 193.233 34.9148 202.027 38.2022 207.348C42.5112 214.317 48.9376 217.275 55.4897 217.275C63.9393 217.275 71.67 215.178 86.5674 194.573C98.5054 178.058 112.566 154.877 122.028 140.344L138.053 115.723C149.184 98.6239 162.068 79.6161 176.841 66.7319C188.905 56.2151 201.911 50.373 215.004 50.373C236.986 50.373 257.924 63.1115 273.949 87.0026C291.486 113.167 299.999 146.125 299.999 180.134C299.999 200.353 296.014 215.209 289.232 226.946C282.681 238.296 269.911 249.637 248.43 249.637V217.27C266.824 217.27 271.413 200.368 271.413 181.026C271.413 153.463 264.987 122.876 250.829 101.019C240.784 85.516 227.764 76.0435 213.439 76.0435C197.946 76.0435 185.479 87.7302 171.468 108.561C164.019 119.631 156.372 133.12 147.786 148.341L138.333 165.086C119.348 198.757 114.538 206.423 105.044 219.075C88.4046 241.232 74.1946 249.632 55.4897 249.632C33.2988 249.632 19.2672 240.023 10.5764 225.542C3.48269 213.744 -0.00195312 198.261 -0.00195312 180.62L32.4016 181.778Z" fill="#0081FB"/>
<path d="M25.5469 89.2798C40.4028 66.3802 61.8422 50.3657 86.432 50.3657C100.672 50.3657 114.832 54.5805 129.612 66.6517C145.783 79.8463 163.017 101.586 184.52 137.4L192.229 150.249C210.841 181.255 221.429 197.207 227.627 204.729C235.597 214.389 241.179 217.269 248.429 217.269C266.823 217.269 271.412 200.367 271.412 181.025L299.998 180.128C299.998 200.347 296.013 215.203 289.231 226.94C282.68 238.29 269.91 249.631 248.429 249.631C235.075 249.631 223.245 246.731 210.162 234.388C200.109 224.916 188.347 208.088 179.302 192.961L152.396 148.017C138.898 125.462 126.51 108.645 119.347 101.028C111.636 92.8374 101.725 82.9477 85.9092 82.9477C73.1091 82.9477 62.238 91.9301 53.1413 105.67L25.5469 89.2798Z" fill="url(#paint0_linear_97_306)"/>
<path d="M85.9102 82.9477C73.1101 82.9477 62.239 91.9301 53.1423 105.67C40.2781 125.085 32.4078 154.004 32.4078 181.775C32.4078 193.231 34.9211 202.025 38.2085 207.345L10.5764 225.54C3.48269 213.742 -0.00195312 198.259 -0.00195312 180.618C-0.00195312 148.538 8.80327 115.101 25.5479 89.2799C40.4038 66.3802 61.8432 50.3657 86.433 50.3657L85.9102 82.9477Z" fill="url(#paint1_linear_97_306)"/>
</g>
<defs>
<linearGradient id="paint0_linear_97_306" x1="65.0303" y1="144.834" x2="271.595" y2="155.267" gradientUnits="userSpaceOnUse">
<stop stop-color="#0064E1"/>
<stop offset="0.4" stop-color="#0064E1"/>
<stop offset="0.83" stop-color="#0073EE"/>
<stop offset="1" stop-color="#0082FB"/>
</linearGradient>
<linearGradient id="paint1_linear_97_306" x1="43.2149" y1="195.38" x2="43.2149" y2="119.222" gradientUnits="userSpaceOnUse">
<stop stop-color="#0082FB"/>
<stop offset="1" stop-color="#0064E0"/>
</linearGradient>
<clipPath id="clip0_97_306">
<rect width="300" height="300" fill="white"/>
</clipPath>
</defs>
</svg>
