<svg width="300" height="300" viewBox="0 0 300 300" fill="none" xmlns="http://www.w3.org/2000/svg">
  <g clip-path="url(#clip0_2054_9)">
    <path
      d="M63.3672 234.201C69.8339 238.234 80.5839 242.717 91.9506 242.717C102.301 242.717 111.917 239.717 119.884 234.601C119.884 234.601 119.901 234.601 119.917 234.584L150.001 215.784V283.667C145.234 283.667 140.434 282.367 136.267 279.767L63.3672 234.201Z"
      fill="#225086" />
    <path
      d="M130.884 25.45L5.88329 166.45C-3.76674 177.35 -1.25006 193.817 11.2666 201.634C11.2666 201.634 57.5334 230.55 63.3667 234.2C69.8334 238.234 80.5834 242.717 91.9501 242.717C102.3 242.717 111.917 239.717 119.884 234.6C119.884 234.6 119.9 234.6 119.917 234.584L150 215.784L77.2668 170.317L150.017 88.2502V17C142.95 17 135.884 19.8167 130.884 25.45Z"
      fill="#66DDFF" />
    <path
      d="M77.2656 170.317L78.1323 170.85L149.999 215.784H150.016V88.2667L149.999 88.25L77.2656 170.317Z"
      fill="#CBF8FF" />
    <path
      d="M288.735 201.634C301.251 193.817 303.768 177.351 294.118 166.451L212.101 73.9337C205.484 70.8504 198.068 69.0837 190.218 69.0837C174.801 69.0837 161.018 75.7338 151.851 86.1838L150.034 88.2338L222.768 170.301L150.018 215.767V283.651C154.801 283.651 159.568 282.351 163.734 279.751L288.735 201.617V201.634Z"
      fill="#074793" />
    <path
      d="M150.017 17V88.2502L151.833 86.2001C161 75.7501 174.783 69.1001 190.2 69.1001C198.067 69.1001 205.467 70.8834 212.083 73.9501L169.1 25.4667C164.117 19.8333 157.05 17.0167 150 17.0167L150.017 17Z"
      fill="#0294E4" />
    <path d="M222.751 170.317L150.018 88.2666V215.767L222.751 170.317Z" fill="#96BCC2" />
  </g>
  <defs>
    <clipPath id="clip0_2054_9">
      <rect width="300" height="300" fill="white" />
    </clipPath>
  </defs>
</svg>