<svg width="300" height="300" viewBox="0 0 300 300" fill="none" xmlns="http://www.w3.org/2000/svg">
<g clip-path="url(#clip0_2023_2418)">
<path d="M149.71 238.873C136.498 238.55 125.598 232.721 118.638 220.553C111.504 207.976 111.815 195.099 119.421 182.832C137.53 153.637 155.874 124.604 174.107 95.4954C177.836 89.542 181.478 83.5017 185.38 77.6602C190.561 69.6704 198.656 64.0188 207.942 61.9086C217.228 59.7984 226.97 61.3965 235.095 66.3624C252.259 76.9393 258.001 98.9382 247.313 116.276C225.463 151.864 203.303 187.278 180.831 222.517C173.909 233.417 163.406 238.675 149.71 238.873Z" fill="#FFCB00"/>
<path d="M36.2353 238.874C22.8993 238.55 12.0614 232.46 5.23802 220.342C-1.79665 207.764 -1.34921 194.863 6.28203 182.596C25.762 151.342 45.329 120.133 64.983 88.9704C67.4687 84.9435 69.9545 80.8172 72.6142 76.9146C78.0077 69.0983 86.2313 63.6878 95.544 61.8288C104.857 59.9697 114.527 61.8079 122.509 66.9542C130.49 72.1005 136.155 80.1509 138.304 89.4009C140.454 98.6509 138.919 108.374 134.025 116.513C112.249 151.673 90.176 186.71 68.0902 221.709C60.9188 233.057 50.3668 238.675 36.2353 238.874Z" fill="#FF3D57"/>
<path d="M263.917 167.607C284.014 167.706 300.283 183.677 300.246 203.265C300.246 223.151 283.542 239.184 263.258 238.935C242.974 238.687 226.991 222.89 227.016 203.215C227.041 183.255 243.372 167.483 263.917 167.607Z" fill="#00D647"/>
</g>
<defs>
<clipPath id="clip0_2023_2418">
<rect width="300" height="300" fill="white"/>
</clipPath>
</defs>
</svg>
