<svg width="300" height="300" viewBox="0 0 300 300" fill="none" xmlns="http://www.w3.org/2000/svg">
<path d="M214.417 106.013L214.312 105.968C214.252 105.945 214.192 105.923 214.14 105.87C214.054 105.778 213.99 105.667 213.954 105.546C213.917 105.425 213.909 105.297 213.93 105.173L219.727 69.7275L246.915 96.9225L218.64 108.953C218.561 108.984 218.477 109 218.392 108.998H218.28C218.242 108.975 218.205 108.945 218.13 108.87C217.078 107.698 215.819 106.73 214.417 106.013ZM253.852 103.853L282.922 132.923C288.96 138.968 291.982 141.983 293.085 145.478C293.25 145.995 293.385 146.513 293.49 147.045L224.017 117.623C223.98 117.607 223.943 117.592 223.905 117.578C223.627 117.465 223.305 117.338 223.305 117.053C223.305 116.768 223.635 116.633 223.912 116.52L224.002 116.483L253.852 103.853ZM292.305 156.375C290.805 159.195 287.88 162.12 282.93 167.078L250.155 199.845L207.765 191.018L207.54 190.973C207.165 190.913 206.767 190.845 206.767 190.508C206.606 188.759 206.087 187.062 205.242 185.523C204.397 183.983 203.244 182.635 201.855 181.56C201.682 181.388 201.727 181.118 201.78 180.87C201.78 180.833 201.78 180.795 201.795 180.765L209.767 131.82L209.797 131.655C209.842 131.28 209.91 130.845 210.247 130.845C211.956 130.633 213.605 130.082 215.099 129.226C216.592 128.37 217.901 127.225 218.947 125.858C219.015 125.783 219.06 125.7 219.15 125.655C219.39 125.543 219.675 125.655 219.922 125.76L292.305 156.375ZM242.617 207.383L188.722 261.278L197.947 204.578L197.962 204.503C197.97 204.428 197.985 204.353 198.007 204.285C198.082 204.105 198.277 204.03 198.465 203.955L198.555 203.918C200.575 203.056 202.361 201.727 203.767 200.04C203.947 199.83 204.165 199.628 204.442 199.59C204.514 199.578 204.588 199.578 204.66 199.59L242.61 207.39L242.617 207.383ZM177.315 272.685L171.24 278.76L104.077 181.695C104.053 181.66 104.028 181.625 104.002 181.59C103.897 181.448 103.785 181.305 103.807 181.14C103.815 181.02 103.89 180.915 103.972 180.825L104.047 180.728C104.25 180.428 104.422 180.128 104.61 179.805L104.76 179.543L104.782 179.52C104.887 179.34 104.985 179.168 105.165 179.07C105.322 178.995 105.54 179.025 105.712 179.063L180.12 194.408C180.328 194.44 180.524 194.525 180.69 194.655C180.787 194.753 180.81 194.858 180.832 194.978C181.351 196.941 182.317 198.758 183.655 200.287C184.992 201.816 186.665 203.015 188.542 203.79C188.752 203.895 188.662 204.128 188.565 204.375C188.516 204.484 188.479 204.597 188.452 204.713C187.515 210.413 179.475 259.448 177.315 272.685ZM164.625 285.368C160.147 289.8 157.507 292.148 154.522 293.093C151.579 294.023 148.421 294.023 145.477 293.093C141.982 291.983 138.96 288.968 132.922 282.923L65.4749 215.475L83.0924 188.153C83.1749 188.018 83.2574 187.898 83.3924 187.8C83.5799 187.665 83.8499 187.725 84.0749 187.8C88.1186 189.02 92.4602 188.8 96.3599 187.178C96.5624 187.103 96.7649 187.05 96.9224 187.193C97.0012 187.264 97.0716 187.345 97.1324 187.433L164.625 285.368ZM58.9724 208.973L43.4999 193.5L74.0549 180.465C74.133 180.431 74.2172 180.413 74.3024 180.413C74.5574 180.413 74.7074 180.668 74.8424 180.9C75.1495 181.372 75.4747 181.833 75.8174 182.28L75.9149 182.4C76.0049 182.528 75.9449 182.655 75.8549 182.775L58.9724 208.973ZM36.6524 186.653L17.0774 167.078C13.7474 163.748 11.3324 161.333 9.65242 159.255L69.1724 171.6C69.2472 171.614 69.3222 171.626 69.3974 171.638C69.7649 171.698 70.1699 171.765 70.1699 172.11C70.1699 172.485 69.7274 172.658 69.3524 172.8L69.1799 172.875L36.6524 186.653ZM6.23242 149.19C6.30025 147.929 6.52705 146.682 6.90742 145.478C8.01742 141.983 11.0324 138.968 17.0774 132.923L42.1274 107.873C53.6612 124.612 65.2262 141.329 76.8224 158.025C77.0249 158.295 77.2499 158.595 77.0174 158.82C75.9224 160.028 74.8274 161.348 74.0549 162.78C73.9711 162.964 73.8421 163.124 73.6799 163.245C73.5824 163.305 73.4774 163.283 73.3649 163.26H73.3499L6.23242 149.19ZM48.8324 101.168L82.5149 67.485C85.6799 68.8725 97.1999 73.74 107.505 78.09C115.305 81.39 122.415 84.39 124.65 85.365C124.875 85.455 125.077 85.545 125.175 85.77C125.235 85.905 125.205 86.0775 125.175 86.22C124.642 88.6514 124.721 91.1771 125.406 93.5701C126.09 95.9632 127.359 98.1487 129.097 99.93C129.322 100.155 129.097 100.478 128.902 100.755L128.797 100.913L94.5974 153.885C94.5074 154.035 94.4249 154.163 94.2749 154.26C94.0949 154.373 93.8399 154.32 93.6299 154.268C92.2998 153.919 90.9323 153.733 89.5574 153.713C88.3274 153.713 86.9924 153.938 85.6424 154.185C85.4924 154.208 85.3499 154.238 85.2299 154.148C85.0974 154.039 84.9834 153.91 84.8924 153.765L48.8324 101.168ZM89.3174 60.6825L132.922 17.0775C138.96 11.04 141.982 8.01755 145.477 6.91505C148.421 5.98437 151.579 5.98437 154.522 6.91505C158.017 8.01755 161.04 11.04 167.077 17.0775L176.527 26.5275L145.515 74.5575C145.438 74.6974 145.334 74.8199 145.207 74.9175C145.02 75.045 144.757 74.9925 144.532 74.9175C142.087 74.1755 139.498 74.0404 136.989 74.5239C134.48 75.0075 132.127 76.095 130.132 77.6925C129.93 77.9025 129.63 77.7825 129.375 77.67C125.325 75.9075 93.8249 62.595 89.3174 60.6825ZM183.112 33.1125L211.747 61.7475L204.847 104.483V104.595C204.841 104.692 204.821 104.788 204.787 104.88C204.712 105.03 204.562 105.06 204.412 105.105C202.937 105.552 201.548 106.244 200.302 107.153C200.249 107.191 200.199 107.233 200.152 107.28C200.07 107.37 199.987 107.453 199.852 107.468C199.743 107.471 199.633 107.453 199.53 107.415L155.895 88.875L155.812 88.8375C155.535 88.725 155.205 88.59 155.205 88.305C154.948 85.8734 154.154 83.5293 152.88 81.4425C152.67 81.0975 152.437 80.7375 152.617 80.385L183.112 33.1125ZM153.622 97.6575L194.527 114.983C194.752 115.088 195 115.185 195.097 115.418C195.136 115.557 195.136 115.705 195.097 115.845C194.977 116.445 194.872 117.128 194.872 117.818V118.965C194.872 119.25 194.58 119.37 194.31 119.483L194.227 119.513C187.747 122.28 103.252 158.31 103.125 158.31C102.997 158.31 102.862 158.31 102.735 158.183C102.51 157.958 102.735 157.643 102.937 157.358C102.973 157.308 103.008 157.258 103.042 157.208L136.657 105.158L136.717 105.068C136.912 104.753 137.137 104.4 137.497 104.4L137.835 104.453C138.6 104.558 139.275 104.655 139.957 104.655C145.057 104.655 149.782 102.173 152.632 97.9275C152.7 97.8142 152.786 97.7128 152.887 97.6275C153.09 97.4775 153.39 97.5525 153.622 97.6575ZM106.777 166.545L198.877 127.268C198.877 127.268 199.012 127.268 199.14 127.395C199.642 127.898 200.07 128.235 200.482 128.55L200.685 128.678C200.872 128.783 201.06 128.903 201.075 129.098C201.075 129.173 201.075 129.218 201.06 129.285L193.17 177.75L193.14 177.945C193.087 178.32 193.035 178.748 192.682 178.748C190.579 178.89 188.542 179.542 186.747 180.649C184.953 181.756 183.456 183.284 182.385 185.1L182.347 185.16C182.242 185.333 182.145 185.498 181.972 185.588C181.815 185.663 181.612 185.633 181.447 185.595L108 170.445C107.925 170.43 106.86 166.553 106.777 166.545Z" fill="url(#paint0_radial_2023_2220)"/>
<defs>
<radialGradient id="paint0_radial_2023_2220" cx="0" cy="0" r="1" gradientUnits="userSpaceOnUse" gradientTransform="translate(-3.4123 145.947) rotate(90) scale(28725.7 33164.9)">
<stop stop-color="#20C6B7"/>
<stop offset="1" stop-color="#4D9ABF"/>
</radialGradient>
</defs>
</svg>
