<svg width="300" height="300" viewBox="0 0 300 300" fill="none" xmlns="http://www.w3.org/2000/svg">
<g clip-path="url(#clip0_2002_10331)">
<path d="M18.051 12.9406L184.05 0.679625C204.441 -1.06938 209.679 0.109625 222.501 9.43062L275.49 46.7596C284.229 53.1796 287.139 54.9286 287.139 61.9186V266.648C287.139 279.479 282.48 287.069 266.169 288.227L73.401 299.903C61.161 300.482 55.332 298.733 48.921 290.564L9.9 239.822C2.901 230.483 0 223.493 0 215.321V33.3406C0 22.8496 4.659 14.1016 18.051 12.9406Z" fill="white"/>
<path fill-rule="evenodd" clip-rule="evenodd" d="M184.05 0.682625L18.051 12.9436C4.659 14.1016 0 22.8526 0 33.3406V215.321C0 223.49 2.901 230.48 9.9 239.822L48.921 290.561C55.332 298.73 61.161 300.482 73.401 299.9L266.172 288.23C282.471 287.069 287.142 279.479 287.142 266.651V61.9216C287.142 55.2916 284.523 53.3806 276.813 47.7226L222.501 9.43062C209.682 0.109625 204.441 -1.06938 184.05 0.679625V0.682625ZM77.76 58.5706C62.019 59.6296 58.449 59.8696 49.509 52.6006L26.781 34.5226C24.471 32.1826 25.632 29.2636 31.452 28.6816L191.031 17.0206C204.432 15.8506 211.41 20.5216 216.651 24.6016L244.02 44.4316C245.19 45.0226 248.1 48.5116 244.599 48.5116L79.8 58.4326L77.76 58.5706ZM59.409 264.902V91.1026C59.409 83.5126 61.74 80.0116 68.718 79.4236L258 68.3416C264.42 67.7626 267.321 71.8426 267.321 79.4206V252.062C267.321 259.652 266.151 266.072 255.672 266.651L74.541 277.151C64.062 277.73 59.412 274.241 59.412 264.902H59.409ZM238.209 100.421C239.37 105.671 238.209 110.921 232.959 111.521L224.229 113.252V241.571C216.648 245.651 209.67 247.982 203.838 247.982C194.517 247.982 192.189 245.063 185.208 236.321L128.118 146.501V233.402L146.178 237.491C146.178 237.491 146.178 247.991 131.607 247.991L91.437 250.322C90.267 247.982 91.437 242.153 95.508 240.992L105.999 238.082V123.182L91.44 122.003C90.27 116.753 93.18 109.172 101.34 108.584L144.441 105.683L203.841 196.664V116.174L188.7 114.434C187.53 108.005 192.189 103.334 198.009 102.764L238.209 100.421Z" fill="black"/>
</g>
<defs>
<clipPath id="clip0_2002_10331">
<rect width="300" height="300" fill="white"/>
</clipPath>
</defs>
</svg>
