<svg width="300" height="300" viewBox="0 0 300 300" fill="none" xmlns="http://www.w3.org/2000/svg">
<g clip-path="url(#clip0_2023_2222)">
<mask id="mask0_2023_2222" style="mask-type:luminance" maskUnits="userSpaceOnUse" x="0" y="5" width="301" height="290">
<path d="M300.447 5H0.447266V294.583H300.447V5Z" fill="white"/>
</mask>
<g mask="url(#mask0_2023_2222)">
<path d="M101.283 164.167V198.958C127.742 198.958 153.158 188.75 171.908 170.625C190.658 152.5 201.283 127.708 201.283 102.083H165.45C165.45 118.542 158.575 134.375 146.7 146.042C134.617 157.5 118.367 164.167 101.283 164.167Z" fill="#3BE081"/>
<path d="M101.281 260C84.4056 260 68.1556 253.541 56.2806 241.875C44.4056 230.208 37.5306 214.583 37.5306 198.125C37.5306 181.666 44.1972 166.041 56.2806 154.375C68.1556 142.708 84.4056 136.25 101.281 136.25V101.667C88.1556 101.667 75.2389 104.167 63.3639 108.958C51.2806 113.75 40.4472 120.833 31.0722 129.792C21.9056 138.75 14.4056 149.375 9.4056 161.042C4.4056 172.708 1.9056 185.208 1.69727 197.916C1.69727 210.625 4.19727 223.125 9.19727 234.792C14.1973 246.458 21.4889 257.083 30.6556 266.042C39.8222 275 50.8639 282.083 62.9472 286.875C75.0306 291.666 87.9472 294.166 100.864 294.166H101.072V260H101.281Z" fill="#0037FF"/>
<path d="M101.283 260V294.583C127.533 294.583 152.95 284.375 171.492 266.458C190.033 248.542 200.658 223.958 200.658 198.333H165.033C165.033 214.792 158.367 230.417 146.283 242.083C134.408 253.333 118.158 259.792 101.283 260Z" fill="#00CCFF"/>
<path d="M101.283 67.4999V102.083C127.533 102.083 152.95 91.8749 171.492 73.9583C190.033 55.8333 200.658 31.4583 200.658 5.83325H165.033C165.033 22.2916 158.367 37.9166 146.283 49.5833C134.408 60.8333 118.158 67.4999 101.283 67.4999Z" fill="#861DFF"/>
<path d="M201.072 67.4999V102.083C227.323 102.083 252.739 91.8749 271.281 73.9583C289.823 55.8333 300.448 31.4583 300.448 5.83325H264.823C264.823 22.2916 258.156 37.9166 246.073 49.5833C234.198 60.8333 218.156 67.4999 201.072 67.4999Z" fill="#FF8110"/>
</g>
</g>
<defs>
<clipPath id="clip0_2023_2222">
<rect width="300" height="300" fill="white"/>
</clipPath>
</defs>
</svg>
