<svg width="300" height="300" viewBox="0 0 300 300" fill="none" xmlns="http://www.w3.org/2000/svg">
<path d="M77.3438 93.7209C77.3438 93.7209 227.344 35.1563 227.344 84.3456C227.344 133.535 79.6872 164.063 79.6872 217.741C79.6872 271.419 227.344 208.366 227.344 208.366" stroke="#555555" stroke-width="18" stroke-linecap="round"/>
<path fill-rule="evenodd" clip-rule="evenodd" d="M77.3438 32.8125C109.704 32.8125 135.938 59.0458 135.938 91.4062C135.938 123.767 109.704 150 77.3438 150C44.9833 150 18.75 123.767 18.75 91.4062C18.75 59.0458 44.9833 32.8125 77.3438 32.8125ZM78.5158 62.1092C94.0486 62.1092 106.641 74.7014 106.641 90.2342V92.5783C106.641 108.111 94.0486 120.703 78.5158 120.703H76.1717C60.6389 120.703 48.0467 108.111 48.0467 92.5783V90.2342C48.0467 74.7014 60.6389 62.1092 76.1717 62.1092H78.5158Z" fill="#FFCD83"/>
<path fill-rule="evenodd" clip-rule="evenodd" d="M227.344 267.188C194.983 267.188 168.75 240.954 168.75 208.594C168.75 176.233 194.983 150 227.344 150C259.704 150 285.938 176.233 285.938 208.594C285.938 240.954 259.704 267.188 227.344 267.188ZM226.172 237.891C210.639 237.891 198.047 225.299 198.047 209.766V207.422C198.047 191.889 210.639 179.297 226.172 179.297H228.516C244.049 179.297 256.641 191.889 256.641 207.422V209.766C256.641 225.299 244.049 237.891 228.516 237.891H226.172Z" fill="#FFCD83"/>
</svg>
