<svg width="300" height="300" viewBox="0 0 300 300" fill="none" xmlns="http://www.w3.org/2000/svg">
<g clip-path="url(#clip0_2023_2236)">
<path d="M150.001 293.7C229.364 293.7 293.701 229.363 293.701 150C293.701 70.6367 229.364 6.30005 150.001 6.30005C70.6375 6.30005 6.30078 70.6367 6.30078 150C6.30078 229.363 70.6375 293.7 150.001 293.7Z" fill="#FF66AA"/>
<g opacity="0.15">
<mask id="mask0_2023_2236" style="mask-type:luminance" maskUnits="userSpaceOnUse" x="0" y="0" width="300" height="300">
<path d="M150 300C232.843 300 300 232.843 300 150C300 67.1573 232.843 0 150 0C67.1573 0 0 67.1573 0 150C0 232.843 67.1573 300 150 300Z" fill="white"/>
</mask>
<g mask="url(#mask0_2023_2236)">
<path d="M-106.201 311.9L149.999 -131.9L406.199 311.9H-106.201Z" fill="#F1F1F2"/>
<path d="M43.7988 418.7L299.999 -25L556.199 418.7H43.7988Z" fill="#231F20"/>
<path d="M-434.801 338.4L-178.601 -105.3L77.5992 338.4H-434.801Z" fill="#808184"/>
<path d="M36.3984 133.2L292.598 -310.6L548.798 133.2H36.3984Z" fill="#929497"/>
<path d="M-247.4 355L8.79959 -88.7002L265 355H-247.4Z" fill="#636466"/>
<path d="M-125.102 621.9L131.098 178.1L387.298 621.9H-125.102Z" fill="#59595C"/>
<path d="M-189.9 122.2L-92.6004 -46.3L4.6996 122.2H-189.9ZM-108.4 498.8L-11.1004 330.3L86.1996 498.8H-108.4Z" fill="#A7A8AB"/>
<path d="M109.299 195.8L206.599 27.2998L303.899 195.8H109.299Z" fill="#6D6E70"/>
<path d="M273.699 460.7L370.999 292.2L468.199 460.7H273.699Z" fill="#A7A8AB"/>
<path d="M253.699 280.9L302.299 196.7L350.899 280.9H253.699ZM21.1992 375L118.499 206.5L215.799 375H21.1992Z" fill="#221F1F"/>
<path d="M83.8 -111.6L11.5 13.5999H206.1L133.8 -111.6H83.8ZM297 -111.6L273.4 -70.7001H370.7L347 -111.6H297Z" fill="#808184"/>
<path d="M10.2988 307.5L107.599 139L204.899 307.5H10.2988Z" fill="#404041"/>
<path d="M211.1 344.2L308.3 175.7L405.6 344.2H211.1Z" fill="#808184"/>
<path d="M98.1992 79.8L146.299 -3.5L194.399 79.8H98.1992Z" fill="#58595B"/>
<path d="M258 65.1999L306.1 -18.1001L354.2 65.1999H258Z" fill="#221F1F"/>
<path d="M172.1 234.7L220.2 151.4L268.3 234.7H172.1Z" fill="#404041"/>
<path d="M258 214.3L306.1 131L354.2 214.3H258Z" fill="#F1F1F2"/>
<path d="M-74.5004 53.8L-26.4004 -29.5L21.6996 53.8H-74.5004ZM-122.9 200.4L-74.8004 117.1L-26.7004 200.4H-122.9Z" fill="#A7A8AB"/>
<path d="M162.199 91.1999L186.299 49.5999L210.299 91.1999H162.199Z" fill="#BBBDBF"/>
<path d="M206.898 38.7998L213.298 27.7998L219.698 38.7998H206.898Z" fill="white"/>
<path d="M3.89844 92.8L51.9984 9.5L100.098 92.8H3.89844Z" fill="#6D6E70"/>
<path d="M85.7988 306.9L133.899 223.6L181.999 306.9H85.7988Z" fill="#A6A8AB"/>
<path d="M82 238.1L100.1 206.7L118.1 238.1H82Z" fill="#231F20"/>
<path d="M189 260.3L213 218.6L237.1 260.3H189ZM183.6 142.2L207.6 100.6L231.7 142.2H183.6Z" fill="#A7A8AB"/>
<path d="M201 77.8L249.1 -5.5L297.1 77.8H201Z" fill="#F1F1F2"/>
<path d="M-23.8008 118.6L24.2992 35.2998L72.3992 118.6H-23.8008Z" fill="#A6A8AB"/>
<path d="M-11 247.2L7.3 215.4L25.6 247.2H-11Z" fill="#59595C"/>
<path d="M240.398 205.6L258.698 173.8L276.998 205.6H240.398Z" fill="#A6A8AB"/>
<path d="M131.699 59.7999L149.999 28.0999L168.299 59.7999H131.699Z" fill="white"/>
<path d="M131.699 257.1L149.999 225.3L168.299 257.1H131.699Z" fill="#58595B"/>
<path d="M-44.7012 63L-26.4012 31.2L-8.00117 63H-44.7012ZM213.399 335.2L231.699 303.5L249.999 335.2H213.399Z" fill="#59595C"/>
<path d="M282.5 110.6L300.8 78.7998L319.1 110.6H282.5Z" fill="#808184"/>
<path d="M20.2988 208.1L38.5988 176.3L56.9988 208.1H20.2988Z" fill="#BBBDBF"/>
<path d="M47.2996 270.1L65.5996 238.3L83.9996 270.1H47.2996ZM2.59961 142.7L20.9996 111L39.2996 142.7H2.59961Z" fill="#F1F1F2"/>
<path d="M88.6992 98.6999L97.7992 82.8999L106.999 98.6999H88.6992Z" fill="#59595C"/>
<path d="M25.7988 127.9L34.8988 112.1L44.0988 127.9H25.7988Z" fill="#BBBDBF"/>
<path d="M82.6992 59.4L91.8992 43.5L101.099 59.4H82.6992Z" fill="#E6E7E8"/>
<path d="M87.1992 394.2L105.499 362.4L123.799 394.2H87.1992ZM491.699 263.1L510.099 231.3L528.399 263.1H491.699Z" fill="#59595C"/>
<path d="M162.699 36.8999L180.999 5.09985L199.399 36.8999H162.699Z" fill="#808184"/>
<path d="M258.398 103.2L276.698 71.5L294.998 103.2H258.398Z" fill="white"/>
<path d="M-122.4 314.9L-104.1 283.2L-85.7004 314.9H-122.4ZM252.7 290.5L271.1 258.7L289.4 290.5H252.7Z" fill="#808184"/>
<path d="M261.898 243.6L271.098 227.7L280.198 243.6H261.898Z" fill="#A7A8AB"/>
<path d="M185.1 103.5L196 84.5999L206.9 103.5H185.1Z" fill="#D0D2D3"/>
</g>
</g>
<path d="M75.1008 181.4C70.4008 181.4 66.3008 180.6 62.8008 179.1C59.3008 177.6 56.4008 175.4 54.2008 172.7C51.9008 170 50.2008 166.8 49.0008 163.1C47.8008 159.4 47.3008 155.5 47.3008 151.2C47.3008 146.9 47.9008 142.9 49.0008 139.2C50.2008 135.5 51.9008 132.2 54.2008 129.5C56.5008 126.8 59.4008 124.6 62.8008 123C66.3008 121.4 70.4008 120.6 75.1008 120.6C79.8008 120.6 83.9008 121.4 87.4008 123C90.9008 124.6 93.8008 126.7 96.2008 129.5C98.5008 132.2 100.201 135.5 101.401 139.2C102.501 142.9 103.101 146.9 103.101 151.2C103.101 155.5 102.501 159.4 101.401 163.1C100.301 166.8 98.6008 170 96.2008 172.7C93.9008 175.4 91.0008 177.6 87.4008 179.1C84.0008 180.7 79.8008 181.4 75.1008 181.4ZM75.1008 169.3C79.3008 169.3 82.3008 167.7 84.1008 164.6C85.9008 161.5 86.8008 157 86.8008 151.2C86.8008 145.4 85.9008 140.9 84.1008 137.8C82.3008 134.7 79.3008 133.1 75.1008 133.1C71.0008 133.1 68.0008 134.7 66.2008 137.8C64.4008 140.9 63.4008 145.4 63.4008 151.2C63.4008 157 64.3008 161.5 66.2008 164.6C68.0008 167.8 71.0008 169.3 75.1008 169.3ZM126.901 154.8C122.701 153.6 119.401 151.8 117.101 149.5C114.701 147.1 113.601 143.6 113.601 138.9C113.601 133.2 115.601 128.8 119.701 125.5C123.801 122.3 129.301 120.7 136.401 120.7C142.279 120.729 148.105 121.813 153.601 123.9C153.401 125.8 153.101 127.9 152.501 130C151.901 132.1 151.201 133.9 150.401 135.5C148.601 134.8 146.601 134.1 144.501 133.5C142.301 132.9 140.001 132.7 137.701 132.7C135.201 132.7 133.201 133.1 131.801 133.9C130.401 134.7 129.701 135.9 129.701 137.7C129.701 139.3 130.201 140.5 131.201 141.2C132.201 141.9 133.601 142.5 135.501 143.1L141.901 145C144.001 145.6 145.901 146.3 147.601 147.2C149.301 148.1 150.701 149.1 151.901 150.4C153.101 151.7 154.001 153.2 154.701 155.1C155.401 157 155.701 159.3 155.701 161.9C155.701 164.7 155.101 167.2 154.001 169.6C152.83 172.022 151.119 174.143 149.001 175.8C146.801 177.6 144.101 178.9 141.001 180C137.533 181.051 133.924 181.557 130.301 181.5C128.501 181.5 126.901 181.4 125.401 181.3C123.901 181.2 122.501 181 121.101 180.7C119.701 180.4 118.401 180.1 117.001 179.7C115.701 179.3 114.201 178.8 112.601 178.2C112.701 176.2 113.101 174.1 113.701 172.1C114.301 170 115.001 168 115.901 166.1C118.401 167.1 120.701 167.8 122.901 168.3C125.101 168.8 127.401 169 129.801 169C130.801 169 132.001 168.9 133.201 168.7C134.401 168.5 135.601 168.2 136.601 167.7C137.601 167.2 138.501 166.6 139.201 165.8C139.901 165 140.301 164 140.301 162.7C140.301 160.9 139.801 159.6 138.701 158.8C137.601 158 136.101 157.3 134.201 156.7L126.901 154.8ZM166.201 122.1C168.901 121.7 171.501 121.4 174.201 121.4C176.801 121.4 179.501 121.6 182.201 122.1V152.8C182.201 155.9 182.401 158.4 182.901 160.4C183.401 162.4 184.101 164 185.101 165.1C186.101 166.3 187.401 167.1 188.901 167.6C190.401 168.1 192.201 168.3 194.201 168.3C197.001 168.3 199.301 168 201.201 167.5V122.1C203.901 121.7 206.501 121.4 209.101 121.4C211.701 121.4 214.401 121.6 217.101 122.1V177.9C214.701 178.7 211.501 179.5 207.601 180.3C199.915 181.795 192.023 181.897 184.301 180.6C180.801 180 177.701 178.7 175.001 176.8C172.301 174.9 170.201 172 168.701 168.3C167.101 164.6 166.301 159.6 166.301 153.4V122.1H166.201ZM232.101 180.1C231.701 177.3 231.401 174.6 231.401 171.9C231.401 169.2 231.601 166.4 232.101 163.6C234.901 163.2 237.601 162.9 240.301 162.9C243.001 162.9 245.801 163.1 248.601 163.6C249.001 166.4 249.301 169.2 249.301 171.8C249.301 174.6 249.101 177.3 248.601 180.1C245.801 180.5 243.001 180.8 240.401 180.8C237.601 180.7 234.901 180.5 232.101 180.1ZM231.701 99.4C234.601 99 237.501 98.7 240.301 98.7C243.201 98.7 246.101 98.9 249.101 99.4L248.001 154.3C245.401 154.7 242.901 155 240.501 155C238.001 155 235.401 154.8 232.901 154.3L231.701 99.4Z" fill="white"/>
<path d="M150 0C67.2 0 0 67.2 0 150C0 232.8 67.2 300 150 300C232.8 300 300 232.8 300 150C300 67.2 232.8 0 150 0ZM150 285C75.4 285 15 224.6 15 150C15 75.4 75.4 15 150 15C224.6 15 285 75.4 285 150C285 224.6 224.6 285 150 285Z" fill="white"/>
</g>
<defs>
<clipPath id="clip0_2023_2236">
<rect width="300" height="300" fill="white"/>
</clipPath>
</defs>
</svg>
