<svg width="300" height="300" viewBox="0 0 300 300" fill="none" xmlns="http://www.w3.org/2000/svg">
<path d="M133.47 9.73438C86.5902 9.73438 51.3459 21.5843 30.8569 41.9223C20.5717 52.2518 12.5318 64.5821 7.23705 78.1447C1.94229 91.7073 -0.492935 106.212 0.082663 120.753C0.082663 168.825 24.4496 220.258 58.5132 254.212C67.3667 263.12 98.0579 290.265 138.278 290.265C178.496 290.265 209.945 265.054 229.171 246.143C266.354 209.082 299.997 145.294 299.997 103.273C300.168 85.6428 293.385 68.6507 281.109 55.9574C248.817 23.7694 179.339 9.73438 133.47 9.73438ZM190.299 175.801C184.65 182.222 177.739 187.422 169.997 191.079C162.252 194.735 153.839 196.772 145.275 197.064C130.994 196.774 117.364 191.062 107.164 181.095C95.5378 169.563 88.7284 154.067 88.1085 137.73C87.9111 130.917 89.1029 124.135 91.6101 117.794C94.1172 111.452 97.8882 105.683 102.696 100.836C109.033 94.9958 116.492 90.4957 124.62 87.6068C132.751 84.718 141.383 83.5004 149.996 84.0273C158.9 83.524 167.812 84.8786 176.16 88.0045C184.508 91.1302 192.109 95.9586 198.479 102.18C202.186 105.885 205.11 110.292 207.08 115.142C209.049 119.993 210.025 125.187 209.945 130.418C209.484 147.498 202.45 163.747 190.299 175.801Z" fill="#5951FF"/>
</svg>
