<svg width="300" height="300" viewBox="0 0 300 300" fill="none" xmlns="http://www.w3.org/2000/svg">
<g clip-path="url(#clip0_2023_2299)">
<path d="M300 150C300 67.1573 232.843 0 150 0C67.1573 0 0 67.1573 0 150C0 232.843 67.1573 300 150 300C232.843 300 300 232.843 300 150Z" fill="#017737"/>
<path d="M232.299 125.02C232.299 165.602 206.114 193.358 168.673 193.358C150.874 193.358 136.205 186.024 130.712 176.858L130.972 186.283V244.405H92.7518V94.122C92.7518 92.0315 92.2321 91.5 89.8699 91.5H76.7715V59.563H108.72C123.378 59.563 127.051 72.1299 128.09 77.6338C133.854 67.9488 149.031 56.6929 170.504 56.6929C207.425 56.6811 232.299 84.1653 232.299 125.02ZM193.287 125.279C193.287 103.547 179.149 88.6299 161.338 88.6299C146.681 88.6299 130.181 98.3149 130.181 125.551C130.181 143.35 140.126 161.941 160.819 161.941C176.008 161.929 193.287 150.933 193.287 125.279Z" fill="white"/>
</g>
<defs>
<clipPath id="clip0_2023_2299">
<rect width="300" height="300" fill="white"/>
</clipPath>
</defs>
</svg>
