<svg width="300" height="300" viewBox="0 0 300 300" fill="none" xmlns="http://www.w3.org/2000/svg">
<mask id="mask0_2033_114" style="mask-type:luminance" maskUnits="userSpaceOnUse" x="2" y="0" width="297" height="300">
<path d="M298.875 0H2V300H298.875V0Z" fill="white"/>
</mask>
<g mask="url(#mask0_2033_114)">
<path fill-rule="evenodd" clip-rule="evenodd" d="M119.695 0L27.8281 24.0609L2.51094 116.444L34.175 148.955L2 180.928L25.8281 273.716L117.295 299.273L149.477 267.294L181.141 299.797L273.006 275.736L298.317 183.347L266.659 150.848L298.834 118.875L275.008 26.0812L183.528 0.523436L151.358 32.4969L119.695 0ZM63.3203 41.8312L111.711 29.15L132.875 50.875L102.013 81.5406L63.3203 41.8312ZM169.552 51.1656L191.055 29.8016L239.239 43.2656L199.916 82.3359L169.552 51.1656ZM31.5047 108.859L44.8359 60.2031L83.5156 99.9094L52.6594 130.578L31.5031 108.853L31.5047 108.859ZM218.097 101.011L257.42 61.9266L269.963 110.805L248.466 132.175L218.097 101.011ZM120.2 100.208L151.061 69.5422L181.419 100.714L150.563 131.38L120.2 100.208ZM70.8531 149.245L101.709 118.578L132.084 149.75L101.217 180.416L70.8531 149.245ZM168.756 150.047L199.613 119.381L229.975 150.552L199.114 181.219L168.756 150.047ZM30.8594 188.992L52.3688 167.616L82.7266 198.794L43.4141 237.858L30.8594 188.992ZM119.405 199.084L150.266 168.417L180.63 199.589L149.773 230.255L119.405 199.084ZM217.302 199.892L248.163 169.227L269.325 190.944L256 239.602L217.302 199.892ZM61.5953 256.539L100.914 217.455L131.289 248.625L109.78 270.002L61.5953 256.539ZM167.961 248.922L198.817 218.256L237.503 257.972L189.117 270.647L167.961 248.922Z" fill="black"/>
</g>
</svg>
