<svg width="300" height="300" viewBox="0 0 300 300" fill="none" xmlns="http://www.w3.org/2000/svg">
<path d="M161.272 23.8201C142.431 23.6754 123.799 27.7641 106.75 35.7842C89.701 43.8044 74.671 55.5513 62.7695 70.1576C61.5572 71.6185 60.3778 73.1064 59.232 74.6201L59.282 74.5826C62.182 72.1326 65.1945 70.2701 68.2445 69.0201L68.9695 68.7326C72.707 67.3326 76.4945 66.8951 80.2195 67.6326C98.2208 71.2451 107.596 100.246 101.158 132.423C94.7208 164.598 74.9083 187.761 56.9083 184.16C44.282 181.635 35.932 166.598 34.257 146.76V146.698V147.348C34.2195 148.998 34.2195 150.673 34.257 152.348V153.26L34.282 153.998C34.3445 155.86 34.4445 157.698 34.582 159.535C34.6445 160.373 34.732 161.21 34.8195 162.035C36.2149 176.985 40.2836 191.562 46.832 205.074C47.582 206.649 47.207 208.524 45.857 209.611L42.3945 212.436C40.652 213.867 39.3762 215.785 38.7304 217.945C38.0846 220.105 38.0982 222.409 38.7695 224.561C38.7695 224.636 38.807 224.686 38.8445 224.774C39.0423 225.384 39.2889 225.978 39.582 226.549L40.207 226.061L43.082 223.886C43.7716 223.363 44.641 223.134 45.499 223.251C46.357 223.369 47.1332 223.822 47.657 224.511C48.1808 225.201 48.4093 226.07 48.292 226.928C48.1748 227.786 47.7216 228.563 47.032 229.086L43.9695 231.411L43.507 231.761L58.2195 249.863C60.1229 252.183 62.8659 253.657 65.8511 253.963C68.8363 254.27 71.8217 253.385 74.157 251.5L77.382 248.875C78.0442 248.341 78.8691 248.05 79.7195 248.05C80.57 248.05 81.3949 248.341 82.057 248.875C105.198 267.281 134.09 276.935 163.647 276.138C188.656 275.522 212.911 267.447 233.3 252.95C234.003 252.44 234.863 252.192 235.731 252.249C236.598 252.306 237.419 252.664 238.05 253.263L240.087 255.213C242.054 257.07 244.618 258.164 247.32 258.299C250.021 258.434 252.682 257.601 254.825 255.95L254.775 255.9L252.15 253.438C251.558 252.835 251.223 252.026 251.213 251.182C251.203 250.337 251.521 249.521 252.098 248.905C252.676 248.289 253.469 247.919 254.313 247.874C255.156 247.829 255.984 248.111 256.625 248.663L259.437 251.288L275.187 234.713C277.248 232.528 278.361 229.617 278.283 226.615C278.206 223.613 276.945 220.763 274.775 218.688L271.487 215.563C270.891 214.994 270.501 214.243 270.379 213.428C270.257 212.613 270.409 211.781 270.812 211.063C284.892 185.689 289.763 156.227 284.6 127.673C288.362 124.198 295.262 117.373 297.963 111.523C300.851 105.248 301.588 98.7726 293.926 101.623C287.976 103.835 283.401 105.26 277.851 103.998C260.138 59.0826 217.261 26.5826 167.21 23.9951C165.24 23.8888 163.269 23.8304 161.297 23.8201H161.272ZM28.307 78.0826C25.7302 78.1303 23.2068 78.826 20.9696 80.1056C18.7324 81.3852 16.8534 83.2075 15.5059 85.4045C14.1584 87.6015 13.3858 90.1024 13.2593 92.6766C13.1327 95.2507 13.6564 97.8154 14.782 100.134C12.3934 100.226 10.0592 100.875 7.96486 102.027C5.87054 103.179 4.07377 104.804 2.71726 106.773C1.36076 108.741 0.481886 110.998 0.150453 113.366C-0.18098 115.733 0.0441558 118.145 0.807979 120.41C1.5718 122.675 2.85327 124.731 4.5506 126.414C6.24794 128.098 8.31437 129.362 10.5858 130.107C12.8572 130.852 15.271 131.057 17.6356 130.706C20.0001 130.354 22.2501 129.457 24.207 128.084C26.4195 126.534 28.032 124.471 29.1445 122.209C31.4695 126.484 34.8945 130.046 38.8695 132.496C38.806 134.999 38.8769 137.503 39.082 139.998C40.357 155.348 46.832 166.998 56.5945 168.948C70.5195 171.735 85.8445 153.823 90.8195 128.948C95.8083 104.073 88.557 81.6464 74.632 78.8589C69.207 77.7714 63.5695 79.8589 58.407 84.2589C52.782 89.0464 47.732 96.6089 44.157 105.884C44.032 105.859 43.907 105.846 43.782 105.796C42.032 105.296 41.0945 104.159 39.882 103.896C41.929 101.683 43.2802 98.9177 43.7678 95.9429C44.2553 92.9682 43.8577 89.9157 42.6242 87.1652C41.3908 84.4146 39.3761 82.0873 36.8305 80.4727C34.285 78.8581 31.3209 78.0261 28.307 78.0826ZM64.082 93.6339C64.757 93.6339 65.4195 93.6839 66.082 93.8214C75.157 95.6089 79.882 110.221 76.632 126.421C73.3945 142.648 63.407 154.298 54.3445 152.485C48.182 151.26 44.0445 144.11 43.032 134.573C45.2945 135.448 47.657 135.985 50.032 136.098C56.6195 136.398 60.9195 134.173 64.282 129.685C68.607 123.873 65.332 107.773 59.607 105.685C55.157 104.06 52.5195 106.023 48.557 106.31C50.557 102.585 52.9445 99.5101 55.5195 97.3101C58.257 94.9976 61.182 93.6601 64.0945 93.6226L64.082 93.6339Z" fill="#FF574D"/>
</svg>
