<svg width="300" height="300" viewBox="0 0 300 300" fill="none" xmlns="http://www.w3.org/2000/svg">
<path d="M263.962 11.6672C271.275 14.4471 277.922 18.7379 283.462 24.2374C289.002 29.757 293.333 36.3644 296.173 43.6567C299.014 50.9289 300.303 58.745 299.94 66.5409V112.068H231.852L202.199 60.9004H97.7897L46.1996 150.08L96.7422 239.26H201.151L230.804 188.093H298.893V233.62C299.155 241.275 297.845 248.909 295.025 256.061C292.205 263.192 287.954 269.678 282.535 275.097C277.096 280.516 270.63 284.767 263.479 287.587C256.347 290.407 248.713 291.717 241.038 291.455H58.105C50.4299 291.717 42.775 290.407 35.6438 287.587C28.4925 284.787 21.9858 280.536 16.5468 275.117C11.1078 269.678 6.83716 263.212 3.99678 256.081C1.1564 248.93 -0.173142 241.295 0.0484481 233.62V66.5409C-0.273865 58.8255 1.01539 51.1102 3.81548 43.8985C6.61557 36.6867 10.8661 30.1196 16.3252 24.6403C21.7643 19.1408 28.2911 14.85 35.4827 11.9895C42.6743 9.14913 50.3695 7.79944 58.105 8.08147H241.038C248.854 7.65843 256.67 8.88725 263.962 11.6672Z" fill="black"/>
<path d="M122.225 103.305H176.515L203.669 150.08L176.515 196.856H122.225L95.0703 150.08L122.225 103.305Z" fill="#FF5200"/>
</svg>
