<svg width="300" height="300" viewBox="0 0 300 300" fill="none" xmlns="http://www.w3.org/2000/svg">
<g clip-path="url(#clip0_2023_2696)">
<circle cx="150.5" cy="150.5" r="111.5" fill="white"/>
<path d="M170.05 105H127.488V150H170.05C182.488 150 192.562 139.925 192.562 127.488C192.562 115.075 182.5 105 170.05 105ZM150 0C67.15 0 0 67.15 0 150C0 232.85 67.15 300 150 300C232.85 300 300 232.85 300 150C300 67.15 232.85 0 150 0ZM170.05 180H127.488V225H97.5125V75H170.062C199.05 75 222.563 98.5 222.563 127.488C222.563 156.5 199.05 180 170.05 180Z" fill="#D55124"/>
</g>
<defs>
<clipPath id="clip0_2023_2696">
<rect width="300" height="300" fill="white"/>
</clipPath>
</defs>
</svg>
