<svg width="300" height="300" viewBox="0 0 300 300" fill="none" xmlns="http://www.w3.org/2000/svg">
<g clip-path="url(#clip0_2023_2311)">
<path d="M300 150C300 232.842 232.842 300 150 300C67.1578 300 0 232.842 0 150C0 67.1578 67.1578 0 150 0C232.842 0 300 67.1578 300 150Z" fill="#67BF79"/>
<mask id="mask0_2023_2311" style="mask-type:luminance" maskUnits="userSpaceOnUse" x="0" y="0" width="300" height="300">
<path d="M300 150C300 232.842 232.842 300 150 300C67.1578 300 0 232.842 0 150C0 67.1578 67.1578 0 150 0C232.842 0 300 67.1578 300 150Z" fill="white"/>
</mask>
<g mask="url(#mask0_2023_2311)">
<path d="M300 150C300 232.842 232.842 300 150 300C67.1578 300 0 232.842 0 150C0 67.1578 67.1578 0 150 0C232.842 0 300 67.1578 300 150Z" fill="#67BF79"/>
</g>
<mask id="mask1_2023_2311" style="mask-type:luminance" maskUnits="userSpaceOnUse" x="0" y="0" width="300" height="300">
<path d="M300 150C300 232.842 232.842 300 150 300C67.1578 300 0 232.842 0 150C0 67.1578 67.1578 0 150 0C232.842 0 300 67.1578 300 150Z" fill="white"/>
</mask>
<g mask="url(#mask1_2023_2311)">
<path d="M73.959 219.166L112.709 84.375L188.334 155.834L234.376 105.625L336.954 206.745L207.058 353.099L73.959 219.166Z" fill="url(#paint0_linear_2023_2311)"/>
</g>
<mask id="mask2_2023_2311" style="mask-type:luminance" maskUnits="userSpaceOnUse" x="0" y="0" width="300" height="300">
<path d="M300 150C300 232.842 232.842 300 150 300C67.1578 300 0 232.842 0 150C0 67.1578 67.1578 0 150 0C232.842 0 300 67.1578 300 150Z" fill="white"/>
</mask>
<g mask="url(#mask2_2023_2311)">
<path d="M90.234 222.188C70.625 222.188 70.625 222.188 70.625 202.579V94.922C70.625 75.313 70.625 75.313 90.234 75.313H94.141C113.75 75.313 113.75 75.313 113.75 94.922V202.579C113.75 222.188 113.75 222.188 94.141 222.188H90.234ZM141.845 222.188C135.166 222.188 131.874 218.896 131.874 212.217V85.2821C131.874 78.6048 135.166 75.313 141.845 75.313H185.833C223.542 75.313 247.507 113.133 247.507 149.17C247.507 185.208 223.333 222.188 185.833 222.188H141.845Z" fill="white"/>
</g>
</g>
<defs>
<linearGradient id="paint0_linear_2023_2311" x1="2333.08" y1="609.462" x2="20856.1" y2="19543.1" gradientUnits="userSpaceOnUse">
<stop stop-color="#4CB36B"/>
<stop offset="1" stop-color="#3EA16F"/>
</linearGradient>
<clipPath id="clip0_2023_2311">
<rect width="300" height="300" fill="white"/>
</clipPath>
</defs>
</svg>
