<svg width="300" height="300" viewBox="0 0 300 300" fill="none" xmlns="http://www.w3.org/2000/svg">
<g clip-path="url(#clip0_2002_10368)">
<path d="M299.648 136.548C298.901 130.16 298.598 123.683 297.334 117.401C295.8 109.77 293.843 102.173 291.39 94.79C287.104 81.8842 280.845 69.9213 272.318 59.2697C268.624 54.6559 264.882 50.0233 260.693 45.8715C251.956 37.215 242.217 29.7983 231.59 23.5614C220.516 17.0614 208.899 11.7939 196.55 8.32228C189.744 6.40978 182.792 4.96703 175.847 3.61828C171.658 2.80666 167.353 2.58878 163.105 2.08528C162.91 2.06278 162.733 1.86366 162.55 1.74341C155.901 1.74716 149.252 1.74716 142.604 1.74716C141.115 1.98766 139.634 2.31828 138.134 2.45716C130.915 3.12978 123.906 4.79053 116.973 6.84191C108.438 9.36303 100.286 12.8309 92.4069 16.945C84.1533 21.2583 76.3384 26.2967 68.8836 31.8685C65.0736 34.7164 61.3048 37.6508 57.7799 40.8369C51.4951 46.5253 45.1952 52.2249 39.2928 58.3003C31.3203 66.5098 24.4467 75.6247 18.5068 85.4498C13.2418 94.1625 8.9182 103.285 5.84707 112.997C3.63082 120.012 2.02957 127.147 1.09582 134.47C0.165821 141.774 -0.231679 149.1 0.135821 156.415C0.555821 164.738 1.32457 173.033 2.86957 181.273C5.01082 192.691 8.35957 203.658 13.2044 214.197C17.2132 222.91 22.2231 230.981 28.0317 238.615C32.9029 245.014 38.4191 250.8 44.3139 256.169C52.2188 263.367 60.8774 269.612 70.1248 275.064C81.0897 281.53 92.5982 286.681 104.658 290.678C112.863 293.399 121.259 295.337 129.764 296.754C133.514 297.378 137.346 297.528 141.137 297.911C141.392 297.937 141.629 298.14 141.872 298.257H161.818C163.367 298.016 164.908 297.678 166.468 297.55C176.559 296.727 186.302 294.255 195.804 290.93C206.431 287.207 216.624 282.45 226.044 276.217C232.066 272.234 238.025 268.139 243.796 263.803C247.37 261.117 250.583 257.935 253.868 254.872C256.317 252.588 258.664 250.191 260.978 247.768C268.433 239.941 274.868 231.334 280.392 222.046C286.287 212.134 291.113 201.72 294.169 190.587C295.935 184.155 297.225 177.587 298.504 171.035C299.141 167.773 299.276 164.411 299.659 161.097C299.681 160.901 299.88 160.725 300 160.541V137.648C299.88 137.28 299.693 136.923 299.648 136.548ZM200.12 135.837C200.12 135.837 189.883 133.996 182.533 133.996C165.733 133.996 161.796 143.201 161.796 156.878V214.738H116.384V96.9129H161.796V116.638C167.308 100.069 178.333 94.2829 200.12 94.2829V135.837Z" fill="black"/>
</g>
<defs>
<clipPath id="clip0_2002_10368">
<rect width="300" height="300" fill="white"/>
</clipPath>
</defs>
</svg>
