<svg width="300" height="300" viewBox="0 0 300 300" fill="none" xmlns="http://www.w3.org/2000/svg">
<g clip-path="url(#clip0_2002_10370)">
<path d="M150 300C232.843 300 300 232.843 300 150C300 67.1573 232.843 0 150 0C67.1573 0 0 67.1573 0 150C0 232.843 67.1573 300 150 300Z" fill="#FF4500"/>
<path d="M250.049 150C249.895 145.778 248.523 141.69 246.098 138.231C243.673 134.771 240.299 132.086 236.382 130.501C232.466 128.915 228.175 128.496 224.026 129.295C219.877 130.093 216.048 132.074 212.999 135C195.936 123.401 175.877 116.993 155.249 116.55L164.999 69.7501L197.099 76.5001C197.481 80.0473 199.114 83.3424 201.706 85.7939C204.299 88.2453 207.68 89.6926 211.243 89.8759C214.806 90.0592 218.317 88.9666 221.147 86.7941C223.977 84.6216 225.94 81.5116 226.684 78.0222C227.427 74.5329 226.903 70.8927 225.205 67.7552C223.506 64.6176 220.745 62.1882 217.417 60.9029C214.089 59.6176 210.412 59.5607 207.045 60.7423C203.679 61.9239 200.844 64.2667 199.049 67.3501L162.299 60.0001C161.698 59.8682 161.077 59.857 160.472 59.967C159.866 60.077 159.289 60.3061 158.772 60.6409C158.256 60.9758 157.812 61.4098 157.464 61.9177C157.117 62.4257 156.874 62.9975 156.749 63.6001L145.649 115.65C124.768 115.965 104.433 122.378 87.1493 134.1C84.8369 131.924 82.0791 130.277 79.067 129.274C76.0548 128.27 72.8604 127.933 69.7051 128.286C66.5498 128.639 63.509 129.674 60.7936 131.32C58.0781 132.965 55.7528 135.181 53.979 137.814C52.2051 140.448 51.025 143.435 50.5204 146.57C50.0159 149.705 50.199 152.912 51.0571 155.968C51.9151 159.025 53.4276 161.859 55.4897 164.273C57.5518 166.688 60.1142 168.625 62.9993 169.95C62.8304 172.147 62.8304 174.353 62.9993 176.55C62.9993 210.15 102.149 237.45 150.449 237.45C198.749 237.45 237.899 210.15 237.899 176.55C238.068 174.353 238.068 172.147 237.899 169.95C241.601 168.11 244.706 165.261 246.856 161.73C249.006 158.2 250.113 154.133 250.049 150ZM100.049 165C100.049 162.033 100.929 159.133 102.577 156.667C104.225 154.2 106.568 152.277 109.309 151.142C112.05 150.007 115.066 149.71 117.976 150.288C120.885 150.867 123.558 152.296 125.656 154.394C127.754 156.491 129.182 159.164 129.761 162.074C130.34 164.983 130.043 167.999 128.908 170.74C127.772 173.481 125.85 175.824 123.383 177.472C120.916 179.12 118.016 180 115.049 180C113.079 180 111.129 179.612 109.309 178.858C107.489 178.104 105.836 177 104.443 175.607C103.05 174.214 101.945 172.56 101.191 170.74C100.437 168.92 100.049 166.97 100.049 165ZM187.199 206.25C176.557 214.27 163.464 218.352 150.149 217.8C136.835 218.352 123.741 214.27 113.099 206.25C112.461 205.473 112.135 204.486 112.185 203.482C112.234 202.478 112.655 201.528 113.366 200.817C114.077 200.106 115.027 199.685 116.031 199.636C117.035 199.586 118.022 199.912 118.799 200.55C127.818 207.165 138.826 210.499 149.999 210C161.186 210.608 172.246 207.381 181.349 200.85C182.145 200.074 183.216 199.646 184.327 199.66C184.878 199.667 185.421 199.783 185.927 200C186.432 200.217 186.89 200.531 187.274 200.925C187.658 201.319 187.961 201.785 188.165 202.296C188.369 202.807 188.471 203.353 188.464 203.903C188.457 204.453 188.342 204.997 188.125 205.502C187.908 206.008 187.593 206.466 187.199 206.85V206.25ZM184.499 180.6C181.533 180.6 178.632 179.72 176.166 178.072C173.699 176.424 171.776 174.081 170.641 171.34C169.506 168.599 169.209 165.583 169.788 162.674C170.366 159.764 171.795 157.091 173.893 154.993C175.99 152.896 178.663 151.467 181.573 150.888C184.483 150.31 187.499 150.607 190.24 151.742C192.98 152.877 195.323 154.8 196.971 157.267C198.62 159.733 199.499 162.633 199.499 165.6C199.581 167.633 199.248 169.66 198.521 171.56C197.795 173.46 196.689 175.192 195.272 176.651C193.855 178.11 192.156 179.266 190.278 180.048C188.4 180.83 186.383 181.222 184.349 181.2L184.499 180.6Z" fill="white"/>
</g>
<defs>
<clipPath id="clip0_2002_10370">
<rect width="300" height="300" fill="white"/>
</clipPath>
</defs>
</svg>
