<svg width="300" height="300" viewBox="0 0 300 300" fill="none" xmlns="http://www.w3.org/2000/svg">
<path d="M278.876 159.143C278.876 182.331 276.274 202.939 271.076 226.127C263.273 259.617 239.871 282.802 206.068 290.53C161.863 300.835 115.057 300.835 70.8524 290.53C39.6489 282.802 13.6461 257.04 8.4454 226.127C3.24489 202.939 0.644531 179.754 0.644531 159.143C0.644531 135.958 3.24489 115.349 8.4454 92.1628C16.2463 58.6721 39.6489 35.486 73.4528 27.7574C94.255 22.6051 117.658 20.0288 141.06 20.0288C164.462 20.0288 185.265 22.6051 208.667 27.7574C242.471 35.486 265.875 58.6721 273.675 92.1628C276.274 112.773 278.876 135.958 278.876 159.143Z" fill="#80ADFD"/>
<path d="M226.061 143.689C265.188 143.689 296.906 111.97 296.906 72.8431C296.906 33.716 265.188 1.99731 226.061 1.99731C186.934 1.99731 155.215 33.716 155.215 72.8431C155.215 111.97 186.934 143.689 226.061 143.689Z" fill="#005AFF"/>
</svg>
