<svg width="300" height="300" viewBox="0 0 300 300" fill="none" xmlns="http://www.w3.org/2000/svg">
<mask id="mask0_2002_10374" style="mask-type:luminance" maskUnits="userSpaceOnUse" x="0" y="45" width="300" height="210">
<path d="M0 45.2207H300V254.779H0V45.2207Z" fill="white"/>
</mask>
<g mask="url(#mask0_2002_10374)">
<path fill-rule="evenodd" clip-rule="evenodd" d="M124.565 68.1619C134.249 58.081 147.727 51.8384 162.617 51.8384C182.469 51.8384 199.675 62.8678 208.94 79.3016C217.164 75.6252 226.072 73.7272 235.08 73.7318C270.815 73.7318 299.822 102.96 299.822 139.026C299.822 175.092 270.815 204.32 235.08 204.32C230.712 204.32 226.455 203.881 222.286 203.052C214.179 217.5 198.683 227.316 181.036 227.316C173.851 227.331 166.758 225.701 160.3 222.552C152.083 241.853 132.947 255.419 110.668 255.419C87.3959 255.419 67.6533 240.75 60.043 220.125C56.6558 220.84 53.2033 221.199 49.7415 221.197C22.0577 221.197 -0.332031 198.477 -0.332031 170.572C-0.332031 151.822 9.74885 135.499 24.7047 126.675C21.5318 119.366 19.8986 111.482 19.9069 103.513C19.9069 71.3075 46.0466 45.2781 78.2525 45.2781C97.1128 45.2781 113.988 54.267 124.576 68.2193" fill="#00A1E0"/>
</g>
</svg>
