<svg width="300" height="300" viewBox="0 0 300 300" fill="none" xmlns="http://www.w3.org/2000/svg">
<path d="M300 75.8242H0V224.176H151.648" fill="url(#paint0_linear_97_320)"/>
<path d="M148.351 104.835V174.726L122.636 104.835H96.9221L75.1639 162.857C72.5265 148.352 57.3617 143.077 45.4935 139.121C37.5815 136.484 29.01 133.187 29.01 128.572C29.01 125.275 33.6254 121.978 42.1968 122.638C48.1309 123.297 53.4056 123.297 63.9551 128.572L74.5045 110.77C64.6144 105.495 51.4276 102.857 40.8782 102.857C28.3507 102.857 17.8012 106.813 11.2078 113.407C6.59244 118.022 4.61442 123.956 3.95508 130.55C3.95508 139.78 7.25178 146.374 14.5045 151.649C20.4386 155.605 27.6913 158.242 34.2847 160.22C42.8562 162.857 49.4496 165.495 49.4496 170.11C48.7902 176.044 42.1968 177.363 37.5815 177.363C29.6694 178.022 23.076 176.704 13.1858 170.77L3.95508 188.572C13.8452 194.506 24.3946 197.143 36.9221 197.143C45.4935 197.143 58.6804 194.506 65.9331 187.912L64.6144 193.846H89.6694L94.2848 182.638C104.175 185.275 115.384 185.934 125.274 182.638L128.57 193.846H173.406V167.473H182.636C205.713 167.473 219.559 156.264 219.559 136.484C219.559 114.066 206.373 104.835 178.021 104.835H148.351ZM100.219 162.857L109.45 133.187H110.109L119.34 162.857C112.746 164.835 106.153 164.835 100.219 162.857ZM173.406 147.693V123.956H179.999C188.57 123.956 195.164 126.594 195.164 135.165C195.164 144.396 188.57 147.693 179.999 147.693H173.406Z" fill="white"/>
<defs>
<linearGradient id="paint0_linear_97_320" x1="0" y1="75.8242" x2="0" y2="224.176" gradientUnits="userSpaceOnUse">
<stop stop-color="#00AAEE"/>
<stop offset="1" stop-color="#0055AA"/>
</linearGradient>
</defs>
</svg>
