<svg width="300" height="300" viewBox="0 0 300 300" fill="none" xmlns="http://www.w3.org/2000/svg">
<path d="M185.837 200.553C194.243 200.553 201.027 207.391 201.027 215.863V282.168C201.027 290.641 194.243 297.479 185.837 297.479H18.8711C10.4655 297.479 3.68164 290.641 3.68164 282.168V113.853C3.68164 105.381 10.4655 98.543 18.8711 98.543H84.6527C93.0584 98.543 99.8422 105.381 99.8422 113.853V190.365C99.8422 195.967 104.392 200.573 109.969 200.573H185.877L185.837 200.553Z" fill="#51A9E3"/>
<path d="M114.125 99.4468H190.033C195.591 99.4468 200.16 104.032 200.16 109.654V186.167C200.16 194.639 206.944 201.477 215.349 201.477H281.131C289.536 201.477 296.32 194.639 296.32 186.167V17.8314C296.32 9.35879 289.536 2.521 281.131 2.521H114.125C105.72 2.521 98.9355 9.35879 98.9355 17.8314V84.1367C98.9355 92.6098 105.72 99.4468 114.125 99.4468Z" fill="#51A9E3"/>
</svg>
