<svg width="300" height="300" viewBox="0 0 300 300" fill="none" xmlns="http://www.w3.org/2000/svg">
<g clip-path="url(#clip0_2002_10384)">
<path fill-rule="evenodd" clip-rule="evenodd" d="M110.073 0C93.5221 0.0122324 80.1276 13.4434 80.1398 29.9939C80.1276 46.5443 93.5343 59.9755 110.085 59.9878H140.03V30.0061C140.042 13.4557 126.635 0.0244648 110.073 0C110.085 0 110.085 0 110.073 0ZM110.073 80H30.2438C13.6934 80.0122 0.286629 93.4434 0.298862 109.994C0.274397 126.544 13.6811 139.976 30.2316 140H110.073C126.623 139.988 140.03 126.557 140.018 110.006C140.03 93.4434 126.623 80.0122 110.073 80Z" fill="#36C5F0"/>
<path fill-rule="evenodd" clip-rule="evenodd" d="M299.699 109.994C299.711 93.4434 286.305 80.0122 269.754 80C253.204 80.0122 239.797 93.4434 239.809 109.994V140H269.754C286.305 139.988 299.711 126.557 299.699 109.994ZM219.858 109.994V29.9939C219.87 13.4557 206.476 0.0244648 189.925 0C173.375 0.0122324 159.968 13.4434 159.981 29.9939V109.994C159.956 126.544 173.363 139.976 189.913 140C206.464 139.988 219.87 126.557 219.858 109.994Z" fill="#2EB67D"/>
<path fill-rule="evenodd" clip-rule="evenodd" d="M189.914 300C206.464 299.988 219.871 286.557 219.859 270.006C219.871 253.456 206.464 240.024 189.914 240.012H159.969V270.006C159.957 286.544 173.363 299.976 189.914 300ZM189.914 219.988H269.755C286.305 219.976 299.712 206.544 299.7 189.994C299.724 173.443 286.317 160.012 269.767 159.988H189.926C173.375 160 159.969 173.431 159.981 189.982C159.969 206.544 173.363 219.976 189.914 219.988Z" fill="#ECB22E"/>
<path fill-rule="evenodd" clip-rule="evenodd" d="M0.298836 189.994C0.286604 206.544 13.6933 219.976 30.2438 219.988C46.7942 219.976 60.201 206.544 60.1887 189.994V160H30.2438C13.6933 160.012 0.286604 173.443 0.298836 189.994ZM80.1398 189.994V269.994C80.1153 286.544 93.5221 299.976 110.073 300C126.623 299.988 140.03 286.557 140.017 270.006V190.018C140.042 173.468 126.635 160.037 110.085 160.012C93.5221 160.012 80.1276 173.443 80.1398 189.994Z" fill="#E01E5A"/>
</g>
<defs>
<clipPath id="clip0_2002_10384">
<rect width="300" height="300" fill="white"/>
</clipPath>
</defs>
</svg>
