<svg width="300" height="300" viewBox="0 0 300 300" fill="none" xmlns="http://www.w3.org/2000/svg">
<g clip-path="url(#clip0_2002_10390)">
<path d="M228.875 0L224.5 0.125C205.125 1.75 193.75 15.125 192 28.625C190.125 43.625 200.125 58.625 224.25 57.125C251.125 55.625 262.875 42.125 263 28.625C263.25 14.25 250.5 0.125 228.875 0ZM90.1248 4.25C82.1294 4.18917 74.3798 7.01154 68.296 12.1999C62.2123 17.3883 58.202 24.5952 56.9998 32.5C55.1248 46.625 63.9998 60.875 87.4998 60.625C115.375 60.125 128.875 43.5 127 28.5C125.5 16 113.375 4.5 90.2498 4.25H90.1248ZM244.5 113.125C242.831 113.161 241.164 113.244 239.5 113.375C173.5 120.125 170.25 120.875 48.7498 123.625C-2.50015 123.75 7.74985 300 117.25 300C219.75 300 343.75 110.625 244.5 113.125ZM230.75 146.875C270.5 146 194.5 266 120.75 266.375C27.4998 266.375 40.2498 156.375 55.9998 155.75C164.375 151.375 192 147.75 230.75 146.875Z" fill="black"/>
</g>
<defs>
<clipPath id="clip0_2002_10390">
<rect width="300" height="300" fill="white"/>
</clipPath>
</defs>
</svg>
