<svg width="300" height="300" viewBox="0 0 300 300" fill="none" xmlns="http://www.w3.org/2000/svg">
<path d="M152.575 9.9124C164.95 9.9124 206.913 13.3624 226.7 57.6749C233.313 72.5874 231.738 97.9124 230.438 118.262L230.4 119.012C230.25 121.262 230.125 123.325 230.025 125.387C230.963 125.95 232.563 126.512 235.038 126.512C238.788 126.312 243.275 125.012 247.95 122.75C250.013 121.65 252.25 121.45 253.75 121.45C256.025 121.45 258.238 121.812 260.113 122.575C265.738 124.437 269.288 128.562 269.288 133.05C269.475 138.662 264.413 143.537 254.125 147.65C253.013 148.012 251.513 148.587 249.825 149.137C244.2 150.825 235.588 153.637 233.163 159.262C232.038 162.062 232.4 165.812 234.663 170.112L234.85 170.3C235.6 172 253.925 213.737 294.738 220.475C297.925 221.025 300.175 223.85 299.988 226.837C299.988 227.775 299.8 228.7 299.425 229.65C296.425 236.762 283.513 242 260.1 245.537C259.363 246.675 258.6 250.225 258.05 252.662C257.688 254.9 257.125 257.162 256.375 259.575C255.425 262.962 253 264.637 249.438 264.637H249.063C247.375 264.637 245.15 264.25 242.338 263.712C237.838 262.775 232.775 262.025 226.425 262.025C222.675 262.025 218.938 262.212 215.013 262.95C207.513 264.25 200.975 268.75 193.475 274C182.813 281.487 170.65 290.1 152.3 290.1C151.55 290.1 150.813 289.912 150.05 289.912H148.188C129.838 289.912 117.85 281.475 107.2 273.812C99.7129 268.562 93.3629 264.075 85.8629 262.762C81.9379 262.2 78.0004 261.837 74.2629 261.837C67.5129 261.837 62.2879 262.95 58.3629 263.7C55.7254 264.237 53.4754 264.625 51.6129 264.625C46.9379 264.625 45.0754 261.825 44.3254 259.375C43.5629 256.975 43.2004 254.512 42.6379 252.287C42.0629 250.025 41.3254 246.112 40.5629 245.162C16.5879 242.387 3.68786 237.137 0.700357 229.837C0.312857 229.05 0.0503573 227.962 0.0128573 227.025C-0.174643 223.987 2.07536 221.212 5.26286 220.662C46.0629 213.912 64.3879 172.175 65.1504 170.412L65.3504 170.05C67.6004 165.737 68.1504 161.987 66.8379 159.187C64.4004 153.762 55.7879 150.962 50.1879 149.075C48.6754 148.712 47.1879 148.15 45.8629 147.587C32.0254 142.15 30.1504 135.962 30.9004 131.675C32.0254 125.687 39.3254 121.762 45.5004 121.762C47.3254 121.762 48.8754 122.125 50.2879 122.687C55.5379 125.112 60.1504 126.437 64.0879 126.437C67.0129 126.437 68.8879 125.687 69.9004 125.125L69.3254 118.012C68.1004 97.6874 66.5129 72.3749 73.1629 57.5499C92.4004 13.4624 134.238 10.0874 146.588 10.0874L151.825 9.8999L152.575 9.9124Z" fill="black"/>
</svg>
