<svg width="300" height="300" viewBox="0 0 300 300" fill="none" xmlns="http://www.w3.org/2000/svg">
<g clip-path="url(#clip0_2002_10394)">
<path d="M300 43.2374C300 51.3124 294.775 57.9874 285.738 57.9874C276.7 57.9874 271.463 51.3124 271.463 43.2374C271.463 35.1499 276.7 28.4874 285.738 28.4874C294.775 28.4874 300 35.1499 300 43.2374ZM297.15 43.2374C297.15 36.5749 292.4 31.3499 285.738 31.3499C279.075 31.3499 274.325 36.0999 274.325 43.2249C274.325 49.8874 279.075 55.1249 285.738 55.1249C292.863 55.1249 297.15 49.8874 297.15 43.2374ZM280.025 36.5749H286.213C289.538 36.5749 291.913 38.4749 291.913 41.3249C291.913 43.2374 290.963 44.1874 289.538 45.1374L291.913 48.4624V48.9374H288.588L286.213 45.6124H283.35V48.9374H280.025V36.5749ZM286.213 39.4249H283.35V42.7624H286.213C287.638 42.7624 288.113 42.2874 288.113 41.3374C288.588 40.3749 287.638 39.4249 286.213 39.4249ZM95.0253 155C95.5003 153.112 95.9753 151.2 95.9753 149.3C95.9753 147.875 95.5003 146.45 95.5003 145.025C94.0753 140.737 91.7003 136.937 87.4253 134.55L26.5503 99.8374C17.9878 95.0874 7.0503 97.9374 2.3003 106.5C-2.4622 115.062 0.387804 126 8.9503 130.75L42.7128 150.25L8.9503 169.75C0.387804 174.5 -2.4622 185.45 2.2878 194C7.0378 202.562 17.9878 205.425 26.5378 200.662L86.9378 165.95C91.2253 162.612 94.0753 159.287 95.0253 155ZM111.675 187.825C108.35 187.35 104.55 188.3 101.213 190.2L40.8128 224.912C32.2503 229.662 29.4003 240.612 34.1628 249.162C38.9128 257.737 49.8503 260.587 58.4128 255.825L92.1753 236.325V275.325C92.1753 285.325 100.263 292.925 110.25 292.925C120.238 292.925 127.838 284.837 127.838 275.325V205.425C127.838 195.912 120.713 188.3 111.675 187.825ZM173.5 111.725C176.825 112.2 180.625 111.25 183.963 109.35L244.363 74.6374C252.925 69.8874 255.775 58.9374 251.013 50.3874C246.263 41.8124 235.325 38.9624 226.763 43.7249L193 63.2249V24.6874C193 14.6999 184.913 7.0874 174.925 7.0874C164.938 7.0874 156.85 14.6999 156.85 24.6874V94.1249C156.85 103.625 164.463 111.262 173.5 111.725ZM40.8128 74.6249L101.213 109.337C104.538 111.237 107.875 111.712 111.675 111.712C120.713 111.237 128.313 103.162 128.313 94.1249V24.6874C128.313 14.6999 120.238 7.0874 110.725 7.0874C100.738 7.0874 92.6503 15.1749 92.6503 24.6874V63.6874L58.8878 44.1874C50.3253 39.4374 39.3878 42.2874 34.6378 50.8499C29.4003 58.9249 32.2628 69.8624 40.8128 74.6249ZM154.475 149.762C154.418 148.518 153.912 147.337 153.05 146.437L145.925 139.3C145.505 138.835 144.99 138.466 144.413 138.22C143.837 137.974 143.214 137.856 142.588 137.875C141.344 137.932 140.162 138.438 139.263 139.3L132.125 146.425C131.26 147.327 130.753 148.514 130.7 149.762C130.7 150.712 131.175 152.137 132.125 153.1L139.25 160.225C139.67 160.691 140.185 161.059 140.762 161.306C141.338 161.552 141.961 161.669 142.588 161.65C143.538 161.65 144.963 161.175 145.913 160.225L153.05 153.1C153.915 152.197 154.421 151.011 154.475 149.762ZM174.45 156.425L149.25 181.625C148.763 182.1 147.338 183.05 146.388 183.05H138.788C137.539 182.997 136.352 182.49 135.45 181.625L110.25 156.425C109.652 155.588 109.321 154.591 109.3 153.562V145.962C109.3 145.012 109.775 143.587 110.725 142.625L135.925 117.425C136.827 116.559 138.014 116.052 139.263 116H146.863C148.112 116.052 149.299 116.559 150.2 117.425L175.4 142.625C175.865 143.045 176.233 143.561 176.479 144.137C176.725 144.714 176.843 145.336 176.825 145.962V153.562C175.875 154.525 175.4 155.937 174.45 156.425ZM244.363 224.425L183.963 189.712C180.638 187.812 176.838 187.337 173.5 187.812C164.463 188.287 156.85 196.362 156.85 205.412V274.837C156.85 284.837 164.938 292.437 174.45 292.437C184.438 292.437 192.525 284.35 192.525 274.837V235.837L226.275 255.337C234.85 260.087 245.788 257.237 250.538 248.675C255.775 240.6 252.913 229.662 244.363 224.425ZM276.225 130.262L242.463 149.762L276.213 169.262C284.788 174.012 287.638 184.962 282.875 193.512C278.125 202.075 267.188 204.925 258.625 200.175L198.225 165.45C194.533 163.074 191.699 159.578 190.138 155.475C189.675 153.562 189.188 151.662 189.188 149.762C189.188 148.337 189.675 146.912 189.675 145.487C191.1 141.2 193.95 137.4 197.75 135.025L258.15 100.3C266.713 95.5499 277.65 98.3999 282.4 106.962C288.113 114.575 284.775 125.512 276.225 130.262Z" fill="black"/>
</g>
<defs>
<clipPath id="clip0_2002_10394">
<rect width="300" height="300" fill="white"/>
</clipPath>
</defs>
</svg>
