<svg width="300" height="300" viewBox="0 0 300 300" fill="none" xmlns="http://www.w3.org/2000/svg">
<path d="M14.6875 152.812C14.05 152.812 13.5125 153.387 13.425 154.062L10.5125 180.987L13.425 207.3C13.5125 208.025 14.05 208.525 14.6875 208.525C15.3125 208.525 15.8125 208.025 15.925 207.3L19.1125 180.987L15.7375 154.062C15.7375 153.35 15.175 152.812 14.6125 152.812M3.375 163.162C2.625 163.162 2.2375 163.625 2.075 164.337L0 180.987L2.0625 197.337C2.0625 198.025 2.625 198.512 3.1875 198.512C3.75 198.512 4.3 197.95 4.4875 197.212L7.1125 180.725L4.4875 164.05C4.4875 163.287 3.9375 162.925 3.3625 162.925M26.2375 147.562C25.475 147.562 24.7375 148.125 24.7375 148.862L22.1125 180.9L24.925 211.625C24.925 212.375 25.4875 213.125 26.4125 213.125C27.175 213.125 27.725 212.362 27.925 211.625L31.1 180.7L27.925 148.85C27.725 148.1 27.1625 147.35 26.4125 147.35M38.225 146.237C37.2875 146.237 36.5375 146.987 36.35 147.925L33.9375 180.925L36.5625 212.725C36.7625 213.687 37.5 214.45 38.425 214.45C39.3625 214.45 40.1125 213.687 40.3 212.575L43.3 180.925L40.3 148.137C40.3 147.2 39.55 146.45 38.6125 146.45L38.225 146.237ZM52.6625 150.737C52.6 149.612 51.725 148.875 50.675 148.875C49.55 148.875 48.7 149.625 48.625 150.737L45.9125 181.112L48.4125 213.15C48.4125 214.275 49.35 215.112 50.4 215.112C51.325 215.112 52.25 214.262 52.25 213.137L55.0875 181.1L52.25 150.55L52.6625 150.737ZM62.775 129.375C61.5125 129.375 60.525 130.5 60.525 131.637L57.9 181.1L60.2375 213.137C60.2375 214.262 61.2375 215.187 62.4875 215.187C63.6625 215.187 64.6625 214.062 64.7375 212.937L67.35 180.9L64.7375 131.25C64.6375 129.95 63.6375 129 62.4875 129M74.475 117.575C73.1625 117.575 72.0375 118.7 71.9375 120L69.6875 180.9L71.75 212.75C71.75 214.25 72.875 215.362 74.1875 215.362C75.4875 215.362 76.6125 214.25 76.8125 212.75L79.225 180.9L76.825 120.2C76.625 118.7 75.5125 117.575 74.2 117.575M86.5625 111.962C85.05 111.962 83.925 113.075 83.75 114.575L81.6875 180.512L83.75 212.012C83.925 213.5 85.05 214.825 86.5625 214.825C88.05 214.825 89.375 213.512 89.375 212.012L91.8125 180.512L89.3625 114.575C89.3625 113.075 88.05 111.762 86.55 111.762M102.112 112.325C102.112 110.637 100.8 109.325 99.1125 109.325C97.625 109.325 96.1125 110.637 96.1125 112.325L94.25 180.337L96.1125 211.625C96.3125 213.312 97.625 214.625 99.3125 214.625C101 214.625 102.313 213.312 102.313 211.625L104.363 180.337L102.313 112.137L102.112 112.325ZM111.475 110.65C109.788 110.65 108.287 112.137 108.287 113.825L106.412 180.35L108.287 211.262C108.287 213.137 109.788 214.45 111.475 214.45C113.163 214.45 114.663 212.95 114.663 211.075L116.537 180.15L114.475 113.812C114.475 111.962 112.975 110.437 111.088 110.437M123.65 112.512C121.6 112.512 120.1 114.2 120.1 116.075L118.812 180.362L120.5 211.287C120.5 213.15 121.987 214.75 124.05 214.75C125.912 214.75 127.438 213.25 127.6 211.187L129.113 180.65L127.425 116.75C127.275 114.7 125.738 113.187 123.863 113.187M138.663 101.375C138.1 101.012 137.35 100.825 136.6 100.825C135.85 100.825 135.112 101.012 134.537 101.375C133.412 102.05 132.675 103.25 132.675 104.562V105.325L131.375 180.925L132.812 211.537V211.637C132.913 212.387 133.188 213.325 133.738 213.887C134.463 214.65 135.512 215.187 136.662 215.187C137.662 215.187 138.637 214.637 139.275 214.062C140 213.312 140.412 212.375 140.412 211.25L140.6 208.25L142.062 180.712L140.375 104.637C140.375 103.337 139.613 102.225 138.688 101.65L138.663 101.375ZM151.238 94.5375C150.675 93.975 150.113 93.775 149.363 93.775C148.438 93.775 147.5 93.975 146.75 94.5375C145.812 95.3 145.262 96.4125 145.262 97.5375V97.9L143.55 180.512L144.5 195.7L145.262 210.512C145.262 212.562 147.113 214.437 149.363 214.437C151.625 214.437 153.488 212.562 153.488 210.325L155.363 180.15L153.488 97.1875C153.488 95.6875 152.562 94.425 151.425 93.725M263.1 140.937C258.038 140.937 253.163 142.012 248.863 143.837C245.863 110.662 218.113 84.6375 184.012 84.6375C175.775 84.6375 167.7 86.325 160.4 89.125C157.587 90.25 157.025 91.375 156.837 93.6125V210.712C157.038 212.962 158.712 214.837 160.962 215.025H263.275C283.513 215.225 300 198.925 300 178.5C300 158.075 283.513 141.6 263.275 141.6" fill="black"/>
</svg>
