<svg width="300" height="300" viewBox="0 0 300 300" fill="none" xmlns="http://www.w3.org/2000/svg">
<g clip-path="url(#clip0_2002_10398)">
<path d="M150 0C67.1546 0 0 67.1546 0 150C0 232.845 67.1546 300 150 300C232.845 300 300 232.845 300 150C300 67.1648 232.845 0.0102354 150 0ZM218.792 216.336C216.1 220.757 210.338 222.139 205.937 219.447C170.716 197.922 126.377 193.06 74.1658 204.985C69.13 206.141 64.1146 202.989 62.9683 197.953C61.8117 192.917 64.9539 187.902 70 186.755C127.134 173.705 176.151 179.324 215.691 203.48C220.092 206.192 221.494 211.935 218.792 216.336ZM237.144 175.507C233.756 181.013 226.551 182.733 221.054 179.355C180.747 154.575 119.273 147.4 71.5865 161.873C65.4043 163.746 58.8741 160.256 56.9908 154.084C55.1279 147.902 58.6182 141.382 64.7902 139.498C119.263 122.968 186.991 130.972 233.286 159.427C238.792 162.815 240.532 170.01 237.144 175.507ZM238.721 132.968C190.368 104.258 110.614 101.617 64.4524 115.619C57.042 117.871 49.2016 113.685 46.9601 106.274C44.7185 98.8639 48.8946 91.0235 56.3153 88.7718C109.304 72.6919 197.38 75.7933 253.04 108.833C259.703 112.794 261.894 121.402 257.943 128.055C254.002 134.729 245.374 136.929 238.721 132.968Z" fill="#2EBD59"/>
</g>
<defs>
<clipPath id="clip0_2002_10398">
<rect width="300" height="300" fill="white"/>
</clipPath>
</defs>
</svg>
