<svg width="300" height="300" viewBox="0 0 300 300" fill="none" xmlns="http://www.w3.org/2000/svg">
<g clip-path="url(#clip0_2002_10407)">
<path d="M128.495 90.5907C128.495 77.5219 139.388 72.4875 156.854 72.4875C182.288 72.4875 214.566 80.2782 240.001 93.9938V15.3094C212.288 4.23755 184.632 0.0187988 156.91 0.0187988C89.1195 0.0187988 43.9414 35.4094 43.9414 94.5844C43.9414 187.106 170.973 172.106 170.973 212.006C170.973 227.475 157.557 232.453 138.92 232.453C111.263 232.453 75.5164 221.025 47.457 205.791V281.081C76.3227 293.541 107.42 299.991 138.863 300.066C208.36 300.066 256.229 270.178 256.229 210.066C256.229 110.344 128.495 128.213 128.495 90.5907Z" fill="#635BFF"/>
</g>
<defs>
<clipPath id="clip0_2002_10407">
<rect width="300" height="300" fill="white"/>
</clipPath>
</defs>
</svg>
