<svg width="300" height="300" viewBox="0 0 300 300" fill="none" xmlns="http://www.w3.org/2000/svg">
<g clip-path="url(#clip0_2023_2327)">
<path fill-rule="evenodd" clip-rule="evenodd" d="M263.36 203.085C261.53 203.085 259.862 202.379 258.607 201.26C259.033 197.574 259.318 193.847 259.364 190.06C260.513 189.292 261.885 188.824 263.36 188.824C267.28 188.824 270.488 192.027 270.488 195.972C270.488 196.907 270.303 197.833 269.944 198.697C269.586 199.561 269.06 200.345 268.398 201.006C267.736 201.666 266.95 202.19 266.086 202.547C265.222 202.904 264.295 203.087 263.36 203.085ZM36.7877 203.07C35.8541 203.069 34.9297 202.885 34.0676 202.526C33.2054 202.168 32.4223 201.643 31.7631 200.983C31.1039 200.322 30.5815 199.536 30.2258 198.674C29.87 197.811 29.6879 196.885 29.69 195.952C29.6876 194.656 30.0392 193.384 30.7066 192.273C31.374 191.162 32.332 190.255 33.4773 189.649C34.6225 189.042 35.9117 188.76 37.2056 188.832C38.4994 188.904 39.7491 189.329 40.8195 190.06C40.8602 193.827 41.1449 197.539 41.5822 201.204C40.2731 202.403 38.5628 203.068 36.7877 203.07ZM264.586 160.459C261.677 160.459 258.815 160.855 256.099 161.516C245.408 119.179 210.01 86.7206 166.173 80.2431C165.518 72.8556 168.339 61.2634 186.821 50.088L186.277 49C186.277 49 155.319 58.7975 148.317 78.128C148.622 72.0879 146.426 63.0225 132.983 56.5756C132.983 56.5756 131.92 56.9366 132.459 57.4247C135.123 59.8855 143.619 68.1018 140.009 79.5415C93.4018 83.7768 55.2489 117.282 44.0633 161.516C41.2856 160.825 38.4349 160.469 35.5725 160.459C26.1584 160.466 17.1326 164.212 10.4782 170.871C3.82391 177.53 0.0853282 186.558 0.0839844 195.972C0.0839844 215.547 16.0131 231.466 35.5725 231.466C40.1586 231.466 44.526 230.551 48.5426 228.985C51.5722 236.545 55.4401 243.742 60.0739 250.441L89.6645 230.49L89.278 230.251C81.4889 220.235 76.7247 205.495 75.9266 190.822C75.0421 174.634 78.9924 158.557 89.3242 149.11C110.637 130.974 133.832 139.236 148.368 156.625H152.247C166.793 139.582 189.729 131.661 210.864 149.614C221.069 158.989 225.05 174.796 224.277 190.761C223.58 205.576 218.781 220.555 210.956 230.637L240.129 250.441C244.747 243.737 248.607 236.541 251.635 228.985C255.76 230.612 260.152 231.454 264.586 231.466C274.002 231.462 283.031 227.719 289.688 221.059C296.344 214.399 300.084 205.369 300.084 195.952C300.085 191.29 299.167 186.674 297.384 182.368C295.599 178.06 292.985 174.147 289.688 170.851C286.392 167.555 282.478 164.941 278.171 163.158C273.863 161.374 269.247 160.457 264.586 160.459Z" fill="#ACB529"/>
</g>
<defs>
<clipPath id="clip0_2023_2327">
<rect width="300" height="300" fill="white"/>
</clipPath>
</defs>
</svg>
