<svg width="300" height="300" viewBox="0 0 300 300" fill="none" xmlns="http://www.w3.org/2000/svg">
<path d="M156.15 9.64697C171.497 9.4126 186.731 9.53447 201.956 9.4126C202.463 28.4532 210.188 45.5907 222.478 58.2845L222.459 58.2657C235.688 70.1814 252.9 77.9063 271.875 79.2188L272.138 79.2376V126.45C254.213 126 237.356 121.866 222.159 114.759L222.928 115.078C215.578 111.544 209.363 107.916 203.456 103.866L203.944 104.184C203.831 138.394 204.056 172.603 203.709 206.691C202.744 224.063 196.969 239.906 187.706 253.134L187.894 252.844C172.406 275.025 147.319 289.584 118.791 290.447H118.659C117.506 290.503 116.147 290.531 114.778 290.531C98.5594 290.531 83.4 286.013 70.4813 278.166L70.8563 278.381C47.3438 264.234 31.125 240.028 28.125 211.875L28.0875 211.491C27.8531 205.631 27.7406 199.772 27.975 194.034C32.5688 149.231 70.1063 114.572 115.734 114.572C120.863 114.572 125.888 115.013 130.772 115.847L130.247 115.772C130.481 133.106 129.778 150.45 129.778 167.784C125.813 166.35 121.238 165.516 116.466 165.516C98.9531 165.516 84.0563 176.709 78.5438 192.338L78.4594 192.619C77.2125 196.622 76.4906 201.225 76.4906 205.988C76.4906 207.919 76.6125 209.831 76.8375 211.706L76.8188 211.481C79.9313 230.663 96.375 245.138 116.203 245.138C116.775 245.138 117.338 245.128 117.9 245.1H117.816C131.531 244.688 143.438 237.309 150.169 226.406L150.263 226.238C152.766 222.75 154.481 218.531 155.053 213.947L155.063 213.816C156.234 192.844 155.766 171.994 155.878 151.022C155.991 103.809 155.766 56.7095 156.113 9.61885L156.15 9.64697Z" fill="black" stroke="black" stroke-width="2"/>
</svg>
