<svg width="300" height="300" viewBox="0 0 300 300" fill="none" xmlns="http://www.w3.org/2000/svg">
<g clip-path="url(#clip0_2002_10412)">
<path d="M262.502 0H37.4977C16.8257 0.0462849 0.072048 16.801 0 37.5V262.5C0 283.125 16.8716 300 37.4977 300H262.502C283.128 300 300 283.125 300 262.5V37.5C300 16.875 283.128 0 262.502 0Z" fill="#E44332"/>
<path d="M63.4368 141.565C68.6672 138.511 181.027 73.2158 183.595 71.7027C186.164 70.2083 186.304 65.6131 183.408 63.9506C180.532 62.2974 175.068 59.1592 173.041 57.9543C170.147 56.3623 166.63 56.4048 163.776 58.0664C162.337 58.907 66.3322 114.666 63.1286 116.497C59.2712 118.701 54.5359 118.739 50.7065 116.497L0 86.74V112.033C12.3287 119.299 43.0291 137.344 50.4637 141.593C54.9001 144.115 59.1498 144.059 63.4462 141.565" fill="white"/>
<path d="M63.4368 189.386C68.6672 186.332 181.027 121.036 183.595 119.523C186.164 118.029 186.304 113.433 183.408 111.771C180.532 110.118 175.068 106.979 173.041 105.775C170.147 104.183 166.63 104.225 163.776 105.887C162.337 106.727 66.3322 162.487 63.1286 164.317C59.2712 166.522 54.5359 166.559 50.7065 164.317L0 134.56V159.853C12.3287 167.119 43.0291 185.164 50.4637 189.414C54.9001 191.936 59.1498 191.88 63.4462 189.386" fill="white"/>
<path d="M63.4368 240.195C68.6672 237.141 181.027 171.846 183.595 170.333C186.164 168.838 186.304 164.243 183.408 162.58C180.532 160.927 175.068 157.789 173.041 156.584C170.147 154.992 166.63 155.035 163.776 156.696C162.337 157.537 66.3322 213.296 63.1286 215.127C59.2712 217.331 54.5359 217.369 50.7065 215.127L0 185.37V210.662C12.3287 217.929 43.0291 235.974 50.4637 240.223C54.9001 242.745 59.1498 242.689 63.4462 240.195" fill="white"/>
</g>
<defs>
<clipPath id="clip0_2002_10412">
<rect width="300" height="300" fill="white"/>
</clipPath>
</defs>
</svg>
