<svg width="300" height="300" viewBox="0 0 300 300" fill="none" xmlns="http://www.w3.org/2000/svg">
<g clip-path="url(#clip0_2023_2333)">
<path d="M150 300C232.843 300 300 232.843 300 150C300 67.1573 232.843 0 150 0C67.1573 0 0 67.1573 0 150C0 232.843 67.1573 300 150 300Z" fill="white"/>
<path d="M61.1191 231.63C83.0805 255.663 114.779 270.58 150 270.58C168.025 270.58 185.014 266.644 200.346 259.599L116.644 176.105L61.1191 231.63Z" fill="#ED2224"/>
<path d="M116.229 125.552L52.8317 188.743L44.3372 180.249L111.05 113.536L188.95 35.6353C176.727 31.4917 163.674 29.2126 150 29.2126C83.2875 29.2126 29.2129 83.2872 29.2129 150C29.2129 177.141 38.1217 202.21 53.4532 222.514L116.644 159.323L120.995 163.467L211.533 254.005C213.398 252.97 215.055 251.934 216.713 250.691L116.644 150.621L55.9394 211.326L47.4449 202.831L116.644 133.633L120.995 137.776L226.658 243.232C228.315 241.989 229.765 240.539 231.216 239.296L117.265 125.345L116.229 125.552Z" fill="#ED2224"/>
<path d="M239.71 230.801C258.978 209.461 270.788 181.077 270.788 150C270.788 101.519 242.197 59.8756 201.175 40.6077L125.139 116.436L239.71 230.801ZM154.351 138.398L145.857 129.903L205.733 70.0276L214.227 78.522L154.351 138.398ZM211.119 56.1463L142.128 125.138L133.633 116.644L202.625 47.6519L211.119 56.1463Z" fill="#ED1C24"/>
<path d="M150 300C67.3343 300 0 232.666 0 150C0 67.3343 67.3343 0 150 0C232.666 0 300 67.3343 300 150C300 232.666 232.666 300 150 300ZM150 15.1243C75.6215 15.1243 15.1243 75.6215 15.1243 150C15.1243 224.378 75.6215 284.876 150 284.876C224.378 284.876 284.876 224.378 284.876 150C284.876 75.6215 224.378 15.1243 150 15.1243Z" fill="#ED2224"/>
</g>
<defs>
<clipPath id="clip0_2023_2333">
<rect width="300" height="300" fill="white"/>
</clipPath>
</defs>
</svg>
