<svg width="300" height="300" viewBox="0 0 300 300" fill="none" xmlns="http://www.w3.org/2000/svg">
<g clip-path="url(#clip0_2002_10418)">
<path d="M270.703 0H29.2969C13.1167 0 0 13.1167 0 29.2969V270.703C0 286.883 13.1167 300 29.2969 300H270.703C286.883 300 300 286.883 300 270.703V29.2969C300 13.1167 286.883 0 270.703 0Z" fill="url(#paint0_linear_2002_10418)"/>
<path d="M246.938 39H183.562C175.796 39 169.5 45.296 169.5 53.0625V156.188C169.5 163.954 175.796 170.25 183.562 170.25H246.938C254.704 170.25 261 163.954 261 156.188V53.0625C261 45.296 254.704 39 246.938 39Z" fill="white"/>
<path d="M116.438 39H53.0625C45.296 39 39 45.296 39 53.0625V231.188C39 238.954 45.296 245.25 53.0625 245.25H116.438C124.204 245.25 130.5 238.954 130.5 231.188V53.0625C130.5 45.296 124.204 39 116.438 39Z" fill="white"/>
</g>
<defs>
<linearGradient id="paint0_linear_2002_10418" x1="15000" y1="0" x2="15000" y2="30000" gradientUnits="userSpaceOnUse">
<stop stop-color="#0091E6"/>
<stop offset="1" stop-color="#0079BF"/>
</linearGradient>
<clipPath id="clip0_2002_10418">
<rect width="300" height="300" fill="white"/>
</clipPath>
</defs>
</svg>
