<svg width="300" height="300" viewBox="0 0 300 300" fill="none" xmlns="http://www.w3.org/2000/svg">
<path d="M300 56.9588C288.967 61.8472 277.116 65.1502 264.657 66.6432C277.367 59.0331 287.118 46.9566 291.716 32.5816C279.824 39.6373 266.652 44.7634 252.634 47.5115C241.403 35.5681 225.416 28.0898 207.711 28.0898C173.729 28.0898 146.168 55.6506 146.168 89.6593C146.17 94.3724 146.702 99.0705 147.754 103.665C96.5826 101.088 51.2507 76.5788 20.8888 39.3466C15.6044 48.4631 12.5649 59.0332 12.5649 70.2899C12.5649 91.6406 23.4392 110.495 39.9409 121.528C30.1675 121.216 20.6097 118.575 12.063 113.825V114.617C12.063 144.437 33.2689 169.316 61.4376 174.972C56.1519 176.398 50.7006 177.117 45.226 177.112C41.3382 177.115 37.4589 176.752 33.6391 176.028C41.4739 200.471 64.1993 218.281 91.1393 218.757C70.0651 235.272 43.5218 245.115 14.6922 245.115C9.72441 245.115 4.82248 244.825 0 244.256C27.2442 261.737 59.5881 271.91 94.3364 271.91C207.566 271.91 269.466 178.129 269.466 96.7938C269.466 94.1516 269.4 91.4823 269.281 88.8401C281.304 80.1461 291.742 69.3254 299.973 56.9982L300 56.9588Z" fill="#1DA1F2"/>
</svg>
