<svg width="300" height="300" viewBox="0 0 300 300" fill="none" xmlns="http://www.w3.org/2000/svg">
<path d="M17.7969 94.0675C17.7969 77.2182 31.456 63.5591 48.3053 63.5591C65.1547 63.5591 78.8138 77.2182 78.8138 94.0675V208.474C78.8138 225.324 65.1547 238.983 48.3053 238.983C31.456 238.983 17.7969 225.324 17.7969 208.474V94.0675Z" fill="#1A1A18"/>
<path d="M99.1528 151.271C99.1528 114.54 99.1528 96.1743 108.583 83.3466C111.492 79.3901 114.984 75.8979 118.94 72.9893C131.768 63.5591 150.134 63.5591 186.865 63.5591H197.034C233.765 63.5591 252.131 63.5591 264.959 72.9893C268.915 75.8979 272.407 79.3901 275.316 83.3466C284.746 96.1743 284.746 114.54 284.746 151.271C284.746 188.002 284.746 206.368 275.316 219.195C272.407 223.152 268.915 226.644 264.959 229.553C252.131 238.983 233.765 238.983 197.034 238.983H186.865C150.134 238.983 131.768 238.983 118.94 229.553C114.984 226.644 111.492 223.152 108.583 219.195C99.1528 206.368 99.1528 188.002 99.1528 151.271Z" fill="#1A1A18"/>
</svg>
