<svg width="300" height="300" viewBox="0 0 300 300" fill="none" xmlns="http://www.w3.org/2000/svg">
<path d="M199.425 150C198.312 150.825 196.988 151.775 195.375 152.913C185.05 160.225 170.088 165.225 150.625 165.225H149.325C129.875 165.225 114.888 160.225 104.575 152.913C103.22 151.949 101.87 150.978 100.525 150C101.65 149.163 102.975 148.213 104.575 147.075C114.888 139.775 129.875 134.763 149.325 134.763H150.625C170.088 134.763 185.075 139.775 195.375 147.075C196.988 148.2 198.3 149.163 199.425 150ZM300 89.7626C300 89.7626 291.137 83.0001 263.125 72.7001C238.525 63.6876 219.975 61.6626 219.975 61.6626L220.05 114.7C220.05 122.175 218.025 128.988 212.325 136.763C191.425 129.138 171.65 124.45 150.062 124.45C128.462 124.45 108.713 129.138 87.8125 136.763C82.1 129.025 80.0625 122.163 80.0625 114.7L80.15 61.6626C80.15 61.6626 61.475 63.6626 36.8625 72.7001C8.8625 83.0251 0 89.7626 0 89.7626C1.1625 113.838 22.25 135.238 55.4375 150.013C22.2125 164.75 1.125 186.088 0 210.225C0 210.225 8.8625 216.975 36.8625 227.288C61.4625 236.3 80.025 238.325 80.025 238.325L79.9375 185.275C79.9375 177.813 81.9875 170.988 87.675 163.225C108.575 170.85 128.325 175.513 149.925 175.513C171.513 175.513 191.288 170.838 212.175 163.225C217.888 170.975 219.925 177.813 219.925 185.275L219.85 238.325C219.85 238.325 238.4 236.325 263 227.288C291.013 216.963 299.875 210.225 299.875 210.225C298.712 186.138 277.625 164.725 244.438 149.988C277.65 135.213 298.725 113.888 299.875 89.7376" fill="black"/>
</svg>
