<svg width="300" height="300" viewBox="0 0 300 300" fill="none" xmlns="http://www.w3.org/2000/svg">
<g clip-path="url(#clip0_2023_2349)">
<path d="M137.5 166.238L64.7002 267.9C60.9752 273.1 54.7002 275.838 48.3502 275.05C41.1252 274.15 31.1752 271.438 20.9127 264.062C10.6502 256.688 4.90017 248.113 1.73767 241.538C0.369875 238.705 -0.210301 235.556 0.0580234 232.422C0.326348 229.288 1.43328 226.284 3.26267 223.725L76.0627 122.063C79.5276 117.221 84.0727 113.254 89.3377 110.475L103.663 102.925C106.538 101.413 109.113 99.3875 111.263 96.95C118.213 89.0625 136.875 68.4 169.963 34.9875L170.538 32.3375C170.605 32.0396 170.752 31.7656 170.963 31.5453C171.175 31.325 171.443 31.1667 171.738 31.0875L173.563 30.625C173.947 30.5263 174.284 30.2956 174.514 29.9733C174.745 29.651 174.855 29.2578 174.825 28.8625L174.638 26.6125C174.617 26.392 174.642 26.1696 174.71 25.959C174.779 25.7484 174.89 25.5541 175.036 25.3878C175.182 25.2216 175.361 25.0871 175.561 24.9924C175.761 24.8978 175.979 24.8451 176.2 24.8375C178.4 24.775 182.675 25.4125 188.713 29.75C194.75 34.0875 196.713 37.95 197.363 40.05C197.426 40.2626 197.446 40.486 197.42 40.7065C197.394 40.927 197.324 41.1399 197.212 41.3319C197.101 41.524 196.952 41.6913 196.773 41.8234C196.595 41.9555 196.391 42.0496 196.175 42.1L193.988 42.65C193.601 42.7442 193.261 42.9738 193.03 43.2972C192.798 43.6205 192.69 44.0163 192.725 44.4125L192.875 46.2875C192.9 46.5917 192.84 46.8969 192.701 47.1685C192.561 47.4402 192.349 47.6676 192.088 47.825L189.763 49.225C168.775 91.3375 155.213 115.675 149.975 124.8C148.363 127.623 147.275 130.715 146.763 133.925L144.2 149.938C143.262 155.821 140.968 161.405 137.5 166.25V166.238ZM296.738 223.712L223.938 122.05C220.473 117.209 215.928 113.242 210.663 110.463L196.338 102.9C193.462 101.387 190.887 99.3621 188.738 96.925C186.316 94.1788 183.87 91.4537 181.4 88.75C181.28 88.6242 181.132 88.5283 180.968 88.4701C180.804 88.4119 180.629 88.393 180.456 88.4149C180.283 88.4368 180.118 88.4989 179.974 88.5961C179.83 88.6934 179.71 88.8232 179.625 88.975C172.608 102.54 165.336 115.972 157.813 129.263C156.737 131.136 156.013 133.191 155.675 135.325C154.95 139.892 154.95 144.545 155.675 149.113L155.8 149.913C156.738 155.8 159.038 161.388 162.5 166.225L235.3 267.888C239 273.05 245.175 275.825 251.475 275.062C261.463 273.788 270.964 269.999 279.088 264.05C287.268 258.273 293.859 250.526 298.25 241.525C299.621 238.693 300.202 235.544 299.934 232.409C299.665 229.275 298.57 226.27 296.738 223.712ZM103.825 42.075L106.013 42.625C106.398 42.7215 106.736 42.9516 106.968 43.2744C107.199 43.5973 107.308 43.9918 107.275 44.3875L107.125 46.2625C107.099 46.5669 107.158 46.8726 107.298 47.1446C107.437 47.4165 107.65 47.6437 107.913 47.8L110.238 49.2C114.125 56.9875 117.725 64.125 121.1 70.7125C121.425 71.35 122.238 71.4625 122.713 70.95C128.175 65.0875 134.763 58.1375 142.525 50.1C142.837 49.7858 143.016 49.3629 143.023 48.9201C143.03 48.4772 142.865 48.0489 142.563 47.725C138.625 43.7 134.5 39.4875 130.038 34.975L129.463 32.325C129.399 32.027 129.252 31.7529 129.04 31.534C128.828 31.3152 128.559 31.1605 128.263 31.0875L126.438 30.625C126.054 30.5263 125.717 30.2956 125.486 29.9733C125.255 29.651 125.145 29.2578 125.175 28.8625L125.363 26.6125C125.383 26.394 125.359 26.1737 125.292 25.9647C125.225 25.7557 125.117 25.5625 124.973 25.3966C124.829 25.2307 124.654 25.0957 124.456 24.9996C124.259 24.9035 124.044 24.8484 123.825 24.8375C121.638 24.775 117.35 25.4 111.3 29.75C105.263 34.0875 103.3 37.95 102.65 40.05C102.586 40.2626 102.567 40.486 102.593 40.7065C102.618 40.927 102.689 41.1399 102.8 41.3319C102.912 41.524 103.061 41.6913 103.239 41.8234C103.418 41.9555 103.621 42.0496 103.838 42.1L103.825 42.075Z" fill="#F6BB00"/>
</g>
<defs>
<clipPath id="clip0_2023_2349">
<rect width="300" height="300" fill="white"/>
</clipPath>
</defs>
</svg>
