<svg width="300" height="300" viewBox="0 0 300 300" fill="none" xmlns="http://www.w3.org/2000/svg">
<path fill-rule="evenodd" clip-rule="evenodd" d="M231.522 56.974C240.615 56.8954 249.629 58.6433 258.035 62.1195C266.44 65.576 274.08 70.7019 280.463 77.1829C286.846 83.6638 291.873 91.3625 295.212 99.8074C298.57 108.252 300.181 117.306 299.965 126.379C300.259 135.512 298.708 144.605 295.389 153.109C292.089 161.612 287.081 169.35 280.698 175.89C274.316 182.41 266.656 187.576 258.231 191.071C249.786 194.567 240.732 196.315 231.6 196.217H228.752C225.708 196.099 222.664 195.805 219.64 195.294C216.635 194.783 213.669 194.076 210.743 193.173C207.817 192.269 204.969 191.17 202.2 189.893C199.411 188.617 196.74 187.163 194.148 185.533C193.153 184.905 192.164 184.263 191.182 183.608C190.214 182.941 189.258 182.26 188.315 181.566C187.359 180.872 186.423 180.158 185.507 179.425C184.577 178.692 183.667 177.939 182.777 177.167L171.995 243.332H140.906L157.285 149.947C153.809 144.84 150.529 139.577 147.505 134.176C144.46 128.795 141.652 123.276 139.099 117.64C136.526 112.003 134.209 106.269 132.147 100.436C130.065 94.603 128.258 88.6915 126.687 82.7015V127.302C126.687 167.818 100.861 196.138 63.998 196.138C59.6774 196.256 55.3567 195.903 51.095 195.097C46.8529 194.273 42.709 193.016 38.7222 191.327C34.7354 189.638 30.945 187.536 27.4099 185.042C23.8748 182.548 20.6147 179.681 17.6885 176.499C14.7229 173.101 12.0716 169.409 9.79344 165.501C7.51527 161.593 5.61026 157.488 4.09803 153.207C2.60544 148.945 1.50563 144.546 0.818258 140.068C0.15052 135.61 -0.124431 131.073 0.0523234 126.556V60.568H30.6504V126.556C30.6504 150.614 42.7679 168.329 64.0766 168.329C85.4049 168.329 96.2655 150.536 96.2655 126.556V60.568H149.508C150.398 64.6137 151.406 68.6332 152.532 72.6265C153.658 76.6199 154.889 80.5805 156.224 84.5083C157.573 88.4231 159.033 92.2986 160.604 96.1348C162.175 99.9711 163.858 103.761 165.651 107.506C167.281 100.141 170.188 93.1104 174.253 86.7276C178.319 80.3644 183.445 74.7476 189.435 70.1323C195.424 65.5367 202.18 62.0017 209.388 59.7235C216.576 57.4257 224.137 56.4241 231.679 56.7187M231.679 168.152C252.909 168.152 269.622 151.439 269.622 126.379C269.622 101.32 253.243 84.6262 231.679 84.6262C210.115 84.6262 193.814 98.4916 188.217 143.093C190.534 146.785 193.284 150.182 196.406 153.226C199.529 156.271 202.986 158.922 206.756 161.141C210.507 163.36 214.514 165.128 218.677 166.385C222.861 167.642 227.162 168.408 231.522 168.663L231.679 168.152Z" fill="#14A800"/>
</svg>
