<svg width="300" height="300" viewBox="0 0 300 300" fill="none" xmlns="http://www.w3.org/2000/svg">
<g clip-path="url(#clip0_2002_10436)">
<path d="M36.5934 149.804L36.25 150.23C36.2617 150.212 36.359 150.187 36.5313 150.107C36.5567 150.007 36.5774 149.906 36.5934 149.804ZM34.5918 161.798C34.5918 161.798 34.5742 161.8 34.5766 161.804C34.5648 162.179 34.5766 162.571 34.5684 162.969C34.6949 162.916 34.8098 162.891 34.9246 162.854L34.5918 161.8M140.111 241.605C140.099 241.644 140.091 241.693 140.091 241.693L140.185 241.499C140.168 241.522 140.13 241.561 140.111 241.605ZM141.153 241.997L141.073 242.161L141.133 242.062L141.153 241.997ZM143.527 237.453L143.457 237.571C143.484 237.534 143.507 237.495 143.527 237.453ZM144.407 238.142L144.392 238.16L144.396 238.159C144.396 238.159 144.401 238.153 144.407 238.142Z" fill="#0097E8"/>
<path d="M144.407 238.143L144.402 238.153L144.418 238.147L144.407 238.143ZM219.621 207.403C219.621 207.403 219.619 207.421 219.626 207.419C219.668 207.43 219.679 207.434 219.718 207.447L219.621 207.403Z" fill="#0097E8"/>
<path d="M201.954 9.24716L201.86 9.25419L201.674 9.28935L200.716 9.45693L199.926 9.86122C197.417 11.1292 175.056 23.3929 164.152 62.4468C156.078 91.3534 62.9021 133.614 30.9392 146.122L27.7213 147.349L27.1131 150.888C26.9256 151.966 26.4486 155.328 26.2283 160.053C19.1806 163.145 14.2072 168.128 11.7966 174.667C11.4826 175.521 11.206 176.413 10.9787 177.324C8.57047 186.964 11.2834 199.221 18.4974 210.746C26.799 224.025 40.4384 223.57 48.8068 220.829C51.0568 222.74 53.4287 224.556 55.9775 226.11L56.0443 226.154L58.3529 227.48L60.6064 226.828C60.6064 226.828 80.7627 220.878 81.4341 220.687C82.5123 220.491 88.2849 219.711 92.6841 222.817C95.9466 225.129 97.9669 229.33 98.6853 235.299C101.365 257.562 99.9111 265.212 99.883 265.387L99.815 265.662L99.7857 265.923C99.6134 267.191 98.2974 278.614 105.054 286.208C107.614 289.091 112.361 292.501 120.447 292.353L120.64 292.346L147.558 289.908L147.773 289.884C147.773 289.884 151.488 288.048 151.497 288.04C152.106 287.4 154.988 284.228 156.82 279.544L156.503 280.432C157.024 279.554 159.729 274.85 161.306 268.534C162.629 263.198 163.154 256.698 160.876 250.403C158.787 244.649 154.745 240.131 148.871 236.896C149.12 236.162 149.399 235.44 149.585 234.677C151.202 228.194 150.644 221.232 145.43 216.342L143.681 214.713C136.798 208.35 134.533 205.384 135.126 202.978C135.147 202.864 135.238 202.769 135.27 202.664C136.149 202.213 137.101 201.773 138.159 201.384L139.048 201.048C139.048 201.048 139.183 200.946 139.294 200.857C141.917 199.746 163.201 192.162 213.787 214.262C218.515 218.054 242.157 235.776 263.703 230.338C275.049 227.478 283.603 218.98 289.104 205.083C289.951 202.908 290.656 200.68 291.216 198.415C295.687 180.471 294.051 153.425 286.477 122.573C278.113 88.4905 263.743 55.9593 248.058 35.544C233.436 16.5245 217.504 7.42724 201.954 9.24716Z" fill="white"/>
<path d="M192.347 173.367C191.802 172.328 191.301 171.258 190.782 170.197C188.17 164.622 185.766 158.952 183.575 153.198C176.6 134.289 172.743 116.064 171.502 109.602C169.701 99.3129 168.519 88.3852 168.274 76.9301C168.274 76.9301 158.676 142.866 206.404 198.03C206.404 198.03 199.835 188.893 192.151 173.059C192.275 173.258 192.347 173.367 192.347 173.367ZM213.984 21.5192C213.984 21.5192 176.09 13.4391 197.21 117.339C197.21 117.339 224.545 235.406 273.918 205.275C273.918 205.275 238.852 233.231 208.17 158.495C177.488 83.7434 184.374 15.0668 213.984 21.5192Z" fill="#F8941E"/>
<path d="M246.156 100.111L243.584 100.038L194.605 105.593L194.738 106.732L242.959 101.276C243.422 100.704 243.962 100.333 244.588 100.145C245.09 99.9971 245.632 101.028 246.19 101.151L246.156 100.111Z" fill="#F8941E"/>
<path d="M213.605 165.498L253.385 136.752C249.905 135.477 245.77 129.053 243.256 120.492C240.999 112.8 240.719 105.373 242.546 102.009C242.713 101.714 242.893 101.447 243.083 101.229L196.648 106.42H195.148C198.357 124.787 204.031 145.064 213.444 165.561L213.605 165.498Z" fill="#F8941E"/>
<path d="M243.526 102.551C241.823 105.656 242.133 112.751 244.329 120.191C247.102 129.621 251.486 135.512 254.332 135.873C254.594 135.893 254.858 135.87 255.112 135.805C255.675 135.641 256.165 135.188 256.565 134.469C258.259 131.353 257.939 124.264 255.745 116.83C253.572 109.395 250.009 103.26 246.904 101.553C246.286 101.216 245.721 101.071 245.209 101.145C245.131 101.167 245.046 101.18 244.965 101.203C244.411 101.372 243.921 101.817 243.526 102.551Z" fill="#F8941E"/>
<path d="M246.86 101.202C246.86 101.202 244.776 100.913 241.115 101.387L241.957 100.207C241.957 100.207 245.137 99.342 247.423 100.59L246.86 101.202ZM248.124 132.735L253.926 137.703L255.93 136.685C255.93 136.685 250.024 133.711 248.124 132.735Z" fill="#F8941E"/>
<path d="M242.547 102.01C240.72 105.373 241 112.8 243.257 120.492C245.77 129.054 249.906 135.477 253.385 136.752L254.329 136.067L254.331 135.873C251.486 135.512 247.102 129.621 244.328 120.191C242.132 112.75 241.822 105.656 243.525 102.55C243.92 101.817 244.41 101.372 244.964 101.202C245.046 101.179 245.131 101.167 245.208 101.144L245.188 100.985L243.083 101.229C242.879 101.471 242.699 101.732 242.547 102.01Z" fill="#F8941E"/>
<path d="M213.708 166.684L254.981 136.97L254.967 136.958C254.459 137.026 253.917 136.949 253.37 136.745L213.061 165.757L213.708 166.684ZM241.061 102.764L195.521 107.51L197.835 120.253L238.47 116.259C238.47 116.259 243.846 129.367 248.1 134.349C248.1 134.349 239.034 118.744 241.061 102.764Z" fill="#F8941E"/>
<path d="M268.359 91.4614C268.534 91.9454 268.717 92.4317 268.898 92.9146C269.387 94.2739 269.868 95.638 270.343 97.0032C270.523 97.5282 270.711 98.0602 270.892 98.5853C271.351 99.9306 271.795 101.284 272.242 102.642C272.418 103.191 272.599 103.742 272.771 104.291C273.201 105.625 273.609 106.957 274.021 108.293L274.553 110.06C274.94 111.37 275.319 112.679 275.688 113.995C275.855 114.607 276.031 115.219 276.202 115.824C276.554 117.121 276.897 118.412 277.241 119.707C277.405 120.34 277.565 120.97 277.721 121.607C278.047 122.875 278.361 124.146 278.666 125.415C278.823 126.069 278.974 126.72 279.127 127.374C279.414 128.616 279.69 129.858 279.96 131.106C280.109 131.77 280.248 132.434 280.389 133.092C280.645 134.316 280.893 135.533 281.134 136.749C281.265 137.428 281.391 138.108 281.516 138.788C281.741 139.968 281.955 141.151 282.159 142.336C282.277 143.027 282.387 143.718 282.507 144.4C282.693 145.558 282.876 146.708 283.049 147.854C283.153 148.55 283.245 149.238 283.342 149.929C283.507 151.061 283.658 152.179 283.798 153.293C283.884 153.975 283.955 154.652 284.033 155.332C284.165 156.437 284.285 157.538 284.39 158.625C284.456 159.297 284.513 159.958 284.574 160.63C284.664 161.694 284.757 162.769 284.832 163.825C284.88 164.486 284.907 165.131 284.948 165.782C285.009 166.825 285.07 167.869 285.114 168.887C285.138 169.524 285.147 170.146 285.165 170.779C285.195 171.795 285.226 172.798 285.229 173.784C285.241 174.397 285.225 174.982 285.222 175.583C285.212 176.566 285.209 177.559 285.182 178.522C285.161 179.079 285.127 179.61 285.106 180.154C285.063 181.131 285.024 182.115 284.956 183.058C284.919 183.544 284.866 184.009 284.827 184.491C284.745 185.46 284.663 186.437 284.554 187.382C284.507 187.764 284.445 188.127 284.395 188.501C284.268 189.508 284.137 190.511 283.973 191.477C283.938 191.677 283.894 191.858 283.863 192.052C283.429 194.45 282.903 196.722 282.268 198.831C282.049 199.604 281.765 200.316 281.506 201.048C281.371 201.409 281.257 201.806 281.117 202.157C278.308 209.235 274.655 214.602 270.229 218.293C270.032 218.462 269.845 218.659 269.643 218.827C269.322 219.073 268.975 219.265 268.653 219.504C268.012 219.954 267.384 220.43 266.717 220.816C266.612 220.88 266.492 220.921 266.38 220.989C265.469 221.499 264.546 221.97 263.582 222.36C262.514 222.805 261.403 223.167 260.26 223.458C240.048 228.553 215.759 208.357 215.528 208.157L215.473 208.108L215.412 208.081L215.381 208.062C214.066 207.484 212.796 206.96 211.523 206.419C182.855 194.266 163.606 191.562 152.383 191.501C146.144 191.486 141.684 192.225 138.71 193.007C135.922 193.727 134.41 194.495 134.022 194.714L133.987 194.726V194.735H133.982C133.912 194.765 133.843 194.801 133.771 194.829C131.779 195.585 129.985 196.432 128.437 197.404C127.522 197.987 126.652 198.638 125.834 199.351C122.837 201.925 121.006 205.029 120.464 208.686C119.063 218.135 126.447 228.077 130.7 231.315C136.692 235.881 135.539 242.35 135.352 243.245C135.371 243.199 135.409 243.161 135.426 243.138L135.33 243.341C135.33 243.341 135.339 243.283 135.352 243.244C135.323 243.284 135.27 243.391 135.233 243.455L135.228 243.454C135.219 243.474 135.208 243.493 135.193 243.509L135.199 243.515C134.824 244.171 134.116 245.753 134.455 248.169C134.569 248.998 134.855 249.827 135.175 250.658L135.171 250.669C135.179 250.692 135.193 250.72 135.201 250.744C135.355 251.129 135.548 251.517 135.752 251.909C136.106 252.629 136.512 253.354 137.041 254.083L137.05 254.088C138.626 256.292 140.871 258.53 143.838 260.792C147.541 263.582 149.553 266.854 149.846 270.499C149.884 270.904 149.799 271.277 149.791 271.672C149.785 271.683 149.779 271.702 149.775 271.712C149.729 273.423 149.414 275.068 148.86 276.527L148.845 276.558L149.286 276.811L148.807 276.631C147.525 279.883 145.505 282.291 144.99 282.859L139.942 283.324L118.45 285.273C114.021 285.343 110.575 284.013 108.195 281.358C103.324 275.89 104.531 266.435 104.542 266.333C104.723 265.487 106.271 257.592 103.449 234.038C102.484 226.139 99.5433 220.382 94.6648 216.935C90.1038 213.694 84.9183 213.236 81.5714 213.361C79.564 213.441 78.2151 213.73 78.0593 213.758L60.0745 219.079L57.4237 219.864C55.4789 218.666 53.6176 217.337 51.8527 215.888C51.6862 215.754 51.5398 215.612 51.3745 215.477C50.7289 214.935 50.096 214.379 49.4761 213.808C49.087 213.447 48.7226 213.069 48.3534 212.702C34.1163 198.585 31.1386 178.644 30.9581 165.395C30.9505 164.627 30.9501 163.86 30.9569 163.092C30.9605 162.793 30.9663 162.515 30.9722 162.223C30.9792 161.773 30.9898 161.323 31.005 160.896L31.039 159.943C31.0577 159.579 31.0741 159.232 31.0882 158.886C31.1046 158.588 31.1257 158.277 31.1409 157.988C31.1562 157.676 31.1843 157.385 31.203 157.093C31.2499 156.435 31.3015 155.821 31.353 155.265C31.3612 155.179 31.3694 155.078 31.3788 154.993C31.4191 154.586 31.4632 154.179 31.5112 153.772C31.5405 153.511 31.5675 153.268 31.5968 153.045L31.6226 152.81C31.6835 152.341 31.7398 151.974 31.7714 151.745C34.9999 150.472 65.0808 138.462 95.9726 122.35C112.396 113.795 126.097 105.675 137.048 98.0216C155.306 85.2669 165.916 73.8036 168.713 63.763C178.889 27.3282 199.526 16.1216 201.003 15.3657C201 15.3669 200.995 15.3681 200.991 15.3657H200.994L201.007 15.3645L201.003 15.3657C202.593 15.1913 204.195 15.1568 205.791 15.2626C206.336 15.2977 206.88 15.429 207.423 15.497C208.485 15.6294 209.55 15.7524 210.621 16.0056C211.318 16.1743 212.027 16.4415 212.73 16.663C213.644 16.9442 214.551 17.2067 215.466 17.577C216.26 17.9005 217.055 18.32 217.849 18.7079C218.673 19.1087 219.495 19.4942 220.317 19.9653C221.17 20.4505 222.018 21.0224 222.871 21.5849C223.638 22.0911 224.408 22.5845 225.179 23.154C226.062 23.8032 226.935 24.5333 227.82 25.2587C228.57 25.8736 229.307 26.5046 230.029 27.1513C230.932 27.9807 231.817 28.8301 232.682 29.6989C233.418 30.4372 234.155 31.1802 234.891 31.97C235.75 32.8958 236.605 33.8673 237.454 34.8645C238.541 36.1384 239.633 37.4063 240.705 38.7997C240.795 38.9134 240.883 39.0106 240.97 39.1255C244.841 44.1587 248.554 49.8364 252.065 55.9899C252.112 56.0638 252.159 56.1376 252.194 56.2138C253.007 57.6411 253.8 59.0799 254.573 60.5298C254.66 60.6915 254.753 60.8556 254.845 61.0196C255.585 62.4265 256.314 63.839 257.032 65.2571C257.157 65.5079 257.289 65.7563 257.415 66.0106C258.106 67.4014 258.784 68.7991 259.447 70.2036C259.594 70.5235 259.744 70.8341 259.896 71.1528C260.54 72.5274 261.169 73.9243 261.794 75.327C261.958 75.6962 262.126 76.056 262.292 76.4286C262.897 77.8126 263.491 79.206 264.078 80.6122C264.249 81.013 264.418 81.4149 264.585 81.8169C265.16 83.195 265.714 84.5966 266.267 85.9946C266.441 86.4364 266.617 86.8735 266.791 87.3177C267.324 88.6923 267.842 90.0716 268.358 91.4614H268.359ZM139.434 240.211C145.436 242.411 149.592 245.735 151.885 250.119C152.096 250.693 153.958 256.597 149.221 265.063C148.143 263.203 146.591 261.481 144.521 259.907C137.291 254.417 135.551 250.072 135.441 247.266L139.434 240.211ZM137.355 219.113L139.089 220.738C139.543 221.161 139.91 221.623 140.238 222.093C140.688 223.487 141.021 227.445 134.969 234.539C134.176 233.114 133.035 231.696 131.371 230.434C127.414 227.428 120.243 217.719 121.563 208.865C122.104 205.157 124.014 202.058 127.286 199.54C124.122 206.876 131.11 213.343 137.355 219.113ZM22.2956 206.77C15.5034 195.875 13.196 184.561 16.1843 176.506C18.2784 170.854 22.864 166.848 29.8085 164.606C29.8109 168.583 30.0546 173.177 30.7917 178.059C32.3304 188.379 36.3816 201.564 46.2804 212.126C46.6003 212.458 46.8698 212.821 47.2015 213.154C44.9128 214.209 30.6042 220.03 22.2956 206.77ZM252.617 30.1759C231.846 3.15243 212.101 -0.71827 199.218 0.787589L196.3 1.28095L194.464 2.21611C189.84 4.55282 166.155 18.3341 154.573 59.822C148.822 80.4048 76.3132 118.541 26.2437 138.141L18.7437 141.005L17.3468 149.068C17.2648 149.549 16.9484 151.488 16.6765 154.529C9.9171 158.568 5.03038 164.333 2.41593 171.421C1.99282 172.564 1.63559 173.73 1.34601 174.914C-1.61297 186.752 1.48546 201.202 9.8421 214.555C18.8222 228.922 33.2093 231.628 45.0909 229.185C46.7116 230.419 48.2433 231.476 49.6612 232.333L55.4948 235.708L61.0612 234.091C61.0612 234.091 78.1448 229.048 81.3464 228.108C82.5698 227.964 84.896 228.002 86.2085 228.933C87.48 229.832 88.4445 232.336 88.8675 235.801C91.1562 254.779 90.2796 262.434 90.1566 263.375L89.9831 264.367C89.6152 267.07 88.237 281.012 97.2089 291.093C102.418 296.968 110.073 300.107 118.918 299.939L146.562 297.458L148.216 297.29L152.907 294.959L154.246 294.447L155.49 293.136C156.421 292.17 159.339 288.907 161.623 284.043L161.626 284.05C162.762 282.104 165.589 276.86 167.295 270.018C169.341 261.764 169.12 254.086 166.62 247.198C164.547 241.499 161.066 236.702 156.23 232.887C157.654 223.732 155.176 215.694 149.089 209.985L147.317 208.338C146.659 207.735 146.078 207.177 145.546 206.671C153.869 205.542 173.176 205.792 207.789 220.767C215.903 227.094 240.092 243.687 263.838 237.687C265.405 237.297 266.947 236.811 268.455 236.234L268.46 236.231C280.163 231.737 289.019 222.093 294.772 207.572C295.745 205.072 296.557 202.512 297.203 199.908C302.022 180.563 300.339 152.255 292.478 120.2C283.86 85.1052 268.959 51.4501 252.616 30.1759H252.617Z" fill="#F8941E"/>
</g>
<defs>
<clipPath id="clip0_2002_10436">
<rect width="300" height="300" fill="white"/>
</clipPath>
</defs>
</svg>
