<svg width="300" height="300" viewBox="0 0 300 300" fill="none" xmlns="http://www.w3.org/2000/svg">
<g clip-path="url(#clip0_2002_10456)">
<path d="M219.788 0.787438C215.021 0.721537 210.408 2.47364 206.888 5.68744H206.875C206.66 5.8669 206.451 6.05454 206.25 6.24994L106.6 116.45L48.4375 68.7499L43.35 64.3749C41.5953 62.9164 39.4749 61.9659 37.2186 61.6266C34.9622 61.2873 32.6561 61.572 30.55 62.4499C30.4999 62.4704 30.4499 62.4913 30.4 62.5124L7.6875 71.8874C7.36043 72.0237 7.03931 72.1739 6.725 72.3374C6.52601 72.4487 6.33011 72.5654 6.1375 72.6874C5.97717 72.7756 5.8188 72.8673 5.6625 72.9624C5.45838 73.0982 5.25829 73.2399 5.0625 73.3874C4.93559 73.485 4.81057 73.585 4.6875 73.6874C4.49994 73.8322 4.31653 73.9823 4.1375 74.1374C3.98416 74.2712 3.83412 74.4088 3.6875 74.5499C3.55073 74.6926 3.41736 74.8385 3.2875 74.9874C3.14604 75.1423 3.00849 75.3007 2.875 75.4624C2.72404 75.6416 2.57815 75.825 2.4375 76.0124C2.33456 76.152 2.23454 76.2937 2.1375 76.4374C1.99801 76.6418 1.86462 76.8502 1.7375 77.0624C1.65124 77.2066 1.56789 77.3524 1.4875 77.4999C1.38174 77.7054 1.2817 77.9139 1.1875 78.1249C1.09956 78.3103 1.0162 78.4979 0.9375 78.6874C0.86655 78.8692 0.799865 79.0526 0.7375 79.2374C0.665981 79.4316 0.599294 79.6275 0.5375 79.8249C0.468479 80.0523 0.405954 80.2815 0.35 80.5124C0.304902 80.6782 0.263226 80.8449 0.225 81.0124C0.18553 81.2365 0.152185 81.4616 0.125 81.6874C0.0947574 81.8951 0.0697495 82.1035 0.05 82.3124C0.0189656 82.6574 0.00228452 83.0036 0 83.3499L0 216.675C0.0145393 219.129 0.751282 221.525 2.11835 223.563C3.48542 225.602 5.42232 227.193 7.6875 228.137L30.4 237.687C32.5351 238.576 34.8747 238.855 37.1588 238.493C39.4428 238.131 41.5817 237.142 43.3375 235.637L48.4375 231.262L106.6 183.575L206.263 293.762C206.554 294.043 206.854 294.314 207.163 294.575C207.395 294.789 207.632 294.998 207.875 295.2C208.112 295.381 208.354 295.556 208.6 295.725C208.858 295.915 209.12 296.098 209.388 296.275C209.654 296.44 209.925 296.598 210.2 296.75C210.467 296.907 210.738 297.057 211.013 297.2C211.293 297.336 211.576 297.465 211.863 297.587C212.151 297.72 212.443 297.845 212.738 297.962C213.039 298.074 213.343 298.179 213.65 298.275C213.923 298.365 214.198 298.448 214.475 298.525C214.806 298.617 215.139 298.701 215.475 298.775C215.757 298.84 216.04 298.898 216.325 298.95C216.636 298.999 216.949 299.041 217.263 299.075C217.574 299.116 217.887 299.149 218.2 299.175C218.504 299.195 218.808 299.207 219.113 299.212C219.433 299.221 219.754 299.221 220.075 299.212C220.401 299.2 220.726 299.179 221.05 299.15C221.33 299.127 221.609 299.098 221.888 299.062C222.252 299.011 222.614 298.948 222.975 298.875C223.226 298.83 223.476 298.78 223.725 298.725C224.061 298.642 224.394 298.551 224.725 298.45C225.01 298.373 225.294 298.29 225.575 298.2C225.87 298.091 226.161 297.974 226.45 297.85C226.83 297.708 227.205 297.554 227.575 297.387L289.375 267.675C291.642 266.581 293.665 265.042 295.325 263.15C295.722 262.701 296.098 262.234 296.45 261.75C296.467 261.721 296.483 261.692 296.5 261.662C296.859 261.158 297.193 260.637 297.5 260.1C297.781 259.612 298.039 259.111 298.275 258.6C298.313 258.529 298.35 258.458 298.388 258.387C298.571 257.944 298.738 257.494 298.888 257.037C298.952 256.884 299.015 256.73 299.075 256.575C299.217 256.134 299.342 255.688 299.45 255.237C299.489 255.084 299.527 254.93 299.563 254.775C299.647 254.361 299.718 253.944 299.775 253.525C299.812 253.317 299.845 253.109 299.875 252.9C299.911 252.526 299.936 252.151 299.95 251.775C299.976 251.442 299.992 251.109 300 250.775V49.2749V49.2374C300.001 49.1041 300.001 48.9708 300 48.8374C299.99 48.2107 299.948 47.585 299.875 46.9624C299.492 43.8395 298.33 40.863 296.495 38.3072C294.66 35.7514 292.212 33.6985 289.375 32.3374L227.575 2.62494C225.144 1.46532 222.493 0.842865 219.8 0.799938L219.788 0.787438ZM225 86.4999V213.537L147.525 150.037L225 86.4999ZM37.5 107.175L76.2375 150.012L37.4875 192.837L37.5 107.175Z" fill="black"/>
</g>
<defs>
<clipPath id="clip0_2002_10456">
<rect width="300" height="300" fill="white"/>
</clipPath>
</defs>
</svg>
