<svg width="300" height="300" viewBox="0 0 300 300" fill="none" xmlns="http://www.w3.org/2000/svg">
<g clip-path="url(#clip0_2002_10458)">
<path d="M0 144C0 76.1 0 42.2 21 21C42.3 0 76.2 0 144 0H156C223.9 0 257.8 0 279 21C300 42.3 300 76.2 300 144V156C300 223.9 300 257.8 279 279C257.7 300 223.8 300 156 300H144C76.1 300 42.2 300 21 279C0 257.7 0 223.8 0 156V144Z" fill="#0077FF"/>
<path d="M159.6 216.1C91.1996 216.1 52.1996 169.3 50.5996 91.3002H84.9996C86.0996 148.5 111.3 172.7 131.3 177.7V91.3002H163.6V140.6C183.3 138.5 204.1 116 211.1 91.2002H243.3C240.674 104.038 235.429 116.196 227.893 126.916C220.357 137.635 210.691 146.685 199.5 153.5C211.989 159.716 223.019 168.51 231.861 179.3C240.704 190.091 247.159 202.633 250.8 216.1H215.3C207.7 192.4 188.7 174 163.6 171.5V216.1H159.7H159.6Z" fill="white"/>
</g>
<defs>
<clipPath id="clip0_2002_10458">
<rect width="300" height="300" fill="white"/>
</clipPath>
</defs>
</svg>
