<svg width="300" height="300" viewBox="0 0 300 300" fill="none" xmlns="http://www.w3.org/2000/svg">
<path d="M108.637 27.3501C48.6375 27.3501 0 68.4501 0 119.125C0 146.775 14.625 171.663 37.525 188.5C38.7957 189.422 39.7392 190.725 40.218 192.22C40.6969 193.715 40.6862 195.324 40.1875 196.813L35.3125 215.313C35.075 216.188 34.7125 217.075 34.7125 217.975C34.7125 220.013 36.3375 221.663 38.3375 221.663C39.082 221.633 39.804 221.399 40.425 220.988L64.2125 207.063C65.529 206.223 67.012 205.678 68.5593 205.467C70.1066 205.255 71.6814 205.382 73.175 205.838C84.6985 209.184 96.638 210.88 108.637 210.875C112.088 210.875 115.425 210.538 118.775 210.25C108.062 178.025 120.738 148.1 142.925 129.675C164.212 111.988 191.45 104.925 216.088 106.7C208.888 61.9126 163.637 27.3501 108.637 27.3501ZM72.3125 74.8876C80.3375 74.8876 86.8375 81.5001 86.8375 89.6376C86.8507 91.5582 86.4854 93.4626 85.7626 95.242C85.0398 97.0214 83.9735 98.6411 82.6247 100.008C81.276 101.376 79.6711 102.464 77.9017 103.211C76.1323 103.958 74.2331 104.35 72.3125 104.363C70.3908 104.35 68.4906 103.958 66.7204 103.21C64.9502 102.462 63.3447 101.373 61.9958 100.004C60.6469 98.6353 59.5809 97.0142 58.8588 95.2333C58.1367 93.4525 57.7727 91.5468 57.7875 89.6251C57.7875 81.4876 64.2875 74.8751 72.3125 74.8751V74.8876ZM144.975 74.8876C153 74.8876 159.5 81.5001 159.5 89.6376C159.513 91.5582 159.148 93.4626 158.425 95.242C157.702 97.0214 156.636 98.6411 155.287 100.008C153.938 101.376 152.334 102.464 150.564 103.211C148.795 103.958 146.896 104.35 144.975 104.363C143.054 104.35 141.155 103.958 139.386 103.211C137.616 102.464 136.012 101.376 134.663 100.008C133.314 98.6411 132.248 97.0214 131.525 95.242C130.802 93.4626 130.437 91.5582 130.45 89.6376C130.45 81.5001 136.95 74.8876 144.975 74.8876ZM211.725 110.725C189.262 110.075 164.9 117.125 145.725 133.05C124.225 150.9 112.138 179.55 123.475 210.8C135.25 241.463 169.3 263.663 209.525 263.663C219.85 263.663 229.8 262.163 239.037 259.463C240.284 259.084 241.597 258.98 242.887 259.157C244.178 259.333 245.414 259.788 246.513 260.488L266.312 272.063C266.831 272.416 267.436 272.619 268.062 272.65C269.737 272.65 271.062 271.263 271.062 269.563C271.062 268.813 270.775 268.063 270.587 267.35L266.5 251.938C266.316 251.304 266.219 250.648 266.213 249.988C266.208 249.019 266.433 248.063 266.87 247.198C267.307 246.333 267.943 245.584 268.725 245.013C287.8 231 300 210.25 300 187.25C300 147.125 263.362 114.288 216.8 111.15V111.125C215.113 111 213.425 110.788 211.713 110.75L211.725 110.725ZM180.1 151.65C186.788 151.65 192.212 157.15 192.212 163.925C192.224 165.527 191.92 167.116 191.317 168.601C190.715 170.085 189.826 171.437 188.701 172.578C187.576 173.719 186.238 174.627 184.762 175.251C183.286 175.874 181.702 176.201 180.1 176.213C178.498 176.201 176.914 175.874 175.438 175.251C173.962 174.627 172.624 173.719 171.499 172.578C170.374 171.437 169.485 170.085 168.883 168.601C168.28 167.116 167.976 165.527 167.988 163.925C167.988 157.15 173.413 151.65 180.113 151.65H180.1ZM240.65 151.65C247.338 151.65 252.763 157.15 252.763 163.925C252.774 165.527 252.47 167.116 251.867 168.601C251.265 170.085 250.376 171.437 249.251 172.578C248.126 173.719 246.788 174.627 245.312 175.251C243.836 175.874 242.252 176.201 240.65 176.213C239.048 176.201 237.464 175.874 235.988 175.251C234.512 174.627 233.174 173.719 232.049 172.578C230.924 171.437 230.035 170.085 229.433 168.601C228.83 167.116 228.526 165.527 228.538 163.925C228.538 157.15 233.963 151.65 240.65 151.65Z" fill="black"/>
</svg>
