<svg width="300" height="300" viewBox="0 0 300 300" fill="none" xmlns="http://www.w3.org/2000/svg">
<g clip-path="url(#clip0_2023_2351)">
<path d="M21.3223 149.996C21.3223 200.93 50.9224 244.948 93.845 265.806L32.463 97.6274C25.3231 113.631 21.3223 131.341 21.3223 149.996Z" fill="#262322"/>
<path d="M236.869 143.503C236.869 127.6 231.157 116.586 226.258 108.014C219.735 97.4144 213.621 88.4382 213.621 77.8385C213.621 66.0097 222.592 54.9987 235.229 54.9987C235.799 54.9987 236.341 55.0697 236.896 55.1016C214.003 34.1275 183.501 21.3218 150.001 21.3218C105.046 21.3218 65.4951 44.3868 42.4863 79.3223C45.5054 79.4129 48.3505 79.4766 50.7672 79.4766C64.2267 79.4766 85.0612 77.8434 85.0612 77.8434C91.9979 77.4345 92.8157 87.6228 85.8863 88.443C85.8863 88.443 78.9154 89.2633 71.1585 89.6698L118.018 229.052L146.179 144.595L126.13 89.6649C119.201 89.2584 112.636 88.4381 112.636 88.4381C105.702 88.0317 106.515 77.4296 113.449 77.8385C113.449 77.8385 134.7 79.4717 147.344 79.4717C160.801 79.4717 181.638 77.8385 181.638 77.8385C188.58 77.4296 189.395 87.6179 182.463 88.4381C182.463 88.4381 175.478 89.2584 167.735 89.6649L214.238 227.992L227.073 185.101C232.636 167.303 236.869 154.519 236.869 143.503Z" fill="#262322"/>
<path d="M152.259 161.252L113.65 273.441C125.178 276.829 137.369 278.683 150.001 278.683C164.986 278.683 179.356 276.092 192.733 271.389C192.387 270.838 192.074 270.253 191.817 269.616L152.259 161.252Z" fill="#262322"/>
<path d="M262.913 88.2593C263.466 92.3581 263.78 96.7581 263.78 101.491C263.78 114.549 261.341 129.228 253.996 147.582L214.689 261.225C252.945 238.917 278.677 197.471 278.677 149.999C278.679 127.627 272.964 106.589 262.913 88.2593Z" fill="#262322"/>
<path d="M150.001 0C67.2927 0 0 67.2878 0 149.996C0 232.715 67.2927 300 150.001 300C232.707 300 300.01 232.715 300.01 149.996C300.007 67.2878 232.707 0 150.001 0ZM150.001 293.125C71.0854 293.125 6.87789 228.917 6.87789 149.996C6.87789 71.0805 71.083 6.87789 150.001 6.87789C228.915 6.87789 293.117 71.0805 293.117 149.996C293.117 228.917 228.915 293.125 150.001 293.125Z" fill="#262322"/>
</g>
<defs>
<clipPath id="clip0_2023_2351">
<rect width="299.993" height="300" fill="white"/>
</clipPath>
</defs>
</svg>
