<svg width="300" height="300" viewBox="0 0 300 300" fill="none" xmlns="http://www.w3.org/2000/svg">
<g clip-path="url(#clip0_2002_10480)">
<path d="M70.3581 124.591C84.8822 124.591 91.7288 127.263 102.244 137.798L158.674 194.303C160.345 195.975 160.681 196.645 161.011 197.646C161.181 197.982 161.181 198.482 161.181 198.817C161.181 199.153 161.181 199.653 161.011 199.989C160.681 200.99 160.345 201.66 158.674 203.332L120.111 242.114C118.44 243.786 117.774 244.121 116.768 244.457C116.438 244.622 115.937 244.622 115.602 244.622C115.267 244.622 114.766 244.622 114.431 244.457C113.43 244.121 112.764 243.786 111.093 242.114L1.73661 132.613C-1.43147 129.435 -0.265335 124.591 5.07985 124.591H70.3581ZM229.627 55.5436C215.103 55.5436 208.257 58.2162 197.742 68.7514L141.312 125.256C139.64 126.928 139.305 127.598 138.975 128.599C138.804 128.935 138.804 129.435 138.804 129.771C138.804 130.106 138.804 130.606 138.975 130.942C139.305 131.943 139.64 132.613 141.312 134.285L179.874 172.902C181.546 174.574 182.212 174.909 183.218 175.245C183.548 175.41 184.048 175.41 184.384 175.41C184.719 175.41 185.219 175.41 185.555 175.245C186.556 174.909 187.221 174.574 188.893 172.902L298.244 63.4012C301.417 60.2231 300.251 55.3784 294.906 55.3784H229.627V55.5436Z" fill="#08CF65"/>
</g>
<defs>
<clipPath id="clip0_2002_10480">
<rect width="300" height="300" fill="white" transform="translate(-0.0078125)"/>
</clipPath>
</defs>
</svg>
