<svg width="300" height="300" viewBox="0 0 300 300" fill="none" xmlns="http://www.w3.org/2000/svg">
<g clip-path="url(#clip0_52_286)">
<path d="M68.2455 59.5811C65.6438 59.5811 63.455 60.4939 62.3552 62.2795C61.2173 64.1249 61.3934 66.5006 62.6019 68.9046L91.8015 119.452C91.8504 119.551 91.8504 119.609 91.8015 119.698L45.9154 200.671C44.7178 203.057 44.7765 205.451 45.9154 207.298C47.0152 209.073 48.9584 210.243 51.5591 210.243H94.7445C101.202 210.243 104.315 205.885 106.523 201.898C106.523 201.898 151.397 122.534 153.146 119.452C152.968 119.167 123.455 67.6776 123.455 67.6776C121.304 63.8499 118.056 59.5811 111.431 59.5811H68.2455Z" fill="#005A5F"/>
<path d="M249.676 0.445045C243.227 0.445045 240.429 4.50961 238.114 8.66981C238.114 8.66981 145.076 173.662 142.014 179.079C142.171 179.374 203.378 291.659 203.378 291.659C205.519 295.486 208.826 299.883 215.441 299.883H258.578C261.179 299.883 263.212 298.902 264.309 297.125C265.458 295.28 265.429 292.845 264.222 290.452L203.339 179.215C203.31 179.173 203.295 179.124 203.295 179.073C203.295 179.022 203.31 178.973 203.339 178.931L298.957 9.86528C300.156 7.48087 300.185 5.04539 299.045 3.20113C297.945 1.42424 295.904 0.442871 293.304 0.442871H249.676V0.445045Z" fill="#D4D600"/>
</g>
<defs>
<clipPath id="clip0_52_286">
<rect width="300" height="300" fill="white" transform="translate(-0.0078125)"/>
</clipPath>
</defs>
</svg>
