<svg width="300" height="256" viewBox="0 0 300 256" fill="none" xmlns="http://www.w3.org/2000/svg">
<g clip-path="url(#clip0_2002_10496)">
<path d="M288.002 115.413C287.343 115.384 286.684 115.372 286.024 115.376C274.49 115.399 191.554 124.494 195.716 132.946C199.862 141.31 250.932 145.368 287.329 145.385C294.958 144.06 300.484 137.167 299.958 129.285C299.467 122.367 294.447 116.837 288.002 115.413ZM259.877 203.129C227.955 185.64 181.235 164.613 173.574 169.969C165.861 175.367 234.185 223.248 244.292 228.809C244.909 229.143 245.484 229.45 246.038 229.744C252.39 231.594 259.436 229.162 263.2 223.32C267.457 216.671 265.918 207.959 259.877 203.129ZM259.878 59.1756C265.92 54.344 267.457 45.6323 263.2 38.9889C259.436 33.1436 252.39 30.7248 246.038 32.5682C245.484 32.853 244.909 33.1623 244.292 33.494C234.185 39.0639 165.861 86.9362 173.574 92.3397C181.235 97.694 227.955 76.6694 259.878 59.1756ZM68.4406 187.344C58.9414 214.167 50.1476 226.727 29.9468 226.727C27.9945 226.727 21.1976 226.326 20.7593 226.285C14.2425 225.95 8.15582 230.191 6.40035 236.743C4.38472 244.187 8.75582 251.857 16.1597 253.978C21.514 254.92 27.0113 255.267 31.9437 255.267C69.1789 255.267 81.4895 233.83 93.7836 202.532L166.428 21.3123C169.047 13.101 164.485 4.32366 156.324 1.71155C148.304 -0.83845 139.813 3.4014 136.939 11.192L85.8945 146.104H85.0941L31.3988 10.1784C27.766 2.49788 18.7789 -1.25095 10.6718 1.78772C2.35504 4.90726 -1.91762 14.0069 0.815192 22.3741L68.4406 187.345V187.344Z" fill="#265495"/>
</g>
<defs>
<clipPath id="clip0_2002_10496">
<rect width="300" height="256" fill="white" transform="translate(-0.0078125)"/>
</clipPath>
</defs>
</svg>
