<svg width="300" height="256" viewBox="0 0 300 256" fill="none" xmlns="http://www.w3.org/2000/svg">
<g clip-path="url(#clip0_2002_10496)">
<path d="M288.01 115.413C287.351 115.384 286.691 115.372 286.032 115.376C274.498 115.399 191.562 124.494 195.723 132.946C199.87 141.31 250.94 145.368 287.337 145.385C294.966 144.06 300.492 137.167 299.965 129.285C299.474 122.367 294.455 116.837 288.01 115.413ZM259.885 203.129C227.963 185.64 181.243 164.613 173.582 169.969C165.869 175.367 234.193 223.248 244.3 228.809C244.916 229.143 245.492 229.45 246.046 229.744C252.398 231.594 259.444 229.162 263.208 223.32C267.465 216.671 265.926 207.959 259.885 203.129ZM259.886 59.1756C265.928 54.344 267.465 45.6323 263.208 38.9889C259.444 33.1436 252.398 30.7248 246.046 32.5682C245.492 32.853 244.916 33.1623 244.3 33.494C234.193 39.0639 165.869 86.9362 173.582 92.3397C181.243 97.694 227.963 76.6694 259.886 59.1756ZM68.4484 187.344C58.9492 214.167 50.1555 226.727 29.9547 226.727C28.0023 226.727 21.2054 226.326 20.7672 226.285C14.2504 225.95 8.16363 230.191 6.40816 236.743C4.39254 244.187 8.76363 251.857 16.1675 253.978C21.5218 254.92 27.0191 255.267 31.9515 255.267C69.1867 255.267 81.4973 233.83 93.7914 202.532L166.436 21.3123C169.055 13.101 164.493 4.32366 156.332 1.71155C148.312 -0.83845 139.82 3.4014 136.947 11.192L85.9023 146.104H85.102L31.4066 10.1784C27.7738 2.49788 18.7867 -1.25095 10.6796 1.78772C2.36285 4.90726 -1.90981 14.0069 0.823004 22.3741L68.4484 187.345V187.344Z" fill="#265495"/>
</g>
<defs>
<clipPath id="clip0_2002_10496">
<rect width="300" height="256" fill="white"/>
</clipPath>
</defs>
</svg>
