<svg width="300" height="300" viewBox="0 0 300 300" fill="none" xmlns="http://www.w3.org/2000/svg">
<g clip-path="url(#clip0_2002_10358)">
<path d="M150 294.643C70.1162 294.643 5.35742 229.884 5.35742 150C5.35742 70.1157 70.1162 5.35693 150 5.35693C229.884 5.35693 294.643 70.1157 294.643 150C294.643 229.884 229.884 294.643 150 294.643Z" fill="#FF0000"/>
<path d="M137.874 259.289C145.773 259.645 152.902 258.933 160.801 259.289C159.005 240.084 164.171 219.675 162.193 200.489C161.64 195.136 162.549 187.462 162.994 182.095C163.473 176.334 168.005 165.44 170.18 160.083C186.779 119.156 197.227 86.292 212.012 44.6764C204.755 44.5405 194.659 44.8124 187.402 44.6764C173.649 79.453 159.999 115.847 149.799 151.828C132.648 123.136 125.626 94.7249 116.729 65.6436C116.12 63.6561 115.398 61.4952 113.635 60.3936C112.477 59.6717 111.062 59.5358 109.702 59.4327C102.39 58.8796 95.0492 58.7343 87.7227 59.0108C104.766 95.3014 119.565 136.073 131.162 174.454C133.088 180.829 134.94 187.247 135.91 193.833C136.932 200.77 138.005 206.573 138.034 213.581C138.076 227.114 137.827 245.761 137.874 259.289Z" fill="white"/>
<path d="M212.007 42.3421C203.803 42.2108 195.6 42.4733 187.397 42.3421C186.282 42.3233 185.517 43.0968 185.138 44.0624C171.905 77.5405 159.239 111.3 149.114 145.861C139.224 128.039 132.277 108.947 126.324 89.4561C124.753 84.3233 123.235 79.1764 121.702 74.0296C120.436 69.7921 119.644 64.603 117.249 60.8343C114.802 56.9858 110.297 57.0936 106.233 56.8593C100.069 56.503 93.891 56.4561 87.7176 56.6671C85.8379 56.7327 84.9379 58.5843 85.6926 60.1921C97.5894 85.5796 107.841 111.717 116.982 138.215C125.813 163.823 135.694 190.101 135.685 217.514C135.685 231.436 135.483 245.362 135.525 259.284C135.53 260.217 136.003 260.831 136.622 261.187C136.96 261.426 137.353 261.609 137.869 261.628C145.514 261.923 153.155 261.333 160.796 261.628C161.982 261.675 163.247 260.512 163.139 259.284C161.78 243.595 164.7 228.009 164.968 212.344C165.089 205.298 164.1 198.337 164.555 191.297C164.939 185.315 165.493 179.658 167.382 173.948C171.638 161.09 177.319 148.655 182.11 135.989C187.369 122.09 192.352 108.094 197.246 94.0639C202.917 77.8124 208.496 61.528 214.257 45.3046C214.791 43.8327 213.436 42.3655 212.007 42.3421ZM179.466 129.773C174.539 142.964 168.957 155.911 164.119 169.13C162.122 174.581 160.861 179.789 160.341 185.559C160.055 188.756 159.769 191.962 159.694 195.173C159.61 198.755 160.083 202.279 160.228 205.851C160.922 222.914 157.318 239.859 158.339 256.912C152.302 256.814 146.269 257.086 140.236 256.983C140.293 231.89 142.289 206.32 135.732 181.837C128.391 154.425 118.636 127.392 108.263 101.001C102.999 87.6092 97.3363 74.3718 91.3082 61.3077C95.9019 61.2233 100.496 61.2468 105.085 61.4858C107.171 61.5936 110.663 61.1718 112.458 62.4233C114.122 63.5811 114.549 66.5108 115.088 68.278C117.957 77.7327 120.689 87.2296 123.657 96.6514C129.825 116.217 137.278 135.337 147.778 153.019C148.81 154.758 151.51 154.401 152.063 152.461C162.253 116.615 175.318 81.6749 188.991 47.0296C195.567 47.0952 202.139 46.9968 208.716 47.0296C198.957 74.6061 189.703 102.365 179.466 129.773Z" fill="white"/>
</g>
<defs>
<clipPath id="clip0_2002_10358">
<rect width="300" height="300" fill="white"/>
</clipPath>
</defs>
</svg>
