<svg width="300" height="300" viewBox="0 0 300 300" fill="none" xmlns="http://www.w3.org/2000/svg">
<g clip-path="url(#clip0_2002_10358)">
<path d="M149.992 294.643C70.1084 294.643 5.34961 229.884 5.34961 150C5.34961 70.1157 70.1084 5.35693 149.992 5.35693C229.877 5.35693 294.635 70.1157 294.635 150C294.635 229.884 229.877 294.643 149.992 294.643Z" fill="#FF0000"/>
<path d="M137.866 259.289C145.765 259.645 152.895 258.933 160.793 259.289C158.998 240.084 164.163 219.675 162.185 200.489C161.632 195.136 162.541 187.462 162.987 182.095C163.465 176.334 167.998 165.44 170.173 160.083C186.771 119.156 197.219 86.292 212.004 44.6764C204.748 44.5405 194.651 44.8124 187.394 44.6764C173.641 79.453 159.991 115.847 149.791 151.828C132.64 123.136 125.618 94.7249 116.721 65.6436C116.112 63.6561 115.39 61.4952 113.627 60.3936C112.47 59.6717 111.054 59.5358 109.695 59.4327C102.382 58.8796 95.0414 58.7343 87.7148 59.0108C104.759 95.3014 119.557 136.073 131.154 174.454C133.08 180.829 134.932 187.247 135.902 193.833C136.924 200.77 137.998 206.573 138.026 213.581C138.068 227.114 137.82 245.761 137.866 259.289Z" fill="white"/>
<path d="M211.999 42.3421C203.796 42.2108 195.592 42.4733 187.389 42.3421C186.274 42.3233 185.51 43.0968 185.13 44.0624C171.897 77.5405 159.232 111.3 149.107 145.861C139.216 128.039 132.269 108.947 126.316 89.4561C124.746 84.3233 123.227 79.1764 121.694 74.0296C120.428 69.7921 119.636 64.603 117.241 60.8343C114.794 56.9858 110.289 57.0936 106.225 56.8593C100.061 56.503 93.8832 56.4561 87.7097 56.6671C85.8301 56.7327 84.9301 58.5843 85.6847 60.1921C97.5816 85.5796 107.833 111.717 116.974 138.215C125.805 163.823 135.686 190.101 135.677 217.514C135.677 231.436 135.475 245.362 135.518 259.284C135.522 260.217 135.996 260.831 136.614 261.187C136.952 261.426 137.346 261.609 137.861 261.628C145.507 261.923 153.147 261.333 160.788 261.628C161.974 261.675 163.239 260.512 163.132 259.284C161.772 243.595 164.693 228.009 164.96 212.344C165.082 205.298 164.093 198.337 164.547 191.297C164.932 185.315 165.485 179.658 167.374 173.948C171.63 161.09 177.311 148.655 182.102 135.989C187.361 122.09 192.344 108.094 197.238 94.0639C202.91 77.8124 208.488 61.528 214.249 45.3046C214.783 43.8327 213.428 42.3655 211.999 42.3421ZM179.458 129.773C174.532 142.964 168.949 155.911 164.111 169.13C162.114 174.581 160.853 179.789 160.333 185.559C160.047 188.756 159.761 191.962 159.686 195.173C159.602 198.755 160.075 202.279 160.221 205.851C160.914 222.914 157.31 239.859 158.332 256.912C152.294 256.814 146.261 257.086 140.228 256.983C140.285 231.89 142.282 206.32 135.724 181.837C128.383 154.425 118.628 127.392 108.255 101.001C102.991 87.6092 97.3285 74.3718 91.3004 61.3077C95.8941 61.2233 100.488 61.2468 105.077 61.4858C107.163 61.5936 110.655 61.1718 112.45 62.4233C114.114 63.5811 114.541 66.5108 115.08 68.278C117.949 77.7327 120.682 87.2296 123.649 96.6514C129.818 116.217 137.271 135.337 147.771 153.019C148.802 154.758 151.502 154.401 152.055 152.461C162.246 116.615 175.31 81.6749 188.983 47.0296C195.56 47.0952 202.132 46.9968 208.708 47.0296C198.949 74.6061 189.696 102.365 179.458 129.773Z" fill="white"/>
</g>
<defs>
<clipPath id="clip0_2002_10358">
<rect width="300" height="300" fill="white" transform="translate(-0.0078125)"/>
</clipPath>
</defs>
</svg>
