<svg width="300" height="300" viewBox="0 0 300 300" fill="none" xmlns="http://www.w3.org/2000/svg">
<path d="M147.905 297.392C227.386 297.392 291.818 231.014 291.818 149.131C291.818 67.2492 227.386 0.870605 147.905 0.870605C68.4242 0.870605 3.99219 67.2492 3.99219 149.131C3.99219 231.014 68.4242 297.392 147.905 297.392Z" fill="#2F84ED"/>
<path d="M66.9922 91.7388H83.9487L96.9922 115.652L109.601 91.7388H125.688L104.383 130V150.434H88.7313V130.434L66.9922 91.7388Z" fill="white"/>
<path d="M120.904 121.304C120.904 103.478 135.252 91.3042 151.774 91.3042C168.296 91.3042 182.643 103.913 182.643 121.304C182.643 139.13 168.296 151.739 151.774 151.739C135.252 151.304 120.904 139.13 120.904 121.304ZM166.556 121.304C166.556 112.174 160.904 104.782 151.339 104.782C141.774 104.782 136.122 112.174 136.122 121.304C136.122 130.435 141.774 137.826 151.339 137.826C161.339 137.826 166.556 130.435 166.556 121.304Z" fill="white"/>
<path d="M196.993 104.782H181.775V91.7388H227.862V104.782H212.645V150.434H196.993V104.782Z" fill="white"/>
<path d="M86.9928 214.783H71.7754V156.087H93.5145C109.167 156.087 117.862 166.087 117.862 179.13C117.862 192.174 109.167 202.174 93.5145 202.174H86.9928V214.783ZM92.645 188.696C99.6015 188.696 102.21 184.783 102.21 179.13C102.21 173.478 99.6015 169.13 92.645 169.13H86.9928V188.696H92.645Z" fill="white"/>
<path d="M120.471 185.652C120.471 167.826 134.819 155.652 151.34 155.652C167.862 155.652 182.21 168.261 182.21 185.652C182.21 203.478 167.862 216.087 151.34 216.087C134.819 215.652 120.471 203.478 120.471 185.652ZM166.558 185.652C166.558 176.521 160.905 169.13 151.34 169.13C141.775 169.13 136.123 176.521 136.123 185.652C136.123 194.782 141.775 202.174 151.34 202.174C160.905 202.174 166.558 194.782 166.558 185.652Z" fill="white"/>
<path d="M182.209 207.391C182.209 202.174 186.122 198.695 190.47 198.695C194.818 198.695 198.731 202.174 198.731 207.391C198.731 212.608 194.818 216.087 190.47 216.087C186.122 215.652 182.209 212.174 182.209 207.391Z" fill="white"/>
</svg>
