<svg width="300" height="300" viewBox="0 0 300 300" fill="none" xmlns="http://www.w3.org/2000/svg">
<path fill-rule="evenodd" clip-rule="evenodd" d="M138.566 96.3734V263.615H0L138.566 96.3734ZM0.0191046 36.3657C0.0191046 54.7062 7.31707 72.3397 20.3273 85.3118C33.2994 98.322 50.9329 105.62 69.3116 105.62C87.652 105.62 105.286 98.322 118.296 85.3118C131.268 72.3397 138.566 54.7062 138.566 36.3657H0.0191046ZM299.962 263.634C299.962 245.275 292.664 227.66 279.673 214.65C266.662 201.659 249.067 194.361 230.688 194.361C212.31 194.361 194.695 201.659 181.704 214.65C168.694 227.66 161.396 245.275 161.396 263.634H299.962ZM161.415 203.589L300 36.3657H161.415V203.589Z" fill="#03363D"/>
</svg>
