<svg width="300" height="300" viewBox="0 0 300 300" fill="none" xmlns="http://www.w3.org/2000/svg">
<g clip-path="url(#clip0_2002_10498)">
<path fill-rule="evenodd" clip-rule="evenodd" d="M138.558 96.3734V263.615H-0.0078125L138.558 96.3734ZM0.0112921 36.3657C0.0112921 54.7062 7.30926 72.3397 20.3195 85.3118C33.2916 98.322 50.9251 105.62 69.3038 105.62C87.6442 105.62 105.278 98.322 118.288 85.3118C131.26 72.3397 138.558 54.7062 138.558 36.3657H0.0112921ZM299.954 263.634C299.954 245.275 292.656 227.66 279.665 214.65C266.655 201.659 249.059 194.361 230.681 194.361C212.302 194.361 194.687 201.659 181.696 214.65C168.686 227.66 161.388 245.275 161.388 263.634H299.954ZM161.407 203.589L299.992 36.3657H161.407V203.589Z" fill="#03363D"/>
</g>
<defs>
<clipPath id="clip0_2002_10498">
<rect width="300" height="300" fill="white" transform="translate(-0.0078125)"/>
</clipPath>
</defs>
</svg>
