<svg width="300" height="300" viewBox="0 0 300 300" fill="none" xmlns="http://www.w3.org/2000/svg">
<path d="M229.981 71.6861L259.911 268.534L59.2322 300L27 102.776L229.977 71.6965" fill="url(#paint0_linear_2023_3027)"/>
<path d="M27.0039 102.763L41.0968 32.4816L243.72 0.00262451L229.987 71.6836L27.0039 102.763Z" fill="#EF463D"/>
<path d="M243.719 -0.000152588L273.428 198.746L259.916 268.523L229.986 71.6809L243.719 -0.000152588Z" fill="#761116"/>
<path d="M208.432 237.191C206.85 235.301 204.72 233.905 202.125 232.997C199.457 232.066 196.232 231.618 192.434 231.618C188.855 231.618 184.764 232.017 180.148 232.808L127.181 241.86C127.741 237.779 129.768 232.414 133.342 225.877C137.334 218.552 143.218 209.755 150.991 199.514L150.995 199.509C153.663 195.944 155.702 193.221 157.111 191.341C158.122 190.088 159.531 188.245 161.357 185.809C173.473 169.913 180.973 156.971 183.848 146.813C185.494 141.054 186.495 135.25 186.857 129.405C186.956 127.805 187.001 126.217 187.001 124.64C187.001 120.452 186.659 116.327 185.965 112.269C185.334 108.571 184.424 105.494 183.203 103.025C181.982 100.562 180.433 98.688 178.52 97.5062C176.363 96.1933 173.328 95.6362 169.358 95.6297C166.08 95.6297 162.149 96.0271 157.548 96.8115L96.3368 107.285C88.9242 108.555 83.4504 110.737 79.9584 114.025C77.1832 116.629 75.7495 120.001 75.7638 123.873C75.7638 124.883 75.856 125.928 76.043 127.01C76.904 132.211 79.6142 136.025 83.9841 137.965C86.5632 139.129 89.68 139.685 93.3175 139.685C95.7953 139.685 98.5173 139.426 101.491 138.92L152.724 130.28C152.811 131.185 152.871 132.089 152.871 132.985C152.871 136.186 152.316 139.312 151.206 142.39C149.685 146.63 145.885 152.692 139.83 160.398C138.114 162.502 135.486 165.78 131.944 170.221C118.128 186.958 108.232 201.227 102.244 213.097C102.244 213.102 102.244 213.102 102.24 213.107L102.239 213.112C97.9887 221.282 95.0382 229.33 93.4201 237.252C92.4773 241.872 92.0007 246.308 92.0007 250.565C92.0007 253.613 92.2448 256.564 92.7344 259.419C93.4357 263.517 94.4473 266.897 95.8096 269.575C97.1719 272.241 98.9094 274.234 101.055 275.413C103.052 276.496 105.987 276.926 110.027 276.938C115.155 276.938 122.059 276.182 130.798 274.691L186.338 265.194C196.174 263.502 203.014 261.157 206.989 257.892C210.165 255.283 211.811 251.702 211.794 247.482C211.794 246.415 211.695 245.312 211.496 244.166C211.03 241.427 210.013 239.077 208.432 237.191ZM161.358 185.805L161.362 185.802C161.358 185.805 161.357 185.809 161.357 185.809H161.353L161.358 185.805Z" fill="white"/>
<defs>
<linearGradient id="paint0_linear_2023_3027" x1="128.799" y1="90.3736" x2="160.946" y2="284.442" gradientUnits="userSpaceOnUse">
<stop stop-color="#D92231"/>
<stop offset="1" stop-color="#BA2234"/>
</linearGradient>
</defs>
</svg>
