<svg width="300" height="300" viewBox="0 0 300 300" fill="none" xmlns="http://www.w3.org/2000/svg">
<path d="M229.989 71.6861L259.919 268.534L59.2401 300L27.0078 102.776L229.985 71.6965" fill="url(#paint0_linear_2023_3027)"/>
<path d="M27.0117 102.763L41.1046 32.4816L243.728 0.00262451L229.994 71.6836L27.0117 102.763Z" fill="#EF463D"/>
<path d="M243.727 -0.000152588L273.436 198.746L259.924 268.523L229.994 71.6809L243.727 -0.000152588Z" fill="#761116"/>
<path d="M208.439 237.191C206.858 235.301 204.728 233.905 202.133 232.997C199.464 232.066 196.24 231.618 192.441 231.618C188.862 231.618 184.772 232.017 180.156 232.808L127.189 241.86C127.748 237.779 129.776 232.414 133.349 225.877C137.341 218.552 143.226 209.755 150.999 199.514L151.003 199.509C153.67 195.944 155.709 193.221 157.118 191.341C158.13 190.088 159.539 188.245 161.365 185.809C173.481 169.913 180.981 156.971 183.856 146.813C185.501 141.054 186.503 135.25 186.865 129.405C186.964 127.805 187.009 126.217 187.009 124.64C187.009 120.452 186.666 116.327 185.973 112.269C185.342 108.571 184.431 105.494 183.211 103.025C181.99 100.562 180.441 98.688 178.528 97.5062C176.371 96.1933 173.336 95.6362 169.366 95.6297C166.088 95.6297 162.157 96.0271 157.556 96.8115L96.3447 107.285C88.932 108.555 83.4583 110.737 79.9662 114.025C77.191 116.629 75.7573 120.001 75.7716 123.873C75.7716 124.883 75.8638 125.928 76.0508 127.01C76.9118 132.211 79.622 136.025 83.992 137.965C86.5711 139.129 89.6878 139.685 93.3253 139.685C95.8031 139.685 98.5251 139.426 101.499 138.92L152.732 130.28C152.819 131.185 152.878 132.089 152.878 132.985C152.878 136.186 152.324 139.312 151.213 142.39C149.693 146.63 145.893 152.692 139.837 160.398C138.122 162.502 135.493 165.78 131.952 170.221C118.136 186.958 108.24 201.227 102.252 213.097C102.252 213.102 102.252 213.102 102.248 213.107L102.247 213.112C97.9965 221.282 95.046 229.33 93.4279 237.252C92.4851 241.872 92.0085 246.308 92.0085 250.565C92.0085 253.613 92.2526 256.564 92.7422 259.419C93.4435 263.517 94.4551 266.897 95.8174 269.575C97.1797 272.241 98.9173 274.234 101.063 275.413C103.06 276.496 105.995 276.926 110.035 276.938C115.163 276.938 122.067 276.182 130.805 274.691L186.346 265.194C196.181 263.502 203.021 261.157 206.997 257.892C210.173 255.283 211.818 251.702 211.801 247.482C211.801 246.415 211.703 245.312 211.504 244.166C211.038 241.427 210.021 239.077 208.439 237.191ZM161.366 185.805L161.37 185.802C161.366 185.805 161.365 185.809 161.365 185.809H161.361L161.366 185.805Z" fill="white"/>
<defs>
<linearGradient id="paint0_linear_2023_3027" x1="128.807" y1="90.3736" x2="160.953" y2="284.442" gradientUnits="userSpaceOnUse">
<stop stop-color="#D92231"/>
<stop offset="1" stop-color="#BA2234"/>
</linearGradient>
</defs>
</svg>
