<svg width="300" height="300" viewBox="0 0 300 300" fill="none" xmlns="http://www.w3.org/2000/svg">
<g clip-path="url(#clip0_2023_2431)">
<path d="M150 300C232.843 300 300 232.843 300 150C300 67.1573 232.843 0 150 0C67.1573 0 0 67.1573 0 150C0 232.843 67.1573 300 150 300Z" fill="#4A8CFF"/>
<path d="M53.7578 103.038V173.529C53.7948 181.174 56.8657 188.493 62.2958 193.875C67.7259 199.257 75.0707 202.264 82.7163 202.233H185.468C186.857 202.24 188.192 201.696 189.18 200.719C190.169 199.743 190.729 198.415 190.739 197.026V126.535C190.702 118.889 187.631 111.571 182.201 106.189C176.771 100.806 169.426 97.7999 161.781 97.8303H59.0605C58.3701 97.8228 57.6849 97.9516 57.0444 98.2095C56.4038 98.4673 55.8205 98.8491 55.3278 99.3329C54.8352 99.8167 54.4429 100.393 54.1735 101.029C53.904 101.665 53.7628 102.347 53.7578 103.038ZM197.28 130.536L239.702 99.545C243.385 96.4903 246.243 97.2588 246.243 102.784V197.28C246.243 203.567 242.75 202.805 239.702 200.512L197.28 169.592V130.536Z" fill="white"/>
</g>
<defs>
<clipPath id="clip0_2023_2431">
<rect width="300" height="300" fill="white"/>
</clipPath>
</defs>
</svg>
