<svg viewBox="0 0 500 500" fill="none" xmlns="http://www.w3.org/2000/svg">
	<path
		d="M183.463 258.749L217.2 370.861L200.876 403.517C191.079 423.108 167.136 431.817 147.546 422.021C127.955 412.224 119.248 388.278 129.045 368.684L183.463 258.749Z"
		fill="#92C746" />
	<path
		d="M370.659 58.4679L268.352 266.369L234.615 154.254L298.827 22.5478C308.624 2.9568 332.567 -5.7528 352.158 4.04409C372.837 13.841 380.456 37.7868 370.659 58.4679Z"
		fill="#92C746" />
	<path
		d="M217.199 370.862L269.443 265.279L324.948 448.144C330.39 468.825 318.419 491.683 297.741 498.213C277.059 504.745 254.204 492.771 247.674 472.09L217.199 370.862Z"
		fill="#D50F67" />
	<path
		d="M234.616 153.167L182.372 258.749L134.484 103.095C129.044 82.4137 141.016 59.558 161.694 53.0258C182.372 47.5837 205.228 59.558 211.76 80.2391L234.616 153.167Z"
		fill="#D50F67" />
	<path d="M234.617 154.254L268.354 266.369L217.2 371.949L182.373 258.749L234.617 154.254Z"
		fill="#3BA510" />
</svg>