<svg viewBox="0 0 300 300" fill="none" xmlns="http://www.w3.org/2000/svg">
  <path
    d="M99.1635 300C127.226 300 150.001 277.6 150.001 250V200H99.1635C71.1013 200 48.3262 222.4 48.3262 250C48.3262 277.6 71.1013 300 99.1635 300Z"
    fill="#0ACF83" />
  <path
    d="M48.3262 150C48.3262 122.4 71.1013 100 99.1635 100H150.001V200H99.1635C71.1013 200 48.3262 177.6 48.3262 150Z"
    fill="#A259FF" />
  <path
    d="M48.3262 50C48.3262 22.4 71.1013 0 99.1635 0H150.001V100H99.1635C71.1013 100 48.3262 77.6 48.3262 50Z"
    fill="#F24E1E" />
  <path
    d="M150 0H200.837C228.899 0 251.675 22.4 251.675 50C251.675 77.6 228.899 100 200.837 100H150V0Z"
    fill="#FF7262" />
  <path
    d="M251.675 150C251.675 177.6 228.899 200 200.837 200C172.775 200 150 177.6 150 150C150 122.4 172.775 100 200.837 100C228.899 100 251.675 122.4 251.675 150Z"
    fill="#1ABCFE" />
</svg>