<svg width="300" height="300" viewBox="0 0 300 300" fill="none" xmlns="http://www.w3.org/2000/svg">
<path d="M110.078 155.25L130.32 222.517L120.526 242.111C114.648 253.865 100.282 259.091 88.5273 253.213C76.7727 247.335 71.5486 232.967 77.4268 221.211L110.078 155.25Z" fill="#92C746"/>
<path d="M222.396 35.0807L161.012 159.821L140.77 92.5523L179.297 13.5287C185.175 1.77408 199.541 -3.45168 211.295 2.42646C223.702 8.30459 228.274 22.6721 222.396 35.0807Z" fill="#92C746"/>
<path d="M130.32 222.517L161.666 159.167L194.97 268.886C198.235 281.295 191.052 295.01 178.645 298.927C166.236 302.847 152.523 295.662 148.605 283.254L130.32 222.517Z" fill="#D50F67"/>
<path d="M140.77 91.9001L109.423 155.25L80.6901 61.8571C77.4266 49.4484 84.6095 35.735 97.0164 31.8157C109.423 28.5505 123.137 35.735 127.056 48.1437L140.77 91.9001Z" fill="#D50F67"/>
<path d="M140.77 92.5527L161.012 159.822L130.32 223.17L109.424 155.25L140.77 92.5527Z" fill="#3BA510"/>
</svg>
