<svg width="300" height="300" viewBox="0 0 300 300" fill="none" xmlns="http://www.w3.org/2000/svg">
<path d="M219.584 149.482L85.2514 238.692C79.0279 242.841 75.9141 249.582 75.9141 256.325V278.627L238.774 171.784C246.035 166.598 250.704 158.298 250.704 149.482C250.704 140.665 246.555 132.365 238.774 127.179L75.9141 21.3726V42.1181C75.9141 49.3809 79.5455 56.122 85.2514 59.7534L219.584 149.482Z" fill="white"/>
<path d="M138.673 156.743C145.933 161.409 155.271 161.409 162.531 156.743L173.941 148.962L88.8807 91.3919C83.6945 87.7605 75.9141 91.3918 75.9141 98.1329V115.249L120 144.813L138.673 156.743Z" fill="white"/>
</svg>
