<svg width="300" height="300" viewBox="0 0 300 300" fill="none" xmlns="http://www.w3.org/2000/svg">
<path d="M135.151 36.7662L31.6067 79.6109C25.8486 81.9939 25.9083 90.1741 31.7024 92.4707L135.678 133.703C144.814 137.326 154.988 137.326 164.123 133.703L268.101 92.4692C273.893 90.1741 273.956 81.9954 268.195 79.6125L164.654 36.7647C155.207 32.8558 144.596 32.8558 135.149 36.7647" fill="#FCB400"/>
<path d="M159.127 156.217V259.223C159.127 264.121 164.067 267.477 168.621 265.672L284.482 220.7C285.774 220.188 286.883 219.299 287.664 218.149C288.445 216.999 288.862 215.641 288.862 214.251V111.247C288.862 106.348 283.922 102.993 279.368 104.798L163.507 149.77C162.215 150.283 161.106 151.171 160.326 152.321C159.545 153.471 159.127 154.827 159.127 156.217Z" fill="#18BFFF"/>
<path d="M132.071 161.533L97.6863 178.135L94.195 179.823L21.6105 214.602C17.0109 216.821 11.1367 213.468 11.1367 208.357V111.679C11.1367 109.83 12.0849 108.233 13.3564 107.032C13.8781 106.513 14.4699 106.069 15.1146 105.714C16.8477 104.673 19.3217 104.395 21.4252 105.227L131.494 148.839C137.088 151.059 137.528 158.897 132.071 161.533Z" fill="#F82B60"/>
<path d="M132.07 161.533L97.6853 178.135L13.3555 107.031C13.8772 106.512 14.469 106.069 15.1136 105.714C16.8467 104.673 19.3207 104.395 21.4243 105.227L131.493 148.839C137.087 151.059 137.527 158.897 132.07 161.533Z" fill="white" fill-opacity="0.25"/>
</svg>
