<svg width="300" height="300" viewBox="0 0 300 300" fill="none" xmlns="http://www.w3.org/2000/svg">
<path d="M220.634 128.047C233.042 129.956 241.633 135.683 246.405 143.319C251.177 150.955 254.041 164.318 254.041 181.498C254.041 215.86 243.542 244.495 222.543 266.449C201.544 288.403 174.818 299.855 142.365 299.855C129.956 299.855 117.548 297.947 105.139 293.174C92.731 288.403 83.1861 281.721 74.5955 274.085C65.0507 265.494 57.4151 254.994 52.6423 245.45C48.8245 234.951 45.9609 224.451 45.9609 213.952C45.9609 202.497 48.8245 192.953 53.5965 186.271C58.3693 179.59 66.9591 175.771 77.459 172.909C75.5506 168.136 73.6413 164.317 72.687 160.499C71.732 157.636 70.7777 154.773 70.7777 152.864C70.7777 147.137 73.6413 140.455 80.3226 133.774C87.0039 127.093 92.731 124.229 98.4581 124.229C101.322 124.229 103.231 124.229 106.094 125.184C108.958 126.138 111.822 127.092 115.639 129.956C107.049 101.321 98.4581 77.4584 93.6852 61.2322C88.9132 45.0061 87.0039 34.507 87.0039 27.8249C87.0039 19.2342 88.9132 12.5529 93.6852 7.7809C97.5046 3.00726 104.186 0.144531 111.822 0.144531C124.231 0.144531 140.457 28.7799 160.502 87.0033C164.319 96.5489 166.228 104.184 168.137 109.912C170.047 106.094 171.955 99.4117 174.819 91.7761C194.862 34.5062 212.043 5.87161 225.406 5.87161C232.088 5.87161 237.815 7.78009 242.587 12.5529C246.405 17.3258 249.268 24.0071 249.268 31.6426C249.268 37.3697 247.36 48.8239 242.587 65.05C236.86 81.277 230.179 102.275 220.634 128.047ZM73.6405 212.043C75.5497 213.952 78.4133 217.769 81.2768 222.542C89.8674 234.95 98.4581 241.631 106.094 241.631C108.958 241.631 110.866 240.677 112.776 238.767C114.684 236.858 115.639 234.95 115.639 233.995C115.639 232.086 114.684 228.268 111.822 223.496C108.958 218.723 105.14 212.996 100.367 207.269C94.6403 200.588 89.8674 194.861 87.0047 191.997C83.1861 189.134 80.3234 187.225 78.4133 187.225C73.6413 187.225 68.8684 190.088 65.0507 194.861C61.2329 199.633 59.3236 206.314 59.3236 212.996C59.3236 218.723 60.2786 224.45 63.1422 232.086C66.0057 238.767 69.8235 246.403 75.5506 253.085C84.1404 262.63 93.686 271.221 106.094 276.947C118.503 282.674 130.911 285.538 146.182 285.538C172.908 285.538 194.862 275.993 212.998 255.949C231.133 235.904 239.723 211.087 239.723 180.543C239.723 170.998 238.769 164.317 237.815 158.589C236.86 152.863 233.996 149.045 231.133 147.136C225.406 142.363 214.906 138.545 198.68 134.728C182.454 130.91 165.273 129 148.092 129C143.32 129 139.502 129.955 137.593 131.864C135.683 133.773 134.729 136.637 134.729 140.455C134.729 149.999 139.502 156.681 150.001 160.499C160.5 164.317 177.681 167.18 200.59 167.18H209.179C211.089 167.18 212.998 168.135 213.952 169.09C214.906 170.998 215.861 172.907 215.861 175.771C213.951 177.68 209.18 180.543 201.544 183.407C193.907 186.27 189.135 189.134 185.318 191.997C176.726 197.725 170.045 205.36 165.273 213.951C160.5 222.541 157.636 230.177 157.636 237.813C157.636 242.585 158.592 247.358 160.5 254.039C162.41 260.721 163.364 264.539 163.364 265.494V269.311C157.636 269.311 152.864 265.494 149.047 258.812C145.228 252.131 144.274 243.54 144.274 232.086V230.177C143.32 231.131 142.365 232.086 141.41 232.086C140.456 232.086 139.502 233.04 137.593 233.04H133.775C132.82 233.04 131.865 232.086 129.956 232.086C129.956 233.995 130.911 234.95 130.911 236.858V240.677C130.911 245.449 129.002 250.222 125.184 254.039C121.366 257.857 116.594 259.766 110.866 259.766C102.276 259.766 93.686 255.949 84.1412 247.358C75.5497 238.767 70.7785 231.131 70.7785 222.541C70.7785 220.632 70.7785 219.678 71.732 218.723C71.732 213.951 72.687 212.996 73.6413 212.041L73.6405 212.043ZM135.682 216.814C137.592 216.814 140.455 215.86 142.364 213.952C144.274 212.042 145.227 209.179 145.227 207.27C145.227 204.407 143.319 198.679 139.501 189.135C135.682 179.59 130.91 170.045 125.183 161.454C121.366 154.773 116.593 149.046 112.775 146.182C108.957 142.364 105.139 141.41 101.321 141.41C98.4572 141.41 95.5937 143.319 91.7759 147.137C87.9581 150.955 87.0031 153.818 87.0031 157.636C87.0031 160.499 88.9124 166.227 91.7759 172.909C95.5937 179.59 99.4115 186.271 105.139 193.907C110.866 201.543 116.594 208.224 122.321 212.997C128.048 214.906 131.865 216.815 135.683 216.815L135.682 216.814ZM155.726 117.547L132.819 53.5959C127.093 37.3697 123.274 25.9156 119.456 21.1435C116.593 16.3707 113.729 13.5072 109.911 13.5072C107.048 13.5072 105.139 14.4622 103.23 16.3707C100.367 19.2342 99.4115 22.0978 99.4115 25.9156C99.4115 32.5969 102.275 43.0968 107.048 58.3687C111.821 73.6406 119.456 94.6396 129.002 119.456C129.955 117.547 130.91 116.593 132.819 116.593C134.728 115.639 136.637 115.639 138.546 115.639H143.319C146.182 116.593 149.999 116.593 155.726 117.547ZM178.635 179.589C172.908 179.589 167.181 178.635 161.454 177.681C155.727 176.726 150.954 175.771 146.182 173.863C148.092 178.635 150 182.453 151.909 187.225C153.818 191.998 154.773 195.816 155.727 200.588C158.591 196.77 162.409 192.953 166.226 189.135C170.999 185.317 174.818 182.453 178.635 179.589ZM206.315 124.228C215.861 99.4117 222.542 78.4135 228.269 62.1865C233.041 45.9603 235.905 36.4155 235.905 32.5977C235.905 28.7791 234.95 25.9164 233.041 23.052C231.133 21.1435 229.223 20.1893 226.36 20.1893C222.542 20.1893 218.723 23.052 214.906 29.7341C211.088 36.4155 206.315 45.9603 201.543 60.278L180.544 119.456L206.315 124.228Z" fill="white"/>
</svg>
