<svg width="300" height="300" viewBox="0 0 300 300" fill="none" xmlns="http://www.w3.org/2000/svg">
<g clip-path="url(#clip0_2022_535)">
<path d="M157.485 18.7578L-0.5 279.795H84.1105C95.4112 279.795 106.519 276.953 116.307 271.619C126.899 265.837 134.916 257.437 141.162 247.249C148.47 235.336 155.586 223.295 162.765 211.318L181.181 180.657L157.42 141.18L146.892 157.979C134.883 177.877 123.518 198.255 111.091 217.897C104.845 227.734 96.6669 237.061 84.6256 239.456C82.8226 239.807 80.9553 239.999 79.088 240.063C76.6089 240.159 74.1298 240.095 71.6507 240.095L157.485 95.2197L267.627 280.37H299.5V253.158L298.759 251.944L157.485 18.7578Z" fill="white"/>
<path d="M271.249 140.707L249.434 101.668H295.361L271.249 140.707Z" fill="white" stroke="white"/>
</g>
<defs>
<clipPath id="clip0_2022_535">
<rect width="300" height="300" rx="50" fill="white"/>
</clipPath>
</defs>
</svg>
