<svg width="300" height="300" viewBox="0 0 300 300" fill="none" xmlns="http://www.w3.org/2000/svg">
<path d="M101.67 213.949H120.058V255.462H103.255C103.255 255.462 91.1677 254.927 87.4821 241.274C85.3817 235.508 87.4821 228.137 88.5521 225.501C89.6023 222.371 93.2681 216.05 101.67 213.949Z" fill="white"/>
<path fill-rule="evenodd" clip-rule="evenodd" d="M164.721 48.9294C166.801 31.5912 188.36 4.26622 205.163 7.93201C221.966 11.6176 237.739 34.2068 234.589 53.6652C231.418 73.1037 216.2 98.8435 192.046 95.7127C167.851 92.5423 162.62 70.4683 164.721 48.9294ZM114.291 92.5423C96.2794 92.5423 81.7153 71.8752 81.7153 46.3138C81.7153 20.7325 96.2794 0.0654297 114.291 0.0654297C132.303 0.0654297 146.867 20.7325 146.867 46.3138C146.867 71.8752 132.303 92.5423 114.291 92.5423ZM13.4128 109.9C13.4128 109.9 17.0984 71.5185 43.3732 69.438C64.3771 67.3376 79.6149 90.4419 81.2001 103.579C82.2503 111.981 86.4313 150.898 53.8752 157.714C21.8144 164.55 9.72719 127.219 13.4128 109.9ZM255.592 178.223C219.886 178.738 218.301 154.028 218.301 136.175C218.301 117.252 221.966 90.9769 250.857 90.9769C279.232 90.9769 287.118 118.817 287.118 128.289C287.118 137.225 290.784 177.172 255.592 178.223ZM261.378 274.385C243.505 315.898 178.373 294.339 178.373 294.339C178.373 294.339 154.219 286.472 126.378 292.774C98.5185 298.56 74.3441 296.459 74.3441 296.459C74.3441 296.459 41.788 296.974 32.3362 255.977C23.3996 214.464 64.8923 191.875 68.0429 188.19C71.2133 183.989 93.2675 169.266 106.94 146.162C120.573 122.503 162.62 104.114 192.046 149.828C213.565 180.838 250.857 209.729 250.857 209.729C250.857 209.729 278.697 231.287 261.378 274.385ZM140.011 272.285V169.801L121.108 169.266V197.126H98.5185C98.5185 197.126 75.9293 198.692 68.0429 224.451C64.8923 241.789 70.1631 251.776 71.2133 253.877C71.7285 255.977 79.0799 268.599 97.4683 272.285H140.011ZM217.766 271.75V199.762H196.762V253.877H176.788C176.788 253.877 170.487 252.826 169.437 247.575V199.227L149.483 199.762V253.361C149.483 253.361 150.533 267.014 169.437 271.75H217.766Z" fill="white"/>
</svg>
