<svg width="300" height="300" viewBox="0 0 300 300" fill="none" xmlns="http://www.w3.org/2000/svg">
<path d="M236.739 103.823C198.767 86.2667 144.193 75.1109 92.8396 79.2662C95.4148 62.2651 101.765 50.4193 112.191 47.9241C126.537 44.4839 142.193 53.9245 157.114 71.1007C166.889 72.3657 178.48 74.6009 186.546 76.456C159.339 25.2826 122.847 -3.39928 95.0897 7.18142C73.9833 15.237 63.1776 44.2989 64.4827 83.3515C36.9809 89.2019 15.5445 99.5975 1.82355 114.549C1.1285 115.354 -0.441605 117.384 0.118433 118.354C0.543461 119.089 1.94355 118.264 2.54359 117.854C18.4596 106.723 38.836 100.698 65.3778 96.9074C69.158 138.57 86.7842 191.414 116.061 233.806C100.06 240.087 86.6142 240.502 79.2387 232.721C69.093 222.016 69.433 203.744 76.8535 182.218C73.0633 173.117 69.198 161.962 66.7778 154.046C36.0408 203.219 29.4454 249.162 52.4819 267.909C70.0181 282.17 100.575 276.984 133.757 256.348C152.579 277.244 172.295 290.605 192.106 295.015C193.151 295.211 195.691 295.561 196.251 294.59C196.676 293.855 195.251 293.05 194.611 292.735C177.015 284.515 161.609 269.879 145.058 248.792C179.255 224.686 216.203 183.013 238.279 136.45C251.73 147.186 258.781 158.601 255.75 168.877C251.55 183.023 235.559 191.879 213.218 196.194C207.232 204.014 199.492 212.945 193.861 219.015C251.785 221.016 294.868 203.779 299.583 174.452C303.169 152.131 283.397 128.259 248.93 109.843C257.62 83.0964 259.331 59.3399 253.245 39.9786C252.89 38.9785 251.925 36.5984 250.805 36.5984C249.955 36.5984 249.965 38.2285 250.015 38.9485C251.7 58.2798 246.73 78.9462 236.739 103.823ZM130.092 227.181C105.59 187.873 91.4695 141.57 91.5595 94.7522C137.843 93.2021 184.991 104.108 225.493 127.594C203.697 168.452 170.67 203.844 130.077 227.176L130.092 227.181Z" fill="white"/>
</svg>
