<svg width="300" height="300" viewBox="0 0 300 300" fill="none" xmlns="http://www.w3.org/2000/svg">
<path d="M267.862 213.188C267.822 227.309 264.42 241.217 257.937 253.763C251.506 266.2 242.15 276.89 230.674 284.913C219.312 292.853 206.156 297.848 192.387 299.45C178.65 301.036 164.734 299.171 151.899 294.025C138.97 288.832 127.517 280.538 118.549 269.875C109.481 259.108 103.132 246.32 100.037 232.588C96.9191 218.799 97.1291 204.466 100.649 190.775C104.135 177.144 110.848 164.552 120.224 154.063L62.3992 213.188L32.1367 182.2L97.1492 116.388C105.816 107.428 110.603 95.4146 110.474 82.95V0H153.099V82.6625C153.288 94.6204 151.082 106.495 146.612 117.588C142.174 128.61 135.544 138.616 127.124 147L125.212 148.95C137.328 137.645 152.497 130.147 168.837 127.388C185.123 124.678 201.847 126.853 216.899 133.638C232.075 140.509 244.926 151.644 253.887 165.688C262.945 179.88 267.791 196.351 267.862 213.188ZM229.249 213.188C229.346 203.747 226.692 194.483 221.612 186.525C216.596 178.651 209.345 172.454 200.787 168.725C192.298 165.041 182.891 164.025 173.812 165.813C164.692 167.625 156.329 172.142 149.812 178.775C143.221 185.487 138.741 193.983 136.924 203.213C135.083 212.487 135.973 222.097 139.487 230.875C143.012 239.625 148.987 247.113 156.662 252.388C164.297 257.641 173.344 260.461 182.612 260.475C188.742 260.53 194.82 259.345 200.48 256.991C206.141 254.636 211.266 251.161 215.549 246.775C219.887 242.388 223.324 237.15 225.674 231.388C228.024 225.625 229.237 219.438 229.249 213.188Z" fill="white"/>
</svg>
