<svg width="300" height="300" viewBox="0 0 300 300" fill="none" xmlns="http://www.w3.org/2000/svg">
<g clip-path="url(#clip0_2033_358)">
<path d="M158.063 170.792H195.906C206.669 170.792 213.478 164.871 213.478 155.355C213.478 146.383 206.669 139.918 195.906 139.918H158.063C156.809 139.918 155.736 140.991 155.736 142.077V168.634C155.906 169.888 156.798 170.792 158.063 170.792ZM158.063 231.985H197.16C209.176 231.985 216.347 225.881 216.347 215.112C216.347 205.778 209.537 198.24 197.16 198.24H158.063C156.809 198.24 155.736 199.314 155.736 200.4V229.657C155.906 231.091 156.798 231.985 158.063 231.985Z" fill="white"/>
<path d="M296.518 0.663486L184.602 112.29H202.897C231.412 112.29 248.273 130.235 248.273 149.795C248.273 165.232 237.872 176.533 226.748 181.563C224.953 182.285 224.953 184.794 226.929 185.505C239.837 190.534 248.984 203.994 248.984 219.779C248.984 242.029 234.101 259.793 205.224 259.793H125.956C124.703 259.793 123.631 258.721 123.631 257.635V173.108L0.772714 295.516C-0.843516 297.132 0.229259 300.001 2.568 300.001H297.952C299.025 300.001 299.928 299.109 299.928 298.024V2.27971C300.459 0.302229 297.952 -0.770545 296.518 0.663486Z" fill="white"/>
</g>
<defs>
<clipPath id="clip0_2033_358">
<rect width="300" height="300" fill="white"/>
</clipPath>
</defs>
</svg>
