<svg width="300" height="300" viewBox="0 0 300 300" fill="none" xmlns="http://www.w3.org/2000/svg">
<g clip-path="url(#clip0_2022_558)">
<path d="M299.941 151.289C299.941 221.736 252.782 263.39 219.738 282.166C198.026 294.501 183.079 299.94 163.618 299.94C118.411 299.94 99.5295 272.292 99.5295 248.218C100.774 160.947 98.5036 126.984 98.4129 124.644C98.2941 121.601 98.1815 116.837 95.229 116.522C93.4337 116.328 92.2765 116.878 90.2122 119.455C87.1189 123.581 80.8761 125.213 77.076 123.008C72.4878 120.344 71.6308 114.46 73.9546 109.046C80.3976 94.6123 90.7283 88.2257 104.653 88.4258C128.707 88.7699 135.61 104.54 135.61 124.241C135.254 144.139 135.075 159.417 135.075 170.07C143.583 163.111 156.087 155.645 176.97 155.645C205.817 155.645 230.682 176.901 230.682 216.138C230.682 239.188 224.664 251.027 224.62 251.139C253.808 225.674 269.978 185.749 269.978 152.684C269.978 98.5657 227.936 34.7177 149.316 34.7177C84.7263 34.7177 27.3869 89.0545 27.3869 153.631C27.3869 189.587 46.0809 225.583 73.1227 249.36C80.0911 255.487 80.4007 264.232 76.6507 267.863C72.2063 272.173 64.4465 272.632 57.9348 267.606C24.1122 241.506 0.0605469 198.063 0.0605469 153.096C0.0605469 66.3758 66.6953 0.0600586 149.316 0.0600586C228.652 0.0600586 299.941 63.2638 299.941 151.289ZM195.955 220.422C195.955 196.268 183.664 187.829 165.21 191.52C150.376 194.488 135.344 209.951 133.718 231.444C133.449 234.991 133.358 240.868 133.64 246.385C134.39 261.095 146.666 266.505 163.496 266.208C191.423 265.72 195.955 236.746 195.955 220.422Z" fill="#EE6123"/>
</g>
<defs>
<clipPath id="clip0_2022_558">
<rect width="300" height="300" fill="white"/>
</clipPath>
</defs>
</svg>
