<svg width="300" height="300" viewBox="0 0 300 300" fill="none" xmlns="http://www.w3.org/2000/svg">
<g clip-path="url(#clip0_2022_548)">
<path d="M161.188 116.097C138.881 116.097 119.511 128.64 109.723 147.051C99.9341 128.639 80.565 116.099 58.2585 116.099C45.1477 116.099 33.0491 120.43 23.3146 127.741V78.6692H23.3092C23.173 72.3454 18.0131 67.2563 11.6563 67.2563C5.2988 67.2563 0.140258 72.3454 0.00539456 78.6692H0V175.321H0.0242755C0.542153 207.049 26.407 232.616 58.2578 232.616C80.5643 232.616 99.9341 220.072 109.722 201.66C119.511 220.073 138.88 232.615 161.187 232.615C193.362 232.615 219.445 206.53 219.445 174.356C219.446 142.179 193.361 116.097 161.188 116.097ZM58.2578 209.3C38.9581 209.3 23.3139 193.656 23.3139 174.357C23.3139 155.056 38.9588 139.412 58.2578 139.412C77.5575 139.412 93.2024 155.056 93.2024 174.357C93.2024 193.656 77.5575 209.3 58.2578 209.3ZM161.188 209.3C141.888 209.3 126.244 193.656 126.244 174.356C126.244 155.055 141.888 139.412 161.188 139.412C180.486 139.412 196.133 155.055 196.133 174.356C196.132 193.656 180.486 209.3 161.188 209.3Z" fill="#09A9E8"/>
<path d="M297.813 214.28L267.978 174.399L297.813 134.517L297.808 134.513C301.499 129.374 300.429 122.207 295.345 118.388C290.263 114.572 283.082 115.541 279.175 120.516L279.173 120.515L253.422 154.937L227.671 120.515L227.667 120.521C223.76 115.541 216.58 114.572 211.496 118.39C206.412 122.21 205.343 129.377 209.035 134.514L209.03 134.517L238.865 174.399L209.03 214.28L209.035 214.284C205.342 219.422 206.412 226.588 211.496 230.406C216.58 234.225 223.76 233.255 227.667 228.279L227.671 228.283L253.422 193.86L279.173 228.283L279.175 228.282C283.082 233.256 290.263 234.225 295.345 230.409C300.429 226.591 301.499 219.424 297.808 214.286L297.813 214.28Z" fill="#09A9E8"/>
</g>
<defs>
<clipPath id="clip0_2022_548">
<rect width="300" height="300" fill="white"/>
</clipPath>
</defs>
</svg>
