<svg width="300" height="300" viewBox="0 0 300 300" fill="none" xmlns="http://www.w3.org/2000/svg">
<path d="M106.307 144.6L284.351 102.149V9.8457H192.025L106.307 144.6Z" fill="#FF3300"/>
<path d="M18.0781 142.984C18.0781 154.026 19.4244 164.745 21.9676 175.014L106.315 144.604L21.2696 113.918C19.1998 123.266 18.0781 132.988 18.0781 142.959V142.984Z" fill="#FF3300"/>
<path d="M49.4453 57.1599L106.292 144.603L132.496 11.1699C99.3108 15.8313 70.0645 32.7321 49.4453 57.1599Z" fill="#FF3300"/>
<path d="M106.307 144.594L284.351 187.019V279.323H192.025L106.307 144.594Z" fill="#FF3300"/>
<path d="M49.4408 232.023L106.287 144.58L132.467 277.988C99.2815 273.327 70.0352 256.427 49.416 231.998L49.4408 232.023Z" fill="#FF3300"/>
</svg>
