<svg width="300" height="300" viewBox="0 0 300 300" fill="none" xmlns="http://www.w3.org/2000/svg">
<path d="M187.686 221.116C173.998 221.116 162.898 231.939 162.898 245.283C162.898 258.628 173.998 269.444 187.686 269.444C201.381 269.444 212.481 258.628 212.481 245.278C212.481 231.939 201.375 221.116 187.686 221.116ZM277.648 191.361C266.32 191.361 257.136 200.31 257.136 211.355C257.136 222.399 266.32 231.355 277.653 231.355C288.986 231.355 298.164 222.399 298.164 211.355C298.164 200.31 288.981 191.355 277.653 191.355L277.648 191.361ZM91.7253 131.9C77.9698 127.85 62.2476 130.544 50.6311 138.633C44.5478 142.867 41.2589 148.311 36.5089 153.533C42.4533 147.011 51.1422 147.822 51.1422 147.822C43.0867 153.161 38.4089 160.089 33.5089 165.811C22.1089 177.589 0.314453 176.517 0.314453 176.517C9.60334 187.167 29.7144 185.483 45.2978 178.46C60.8809 171.427 63.992 176.822 63.992 176.822C51.9589 175.927 42.4033 186.067 42.4033 186.067C48.27 183.083 56.4587 185.028 69.4309 185.883C81.1365 187.028 94.7087 186.083 103.503 177.511C118.659 162.739 111.948 137.844 91.7253 131.9Z" fill="#F26419"/>
<path d="M136.321 106.933L203.637 85.2834C227.171 77.7112 253.393 88.8279 262.26 111.383C271.726 135.467 258.565 162.1 233.726 170.089L227.243 172.172C225.648 172.689 224.332 170.906 225.326 169.583C226.148 168.489 226.91 167.35 227.593 166.328C228.015 165.7 228.41 165.106 228.776 164.595C232.637 159.133 236.948 152.495 236.304 145.606C235.665 138.767 230.915 132.995 225.093 129.45C223.148 128.267 221.471 126.989 219.882 125.783C215.676 122.578 212.104 119.861 205.754 120.583C200.31 121.206 195.198 123.128 190.093 125.045C187.837 125.889 185.587 126.739 183.31 127.472L199.393 127.661C201.382 127.689 203.337 128.178 205.087 129.095L220.587 137.206C225.421 139.733 227.787 145.406 225.732 150.361C224.358 153.63 222.291 156.562 219.672 158.952C217.053 161.342 213.946 163.135 210.565 164.206L201.921 166.983C200.201 167.537 198.38 167.703 196.588 167.469C194.796 167.235 193.079 166.606 191.56 165.628L175.454 155.211L162.843 159.722L136.321 106.933ZM286.087 173.35C295.182 170.406 300.821 161.539 299.493 152.283L281.993 30.5557L106.01 87.2446L80.6207 36.7334L14.3984 41.039L15.904 62.2723L67.4707 58.9557L97.804 119.322L120.621 111.989L147.387 165.25L124.926 173.283L139.904 203.089C144.282 211.795 154.587 216.011 164.026 212.945L286.087 173.35Z" fill="#F26419"/>
</svg>
