<svg width="300" height="300" viewBox="0 0 300 300" fill="none" xmlns="http://www.w3.org/2000/svg">
<g clip-path="url(#clip0_2022_583)">
<path d="M227.591 195.865C228.174 191.659 228.668 187.441 229.071 183.213C224.618 188.605 219.886 193.971 214.89 199.287C219.293 198.25 223.527 197.106 227.591 195.865ZM73.3215 105.531C72.7199 109.701 72.2097 113.883 71.791 118.076C76.2756 112.601 80.9415 107.278 85.7809 102.115C81.5932 103.123 77.438 104.263 73.3215 105.531ZM230.411 139.255C232.733 135.505 234.931 131.679 237.001 127.784C234.403 124.354 231.73 120.981 228.985 117.668C229.706 124.845 230.181 132.046 230.411 139.255ZM64.0391 172.991C66.4883 176.272 69.0465 179.55 71.7125 182.815C71.0577 175.837 70.6224 168.841 70.407 161.836C68.1697 165.488 66.046 169.207 64.0391 172.991ZM195.314 227.964C193.467 233.846 191.429 239.372 189.212 244.484C185.691 252.602 181.737 259.685 177.47 265.623C169.367 276.896 160.133 283.998 150.535 285.861C140.427 283.685 131.042 276.54 122.961 265.368C115.013 268.351 107.25 270.469 99.7719 271.649C102.186 274.991 104.739 278.091 107.446 280.894C119.083 292.939 129.243 299.805 150.411 299.805C171.579 299.805 183.566 292.032 195.579 278.515C197.418 276.431 199.157 274.261 200.789 272.011C205.25 265.896 209.22 258.909 212.687 251.167C216.536 242.563 219.767 233.034 222.38 222.768C213.834 224.93 204.779 226.663 195.314 227.964ZM195.137 22.7648C183.036 8.93906 171.329 0.972656 150.411 0.972656C129.493 0.972656 122.052 6.85898 110.954 17.2922C107.168 20.8523 103.636 24.9586 100.348 29.5254C96.0652 35.4773 92.2133 42.2344 88.809 49.6863C84.7625 58.5422 81.35 68.3695 78.5973 78.9797C87.0746 76.7672 96.0465 74.9766 105.424 73.6242C107.316 67.4894 109.42 61.7355 111.719 56.4281C115.139 48.5297 118.978 41.6074 123.124 35.7504C131.313 24.177 140.71 16.807 150.534 14.6695C160.275 16.4777 169.641 23.7352 177.829 35.3016C185.486 32.4 192.973 30.3352 200.212 29.1644C198.617 26.9567 196.923 24.8217 195.136 22.766L195.137 22.7648ZM195.627 73.5082C191.585 72.948 187.47 72.4664 183.289 72.0656C188.678 76.4881 193.921 81.0867 199.007 85.8539C198.008 81.7048 196.881 77.5875 195.627 73.5082ZM105.291 227.777C109.503 228.387 113.791 228.914 118.155 229.348C112.561 224.73 107.119 219.932 101.837 214.962C102.848 219.27 104 223.544 105.291 227.777ZM272.947 209.048C272.78 206.351 272.486 203.664 272.068 200.994C270.917 193.507 268.8 185.75 265.784 177.812C262.391 168.88 257.868 159.723 252.363 150.478C247.858 158.055 242.687 165.693 236.92 173.311C239.858 178.924 242.384 184.412 244.473 189.728C247.712 197.966 249.912 205.78 251.07 212.996C253.25 226.584 251.727 238.039 246.291 246.094C237.686 251.651 226.137 253.261 212.687 251.167C209.22 258.909 205.25 265.896 200.789 272.011C204.706 272.624 208.555 272.985 212.309 273.05C229.055 273.34 241.096 271.01 256.064 256.043C271.032 241.075 274.011 227.101 272.947 209.048ZM91.7938 28.5199C73.4609 27.3 59.5508 29.9437 44.7582 44.7363C29.9668 59.5277 28.8676 68.9496 28.3988 84.1746C28.2371 89.441 28.6531 94.9195 29.5848 100.552C30.7812 107.782 32.8496 115.276 35.7207 122.941C39.0887 131.933 43.5582 141.158 49.0191 150.469C53.4582 142.916 58.5441 135.311 64.223 127.732C61.3133 122.208 58.7902 116.796 56.7055 111.553C53.5262 103.557 51.3324 95.9555 50.0996 88.882C47.6445 74.7937 49.0613 62.843 54.5316 54.3328C62.7746 48.6715 74.6703 47.2031 88.8113 49.6863C92.2156 42.2344 96.0676 35.4773 100.351 29.5254C97.5159 29.0552 94.6604 28.7197 91.7938 28.5199ZM228.987 117.668C228.577 113.613 228.092 109.62 227.53 105.697C226.17 96.2203 224.361 87.1547 222.124 78.5953C219.44 68.325 216.139 58.7871 212.239 50.1656C205.179 51.3586 197.559 53.5324 189.536 56.6941C191.755 61.8961 193.787 67.5246 195.627 73.5082C196.881 77.5875 198.009 81.7048 199.009 85.8539C200.061 90.2215 201.009 94.7484 201.847 99.4219C203.448 108.33 204.636 117.773 205.363 127.662C205.898 134.968 206.195 142.503 206.195 150.265C206.195 158.091 205.893 165.683 205.348 173.04C211.911 165.466 217.831 157.909 223.047 150.458C225.609 146.795 228.064 143.059 230.411 139.255C230.182 132.045 229.708 124.845 228.987 117.668ZM105.291 227.777C103.999 223.544 102.846 219.27 101.834 214.962C100.842 210.743 99.9359 206.386 99.1426 201.873C97.5465 192.805 96.3816 183.151 95.6738 173.019C95.1432 165.446 94.8774 157.857 94.877 150.265C94.877 142.452 95.1758 134.879 95.7137 127.548C89.1336 135.146 83.2156 142.757 77.9762 150.279C75.3413 154.057 72.8172 157.911 70.407 161.836C70.6297 168.982 71.068 175.984 71.7125 182.815C72.1215 187.143 72.6066 191.406 73.1832 195.584C74.477 204.947 76.1973 213.908 78.3336 222.373C80.9621 232.781 84.2281 242.432 88.1234 251.139C95.3539 249.937 103.148 247.72 111.358 244.464C109.14 239.304 107.113 233.729 105.291 227.777ZM127.891 63.9844C124.4 66.6261 120.967 69.3443 117.595 72.1371C124.925 71.4005 132.278 70.919 139.641 70.6934C135.799 68.3297 131.88 66.0925 127.891 63.9855V63.9844ZM54.2586 246.593C48.5984 238.351 47.1289 226.454 49.6145 212.313C42.1613 208.91 35.4031 205.057 29.4523 200.774C28.9801 203.67 28.632 206.528 28.4457 209.331C27.227 227.664 29.8707 241.575 44.6621 256.365C59.4535 271.157 68.8754 272.256 84.1016 272.725C89.1477 272.88 94.3871 272.502 99.7719 271.651C95.4113 265.615 91.5242 258.743 88.1234 251.14C74.334 253.43 62.6316 251.973 54.2586 246.593ZM127.677 236.891C122.103 239.83 116.645 242.367 111.358 244.465C114.804 252.475 118.7 259.479 122.961 265.368C131.874 262.023 141.016 257.595 150.242 252.193C142.752 247.718 135.207 242.597 127.677 236.891ZM173.101 236.947C176.367 234.504 179.582 231.992 182.742 229.412C176.056 230.041 169.205 230.473 162.216 230.7C165.779 232.895 169.409 234.978 173.101 236.947ZM111.358 244.465C103.148 247.723 95.3527 249.937 88.1234 251.14C91.5242 258.743 95.4113 265.615 99.7719 271.651C107.248 270.47 115.013 268.352 122.961 265.37C118.7 259.48 114.802 252.475 111.358 244.465ZM255.968 45.0586C241.002 30.0926 227.028 27.1125 208.975 28.1754C206.04 28.3575 203.116 28.688 200.214 29.1656C192.975 30.3363 185.487 32.4012 177.832 35.3027C168.818 38.7199 159.576 43.2867 150.247 48.8543C157.888 53.3238 165.583 58.4555 173.253 64.1941C178.818 61.282 184.263 58.773 189.535 56.6953C197.558 53.5336 205.177 51.3598 212.238 50.168C226.125 47.8242 237.832 49.3066 246.02 54.832C251.578 63.4371 253.187 74.9859 251.093 88.4367C258.835 91.9043 265.822 95.8723 271.938 100.336C272.551 96.4172 272.912 92.5676 272.976 88.8129C273.267 72.0668 270.937 60.0269 255.969 45.0598L255.968 45.0586ZM244.409 111.912C242.353 117.061 239.875 122.364 237.001 127.784C234.931 131.679 232.733 135.505 230.411 139.255C228.064 143.059 225.608 146.796 223.046 150.459C217.83 157.91 211.91 165.468 205.347 173.041C200.268 178.905 194.981 184.584 189.495 190.069C184.168 195.396 178.648 200.526 172.946 205.451C183.036 204.745 192.651 203.585 201.688 202C206.114 201.223 210.516 200.319 214.89 199.288C219.787 194.083 224.517 188.722 229.071 183.214C231.757 179.969 234.374 176.668 236.92 173.312C242.687 165.694 247.858 158.055 252.363 150.478C257.757 141.408 262.19 132.425 265.549 123.653C259.613 119.387 252.529 115.432 244.409 111.912ZM99.2352 99.2953C94.7243 100.104 90.2369 101.044 85.7809 102.115C80.9407 107.278 76.2752 112.601 71.7898 118.076C69.1988 121.24 66.6756 124.46 64.2219 127.732C58.543 135.311 53.457 142.916 49.018 150.468C43.5453 159.777 39.057 169.004 35.6773 177.997C41.5355 182.143 48.4555 185.982 56.3551 189.403C58.4867 184.087 61.0637 178.597 64.0391 172.991C66.046 169.207 68.1697 165.487 70.407 161.835C72.8176 157.91 75.3421 154.057 77.9773 150.28C83.2156 142.757 89.1336 135.146 95.7137 127.548C105.548 116.189 116.202 105.565 127.589 95.7621C117.659 96.4898 108.177 97.6852 99.2352 99.2953ZM278.441 105.543C276.357 103.703 274.187 101.966 271.937 100.335C265.822 95.8711 258.835 91.9031 251.093 88.4355C242.33 84.5133 232.61 81.2332 222.124 78.5953C224.362 87.1547 226.168 96.2203 227.529 105.697C233.546 107.572 239.193 109.65 244.409 111.912C252.529 115.432 259.613 119.387 265.549 123.653C276.822 131.756 283.924 140.989 285.787 150.587C283.643 160.55 276.679 169.811 265.784 177.812C268.8 185.75 270.917 193.507 272.068 200.994C275.223 198.686 278.155 196.25 280.82 193.676C292.866 182.04 299.732 171.879 299.732 150.711C299.732 129.544 291.958 117.557 278.439 105.543H278.441ZM73.1832 195.584C67.1879 193.72 61.557 191.655 56.3551 189.403C48.4566 185.982 41.5355 182.143 35.6773 177.997C24.1051 169.807 16.7328 160.411 14.5953 150.587C16.4293 140.708 23.8625 131.212 35.7195 122.943C32.8484 115.276 30.7801 107.782 29.5836 100.552C27.2006 102.251 24.9011 104.065 22.693 105.987C8.86484 118.086 0.898438 129.793 0.898438 150.711C0.898438 171.629 6.78359 179.068 17.218 190.168C20.7781 193.953 24.8844 197.487 29.4512 200.773C35.402 205.056 42.1602 208.909 49.6133 212.312C58.3074 216.285 67.9426 219.647 78.3336 222.373C76.1973 213.908 74.477 204.947 73.1832 195.584ZM150.632 77.9016C147.036 75.3981 143.37 72.9948 139.64 70.6945C132.124 70.9277 124.763 71.4141 117.595 72.1371C113.47 72.5543 109.411 73.0488 105.424 73.6242C96.0465 74.9766 87.0746 76.7672 78.5973 78.9797C68.3 81.6668 58.7398 84.9738 50.0996 88.882C51.3324 95.9555 53.5262 103.557 56.7055 111.553C61.8523 109.362 67.4117 107.351 73.3215 105.531C77.3176 104.3 81.466 103.154 85.7809 102.115C90.1144 101.072 94.6027 100.129 99.2352 99.2953C108.177 97.6852 117.658 96.4898 127.589 95.7621C134.893 95.2254 142.429 94.9301 150.191 94.9301C158.25 94.9301 166.059 95.25 173.62 95.8266C165.937 89.1691 158.238 83.1867 150.632 77.9016ZM244.473 189.728C239.258 191.974 233.615 194.025 227.591 195.865C223.395 197.143 219.159 198.284 214.89 199.287C210.635 200.289 206.24 201.199 201.688 201.998C192.651 203.584 183.037 204.745 172.946 205.451C165.604 205.964 158.02 206.245 150.191 206.245C142.611 206.245 135.255 205.966 128.127 205.46C135.615 211.945 143.087 217.8 150.455 222.968C154.297 225.663 158.219 228.242 162.216 230.7C169.205 230.473 176.056 230.04 182.742 229.41C186.942 229.017 191.134 228.535 195.314 227.964C204.779 226.663 213.834 224.93 222.38 222.768C232.761 220.143 242.384 216.882 251.07 212.996C249.912 205.78 247.712 197.966 244.473 189.728ZM173.101 236.946C169.409 234.977 165.779 232.895 162.216 230.7C158.219 228.242 154.297 225.663 150.455 222.968C143.087 217.799 135.615 211.945 128.127 205.459C122.248 200.368 116.554 195.067 111.055 189.568C105.728 184.241 100.598 178.721 95.6738 173.019C96.3828 183.151 97.5477 192.805 99.1426 201.873C99.9371 206.386 100.841 210.744 101.836 214.963C107.118 219.933 112.561 224.731 118.155 229.348C121.277 231.926 124.452 234.441 127.677 236.89C135.206 242.597 142.752 247.718 150.242 252.192C159.45 257.694 168.57 262.215 177.47 265.623C181.737 259.685 185.691 252.602 189.212 244.484C183.988 242.396 178.603 239.875 173.101 236.946ZM201.847 99.4219C201.034 94.8723 200.087 90.3476 199.007 85.8539C193.921 81.0867 188.678 76.4881 183.289 72.0656C180.002 69.3677 176.656 66.744 173.253 64.1941C165.583 58.4555 157.888 53.3238 150.247 48.8543C141.076 43.4918 131.986 39.082 123.124 35.7504C118.978 41.6074 115.139 48.5297 111.719 56.4281C116.957 58.5293 122.368 61.0652 127.891 63.9855C131.757 66.0293 135.676 68.2523 139.641 70.6934C143.274 72.9293 146.941 75.3387 150.632 77.9016C158.238 83.1867 165.937 89.1691 173.62 95.8266C184.961 105.652 195.569 116.292 205.36 127.663C204.634 117.773 203.446 108.33 201.846 99.4207L201.847 99.4219Z" fill="#49BC82"/>
<path d="M227.591 195.865C228.174 191.659 228.668 187.44 229.071 183.213C224.618 188.605 219.886 193.971 214.89 199.287C219.293 198.25 223.527 197.106 227.591 195.865ZM73.3215 105.531C72.7199 109.701 72.2097 113.883 71.791 118.076C76.2756 112.601 80.9415 107.278 85.7809 102.115C81.5931 103.123 77.438 104.263 73.3215 105.531Z" fill="#49BC82"/>
<path d="M230.411 139.254C232.733 135.504 234.931 131.678 237.001 127.784C234.403 124.354 231.73 120.981 228.985 117.668C229.706 124.845 230.181 132.044 230.411 139.254ZM64.0391 172.992C66.4883 176.273 69.0465 179.55 71.7125 182.815C71.0577 175.837 70.6224 168.841 70.407 161.836C68.1697 165.488 66.046 169.209 64.0391 172.992Z" fill="#57B6DF"/>
<path d="M195.312 227.965C193.465 233.846 191.427 239.372 189.21 244.484C185.69 252.602 181.736 259.685 177.468 265.623C169.366 276.896 160.131 283.998 150.534 285.861C140.425 283.685 131.041 276.54 122.959 265.368C115.012 268.351 107.248 270.469 99.7703 271.649C102.184 274.991 104.738 278.091 107.445 280.894C119.082 292.939 129.242 299.805 150.409 299.805C171.577 299.805 183.564 292.032 195.577 278.515C197.417 276.431 199.155 274.261 200.787 272.011C205.248 265.896 209.219 258.909 212.685 251.167C216.535 242.563 219.766 233.034 222.379 222.768C213.832 224.93 204.777 226.664 195.312 227.965ZM195.135 22.7648C183.034 8.93906 171.327 0.972656 150.409 0.972656C129.491 0.972656 122.05 6.85898 110.952 17.2922C107.166 20.8523 103.634 24.9586 100.347 29.5254C96.0637 35.4773 92.2117 42.2344 88.8074 49.6863C84.7609 58.5422 81.3484 68.3695 78.5957 78.9797C87.073 76.7672 96.0449 74.9766 105.422 73.6242C107.315 67.4894 109.418 61.7355 111.718 56.4281C115.137 48.5297 118.976 41.6074 123.122 35.7504C131.311 24.177 140.709 16.807 150.532 14.6695C160.273 16.4777 169.64 23.7352 177.828 35.3016C185.485 32.4 192.972 30.3352 200.211 29.1644C198.615 26.9567 196.921 24.8217 195.134 22.766" fill="#49BC82"/>
<path d="M195.626 73.508C191.584 72.9479 187.47 72.4662 183.288 72.0654C188.678 76.4879 193.92 81.0865 199.007 85.8537C198.007 81.7046 196.88 77.5874 195.626 73.508ZM105.291 227.777C109.502 228.387 113.79 228.914 118.154 229.347C112.56 224.73 107.118 219.932 101.836 214.962C102.847 219.27 103.999 223.544 105.291 227.777Z" fill="#276392"/>
<path d="M272.947 209.048C272.779 206.351 272.486 203.664 272.068 200.994C270.917 193.507 268.799 185.75 265.784 177.812C262.39 168.88 257.868 159.723 252.363 150.478C247.858 158.055 242.686 165.693 236.92 173.311C239.858 178.924 242.384 184.412 244.472 189.728C247.711 197.966 249.912 205.78 251.07 212.996C253.25 226.584 251.726 238.039 246.291 246.094C237.686 251.651 226.137 253.261 212.686 251.167C209.22 258.909 205.25 265.896 200.788 272.01C204.706 272.623 208.554 272.985 212.309 273.05C229.055 273.34 241.096 271.01 256.063 256.043C271.032 241.075 274.011 227.101 272.947 209.048ZM91.7923 28.5199C73.4595 27.2999 59.5494 29.9437 44.7568 44.7363C29.9654 59.5277 28.8662 68.9496 28.3974 84.1746C28.2357 89.441 28.6517 94.9195 29.5833 100.552C30.7798 107.782 32.8482 115.276 35.7193 122.941C39.0872 131.933 43.5568 141.158 49.0177 150.469C53.4568 142.916 58.5427 135.31 64.2216 127.732C61.3119 122.208 58.7888 116.796 56.704 111.553C53.5247 103.557 51.331 95.9554 50.0982 88.882C47.6431 74.7937 49.0599 62.8429 54.5302 54.3328C62.7732 48.6714 74.6689 47.2031 88.8099 49.6863C92.2142 42.2343 96.0662 35.4773 100.349 29.5253C97.5145 29.0551 94.659 28.7196 91.7923 28.5199Z" fill="#57B6DF"/>
<path d="M228.984 117.668C228.575 113.613 228.09 109.619 227.528 105.697C226.168 96.2202 224.359 87.1546 222.122 78.5952C219.438 68.3249 216.137 58.787 212.237 50.1655C205.177 51.3585 197.557 53.5323 189.534 56.694C191.753 61.896 193.786 67.5245 195.626 73.5081C196.88 77.5875 198.007 81.7047 199.007 85.8538C200.059 90.2214 201.007 94.7483 201.845 99.4218C203.446 108.33 204.634 117.773 205.361 127.662C205.896 134.968 206.193 142.503 206.193 150.265C206.193 158.091 205.891 165.683 205.346 173.04C211.909 165.466 217.829 157.909 223.045 150.458C225.607 146.795 228.063 143.059 230.411 139.255C230.181 132.045 229.706 124.845 228.986 117.668M105.291 227.777C103.999 223.544 102.846 219.27 101.834 214.962C100.841 210.743 99.9352 206.386 99.1418 201.873C97.5457 192.805 96.3809 183.151 95.673 173.019C95.1425 165.446 94.8767 157.856 94.8762 150.265C94.8762 142.452 95.175 134.879 95.7129 127.548C89.1328 135.146 83.2148 142.757 77.9754 150.279C75.3405 154.057 72.8164 157.911 70.4062 161.836C70.6289 168.982 71.0672 175.984 71.7117 182.815C72.1207 187.142 72.6059 191.406 73.1824 195.583C74.4762 204.947 76.1965 213.908 78.3328 222.373C80.9613 232.781 84.2273 242.432 88.1227 251.139C95.3531 249.937 103.147 247.72 111.357 244.464C109.139 239.304 107.112 233.729 105.291 227.777Z" fill="#49BC82"/>
<path d="M127.891 63.9844C124.4 66.6261 120.967 69.3443 117.595 72.1371C124.925 71.4005 132.278 70.919 139.641 70.6934C135.799 68.3297 131.88 66.0926 127.891 63.9856M54.2586 246.592C48.5984 238.35 47.1289 226.453 49.6145 212.312C42.1613 208.909 35.4031 205.056 29.4524 200.773C28.9801 203.668 28.632 206.527 28.4457 209.33C27.227 227.663 29.8707 241.574 44.6621 256.364C59.4535 271.155 68.8754 272.255 84.1016 272.723C89.1477 272.879 94.3871 272.501 99.7719 271.65C95.4113 265.614 91.5242 258.742 88.1234 251.139C74.334 253.428 62.6316 251.972 54.2586 246.592ZM127.677 236.89C122.103 239.829 116.645 242.366 111.358 244.464C114.804 252.473 118.7 259.479 122.961 265.368C131.874 262.023 141.016 257.593 150.242 252.192C142.752 247.717 135.207 242.596 127.677 236.89ZM173.101 236.946C176.367 234.503 179.582 231.991 182.742 229.411C176.056 230.04 169.205 230.471 162.216 230.699C165.779 232.894 169.409 234.977 173.101 236.946Z" fill="#FABB66"/>
<path d="M111.357 244.465C103.146 247.72 95.3512 249.938 88.1219 251.139C91.5227 258.742 95.4098 265.614 99.7703 271.65C107.247 270.469 115.012 268.351 122.959 265.369C118.698 259.479 114.801 252.474 111.357 244.464M255.967 45.0587C241 30.0915 227.027 27.1114 208.973 28.1743C206.038 28.3565 203.114 28.687 200.213 29.1645C192.973 30.3352 185.486 32.4001 177.83 35.3017C168.816 38.7188 159.575 43.2856 150.245 48.8532C157.886 53.3227 165.582 58.4544 173.252 64.1931C178.817 61.2809 184.261 58.772 189.534 56.6942C197.556 53.5325 205.176 51.3587 212.236 50.1669C226.123 47.8231 237.83 49.3056 246.018 54.831C251.576 63.436 253.185 74.9849 251.091 88.4356C258.834 91.9032 265.82 95.8712 271.936 100.335C272.549 96.4161 272.91 92.5665 272.975 88.8118C273.265 72.0657 270.936 60.0259 255.967 45.0587ZM244.408 111.911C242.351 117.06 239.874 122.364 236.999 127.784C234.929 131.679 232.732 135.505 230.41 139.255C228.063 143.059 225.607 146.795 223.045 150.458C217.829 157.909 211.908 165.466 205.346 173.04C200.267 178.904 194.979 184.583 189.494 190.068C184.166 195.395 178.646 200.525 172.945 205.45C183.034 204.744 192.65 203.584 201.686 201.999C206.112 201.222 210.515 200.318 214.888 199.287C219.786 194.082 224.515 188.721 229.069 183.213C231.755 179.968 234.372 176.667 236.918 173.311C242.685 165.693 247.857 158.056 252.361 150.478C257.755 141.408 262.189 132.424 265.547 123.652C259.612 119.386 252.528 115.431 244.408 111.911ZM99.2336 99.2954C94.7228 100.104 90.2365 101.045 85.7805 102.115C80.9403 107.278 76.2737 112.602 71.7883 118.076C69.1972 121.24 66.674 124.46 64.2203 127.732C58.5414 135.311 53.4555 142.916 49.0164 150.468C43.5437 159.777 39.0555 169.004 35.6758 177.997C41.534 182.143 48.4539 185.982 56.3535 189.403C58.4852 184.088 61.0621 178.597 64.0375 172.991C66.0445 169.208 68.1681 165.487 70.4055 161.835C72.8161 157.911 75.3406 154.057 77.9758 150.28C83.2141 142.757 89.132 135.147 95.7121 127.548C105.547 116.189 116.2 105.565 127.587 95.7622C117.658 96.4899 108.175 97.6852 99.2336 99.2954Z" fill="#FABB66"/>
<path d="M278.441 105.542C276.357 103.703 274.187 101.965 271.937 100.335C265.822 95.8709 258.835 91.9029 251.093 88.4353C242.33 84.5131 232.609 81.233 222.123 78.5951C224.361 87.1545 226.168 96.2201 227.529 105.697C233.546 107.572 239.193 109.649 244.409 111.91C252.528 115.431 259.613 119.385 265.549 123.651C276.822 131.755 283.924 140.989 285.787 150.587C283.643 160.55 276.679 169.81 265.784 177.812C268.8 185.75 270.917 193.507 272.068 200.994C275.223 198.685 278.155 196.25 280.82 193.676C292.866 182.04 299.732 171.879 299.732 150.711C299.732 129.544 291.958 117.556 278.439 105.542M73.1844 195.583C67.1879 193.72 61.557 191.655 56.3563 189.403C48.4555 185.982 41.5355 182.143 35.6773 177.997C24.1051 169.807 16.7328 160.411 14.5953 150.587C16.4293 140.708 23.8625 131.212 35.7195 122.942C32.8484 115.276 30.7801 107.782 29.5836 100.551C27.2006 102.251 24.9011 104.065 22.693 105.987C8.86484 118.086 0.898438 129.793 0.898438 150.711C0.898438 171.629 6.78359 179.068 17.218 190.168C20.7781 193.953 24.8844 197.487 29.4512 200.772C35.402 205.056 42.1602 208.909 49.6133 212.312C58.3074 216.285 67.9414 219.647 78.3324 222.372C76.1961 213.908 74.4758 204.947 73.182 195.583M150.634 77.9014C147.037 75.3979 143.371 72.9946 139.641 70.6943C132.124 70.9275 124.763 71.4127 117.595 72.1357C113.47 72.5529 109.412 73.0486 105.425 73.624C96.0488 74.9764 87.0758 76.767 78.5984 78.9795C68.3012 81.6666 58.7387 84.9736 50.0984 88.8818C51.3313 95.9541 53.525 103.557 56.7043 111.553C61.8512 109.362 67.4117 107.351 73.3215 105.531C77.3176 104.3 81.466 103.154 85.7809 102.115C90.1144 101.072 94.6027 100.128 99.2352 99.2951C108.177 97.685 117.659 96.4897 127.59 95.7619C134.894 95.2252 142.429 94.9299 150.191 94.9299C158.25 94.9299 166.059 95.2498 173.62 95.8264C165.937 89.1689 158.239 83.1865 150.634 77.9014ZM244.473 189.726C239.258 191.974 233.615 194.025 227.591 195.865C223.395 197.143 219.159 198.284 214.89 199.287C210.635 200.288 206.24 201.199 201.688 201.998C192.651 203.584 183.037 204.744 172.946 205.449C165.604 205.963 158.02 206.245 150.191 206.245C142.611 206.245 135.255 205.966 128.127 205.46C135.615 211.945 143.087 217.8 150.455 222.968C154.297 225.663 158.219 228.241 162.216 230.699C169.205 230.471 176.056 230.04 182.742 229.41C186.942 229.016 191.134 228.534 195.314 227.963C204.778 226.663 213.834 224.929 222.38 222.767C232.761 220.142 242.384 216.882 251.07 212.996C249.912 205.78 247.712 197.966 244.473 189.728" fill="#276392"/>
<path d="M173.1 236.946C169.408 234.977 165.778 232.894 162.216 230.699C158.218 228.241 154.296 225.664 150.455 222.969C143.086 217.8 135.614 211.945 128.126 205.459C122.247 200.368 116.553 195.068 111.054 189.568C105.727 184.241 100.596 178.721 95.6719 173.019C96.3809 183.151 97.5457 192.805 99.1406 201.873C99.9352 206.386 100.84 210.744 101.835 214.963C107.117 219.933 112.56 224.731 118.154 229.348C121.276 231.926 124.451 234.441 127.676 236.89C135.205 242.597 142.751 247.718 150.241 252.192C159.449 257.694 168.57 262.214 177.469 265.622C181.737 259.685 185.691 252.602 189.211 244.484C183.987 242.397 178.602 239.875 173.1 236.946ZM201.845 99.422C201.032 94.8724 200.086 90.3478 199.007 85.854C193.92 81.0868 188.678 76.4882 183.288 72.0657C180.001 69.3678 176.655 66.743 173.252 64.1931C165.582 58.4544 157.887 53.3228 150.246 48.8532C141.075 43.4907 131.986 39.0821 123.124 35.7505C118.978 41.6075 115.139 48.5298 111.72 56.4282C116.958 58.5294 122.367 61.0653 127.89 63.9856C131.756 66.0294 135.675 68.2524 139.641 70.6935C143.273 72.9294 146.941 75.3388 150.633 77.9017C158.238 83.1868 165.936 89.1692 173.619 95.8267C184.96 105.652 195.569 116.292 205.359 127.663C204.633 117.774 203.446 108.332 201.845 99.422Z" fill="#57B6DF"/>
</g>
<defs>
<clipPath id="clip0_2022_583">
<rect width="300" height="300" fill="white"/>
</clipPath>
</defs>
</svg>
