<svg width="300" height="300" viewBox="0 0 300 300" fill="none" xmlns="http://www.w3.org/2000/svg">
<g clip-path="url(#clip0_2023_2940)">
<path d="M150 300C232.843 300 300 232.843 300 150C300 67.1573 232.843 0 150 0C67.1573 0 0 67.1573 0 150C0 232.843 67.1573 300 150 300Z" fill="#0052FF"/>
<path d="M151.26 106.005C168.92 106.005 182.93 116.897 188.25 133.096H223.828C217.383 98.4639 188.81 75 151.544 75C109.225 75 76.1719 107.124 76.1719 150.144C76.1719 193.163 108.398 225 151.544 225C187.975 225 217.116 201.536 223.567 166.617H188.247C183.202 182.818 169.204 193.995 151.532 193.995C127.148 193.995 110.06 175.277 110.06 150.144C110.071 124.723 126.885 106.005 151.26 106.005Z" fill="white"/>
</g>
<defs>
<clipPath id="clip0_2023_2940">
<rect width="300" height="300" fill="white"/>
</clipPath>
</defs>
</svg>
