<svg width="300" height="300" viewBox="0 0 300 300" fill="none" xmlns="http://www.w3.org/2000/svg">
<path d="M16.7509 225.836C13.6595 230.87 10.1581 236.771 7.39452 241.442C6.78559 242.484 6.39916 243.643 6.2235 244.837C6.05676 246.036 6.12036 247.256 6.41087 248.431C6.69191 249.613 7.20716 250.714 7.90977 251.697C8.61238 252.681 9.50235 253.524 10.5211 254.179L72.6202 292.45C73.6858 293.117 74.892 293.562 76.1449 293.761C77.3862 293.96 78.6743 293.913 79.9039 293.609C81.1335 293.304 82.2928 292.766 83.3116 292.017C84.3303 291.267 85.1852 290.319 85.8292 289.23C88.3352 285.063 91.5087 279.666 94.9163 273.906C119.531 233.551 144.474 238.492 189.031 259.67L250.626 288.867C251.78 289.42 253.032 289.735 254.31 289.794C255.587 289.852 256.864 289.652 258.062 289.207C259.257 288.762 260.358 288.083 261.283 287.205C262.22 286.327 262.957 285.273 263.473 284.103L293.041 217.454C293.544 216.33 293.825 215.124 293.86 213.895C293.907 212.678 293.708 211.448 293.287 210.301C292.865 209.154 292.233 208.089 291.413 207.175C290.593 206.262 289.61 205.525 288.497 204.974C275.511 198.863 249.666 186.84 226.504 175.508C142.249 134.872 71.1564 137.553 16.7509 225.836Z" fill="url(#paint0_linear_2022_567)"/>
<path d="M283.219 74.3354C286.345 69.3014 289.846 63.4127 292.575 58.7416C293.196 57.6763 293.605 56.4938 293.781 55.2646C293.957 54.0471 293.886 52.7944 293.582 51.6003C293.271 50.4032 292.73 49.278 291.989 48.2872C291.25 47.2934 290.323 46.4541 289.261 45.817L227.256 7.54657C226.178 6.87927 224.984 6.4344 223.731 6.23538C222.478 6.03636 221.201 6.0949 219.972 6.38757C218.742 6.69196 217.583 7.23048 216.564 7.97973C215.545 8.72899 214.691 9.67726 214.035 10.766C211.587 14.9337 208.355 20.3307 204.948 26.0906C180.239 66.6322 155.531 61.6918 110.927 40.5137L49.3897 11.3045C48.2421 10.7543 47.0009 10.4265 45.7362 10.3563C44.4715 10.2743 43.195 10.4616 42.0006 10.8831C40.8062 11.3045 39.7054 11.9601 38.7686 12.8148C37.8201 13.6694 37.0706 14.6996 36.532 15.8469L6.96377 82.6826C5.94757 84.9495 5.85102 87.5223 6.69444 89.859C7.116 91.018 7.76006 92.0833 8.57978 92.9965C9.39949 93.9096 10.3949 94.6589 11.5073 95.1974C24.5407 101.32 50.3851 113.332 73.501 124.676C157.533 165.299 228.848 162.63 283.219 74.3354Z" fill="url(#paint1_linear_2022_567)"/>
<defs>
<linearGradient id="paint0_linear_2022_567" x1="291.05" y1="312.267" x2="103.477" y2="204.439" gradientUnits="userSpaceOnUse">
<stop stop-color="#0052CC"/>
<stop offset="0.92" stop-color="#2380FB"/>
<stop offset="1" stop-color="#2684FF"/>
</linearGradient>
<linearGradient id="paint1_linear_2022_567" x1="8.91117" y1="-12.133" x2="196.53" y2="95.6958" gradientUnits="userSpaceOnUse">
<stop stop-color="#0052CC"/>
<stop offset="0.92" stop-color="#2380FB"/>
<stop offset="1" stop-color="#2684FF"/>
</linearGradient>
</defs>
</svg>
