<svg width="300" height="300" viewBox="0 0 300 300" fill="none" xmlns="http://www.w3.org/2000/svg">
<g clip-path="url(#clip0_2022_1012)">
<path d="M143.061 282.746C96.6989 280.417 54.327 253.625 32.681 212.362C9.43903 169.579 11.9439 114.065 40.7941 74.2549C69.6222 31.6938 122.257 9.1159 175.281 19.4068C226.076 28.9104 267.839 69.2422 279 118.224C291.435 166.396 274.311 219.947 235.497 251.74C210.127 273.397 176.81 284.52 143.061 282.757V282.746Z" fill="white"/>
<path d="M142.173 299.62C89.8849 296.995 42.0977 266.795 17.6852 220.282C-8.52731 172.057 -5.70235 109.482 26.8352 64.6076C59.3476 16.6323 118.71 -8.81767 178.51 2.78235C235.798 13.4948 282.898 58.9572 295.485 114.17C309.51 168.47 290.198 228.832 246.423 264.67C217.81 289.082 180.235 301.62 142.173 299.632V299.62ZM238.485 198.995C225.297 191.091 212.085 183.229 198.848 175.407C187.56 193.945 162.785 203.508 141.723 196.22C116.423 188.232 99.2978 158.882 110.623 132.045C120.635 106.932 145.498 98.2076 165.085 101.245C178.285 103.737 190.023 111.206 197.873 122.107C211.335 114.22 224.473 106.882 237.535 98.9199C212.16 59.945 160.648 45.2448 116.835 64.4946C77.7104 82.2825 55.71 122.995 61.9849 163.482C68.7349 208.458 108.61 244.557 158.435 243.532C174.436 243.385 190.145 239.232 204.129 231.452C218.111 223.672 229.923 212.514 238.485 198.995Z" fill="#0056D2"/>
</g>
<defs>
<clipPath id="clip0_2022_1012">
<rect width="300" height="300" fill="white"/>
</clipPath>
</defs>
</svg>
