<svg width="300" height="300" viewBox="0 0 300 300" fill="none" xmlns="http://www.w3.org/2000/svg">
<path d="M149.808 165.052C182.979 165.052 209.823 138.208 209.823 105.037C209.823 71.8657 182.979 45.022 149.808 45.022C116.637 45.022 89.793 71.8657 89.793 105.037C89.9847 138.208 116.828 165.052 149.808 165.052Z" fill="#FFCD00"/>
<path d="M150.191 194.963H149.999C108.967 194.963 73.1115 167.161 62.9492 127.279C59.8814 115.391 50.1026 105.229 37.8312 105.229H0.25C0.25 187.869 67.3593 254.978 149.999 254.978H150.191V194.963Z" fill="#00ECBB"/>
<path d="M149.809 194.963C191.033 194.963 226.888 167.161 237.051 127.279C240.118 115.391 249.897 105.229 262.169 105.229H299.75C299.75 187.869 232.641 254.978 150 254.978H149.809V194.963Z" fill="#AF64FF"/>
<path d="M256.032 211.07C197.551 269.55 102.639 269.55 44.1582 211.07L86.5329 168.695C121.621 203.783 178.568 203.783 213.657 168.695L256.032 211.07Z" fill="#7131FF"/>
</svg>
