<svg width="300" height="300" viewBox="0 0 300 300" fill="none" xmlns="http://www.w3.org/2000/svg">
<g clip-path="url(#clip0_2023_2885)">
<path d="M149.505 300.001V241.732C211.356 241.732 259.163 180.511 235.559 115.499C226.809 91.422 207.606 72.2091 183.519 63.4693C118.506 39.876 57.3173 87.6824 57.3068 149.512L57.2963 149.533H-0.972656C-0.972656 51.0004 94.2199 -25.7146 197.459 6.52399C242.576 20.6001 278.428 56.4523 292.515 101.569C324.753 204.819 248.028 300.001 149.505 300.001Z" fill="#0069FF"/>
<path fill-rule="evenodd" clip-rule="evenodd" d="M149.64 241.876H91.5391V183.786L91.5496 183.775H149.629L149.64 183.786V241.876Z" fill="#0069FF"/>
<path fill-rule="evenodd" clip-rule="evenodd" d="M91.5253 286.516H46.8914L46.8809 286.505V241.871H91.5358V286.505L91.5253 286.516Z" fill="#0069FF"/>
<path fill-rule="evenodd" clip-rule="evenodd" d="M46.9168 241.876H9.49952L9.47852 241.865V204.469L9.49952 204.438H46.8958L46.9168 204.448V241.876Z" fill="#0069FF"/>
</g>
<defs>
<clipPath id="clip0_2023_2885">
<rect width="300" height="300" fill="white"/>
</clipPath>
</defs>
</svg>
