<svg width="300" height="300" viewBox="0 0 300 300" fill="none" xmlns="http://www.w3.org/2000/svg">
<g clip-path="url(#clip0_2023_2970)">
<path d="M21.7775 149.775C21.7775 78.9228 79.4025 21.2978 150.225 21.2978C173.022 21.2978 194.44 27.2978 213.039 37.7665L223.208 19.1678C202.21 7.35027 178.092 0.450273 152.385 0.0302734H149.955C67.6138 0.180273 0.9 66.384 0 148.575V150.015C0.09 193.001 18.2088 231.697 47.185 259.024L62.0037 243.007C37.2562 219.578 21.7775 186.432 21.7775 149.775ZM254.525 42.5665L240.096 58.074C263.884 81.4115 278.702 113.869 278.702 149.775C278.702 220.598 221.077 278.223 150.255 278.223C127.967 278.223 106.999 272.523 88.73 262.504L78.0525 281.522C99.41 293.251 123.918 299.94 149.985 299.97C232.806 299.97 300 232.808 300 149.985C299.94 107.839 282.512 69.8028 254.525 42.5665ZM24.5375 149.775C24.5375 185.652 39.6863 218.049 63.8625 240.967L78.6225 225.008C58.735 206.05 46.285 179.353 46.285 149.775C46.285 92.4503 92.9012 45.8353 150.225 45.8353C168.762 45.8353 186.163 50.7253 201.25 59.274L211.689 40.1965C193.513 29.9378 172.542 24.0878 150.225 24.0878C80.9325 24.0578 24.5375 80.4528 24.5375 149.775ZM254.165 149.775C254.165 207.1 207.549 253.715 150.225 253.715C132.316 253.715 115.429 249.155 100.7 241.147L90.05 260.104C107.929 269.883 128.447 275.463 150.225 275.463C219.517 275.463 275.913 219.068 275.913 149.775C275.913 114.679 261.454 82.9415 238.206 60.114L223.419 76.0428C242.406 94.8803 254.165 120.948 254.165 149.775ZM229.807 149.775C229.807 193.662 194.11 229.328 150.255 229.328C137.137 229.343 124.22 226.096 112.669 219.878L102.08 238.715C116.417 246.515 132.826 250.925 150.255 250.925C206.05 250.925 251.435 205.54 251.435 149.745C251.435 121.758 240.006 96.3803 221.557 78.0228L206.829 93.8603C221.018 108.26 229.807 127.998 229.807 149.775ZM49.075 149.775C49.075 178.543 61.1637 204.55 80.5125 222.998L95.18 207.129C80.0925 192.642 70.6725 172.304 70.6725 149.775C70.6725 105.89 106.369 70.2228 150.225 70.2228C164.504 70.2228 177.913 74.0328 189.521 80.6628L199.9 61.704C185.201 53.3953 168.254 48.5953 150.225 48.5953C94.46 48.5953 49.075 93.9803 49.075 149.775ZM205.69 149.775C205.69 180.403 180.852 205.24 150.225 205.24C141.247 205.246 132.402 203.063 124.458 198.88L114.019 217.479C125.151 223.455 137.591 226.577 150.225 226.567C192.581 226.567 227.018 192.132 227.018 149.775C227.018 128.808 218.559 109.789 204.91 95.9303L190.391 111.559C199.84 121.518 205.69 134.957 205.69 149.775ZM73.4325 149.775C73.4325 171.493 82.4912 191.112 97.04 205.09L111.5 189.462L111.68 189.642C101.241 179.563 94.7312 165.434 94.7312 149.805C94.7312 119.178 119.539 94.3403 150.196 94.3403C160.305 94.3403 169.754 97.0703 177.914 101.81L188.173 83.0915C176.612 76.4705 163.518 72.9955 150.196 73.0128C107.9 72.9528 73.4325 107.419 73.4325 149.775ZM156.945 149.775C156.945 153.465 153.915 156.464 150.225 156.464C146.535 156.464 143.506 153.464 143.506 149.775C143.506 146.055 146.506 143.057 150.225 143.057C153.915 143.057 156.945 146.057 156.945 149.775ZM107.689 149.775C107.689 126.288 126.738 107.239 150.195 107.239C173.682 107.239 192.701 126.258 192.701 149.775C192.701 173.263 173.652 192.281 150.195 192.281C126.738 192.281 107.689 173.263 107.689 149.775ZM109.549 149.775C109.609 172.243 127.757 190.391 150.195 190.422C172.633 190.422 190.87 172.213 190.87 149.775C190.841 127.308 172.663 109.129 150.195 109.1C127.757 109.1 109.549 127.308 109.549 149.775Z" fill="white"/>
</g>
<defs>
<clipPath id="clip0_2023_2970">
<rect width="300" height="300" fill="white"/>
</clipPath>
</defs>
</svg>
