<svg width="300" height="300" viewBox="0 0 300 300" fill="none" xmlns="http://www.w3.org/2000/svg">
<path d="M155.471 295.683C119.821 295.683 87.225 282.655 62.0227 261.106L0 269.579L23.9613 210.44C15.6129 192.019 10.9301 171.569 10.9301 150C10.9301 69.5465 75.6434 4.31641 155.471 4.31641C235.293 4.31641 300 69.5465 300 150C300 230.468 235.295 295.683 155.471 295.683ZM234.393 149.583V149.178C234.393 107.139 204.746 77.1625 153.63 77.1625H98.4211V222.846H152.812C204.326 222.848 234.393 191.62 234.393 149.583ZM154.239 187.053H138.09V112.967H154.239C177.956 112.967 193.698 126.488 193.698 149.808V150.214C193.698 173.73 177.956 187.053 154.239 187.053Z" fill="#2E9FFF"/>
</svg>
