<svg width="300" height="300" viewBox="0 0 300 300" fill="none" xmlns="http://www.w3.org/2000/svg">
<path d="M38.7929 116.227C17.6328 116.227 0 125.203 0 152.287C0 173.743 11.8569 187.254 39.3383 187.254C71.6859 187.254 73.7592 165.946 73.7592 165.946H58.0858C58.0858 165.946 54.7255 177.419 38.3826 177.419C25.0717 177.419 15.4983 168.427 15.4983 155.825H75.3993V147.916C75.3993 135.447 67.4841 116.227 38.7929 116.227ZM38.2455 126.334C50.916 126.334 59.5538 134.096 59.5538 145.73H15.8446C15.8446 133.379 27.1201 126.334 38.2455 126.334Z" fill="#E53238"/>
<path d="M75.3881 90V173.653C75.3881 178.401 75.0488 185.068 75.0488 185.068H89.9978C89.9978 185.068 90.5352 180.28 90.5352 175.903C90.5352 175.903 97.9211 187.459 118.005 187.459C139.153 187.459 153.518 172.775 153.518 151.74C153.518 132.17 140.323 116.431 118.039 116.431C97.1706 116.431 90.6863 127.699 90.6863 127.699V90H75.3881ZM114.18 126.778C128.542 126.778 137.675 137.437 137.675 151.74C137.675 167.078 127.127 177.112 114.283 177.112C98.9548 177.112 90.6863 165.143 90.6863 151.876C90.6863 139.514 98.1052 126.778 114.18 126.778Z" fill="#0064D2"/>
<path d="M190.673 116.227C158.84 116.227 156.798 133.656 156.798 136.442H172.643C172.643 136.442 173.473 126.266 189.58 126.266C200.046 126.266 208.156 131.057 208.156 140.267V143.545H189.58C164.919 143.545 151.881 150.76 151.881 165.4C151.881 179.808 163.927 187.647 180.207 187.647C202.394 187.647 209.54 175.388 209.54 175.388C209.54 180.264 209.916 185.07 209.916 185.07H224.001C224.001 185.07 223.456 179.114 223.456 175.303V142.367C223.456 120.771 206.036 116.227 190.673 116.227ZM208.156 153.379V157.75C208.156 163.451 204.638 177.625 183.928 177.625C172.588 177.625 167.725 171.965 167.725 165.399C167.725 153.456 184.099 153.379 208.156 153.379Z" fill="#F5AF02"/>
<path d="M214.922 118.96H232.747L258.329 170.212L283.852 118.96H300L253.51 210.205H236.571L249.986 184.769L214.922 118.96Z" fill="#86B817"/>
</svg>
