<svg width="300" height="300" viewBox="0 0 300 300" fill="none" xmlns="http://www.w3.org/2000/svg">
<path d="M111.575 141.152V43.205C111.575 39.5756 111.937 37.3989 118.12 37.3989H201.354C215.896 37.3989 223.892 49.7352 229.709 72.9509L234.434 91.4554H248.608C251.15 38.8558 253.329 16 253.329 16C253.329 16 217.709 19.9893 196.627 19.9893H90.1339L33.0586 18.1746V33.4118L52.327 37.039C65.7758 39.5799 69.0408 42.4787 70.1399 54.8171C70.1399 54.8171 71.2326 91.0933 71.2326 150.954C71.2326 210.805 70.1399 246.724 70.1399 246.724C70.1399 257.605 65.7758 261.595 52.327 264.142L33.0586 267.771V283L90.1339 281.19H185.366C206.811 281.19 256.607 283 256.607 283C257.693 269.937 264.968 210.805 266.059 204.284H252.61L238.433 236.571C227.163 261.959 210.81 263.776 192.632 263.776H138.47C120.294 263.776 111.57 256.519 111.57 240.922V158.208C111.57 158.208 151.189 158.208 164.998 159.299C175.178 160.027 181.354 162.928 184.63 177.075L188.994 195.939H204.615L203.529 148.411L205.708 100.529H190.082L184.997 121.568C181.721 135.352 179.544 137.898 165.365 139.344C149.375 141.163 111.568 140.798 111.568 140.798V141.158H111.575V141.152Z" fill="#F27224"/>
</svg>
