<svg width="300" height="300" viewBox="0 0 300 300" fill="none" xmlns="http://www.w3.org/2000/svg">
<path d="M131.774 72.6252C164.937 65.1252 198.024 78.7127 216.462 104.375L69.8866 137.5C74.9491 106.513 98.6116 80.1127 131.774 72.6252ZM217.274 194.45C205.676 211.205 188.181 222.964 168.287 227.375C134.912 234.925 101.599 221.113 83.2366 195.1L230.274 161.888L254.212 156.475L299.999 146.138C299.723 136.313 298.445 126.541 296.187 116.975C277.562 38.0002 196.999 -11.2498 116.287 6.97519C35.5741 25.2127 -14.7509 104.025 3.87412 183.025C22.5116 262.013 103.062 311.263 183.774 293.025C231.337 282.275 268.337 250.5 286.899 210.05L217.274 194.45Z" fill="#FF8300"/>
</svg>
