<svg width="300" height="300" viewBox="0 0 300 300" fill="none" xmlns="http://www.w3.org/2000/svg">
<path d="M49.5746 58.1066H77.7477C79.361 58.1066 80.6584 56.7927 80.6615 55.1917C80.6615 55.1814 80.3197 31.051 80.3197 24.3406V24.261C80.3197 18.7497 81.4765 13.9448 83.4911 9.9182L84.4539 8.10991C84.33 8.1332 84.2169 8.19575 84.1313 8.28831L29.4264 62.5361C29.3262 62.6184 29.2545 62.7302 29.2216 62.8556C30.353 62.2956 31.9002 61.5303 32.1189 61.4341C36.8829 59.2845 42.6594 58.1066 49.5746 58.1066ZM268.653 52.1998C266.416 40.2279 259.298 34.3278 252.863 32.0081C245.92 29.4987 231.842 26.8992 214.153 24.8143C199.922 23.1383 183.195 23.2718 173.092 23.5841C171.879 15.2784 166.054 7.69054 159.535 5.06368C142.167 -1.92697 115.333 -0.238131 108.443 1.69271C102.969 3.22281 96.9088 6.3585 93.5362 11.1908C91.2744 14.4185 89.8111 18.5537 89.7997 24.3308C89.7997 27.6004 89.8907 35.3026 89.9739 42.1458C90.0567 49.0103 90.1467 55.1498 90.1467 55.1917C90.1436 61.3033 85.1903 66.2773 79.0518 66.285H50.8927C44.8861 66.285 40.2968 67.2944 36.7909 68.8871C33.2798 70.4813 30.7931 72.6303 28.9036 75.1729C25.1427 80.2219 24.4896 86.4524 24.5051 92.8106C24.5051 92.8106 24.5605 98.0064 25.8124 108.063C26.8533 115.844 35.2918 170.203 43.3068 186.735C46.4146 193.167 48.4846 195.846 54.5899 198.682C68.1932 204.506 99.2652 210.985 113.828 212.841C128.365 214.701 137.489 218.61 142.926 207.21C142.944 207.181 144.014 204.374 145.488 200.254C150.209 185.95 150.865 173.258 150.865 164.073C150.865 163.139 152.235 163.096 152.235 164.073C152.235 170.557 150.996 193.504 168.33 199.659C175.173 202.086 189.369 204.249 203.792 205.94C216.834 207.438 226.298 212.571 226.298 246.03C226.298 266.386 222.022 269.178 199.67 269.178C181.551 269.178 174.645 269.647 174.645 255.252C174.645 243.618 186.151 244.837 194.679 244.837C198.488 244.837 195.724 242.003 195.724 234.826C195.724 227.685 200.189 223.558 195.966 223.454C166.477 222.643 149.125 223.42 149.125 260.3C149.125 293.781 161.938 299.998 203.791 299.998C236.607 299.998 248.174 298.924 261.723 256.882C264.406 248.582 270.89 223.255 274.813 180.728C277.296 153.84 272.476 72.6831 268.653 52.1998ZM211.45 141.903C207.396 141.762 203.496 142.018 199.86 142.602C200.883 134.337 204.295 124.196 216.379 124.62C229.757 125.081 231.631 137.724 231.679 146.288C226.038 143.773 219.055 142.171 211.45 141.903Z" fill="white"/>
</svg>
