<svg width="300" height="300" viewBox="0 0 300 300" fill="none" xmlns="http://www.w3.org/2000/svg">
<path d="M49.5756 58.1066H77.7486C79.362 58.1066 80.6594 56.7927 80.6625 55.1917C80.6625 55.1814 80.3207 31.051 80.3207 24.3406V24.261C80.3207 18.7497 81.4774 13.9448 83.4921 9.9182L84.4549 8.10991C84.331 8.1332 84.2179 8.19575 84.1322 8.28831L29.4274 62.5361C29.3271 62.6184 29.2555 62.7302 29.2226 62.8556C30.354 62.2956 31.9011 61.5303 32.1199 61.4341C36.8839 59.2845 42.6604 58.1066 49.5756 58.1066ZM268.654 52.1998C266.417 40.2279 259.299 34.3278 252.864 32.0081C245.921 29.4987 231.843 26.8992 214.154 24.8143C199.923 23.1383 183.196 23.2718 173.093 23.5841C171.88 15.2784 166.055 7.69054 159.536 5.06368C142.168 -1.92697 115.334 -0.238131 108.444 1.69271C102.97 3.22281 96.9097 6.3585 93.5372 11.1908C91.2754 14.4185 89.812 18.5537 89.8007 24.3308C89.8007 27.6004 89.8917 35.3026 89.9749 42.1458C90.0577 49.0103 90.1476 55.1498 90.1476 55.1917C90.1445 61.3033 85.1912 66.2773 79.0528 66.285H50.8937C44.887 66.285 40.2978 67.2944 36.7919 68.8871C33.2808 70.4813 30.794 72.6303 28.9046 75.1729C25.1437 80.2219 24.4906 86.4524 24.5061 92.8106C24.5061 92.8106 24.5615 98.0064 25.8134 108.063C26.8543 115.844 35.2928 170.203 43.3078 186.735C46.4156 193.167 48.4855 195.846 54.5909 198.682C68.1942 204.506 99.2662 210.985 113.829 212.841C128.366 214.701 137.49 218.61 142.927 207.21C142.945 207.181 144.015 204.374 145.489 200.254C150.21 185.95 150.866 173.258 150.866 164.073C150.866 163.139 152.236 163.096 152.236 164.073C152.236 170.557 150.997 193.504 168.331 199.659C175.174 202.086 189.37 204.249 203.793 205.94C216.835 207.438 226.299 212.571 226.299 246.03C226.299 266.386 222.023 269.178 199.671 269.178C181.551 269.178 174.646 269.647 174.646 255.252C174.646 243.618 186.152 244.837 194.68 244.837C198.489 244.837 195.725 242.003 195.725 234.826C195.725 227.685 200.19 223.558 195.967 223.454C166.478 222.643 149.126 223.42 149.126 260.3C149.126 293.781 161.939 299.998 203.792 299.998C236.607 299.998 248.175 298.924 261.724 256.882C264.407 248.582 270.891 223.255 274.814 180.728C277.297 153.84 272.477 72.6831 268.654 52.1998ZM211.451 141.903C207.397 141.762 203.497 142.018 199.861 142.602C200.884 134.337 204.296 124.196 216.38 124.62C229.757 125.081 231.632 137.724 231.68 146.288C226.039 143.773 219.056 142.171 211.451 141.903Z" fill="white"/>
</svg>
