<svg width="300" height="300" viewBox="0 0 300 300" fill="none" xmlns="http://www.w3.org/2000/svg">
<path fill-rule="evenodd" clip-rule="evenodd" d="M259.102 84.0666L255.655 85.7836C246.233 74.1079 237.27 64.1493 228.767 55.9076C220.264 47.6659 211.991 41.5992 203.948 37.7073C200.041 35.8758 192.975 34.3305 182.748 33.0713C172.521 31.8122 160.629 31.1826 147.07 31.1826C144.772 31.1826 142.129 31.2399 139.142 31.3543C136.154 31.4688 133.282 31.5833 130.524 31.6977C127.766 31.8122 125.181 31.9267 122.768 32.0411C120.355 32.1556 118.574 32.2128 117.425 32.2128C117.195 33.5865 116.908 34.96 116.563 36.3337C116.218 37.7073 115.931 39.3098 115.701 41.1413C115.471 42.9728 115.242 45.3193 115.012 48.181C114.782 51.0427 114.552 54.534 114.322 58.6548C114.093 66.6676 113.92 75.4242 113.805 84.9251C113.69 94.4259 113.633 103.412 113.633 111.882V144.505H119.838C123.515 144.505 127.594 144.391 132.075 144.162C136.556 143.933 141.21 143.647 146.036 143.303C150.862 142.96 154.884 142.445 158.101 141.758C166.374 139.927 172.924 137.523 177.75 134.547C182.576 131.571 186.367 128.022 189.125 123.901C191.883 119.78 193.836 115.259 194.985 110.337C196.134 105.415 197.168 100.092 198.088 94.3686H202.224V204.944H198.088C196.249 197.618 193.606 189.892 190.159 181.765C186.712 173.637 182.576 167.399 177.75 163.049C173.383 159.157 168.73 156.238 163.789 154.292C158.848 152.346 153.045 151.144 146.381 150.687C142.934 150.458 139.946 150.286 137.418 150.172C134.89 150.057 132.477 150 130.179 150H113.633V192.582C113.633 198.992 113.69 204.887 113.805 210.267C113.92 215.647 113.978 220.283 113.978 224.175C114.207 231.501 114.61 238.426 115.184 244.951C115.759 251.475 117.08 256.34 119.148 259.545C121.217 262.75 124.721 265.211 129.662 266.928C134.603 268.645 141.784 269.733 151.207 270.191V273.625H40.8984V270.191C46.6437 269.275 51.9867 267.787 56.9276 265.726C61.8685 263.666 65.9476 260.804 69.1649 257.141C70.314 255.768 71.2332 253.765 71.9226 251.132C72.6121 248.499 73.244 245.466 73.8186 242.032C74.3931 238.598 74.7952 234.992 75.0251 231.214C75.2549 227.437 75.3698 223.717 75.3698 220.054C75.3698 216.849 75.4272 212.499 75.5421 207.005C75.657 201.51 75.7719 195.501 75.8868 188.976C76.0017 182.451 76.0592 175.755 76.0592 168.887V82.0062C76.0592 77.8853 76.0017 73.6501 75.8868 69.3003C75.7719 64.9505 75.5421 60.8297 75.1974 56.9378C74.8527 53.0459 74.2782 49.5547 73.4738 46.464C72.6695 43.3734 71.5779 41.1413 70.1991 39.7677C66.7519 36.1047 63.075 33.7582 59.1682 32.7279C55.2615 31.6977 50.2057 30.7248 44.0009 29.809V26.375H235.661L259.102 84.0666Z" fill="white"/>
</svg>
