<svg width="300" height="300" viewBox="0 0 300 300" fill="none" xmlns="http://www.w3.org/2000/svg">
<g clip-path="url(#clip0_2023_2397)">
<path d="M36.5059 149.682L151.01 35.1777L265.514 149.682L151.01 264.186L36.5059 149.682Z" fill="white"/>
<path d="M92.0398 273.919L7.30704 188.613C-2.99818 178.308 -2.99818 155.98 7.30704 146.247L128.682 24.2996C138.415 14.5668 160.17 14.5668 169.903 24.2996L291.849 146.247C302.154 156.552 302.154 178.881 291.849 188.613L207.116 273.919C201.964 279.072 193.948 282.507 185.933 282.507H112.078C104.635 282.507 97.1924 279.072 92.0398 273.919ZM169.33 240.713C171.048 238.996 171.048 235.56 169.33 233.843L152.727 217.24C151.01 215.522 147.575 215.522 145.857 217.24L129.254 233.843C127.536 235.56 127.536 238.996 129.254 240.713L142.422 253.309H156.162L169.33 240.713ZM169.33 170.293C170.475 169.148 170.475 166.285 169.33 165.14L151.582 147.392C150.438 146.247 147.575 146.247 146.43 147.392L94.9027 198.919C93.1853 200.637 93.1853 204.645 94.9027 206.362L106.926 218.385H120.666L169.33 170.293ZM169.33 100.445C170.475 99.3002 171.048 95.8649 169.33 94.72L152.154 77.5443C151.01 76.3994 147.575 76.3994 145.857 77.5443L59.4062 163.995C58.2619 165.14 57.6889 168.575 58.8338 169.72L72.5743 182.889H85.7423L169.33 100.445Z" fill="#6CC655"/>
</g>
<defs>
<clipPath id="clip0_2023_2397">
<rect width="300" height="300" fill="white"/>
</clipPath>
</defs>
</svg>
