<svg width="300" height="300" viewBox="0 0 300 300" fill="none" xmlns="http://www.w3.org/2000/svg">
<g clip-path="url(#clip0_2022_644)">
<path d="M166.216 22.8041C166.216 34.9663 156.081 45.1015 143.919 45.1015C131.757 45.1015 121.622 34.9663 121.622 22.8041C121.622 10.642 131.757 0.506836 143.919 0.506836C156.081 0.506836 166.216 10.642 166.216 22.8041ZM143.919 63.3449C130.744 63.3449 120.608 73.4799 120.608 86.6556C120.608 99.8314 130.744 109.966 143.919 109.966C157.094 109.966 167.23 99.8314 167.23 86.6556C167.23 73.4799 157.094 63.3449 143.919 63.3449ZM143.919 126.182C130.744 126.182 119.595 137.331 119.595 150.507C119.595 163.683 130.744 174.831 143.919 174.831C157.094 174.831 168.243 163.683 168.243 150.507C168.243 137.331 157.094 126.182 143.919 126.182ZM143.919 190.034C130.744 190.034 120.608 200.169 120.608 213.345C120.608 226.52 130.744 236.655 143.919 236.655C157.094 236.655 167.23 226.52 167.23 213.345C167.23 201.183 157.094 190.034 143.919 190.034ZM143.919 254.899C131.757 254.899 121.622 265.034 121.622 277.196C121.622 289.358 131.757 299.493 143.919 299.493C156.081 299.493 166.216 289.358 166.216 277.196C166.216 265.034 156.081 254.899 143.919 254.899ZM205.743 60.3042C191.554 60.3042 179.392 72.4662 179.392 86.6556C179.392 100.845 191.554 113.007 205.743 113.007C219.932 113.007 232.095 100.845 232.095 86.6556C232.095 72.4662 219.932 60.3042 205.743 60.3042ZM205.743 123.142C190.541 123.142 178.379 135.304 178.379 150.507C178.379 165.71 190.541 177.872 205.743 177.872C220.946 177.872 233.108 165.71 233.108 150.507C233.108 135.304 220.946 123.142 205.743 123.142ZM205.743 186.993C191.554 186.993 179.392 199.156 179.392 213.345C179.392 227.534 191.554 239.696 205.743 239.696C219.932 239.696 232.095 227.534 232.095 213.345C232.095 199.156 219.932 186.993 205.743 186.993ZM269.595 120.101C253.379 120.101 239.189 133.277 239.189 150.507C239.189 166.723 252.365 180.912 269.595 180.912C286.824 180.912 300 167.737 300 150.507C298.987 133.277 285.811 120.101 269.595 120.101ZM81.0813 66.3852C69.9326 66.3852 60.8109 75.5069 60.8109 86.6556C60.8109 97.8044 69.9326 106.926 81.0813 106.926C92.2296 106.926 101.351 97.8044 101.351 86.6556C101.351 75.5069 92.2296 66.3852 81.0813 66.3852ZM81.0813 129.223C68.9189 129.223 59.7972 138.345 59.7972 150.507C59.7972 162.669 68.9189 171.791 81.0813 171.791C93.2433 171.791 102.365 162.669 102.365 150.507C102.365 138.345 93.2433 129.223 81.0813 129.223ZM81.0813 193.075C69.9326 193.075 60.8109 202.196 60.8109 213.345C60.8109 224.493 69.9326 233.615 81.0813 233.615C92.2296 233.615 101.351 224.493 101.351 213.345C101.351 202.196 92.2296 193.075 81.0813 193.075ZM18.2433 132.264C8.10809 132.264 0 140.372 0 150.507C0 160.642 8.10809 168.75 18.2433 168.75C28.3784 168.75 36.4865 160.642 36.4865 150.507C36.4865 140.372 28.3784 132.264 18.2433 132.264Z" fill="#00B0B9"/>
</g>
<defs>
<clipPath id="clip0_2022_644">
<rect width="300" height="300" fill="white"/>
</clipPath>
</defs>
</svg>
