<svg width="300" height="300" viewBox="0 0 300 300" fill="none" xmlns="http://www.w3.org/2000/svg">
<path d="M237.5 50.4373H255C259.137 50.4373 262.5 53.7998 262.5 57.9373V242.062C262.5 246.2 259.137 249.562 255 249.562H237.5V50.4373ZM275 75.3248H292.5C296.637 75.3248 300 78.6873 300 82.8248V217.162C300 221.3 296.637 224.662 292.5 224.662H275V75.3248ZM7.5 25.5498H217.5C221.637 25.5498 225 28.9123 225 33.0498V266.95C225 271.087 221.637 274.45 217.5 274.45H7.5C3.3625 274.45 0 271.087 0 266.95V33.0498C0 28.9123 3.3625 25.5498 7.5 25.5498ZM52.5 65.3748C51.125 65.3748 50 66.4998 50 67.8748V159.75C50 160.312 50.1875 160.862 50.55 161.312C51.4125 162.387 52.9875 162.575 54.0625 161.712L169.413 69.8373C170.013 69.3623 170.35 68.6373 170.35 67.8873C170.35 66.5123 169.225 65.3873 167.85 65.3873L52.5 65.3748ZM50 214.812C50 215.312 50.15 215.812 50.4375 216.225C51.2125 217.362 52.775 217.65 53.9125 216.875L148.612 152.075C149.287 151.612 149.7 150.837 149.7 150.012C149.7 148.637 148.575 147.512 147.2 147.512H86.125C85.5625 147.512 85.025 147.7 84.5875 148.037L50.9625 174.312C50.35 174.787 50 175.512 50 176.287V214.812ZM51.075 229.275C50.4 229.737 50 230.512 50 231.325V232.412C50 233.737 51.075 234.812 52.4 234.812H87.5C88.875 234.812 90 233.687 90 232.312V207.037C90 206.525 89.85 206.025 89.55 205.612C88.7625 204.475 87.2 204.2 86.075 204.987L51.075 229.275Z" fill="white"/>
</svg>
