<svg width="300" height="300" viewBox="0 0 300 300" fill="none" xmlns="http://www.w3.org/2000/svg">
<g clip-path="url(#clip0_2022_625)">
<path d="M126.47 0.00195313C109.861 0.00195289 93.4139 3.27381 78.0689 9.63068C62.7239 15.9875 48.7813 25.3049 37.0376 37.0507C25.2938 48.7964 15.9788 62.7405 9.62449 78.0866C3.2702 93.4327 0.00111254 109.88 0.00390804 126.49V299.996H173.509C243.356 299.996 299.984 243.378 299.998 173.53V0.00195313H126.47ZM229.022 51.6005C229.024 56.9848 227.964 62.3165 225.901 67.2901C223.839 72.2636 220.815 76.7812 217.003 80.5837C209.293 88.2738 198.848 92.5912 187.958 92.5885H143.919V127.744H203.416V168.891H144.214V253.633H95.4557V40.9107H143.918V79.4899C145.186 57.8264 163.164 40.9107 184.913 40.9107H229.089L229.022 51.6005Z" fill="white"/>
</g>
<defs>
<clipPath id="clip0_2022_625">
<rect width="300" height="300" fill="white"/>
</clipPath>
</defs>
</svg>
