<svg width="300" height="300" viewBox="0 0 300 300" fill="none" xmlns="http://www.w3.org/2000/svg">
<g clip-path="url(#clip0_2022_627)">
<path d="M149.648 0C142.06 0 135.057 4.0856 131.36 10.7004C125.718 20.6226 129.415 33.463 139.531 38.9105C142.644 40.6615 146.146 41.4397 149.648 41.4397C157.236 41.4397 164.239 37.3541 167.936 30.7393C173.578 20.6226 169.881 7.97665 159.765 2.52918C156.457 0.972762 152.955 0 149.648 0Z" fill="#EC8D53"/>
<path d="M29.609 197.276C22.0214 197.276 15.0175 201.362 11.321 207.977C5.679 217.899 9.3755 230.739 19.4922 236.187C22.6051 237.938 26.107 238.716 29.609 238.716C37.1965 238.716 44.2004 234.63 47.8969 228.016C53.5389 217.899 49.8424 205.253 39.7257 199.806C36.6129 198.249 33.1109 197.276 29.609 197.276Z" fill="#EC8D53"/>
<path d="M263.849 207.977C256.262 207.977 249.258 212.062 245.561 218.677C239.919 228.599 243.616 241.44 253.732 246.887C256.845 248.638 260.347 249.416 263.849 249.416C271.437 249.416 278.441 245.331 282.137 238.716C287.779 228.599 284.083 215.953 273.966 210.506C270.853 208.755 267.351 207.977 263.849 207.977Z" fill="#EC8D53"/>
<path d="M201.399 21.9844C197.313 20.4279 192.644 22.568 190.893 26.6536C189.336 30.7392 191.476 35.4085 195.562 37.1594C232.332 51.1672 258.986 80.3501 270.854 115.175L220.659 128.599C217.546 120.233 212.877 112.646 206.846 105.642C193.422 90.0777 174.745 80.9338 154.122 79.3773C133.694 78.0155 114.628 84.8248 100.037 96.8871L64.4336 61.6731C81.1652 46.498 101.982 35.7976 124.356 31.1283C122.216 26.0699 121.632 20.4279 122.799 14.9805C70.4648 25.2917 26.1068 64.5913 11.3208 117.704C6.45699 135.603 4.90058 153.891 6.84611 172.179C7.23514 176.265 10.7372 179.377 14.8228 179.377C15.2118 179.377 15.4064 179.377 15.7955 179.377C20.2702 178.794 23.383 174.903 22.9939 170.428C21.2429 154.28 22.4102 137.938 26.885 122.179C31.9433 103.696 41.0873 87.1594 53.1496 73.3462L88.9472 108.366C79.6087 120.233 73.5776 134.825 72.4102 150.778C70.0756 184.436 89.7254 214.397 119.297 226.848L104.511 275.486C82.9161 267.315 64.4336 253.696 50.2313 235.798C46.5348 240.078 41.8655 242.996 36.418 244.358C55.0951 268.482 81.1651 286.381 111.515 294.747C124.356 298.249 137.391 300 150.426 300C181.36 300 211.515 289.883 237.002 270.622C240.504 267.899 241.282 262.84 238.558 259.338C235.834 255.836 230.776 255.058 227.274 257.782C196.34 281.128 157.43 289.3 120.076 280.156L134.862 231.323C137.78 231.907 140.893 232.296 144.006 232.49C145.757 232.685 147.508 232.685 149.453 232.685C189.531 232.685 223.188 201.362 225.912 161.089C226.301 155.253 226.107 149.416 225.134 143.969L275.329 130.545C279.22 149.805 278.636 170.039 273.188 190.272C272.021 194.163 270.854 198.054 269.297 201.945C272.021 202.529 274.745 203.502 277.274 204.864C279.609 206.226 281.749 207.782 283.694 209.728C285.64 204.864 287.391 199.805 288.753 194.747C308.402 122.763 271.048 48.6381 201.399 21.9844ZM87.3908 151.751C89.5309 119.455 116.768 94.1633 149.064 94.1633C150.426 94.1633 151.982 94.1633 153.344 94.3578C169.881 95.5252 184.862 102.918 195.757 115.37C206.652 127.821 211.904 143.774 210.737 160.311C209.57 176.848 201.982 191.829 189.531 202.724C177.08 213.619 161.126 218.871 144.784 217.704C110.737 215.37 85.0562 185.798 87.3908 151.751Z" fill="white"/>
<path d="M195.951 115.175C185.056 102.529 169.881 94.9419 153.344 93.7746C151.982 93.5801 150.426 93.5801 149.064 93.5801C116.574 93.5801 89.3364 119.066 87.0018 151.557C84.6672 185.798 110.543 215.565 144.784 217.899C179.22 220.428 208.792 193.969 211.126 160.117C212.294 143.58 206.846 127.627 195.951 115.175ZM149.259 194.164C139.92 194.164 132.333 194.942 132.333 189.884L139.726 147.666C135.445 144.747 132.722 139.884 132.722 134.242C132.722 125.292 140.115 117.899 149.064 117.899C158.013 117.899 165.406 125.292 165.406 134.242C165.406 139.689 162.683 144.553 158.403 147.666L165.99 189.494C165.99 189.689 165.99 189.689 165.99 189.883C166.185 194.942 158.597 194.164 149.259 194.164Z" fill="#EC8D53"/>
</g>
<defs>
<clipPath id="clip0_2022_627">
<rect width="300" height="300" fill="white"/>
</clipPath>
</defs>
</svg>
