<svg width="300" height="300" viewBox="0 0 300 300" fill="none" xmlns="http://www.w3.org/2000/svg">
<g clip-path="url(#clip0_2022_702)">
<path d="M156.412 13.7129C148.35 13.7129 141 17.9629 126.325 26.4254L45.9375 72.7504C32.0953 80.5706 20.5599 91.9026 12.4947 105.604C4.42957 119.304 0.119773 134.89 0 150.788L0 153.738C0.120663 169.615 4.42055 185.181 12.4671 198.869C20.5136 212.557 32.0231 223.885 45.8375 231.713L96.125 260.75C125.55 277.75 140.262 286.275 156.425 286.275C172.575 286.288 187.3 277.8 216.738 260.8L269.875 230.138C284.587 221.638 291.925 217.388 295.962 210.4C300 203.4 300.013 194.9 300 177.9V145.025C300.003 142.745 299.405 140.503 298.267 138.526C297.13 136.55 295.492 134.907 293.519 133.763C291.546 132.619 289.306 132.015 287.025 132.011C284.745 132.006 282.503 132.602 280.525 133.738L171.425 196.538C164.087 200.75 160.425 202.875 156.412 202.875C152.375 202.875 148.712 200.775 141.363 196.55L67.5625 154.138C63.85 152 61.9875 150.938 60.5 150.75C58.8571 150.54 57.1907 150.876 55.7582 151.708C54.3258 152.539 53.2071 153.819 52.575 155.35C52.0125 156.738 52.0125 158.875 52.0375 163.163C52.0625 166.313 52.0375 167.888 52.35 169.338C53.0125 172.575 54.7125 175.5 57.1875 177.675C58.3 178.638 59.6625 179.425 62.3875 181L141.325 226.625C148.688 230.875 152.375 233 156.412 233C160.462 233 164.125 230.875 171.488 226.638L268.237 170.775C270.762 169.325 272.013 168.625 272.95 169.15C273.888 169.7 273.887 171.15 273.887 174.05V188.963C273.887 193.213 273.9 195.338 272.887 197.075C271.887 198.825 270.05 199.875 266.362 202L186.587 248.063C171.863 256.563 164.5 260.813 156.425 260.813C148.35 260.813 140.975 256.563 126.275 248.038L51.65 204.888L51.1125 204.575C43.4268 200.074 37.0447 193.651 32.5935 185.937C28.1423 178.222 25.7752 169.482 25.725 160.575V146.25C25.725 136.238 31.0625 126.988 39.725 121.95C43.4889 119.77 47.7611 118.621 52.1108 118.619C56.4605 118.617 60.7339 119.762 64.5 121.938L126.325 157.663C141 166.15 148.35 170.4 156.412 170.413C164.475 170.413 171.825 166.163 186.538 157.7L280.062 103.875C282.14 102.68 283.865 100.957 285.064 98.8826C286.264 96.8077 286.896 94.4533 286.896 92.0566C286.896 89.6599 286.264 87.3055 285.064 85.2307C283.865 83.1558 282.14 81.4337 280.062 80.2379L186.5 26.3754C171.812 17.9379 164.475 13.7129 156.425 13.7129H156.412Z" fill="white"/>
</g>
<defs>
<clipPath id="clip0_2022_702">
<rect width="300" height="300" fill="white"/>
</clipPath>
</defs>
</svg>
