<svg width="300" height="300" viewBox="0 0 300 300" fill="none" xmlns="http://www.w3.org/2000/svg">
<g clip-path="url(#clip0_2022_706)">
<path d="M295.017 119.875L294.595 118.797L253.762 12.231C252.931 10.1424 251.46 8.37061 249.56 7.16987C247.658 5.98953 245.441 5.42104 243.206 5.54116C240.971 5.66127 238.827 6.46422 237.063 7.84157C235.319 9.25847 234.053 11.1784 233.439 13.3401L205.868 97.6932H94.2253L66.6543 13.3401C66.0564 11.1666 64.7882 9.23707 63.0303 7.82595C61.2664 6.44859 59.1223 5.64565 56.8875 5.52553C54.6528 5.40541 52.4349 5.9739 50.5335 7.15425C48.6376 8.35984 47.1678 10.1301 46.3315 12.2154L5.42029 118.735L5.01414 119.812C-0.863971 135.171 -1.58953 152.024 2.94687 167.831C7.48326 183.638 17.0357 197.542 30.1638 207.446L30.3044 207.555L30.6793 207.821L92.8819 254.402L123.655 277.693L142.4 291.846C144.593 293.511 147.27 294.412 150.023 294.412C152.776 294.412 155.454 293.511 157.646 291.846L176.391 277.693L207.165 254.402L269.742 207.54L269.898 207.415C282.997 197.509 292.527 183.619 297.057 167.834C301.586 152.048 300.87 135.219 295.017 119.875Z" fill="#E24329"/>
<path d="M295.017 119.875L294.595 118.797C274.699 122.881 255.95 131.309 239.688 143.478L150.008 211.288C180.547 234.392 207.134 254.465 207.134 254.465L269.711 207.602L269.867 207.477C282.985 197.571 292.53 183.673 297.065 167.874C301.601 152.075 300.882 135.23 295.017 119.875Z" fill="#FC6D26"/>
<path d="M92.8828 254.465L123.656 277.756L142.401 291.909C144.594 293.573 147.271 294.475 150.024 294.475C152.777 294.475 155.455 293.573 157.647 291.909L176.392 277.756L207.166 254.465C207.166 254.465 180.547 234.33 150.009 211.289C119.47 234.33 92.8828 254.465 92.8828 254.465Z" fill="#FCA326"/>
<path d="M60.3122 143.478C44.0632 131.283 25.3183 122.834 5.42029 118.734L5.01414 119.812C-0.863971 135.171 -1.58953 152.024 2.94687 167.831C7.48326 183.638 17.0357 197.542 30.1638 207.446L30.3044 207.555L30.6793 207.821L92.8819 254.402C92.8819 254.402 119.437 234.329 150.008 211.226L60.3122 143.478Z" fill="#FC6D26"/>
</g>
<defs>
<clipPath id="clip0_2022_706">
<rect width="300" height="300" fill="white"/>
</clipPath>
</defs>
</svg>
