<svg width="300" height="300" viewBox="0 0 300 300" fill="none" xmlns="http://www.w3.org/2000/svg">
<g clip-path="url(#clip0_2022_706)">
<path d="M295.018 119.875L294.596 118.797L253.763 12.231C252.932 10.1424 251.461 8.37061 249.561 7.16987C247.659 5.98953 245.442 5.42104 243.207 5.54116C240.972 5.66127 238.828 6.46422 237.064 7.84157C235.32 9.25847 234.054 11.1784 233.44 13.3401L205.869 97.6932H94.2262L66.6553 13.3401C66.0574 11.1666 64.7892 9.23707 63.0313 7.82595C61.2673 6.44859 59.1232 5.64565 56.8885 5.52553C54.6537 5.40541 52.4359 5.9739 50.5345 7.15425C48.6386 8.35984 47.1688 10.1301 46.3325 12.2154L5.42127 118.735L5.01512 119.812C-0.862995 135.171 -1.58855 152.024 2.94784 167.831C7.48424 183.638 17.0367 197.542 30.1648 207.446L30.3054 207.555L30.6803 207.821L92.8828 254.402L123.656 277.693L142.401 291.846C144.594 293.511 147.271 294.412 150.024 294.412C152.777 294.412 155.455 293.511 157.647 291.846L176.392 277.693L207.166 254.402L269.743 207.54L269.899 207.415C282.998 197.509 292.528 183.619 297.058 167.834C301.587 152.048 300.871 135.219 295.018 119.875Z" fill="#E24329"/>
<path d="M295.017 119.875L294.595 118.797C274.699 122.881 255.95 131.309 239.688 143.478L150.008 211.288C180.547 234.392 207.134 254.465 207.134 254.465L269.711 207.602L269.867 207.477C282.985 197.571 292.53 183.673 297.065 167.874C301.601 152.075 300.882 135.23 295.017 119.875Z" fill="#FC6D26"/>
<path d="M92.8828 254.465L123.656 277.756L142.401 291.909C144.594 293.573 147.271 294.475 150.024 294.475C152.777 294.475 155.455 293.573 157.647 291.909L176.392 277.756L207.166 254.465C207.166 254.465 180.547 234.33 150.009 211.289C119.47 234.33 92.8828 254.465 92.8828 254.465Z" fill="#FCA326"/>
<path d="M60.3132 143.478C44.0642 131.283 25.3192 122.834 5.42127 118.734L5.01512 119.812C-0.862995 135.171 -1.58855 152.024 2.94784 167.831C7.48424 183.638 17.0367 197.542 30.1648 207.446L30.3054 207.555L30.6803 207.821L92.8828 254.402C92.8828 254.402 119.438 234.329 150.009 211.226L60.3132 143.478Z" fill="#FC6D26"/>
</g>
<defs>
<clipPath id="clip0_2022_706">
<rect width="300" height="300" fill="white"/>
</clipPath>
</defs>
</svg>
