<svg width="300" height="300" viewBox="0 0 300 300" fill="none" xmlns="http://www.w3.org/2000/svg">
<path d="M281.596 128.39H200.398C195.914 128.39 192.427 133.402 193.922 137.41L213.35 188.023C214.346 190.028 212.353 192.533 209.862 192.533L184.955 191.03C183.959 191.03 182.962 191.531 181.966 192.533L163.036 220.095C162.04 221.598 160.048 222.099 158.055 221.097L129.162 201.553C128.166 200.551 126.672 200.551 125.177 201.553L85.3253 228.614C82.8345 230.618 79.3475 228.112 80.3438 225.106L91.8012 185.016C92.2993 183.513 91.303 181.509 89.8086 181.008L68.8863 172.489C66.8937 171.486 65.8975 168.981 67.3919 167.477L85.8234 144.426C86.8197 143.424 86.8197 141.419 85.8234 140.417L70.3808 117.867C68.8863 115.863 70.3808 112.856 72.8715 112.856L97.2808 110.851C99.2734 110.851 100.27 109.348 100.27 107.344L98.2771 73.2677C98.2771 70.7622 100.768 69.2588 102.76 69.7599L132.649 82.2878C134.144 82.7889 135.638 82.2878 136.635 81.2856L157.557 58.2343C159.051 56.2298 162.04 56.7309 163.036 59.2365L175.49 91.3079C176.985 95.3168 181.966 96.8202 185.453 94.3146L234.272 57.7332C239.751 53.7242 236.264 44.7042 229.29 45.7064L197.907 49.7153C196.412 49.7153 194.918 49.2142 194.42 47.7109L177.483 4.11382C175.49 -0.396223 170.011 -1.39845 166.524 2.10935L129.661 42.1986C128.664 43.2008 127.17 43.7019 125.675 43.2008L77.3549 22.6551C72.8715 20.6506 68.3882 23.6573 67.89 28.6685L65.8975 78.78C65.8975 80.7845 64.403 81.7867 62.9086 81.7867L18.5733 84.7934C13.5918 85.2945 10.6029 90.8068 13.5918 95.3168L42.9826 138.914C43.9789 139.916 43.9789 141.921 42.9826 142.923L13.0937 177.5C10.6029 180.005 12.0974 185.518 16.0826 187.021L50.4548 202.054C51.9493 202.556 52.9456 204.56 52.4474 206.063L30.5289 291.754C29.0344 297.767 36.0085 302.277 40.99 298.77L123.185 239.638C124.181 238.636 125.675 238.636 127.17 239.638L164.531 266.197C167.52 268.202 172.003 267.701 173.996 264.193L197.409 228.112C197.907 227.11 199.401 226.609 200.398 226.609L256.19 233.625C260.674 234.126 265.157 230.618 263.663 226.108L240.25 165.473C239.751 163.97 240.25 161.965 242.242 160.963L284.585 140.918C290.563 137.912 288.57 128.39 281.596 128.39Z" fill="#8039E9"/>
</svg>
