<svg width="300" height="300" viewBox="0 0 300 300" fill="none" xmlns="http://www.w3.org/2000/svg">
<path d="M281.595 128.39H200.397C195.913 128.39 192.426 133.402 193.921 137.41L213.349 188.023C214.345 190.028 212.352 192.533 209.862 192.533L184.954 191.03C183.958 191.03 182.961 191.531 181.965 192.533L163.036 220.095C162.039 221.598 160.047 222.099 158.054 221.097L129.161 201.553C128.165 200.551 126.671 200.551 125.176 201.553L85.3243 228.614C82.8335 230.618 79.3465 228.112 80.3428 225.106L91.8002 185.016C92.2984 183.513 91.3021 181.509 89.8076 181.008L68.8854 172.489C66.8928 171.486 65.8965 168.981 67.3909 167.477L85.8224 144.426C86.8187 143.424 86.8187 141.419 85.8224 140.417L70.3798 117.867C68.8854 115.863 70.3798 112.856 72.8706 112.856L97.2799 110.851C99.2725 110.851 100.269 109.348 100.269 107.344L98.2762 73.2677C98.2762 70.7622 100.767 69.2588 102.76 69.7599L132.648 82.2878C134.143 82.7889 135.637 82.2878 136.634 81.2856L157.556 58.2343C159.05 56.2298 162.039 56.7309 163.036 59.2365L175.489 91.3079C176.984 95.3168 181.965 96.8202 185.452 94.3146L234.271 57.7332C239.75 53.7242 236.263 44.7042 229.289 45.7064L197.906 49.7153C196.411 49.7153 194.917 49.2142 194.419 47.7109L177.482 4.11382C175.489 -0.396223 170.01 -1.39845 166.523 2.10935L129.66 42.1986C128.663 43.2008 127.169 43.7019 125.674 43.2008L77.3539 22.6551C72.8706 20.6506 68.3872 23.6573 67.8891 28.6685L65.8965 78.78C65.8965 80.7845 64.402 81.7867 62.9076 81.7867L18.5723 84.7934C13.5908 85.2945 10.602 90.8068 13.5908 95.3168L42.9816 138.914C43.9779 139.916 43.9779 141.921 42.9816 142.923L13.0927 177.5C10.602 180.005 12.0964 185.518 16.0816 187.021L50.4539 202.054C51.9483 202.556 52.9446 204.56 52.4465 206.063L30.5279 291.754C29.0335 297.767 36.0075 302.277 40.989 298.77L123.184 239.638C124.18 238.636 125.674 238.636 127.169 239.638L164.53 266.197C167.519 268.202 172.002 267.701 173.995 264.193L197.408 228.112C197.906 227.11 199.4 226.609 200.397 226.609L256.189 233.625C260.673 234.126 265.156 230.618 263.662 226.108L240.249 165.473C239.75 163.97 240.249 161.965 242.241 160.963L284.584 140.918C290.562 137.912 288.569 128.39 281.595 128.39Z" fill="#8039E9"/>
</svg>
