<svg width="300" height="300" viewBox="0 0 300 300" fill="none" xmlns="http://www.w3.org/2000/svg">
<g clip-path="url(#clip0_2023_2717)">
<path d="M142.875 299.937C97.7748 297.337 64.4498 273.975 62.2748 236.462C70.9623 236.55 79.4623 236.3 88.1498 236.387C90.9498 253.162 101.462 266.762 121.687 274.212C141.475 280.412 168.4 279.962 185.212 272.037C202.1 264.087 212.025 249.262 216.5 227.325C219.15 214.3 219.45 205.65 219.387 190.825L219.325 170.437H218.587C203.025 202.487 177.15 214.562 148.712 213.875C76.9623 213.2 52.7123 157.2 54.6123 106.3C54.7373 40.7871 94.8623 -0.412945 149.075 0.112055C178.5 -1.63795 206.637 17.1371 218.5 42.2371L219.237 42.2621L219.262 5.78706L245.5 5.83706L245.475 202.3C243.062 290.3 190.775 300.925 142.862 299.937H142.875ZM219.125 104.525C217.925 63.7746 199.112 21.7746 150.337 21.4621C100.912 21.2496 80.0248 66.3621 80.2873 107.087C80.1248 150.075 100.825 185.9 139.075 191.612C195.725 199 220.962 148.975 219.125 104.525Z" fill="white"/>
</g>
<defs>
<clipPath id="clip0_2023_2717">
<rect width="300" height="300" fill="white"/>
</clipPath>
</defs>
</svg>
