<svg width="300" height="300" viewBox="0 0 300 300" fill="none" xmlns="http://www.w3.org/2000/svg">
<g clip-path="url(#clip0_2022_665)">
<path d="M275.74 0.0986328H221.105C207.89 0.0986328 197.041 10.9468 197.041 24.1617V94.7732H117.949C105.128 94.7732 94.6746 105.227 94.6746 118.245V197.337H23.4714C10.4536 197.337 0 207.791 0 220.809V276.035C0 289.053 10.4536 299.507 23.4714 299.901H275.937C289.152 299.901 300 289.053 300 275.838V24.1617C299.803 10.9468 288.955 0.0986328 275.74 0.0986328Z" fill="url(#paint0_linear_2022_665)"/>
<path d="M275.74 0.0986328H221.105C207.89 0.0986328 197.041 10.9468 197.041 24.1617V94.7732H117.949C105.128 94.7732 94.6746 105.227 94.6746 118.245V197.337H23.4714C10.4536 197.337 0 207.791 0 220.809V276.035C0 289.053 10.4536 299.507 23.4714 299.901H275.937C289.152 299.901 300 289.053 300 275.838V24.1617C299.803 10.9468 288.955 0.0986328 275.74 0.0986328Z" fill="url(#paint1_linear_2022_665)"/>
<mask id="mask0_2022_665" style="mask-type:luminance" maskUnits="userSpaceOnUse" x="0" y="0" width="300" height="300">
<path d="M275.74 0.0986328H221.499C208.284 0.0986328 197.436 10.9468 197.436 24.1617V94.7732H118.54C105.523 94.7732 94.8718 105.424 94.8718 118.442V197.337H23.6686C10.6509 197.337 0 207.988 0 221.006V276.233C0 289.25 10.6509 299.901 23.6686 299.901H275.74C288.955 299.901 299.803 289.053 299.803 275.838V24.1617C299.803 10.9468 288.955 0.0986328 275.74 0.0986328Z" fill="white"/>
</mask>
<g mask="url(#mask0_2022_665)">
<path d="M275.739 0.0986328H221.499C208.284 0.0986328 197.436 10.9468 197.436 24.1617V299.901H275.739C288.954 299.901 299.802 289.053 299.802 275.838V24.1617C299.802 10.9468 288.954 0.0986328 275.739 0.0986328Z" fill="#F57C00"/>
<path d="M94.6746 118.442V197.338H23.6686C10.6509 197.338 0 207.988 0 221.006V276.233C0 289.251 10.6509 299.902 23.6686 299.902H197.239V94.7734H118.343C105.325 94.7734 94.6746 105.424 94.6746 118.442Z" fill="#FFC107"/>
</g>
<mask id="mask1_2022_665" style="mask-type:luminance" maskUnits="userSpaceOnUse" x="0" y="0" width="300" height="300">
<path d="M275.74 0.0986328H221.499C208.284 0.0986328 197.436 10.9468 197.436 24.1617V94.7732H118.54C105.523 94.7732 94.8718 105.424 94.8718 118.442V197.337H23.6686C10.6509 197.337 0 207.988 0 221.006V276.233C0 289.25 10.6509 299.901 23.6686 299.901H275.74C288.955 299.901 299.803 289.053 299.803 275.838V24.1617C299.803 10.9468 288.955 0.0986328 275.74 0.0986328Z" fill="white"/>
</mask>
<g mask="url(#mask1_2022_665)">
<path d="M197.238 94.7734V299.902H275.542C288.757 299.902 299.605 289.054 299.605 275.839V197.338L197.238 94.7734Z" fill="url(#paint2_linear_2022_665)"/>
</g>
<mask id="mask2_2022_665" style="mask-type:luminance" maskUnits="userSpaceOnUse" x="0" y="0" width="300" height="300">
<path d="M275.74 0.0986328H221.499C208.284 0.0986328 197.436 10.9468 197.436 24.1617V94.7732H118.54C105.523 94.7732 94.8718 105.424 94.8718 118.442V197.337H23.6686C10.6509 197.337 0 207.988 0 221.006V276.233C0 289.25 10.6509 299.901 23.6686 299.901H275.74C288.955 299.901 299.803 289.053 299.803 275.838V24.1617C299.803 10.9468 288.955 0.0986328 275.74 0.0986328Z" fill="white"/>
</mask>
<g mask="url(#mask2_2022_665)">
<path opacity="0.2" d="M118.342 96.7458H197.238V94.7734H118.342C105.325 94.7734 94.6738 105.424 94.6738 118.442V120.414C94.6738 107.397 105.325 96.7458 118.342 96.7458Z" fill="white"/>
</g>
<mask id="mask3_2022_665" style="mask-type:luminance" maskUnits="userSpaceOnUse" x="0" y="0" width="300" height="300">
<path d="M275.74 0.0986328H221.499C208.284 0.0986328 197.436 10.9468 197.436 24.1617V94.7732H118.54C105.523 94.7732 94.8718 105.424 94.8718 118.442V197.337H23.6686C10.6509 197.337 0 207.988 0 221.006V276.233C0 289.25 10.6509 299.901 23.6686 299.901H275.74C288.955 299.901 299.803 289.053 299.803 275.838V24.1617C299.803 10.9468 288.955 0.0986328 275.74 0.0986328Z" fill="white"/>
</mask>
<g mask="url(#mask3_2022_665)">
<path opacity="0.2" d="M23.6686 199.309H94.6746V197.337H23.6686C10.6509 197.337 0 207.988 0 221.006V222.978C0 209.96 10.6509 199.309 23.6686 199.309Z" fill="white"/>
</g>
<mask id="mask4_2022_665" style="mask-type:luminance" maskUnits="userSpaceOnUse" x="0" y="0" width="300" height="300">
<path d="M275.74 0.0986328H221.499C208.284 0.0986328 197.436 10.9468 197.436 24.1617V94.7732H118.54C105.523 94.7732 94.8718 105.424 94.8718 118.442V197.337H23.6686C10.6509 197.337 0 207.988 0 221.006V276.233C0 289.25 10.6509 299.901 23.6686 299.901H275.74C288.955 299.901 299.803 289.053 299.803 275.838V24.1617C299.803 10.9468 288.955 0.0986328 275.74 0.0986328Z" fill="white"/>
</mask>
<g mask="url(#mask4_2022_665)">
<path opacity="0.2" d="M275.739 0.0986328H221.499C208.284 0.0986328 197.436 10.9468 197.436 24.1617V26.1341C197.436 12.9191 208.284 2.07102 221.499 2.07102H275.739C288.954 2.07102 299.802 12.9191 299.802 26.1341V24.1617C299.802 10.9468 288.954 0.0986328 275.739 0.0986328Z" fill="white"/>
</g>
<mask id="mask5_2022_665" style="mask-type:luminance" maskUnits="userSpaceOnUse" x="0" y="0" width="300" height="300">
<path d="M275.74 0.0986328H221.499C208.284 0.0986328 197.436 10.9468 197.436 24.1617V94.7732H118.54C105.523 94.7732 94.8718 105.424 94.8718 118.442V197.337H23.6686C10.6509 197.337 0 207.988 0 221.006V276.233C0 289.25 10.6509 299.901 23.6686 299.901H275.74C288.955 299.901 299.803 289.053 299.803 275.838V24.1617C299.803 10.9468 288.955 0.0986328 275.74 0.0986328Z" fill="white"/>
</mask>
<g mask="url(#mask5_2022_665)">
<path opacity="0.2" d="M275.74 297.929H23.6686C10.6509 297.929 0 287.278 0 274.261V276.233C0 289.251 10.6509 299.902 23.6686 299.902H275.542C288.757 299.902 299.605 289.054 299.605 275.839V273.866C299.803 287.081 288.955 297.929 275.74 297.929Z" fill="#BF360C"/>
</g>
<path d="M275.74 0.0986328H221.499C208.284 0.0986328 197.436 10.9468 197.436 24.1617V94.7732H118.54C105.523 94.7732 94.8718 105.424 94.8718 118.442V197.337H23.6686C10.6509 197.337 0 207.988 0 221.006V276.233C0 289.25 10.6509 299.901 23.6686 299.901H275.74C288.955 299.901 299.803 289.053 299.803 275.838V24.1617C299.803 10.9468 288.955 0.0986328 275.74 0.0986328Z" fill="url(#paint3_linear_2022_665)"/>
</g>
<defs>
<linearGradient id="paint0_linear_2022_665" x1="0" y1="150" x2="300" y2="150" gradientUnits="userSpaceOnUse">
<stop stop-color="white" stop-opacity="0.1"/>
<stop offset="1" stop-color="white" stop-opacity="0"/>
</linearGradient>
<linearGradient id="paint1_linear_2022_665" x1="0" y1="150" x2="300" y2="150" gradientUnits="userSpaceOnUse">
<stop stop-color="white" stop-opacity="0.1"/>
<stop offset="1" stop-color="white" stop-opacity="0"/>
</linearGradient>
<linearGradient id="paint2_linear_2022_665" x1="146.449" y1="146.549" x2="292.623" y2="292.722" gradientUnits="userSpaceOnUse">
<stop stop-color="#BF360C" stop-opacity="0.2"/>
<stop offset="1" stop-color="#BF360C" stop-opacity="0.02"/>
</linearGradient>
<linearGradient id="paint3_linear_2022_665" x1="100.531" y1="100.751" x2="294.467" y2="294.688" gradientUnits="userSpaceOnUse">
<stop stop-color="white" stop-opacity="0.1"/>
<stop offset="1" stop-color="white" stop-opacity="0"/>
</linearGradient>
<clipPath id="clip0_2022_665">
<rect width="300" height="300" fill="white"/>
</clipPath>
</defs>
</svg>
