<svg width="300" height="300" viewBox="0 0 300 300" fill="none" xmlns="http://www.w3.org/2000/svg">
<g clip-path="url(#clip0_2022_715)">
<path d="M65.8276 122.057C77.485 86.7329 110.681 61.3636 150 61.3636C171.137 61.3636 190.227 68.8636 205.227 81.1364L248.864 37.5C222.273 14.3182 188.182 0 150 0C90.876 0 39.972 33.7287 15.5 83.1253L65.8276 122.057Z" fill="#EA4335"/>
<path d="M200.51 225.158C186.887 233.954 169.577 238.637 150 238.637C110.832 238.637 77.7395 213.461 65.9627 178.349L15.4688 216.688C39.9103 266.171 90.813 300 150 300C186.661 300 221.692 286.968 247.928 262.495L200.51 225.158Z" fill="#34A853"/>
<path d="M247.927 262.495C275.365 236.902 293.182 198.796 293.182 150C293.182 141.137 291.818 131.591 289.773 122.728H150V180.682H230.455C226.485 200.171 215.829 215.265 200.509 225.158L247.927 262.495Z" fill="#4A90E2"/>
<path d="M65.9623 178.348C62.9791 169.454 61.3636 159.922 61.3636 150C61.3636 140.228 62.9305 130.835 65.8275 122.056L15.4999 83.125C5.45734 103.255 0 125.942 0 150C0 173.994 5.55976 196.627 15.4683 216.687L65.9623 178.348Z" fill="#FBBC05"/>
</g>
<defs>
<clipPath id="clip0_2022_715">
<rect width="300" height="300" fill="white"/>
</clipPath>
</defs>
</svg>
