<svg width="300" height="300" viewBox="0 0 300 300" fill="none" xmlns="http://www.w3.org/2000/svg">
<path fill-rule="evenodd" clip-rule="evenodd" d="M49.0647 174.353H38.8394L39.2425 169.578C35.9663 172.672 30.9953 175.5 23.3924 175.5C11.0146 175.5 1.60473 167.492 5.17194 150.607C8.44032 135.134 20.3746 124.504 36.0488 124.504C47.6873 124.504 55.7602 130.558 55.1953 142.467H40.1249C39.8199 138.498 37.3811 136.344 33.2785 136.344C27.0218 136.344 22.8679 141.996 21.0625 150.542C19.612 157.402 20.4446 163.659 28.449 163.659C31.6785 163.659 36.2511 161.439 37.7686 158.074H30.7711L32.989 147.581H54.719L49.0647 174.353ZM74.9612 157.334L71.394 174.22H55.5159L65.749 125.781H88.6215C104.769 125.781 109.159 130.155 107.169 139.572C105.989 145.157 102.504 149.865 96.5278 151.412C101.242 153.296 104.081 154.506 102.02 164.264C100.685 170.586 100.028 172.739 101.911 172.739L101.599 174.219H85.5212C85.3438 173.143 85.5943 170.048 86.5048 165.741C87.8402 159.419 87.2052 157.334 79.8046 157.334H74.9612ZM77.2055 146.704H83.4621C88.3725 146.704 91.2533 145.3 91.963 141.936C92.6883 138.505 90.3382 136.891 86.6387 136.891H79.2381L77.2055 146.704ZM184.622 124.502C174.024 124.502 164.765 129.395 159.082 137.58C156.987 130.071 150.697 124.502 139.137 124.502C124.066 124.502 111.684 134.391 108.471 149.597C104.99 166.079 113.158 175.5 128.362 175.5C138.452 175.5 147.908 170.888 153.841 162.41C155.991 170.862 163.186 175.5 173.847 175.5C188.179 175.5 201.239 166.213 204.722 149.731C207.419 136.948 201.908 124.502 184.622 124.502ZM143.359 149.731C141.667 157.738 137.727 163.656 130.865 163.656C123.262 163.656 123.013 155.919 124.322 149.731C125.615 143.608 129.302 136.343 136.5 136.343C143.54 136.14 144.752 143.138 143.359 149.731ZM188.844 149.731C187.154 157.738 183.212 163.656 176.348 163.656C168.748 163.656 168.496 155.919 169.807 149.731C171.098 143.608 174.785 136.343 181.987 136.343C189.023 136.14 190.235 143.138 188.844 149.731ZM205.499 125.781H221.509L223.178 158.004L238.8 125.781H254.811L227.76 174.219H211.816L205.499 125.781ZM245.865 174.219L256.096 125.781H295.589L293.2 137.084H269.587L268.121 144.013H288.105L285.716 155.315H265.735L264.13 162.918H288.685L286.296 174.219H245.865Z" fill="white"/>
</svg>
