<svg width="300" height="300" viewBox="0 0 300 300" fill="none" xmlns="http://www.w3.org/2000/svg">
<path d="M257.625 0H42.375C27.3625 0 15.375 12 15.375 27V273.012C15.375 287.987 27.3625 300 42.375 300H257.625C272.625 300 284.612 287.987 284.612 273.012V27C284.625 12 272.638 0 257.625 0ZM269.625 273.012C269.625 279.75 264.363 285.013 257.625 285.013H42.375C35.625 285.013 30.375 279.75 30.375 273.012V27C30.375 20.25 35.625 14.9875 42.375 14.9875H257.625C264.363 14.9875 269.625 20.25 269.625 27V273.012ZM82.875 254.988L116.625 225L82.875 195V254.988ZM204.375 133.5C198.388 127.5 187.137 120 168.387 120C148.125 120 127.125 125.262 112.137 130.5V45H82.1375V174.75L103.138 165C103.138 165 137.637 149.25 167.637 149.25C182.637 149.25 186.387 157.5 186.387 165V255H216.388V165C217.125 162.762 217.125 146.238 204.375 133.5ZM164.625 93.75H194.625C208.125 78 214.875 62.2375 217.125 45H187.137C184.125 62.2375 176.625 78 164.625 93.75Z" fill="white"/>
</svg>
