<svg width="300" height="300" viewBox="0 0 300 300" fill="none" xmlns="http://www.w3.org/2000/svg">
<mask id="mask0_2023_2766" style="mask-type:luminance" maskUnits="userSpaceOnUse" x="0" y="0" width="300" height="268">
<path d="M0 0H300V267.835H0V0Z" fill="white"/>
</mask>
<g mask="url(#mask0_2023_2766)">
<path d="M298.762 248.041C298.762 254.226 293.814 258.556 287.628 258.556C281.443 258.556 276.494 253.608 276.494 248.041C276.494 241.855 281.443 237.525 287.628 237.525C293.814 237.525 298.762 242.474 298.762 248.041ZM279.587 248.041C279.587 252.989 283.298 256.701 287.628 256.701C292.577 256.701 295.669 252.989 295.669 248.041C295.669 243.092 292.577 239.381 287.628 239.381C282.68 239.381 279.587 243.711 279.587 248.041ZM286.391 253.608H283.917V243.092H288.247C290.102 243.092 291.34 243.092 291.958 243.711C292.577 244.33 293.195 244.948 293.195 246.185C293.195 247.422 292.577 248.041 291.339 248.659C292.577 249.278 293.195 249.897 293.195 251.134C293.195 252.989 293.814 253.608 293.814 253.608H291.339C291.339 252.989 290.721 252.371 290.721 251.134C290.721 249.897 290.102 249.278 288.247 249.278H287.01C286.391 249.278 286.391 253.608 286.391 253.608ZM286.391 247.422H287.628C288.865 247.422 290.102 246.804 290.102 246.185C290.102 244.948 289.484 244.33 287.628 244.33H286.391V247.422Z" fill="#2A6BB3"/>
</g>
<mask id="mask1_2023_2766" style="mask-type:luminance" maskUnits="userSpaceOnUse" x="0" y="0" width="300" height="268">
<path d="M0 0H300V267.835H0V0Z" fill="white"/>
</mask>
<g mask="url(#mask1_2023_2766)">
<path d="M98.9693 19.7939L39.5879 89.6908V193.608L95.8766 185.567C95.8766 185.567 106.392 183.711 107.629 193.608C108.248 204.742 98.3508 204.742 98.3508 204.742L39.5879 214.639V236.289L164.536 259.175V92.7836C165.155 92.7836 98.9693 19.7939 98.9693 19.7939ZM128.66 161.443C122.474 169.485 113.196 175.052 103.299 175.67H101.444C90.9281 175.67 81.6497 170.722 74.8456 162.681C68.0415 154.639 63.7116 143.505 63.093 131.753V128.66C63.093 116.907 66.8044 105.773 72.99 97.7321C79.1755 89.6908 88.4539 84.1238 98.3508 83.5053H100.206C110.722 83.5053 120 88.4537 126.804 96.495C133.609 104.536 137.938 115.67 138.557 127.423V130.516C138.557 142.268 134.846 152.784 128.66 161.443Z" fill="white"/>
</g>
<mask id="mask2_2023_2766" style="mask-type:luminance" maskUnits="userSpaceOnUse" x="0" y="0" width="300" height="268">
<path d="M0 0H300V267.835H0V0Z" fill="white"/>
</mask>
<g mask="url(#mask2_2023_2766)">
<path d="M189.897 165.155V205.361L219.587 200.413V161.444L189.897 165.155ZM120.618 100.825C115.051 94.0209 107.628 90.3096 99.5872 90.3096H98.3501C90.3089 90.9281 83.5047 94.6395 78.5563 101.444C73.6078 108.248 69.8965 117.526 69.8965 128.042V130.516C70.515 141.031 74.2264 150.31 79.7934 157.114C85.3604 163.918 92.7831 167.629 100.824 167.629H102.061C110.103 167.011 116.907 163.299 121.855 156.495C126.804 149.691 130.515 140.413 130.515 129.897V127.423C130.515 116.908 126.804 107.629 120.618 100.825ZM79.1748 130.516C78.5563 115.052 86.5975 101.444 97.7315 100.825C90.9274 105.155 86.5975 116.908 87.8346 129.897C88.4532 143.505 94.0202 154.639 101.443 157.732C89.6903 158.969 79.7934 146.598 79.1748 130.516Z" fill="white"/>
</g>
<mask id="mask3_2023_2766" style="mask-type:luminance" maskUnits="userSpaceOnUse" x="0" y="0" width="300" height="268">
<path d="M0 0H300V267.835H0V0Z" fill="white"/>
</mask>
<g mask="url(#mask3_2023_2766)">
<path d="M231.959 108.866V147.216L256.701 144.124V106.392L231.959 108.866ZM231.959 197.938L256.701 193.608V155.876L231.959 159.587V197.938Z" fill="white"/>
</g>
<mask id="mask4_2023_2766" style="mask-type:luminance" maskUnits="userSpaceOnUse" x="0" y="0" width="300" height="268">
<path d="M0 0H300V267.835H0V0Z" fill="white"/>
</mask>
<g mask="url(#mask4_2023_2766)">
<path d="M217.732 0H81.6495L1.23712 94.6392L29.6907 92.7835V195.464L8.04124 197.938C8.04124 197.938 -2.47422 199.794 6.64332e-06 210.928C2.47423 218.969 10.5155 218.969 10.5155 218.969L29.6907 215.876V243.093L165.155 267.835L271.546 243.711V95.2577L300.619 92.7835C300 92.1649 217.732 0 217.732 0ZM189.897 112.577L219.588 109.485V148.454L189.897 152.165V112.577ZM39.5876 236.289V214.639L98.3505 204.742C98.3505 204.742 108.247 204.742 107.629 193.608C107.01 183.711 95.8763 185.567 95.8763 185.567L39.5876 194.227V89.6907L98.9691 19.7938L165.155 92.7835V258.557L39.5876 236.289ZM189.897 205.361V165.155L219.588 161.443V200.412L189.897 205.361ZM256.082 193.608L231.34 197.938V159.588L256.082 155.876V193.608ZM231.959 147.216V108.866L256.701 106.392V144.124C256.082 144.124 231.959 147.216 231.959 147.216ZM126.804 95.8763C120 87.835 110.722 82.8866 100.206 82.8866H98.3505C87.8351 83.5051 79.1753 89.0722 72.9897 97.1134C66.8041 105.155 63.0928 116.289 63.0928 128.041V131.134C63.7113 143.505 68.0412 154.639 74.8454 162.062C81.6495 170.103 90.9278 175.052 101.443 175.052H103.299C113.814 174.433 122.474 168.866 128.66 160.825C134.845 152.783 138.557 141.649 138.557 129.897V126.804C137.938 115.052 133.608 103.918 126.804 95.8763ZM122.474 156.495C117.526 163.299 110.103 167.629 102.68 167.629H101.443C93.4021 167.629 85.9794 163.918 80.4124 157.113C74.8454 150.309 70.5155 141.031 70.5155 130.515V128.041C70.5155 117.526 73.6083 108.247 79.1753 101.443C84.1237 94.6392 91.5464 90.3093 98.9691 90.3093H100.206C108.247 90.3093 115.67 94.0206 121.237 100.825C126.804 107.629 131.134 116.907 131.134 127.423V129.897C131.134 140.412 128.041 149.691 122.474 156.495ZM87.8351 129.897C87.2165 116.907 91.5464 105.155 97.732 100.825C86.5979 101.443 77.9381 115.052 79.1753 130.515C79.7938 146.598 89.6907 158.969 100.825 158.351C94.0206 154.639 88.4536 143.505 87.8351 129.897Z" fill="#116DB3"/>
</g>
<mask id="mask5_2023_2766" style="mask-type:luminance" maskUnits="userSpaceOnUse" x="0" y="0" width="300" height="268">
<path d="M0 0H300V267.835H0V0Z" fill="white"/>
</mask>
<g mask="url(#mask5_2023_2766)">
<path d="M189.896 112.577L219.587 110.103V149.072L189.896 152.783V112.577Z" fill="white"/>
</g>
</svg>
