<svg width="300" height="300" viewBox="0 0 300 300" fill="none" xmlns="http://www.w3.org/2000/svg">
<g clip-path="url(#clip0_2023_2438)">
<path d="M228.58 100.779V65.0547C233.301 62.8483 237.298 59.3463 240.106 54.9565C242.914 50.5667 244.418 45.4696 244.442 40.2585V39.4388C244.442 24.2451 232.125 11.9282 216.933 11.9282H216.112C200.918 11.9282 188.601 24.2451 188.601 39.4388V40.2585C188.625 45.4696 190.129 50.5667 192.937 54.9565C195.745 59.3463 199.742 62.8483 204.463 65.0547V100.779C190.895 102.857 178.116 108.483 167.421 117.088L69.4448 40.7743C70.1434 38.2523 70.5079 35.6589 70.549 33.0558C70.561 26.9246 68.7543 20.9277 65.3576 15.8234C61.9609 10.7192 57.1266 6.73704 51.4664 4.38063C45.8061 2.02422 39.5742 1.39944 33.5588 2.58532C27.5434 3.7712 22.0149 6.71445 17.6725 11.0428C13.3301 15.3711 10.3689 20.8901 9.16351 26.9016C7.95813 32.9131 8.5627 39.147 10.9007 44.8149C13.2388 50.4828 17.2052 55.3299 22.2984 58.7432C27.3916 62.1565 33.3827 63.9826 39.5138 63.9905C44.8775 63.9652 50.1406 62.5332 54.7778 59.8376L151.257 134.913C133.519 161.708 133.994 196.63 152.452 222.934L123.108 252.287C120.735 251.529 118.265 251.125 115.774 251.092C101.721 251.104 90.3363 262.5 90.34 276.554C90.3436 290.606 101.736 301.996 115.788 302C129.841 302.004 141.238 290.619 141.25 276.566C141.217 274.076 140.813 271.605 140.053 269.233L169.082 240.194C195.02 260.161 230.644 261.882 258.386 244.506C286.127 227.13 300.127 194.325 293.48 162.274C286.833 130.222 260.943 105.692 228.58 100.779ZM216.548 218.274C211.185 218.418 205.847 217.487 200.85 215.534C195.853 213.581 191.298 210.647 187.454 206.905C183.61 203.163 180.554 198.689 178.468 193.746C176.382 188.803 175.307 183.493 175.307 178.128C175.307 172.763 176.382 167.453 178.468 162.51C180.554 157.567 183.61 153.093 187.454 149.351C191.298 145.609 195.853 142.675 200.85 140.722C205.847 138.769 211.185 137.838 216.548 137.982C238.159 138.739 255.292 156.473 255.304 178.099C255.313 199.723 238.199 217.475 216.587 218.254" fill="#FF7A59"/>
</g>
<defs>
<clipPath id="clip0_2023_2438">
<rect width="300" height="300" fill="white"/>
</clipPath>
</defs>
</svg>
