<svg width="300" height="300" viewBox="0 0 300 300" fill="none" xmlns="http://www.w3.org/2000/svg">
<path d="M0 90V98.2101H58.3944V90H0ZM66.6678 90V98.2101H149.883C149.883 98.2101 141.383 90 130.125 90H66.6678ZM166.207 90V98.2101H216.551L213.563 90H166.207ZM252.644 90L249.656 98.2101H299.543V90H252.644ZM0 105.967V114.177H58.3944V105.967H0ZM66.6678 105.978V114.177H159.539C159.539 114.177 158.454 107.858 156.562 105.978H66.6678ZM166.207 105.978V114.177H222.07L219.305 105.978H166.207ZM246.668 105.978L243.902 114.177H299.543V105.978H246.668ZM16.7811 121.933V130.155H42.0702V121.933H16.7811ZM83.4492 121.933V130.155H108.738V121.933H83.4492ZM133.336 121.933V130.155H158.625C158.625 130.155 160.231 125.813 160.231 121.933H133.336ZM182.988 121.933V130.155H227.824L224.836 121.933H182.988ZM241.16 121.933L238.16 130.155H283.219V121.933H241.16ZM16.7811 137.912V146.122H42.0702V137.912H16.7811ZM83.4492 137.912V146.122H148.043C148.043 146.122 153.446 141.909 155.168 137.912H83.4492ZM182.988 137.912V146.122H208.277V141.552L209.883 146.122H256.207L257.93 141.552V146.122H283.219V137.912H235.746L233.227 144.866L230.695 137.912H182.988ZM16.7811 153.878V162.089H42.0702V153.878H16.7811ZM83.4492 153.878V162.089H155.168C153.446 158.104 148.043 153.878 148.043 153.878H83.4492ZM182.988 153.878V162.089H208.277V153.878H182.988ZM212.871 153.878L215.93 162.089H250.664L253.57 153.878H212.871ZM257.93 153.878V162.089H283.219V153.878H257.93ZM16.7811 169.845V178.055H42.0702V169.845H16.7811ZM83.4492 169.845V178.055H108.738V169.845H83.4492ZM133.336 169.845V178.055H160.23C160.23 174.18 158.625 169.845 158.625 169.845H133.336ZM182.988 169.845V178.055H208.277V169.845H182.988ZM218.613 169.845L221.578 178.055H244.863L247.852 169.845H218.613ZM257.93 169.845V178.055H283.219V169.845H257.93ZM0.4569 185.812V194.033H58.8513V185.812H0.4569ZM66.6678 185.812V194.033H156.562C158.454 192.151 159.539 185.812 159.539 185.812H66.6678ZM166.664 185.812V194.033H208.277V185.812H166.664ZM224.367 185.812L227.414 194.033H239.261L242.121 185.812H224.367ZM257.93 185.812V194.033H300V185.812H257.93ZM0.4569 201.79V210H58.8513V201.79H0.4569ZM66.6678 201.79V209.988H130.125C141.383 209.988 149.883 201.79 149.883 201.79H66.6678ZM166.664 201.79V210H208.277V201.79H166.664ZM230.144 201.79L233.074 209.977L233.578 209.988L236.555 201.79H230.144ZM257.93 201.79V210H300V201.79H257.93Z" fill="white"/>
</svg>
