<svg width="300" height="300" viewBox="0 0 300 300" fill="none" xmlns="http://www.w3.org/2000/svg">
<g clip-path="url(#clip0_2023_2822)">
<path d="M112.01 58.7735L112.031 58.7539C128.585 46.6961 148.965 39.5826 171.011 39.5826C183.332 39.5826 195.049 41.499 205.931 45.595C206.638 45.85 207.572 46.0104 207.997 46.0104C210.599 46.0104 212.509 44.2245 212.525 41.6954C212.531 39.9763 211.679 38.5431 210.576 37.5263C181.748 10.9823 151.124 0.0214844 151.124 0.0214844C82.781 27.35 32.5254 93.4386 31.085 168.968C30.4671 190.453 35.5984 212.366 47.135 232.347C53.9781 244.205 62.5465 254.457 72.3239 262.96C53.6111 254.631 37.2691 240.538 26.2415 221.451C20.0789 210.775 15.8729 199.674 13.977 188.211C13.8516 187.474 13.5298 186.579 13.3129 186.217C12.0185 183.966 9.5119 183.196 7.31583 184.462C5.8158 185.303 5.00975 186.767 4.68692 188.221C-3.89584 226.458 1.9295 258.464 1.9295 258.464C60.6085 304.646 144.56 314.749 211.173 276.306C242.506 258.206 262.61 228.122 269.007 195.191L269.028 195.233C271.189 215.607 267.148 236.793 256.129 255.901C249.971 266.567 242.457 275.756 233.477 283.15C232.894 283.629 232.286 284.356 232.074 284.716C230.776 286.962 231.367 289.517 233.549 290.793C235.04 291.667 236.7 291.632 238.124 291.176C275.536 279.496 300.333 258.455 300.333 258.455C310.812 185.823 278.91 109.469 214.6 70.3542C184.403 51.5982 146.664 46.7846 112.01 58.7735ZM248.82 150.015C249.785 154.834 250.322 159.787 250.322 164.824C250.322 212.22 205.917 250.623 151.129 250.623C96.3388 250.623 51.9342 212.219 51.9342 164.824C51.9342 159.787 52.4648 154.834 53.4343 150.015C74.0224 128.903 110.063 114.873 151.128 114.873C192.186 114.873 228.231 128.903 248.82 150.015Z" fill="white"/>
<path d="M132.807 129.028C140.433 131.706 145.907 138.967 145.907 147.512C145.907 158.333 137.151 167.089 126.331 167.089C117.786 167.089 110.521 161.626 107.851 153.982C105.394 159.78 104.134 166.015 104.145 172.312C104.145 198.275 125.184 219.292 151.131 219.292C177.083 219.292 198.115 198.275 198.115 172.312C198.115 146.36 177.076 125.32 151.131 125.32C144.836 125.316 138.605 126.577 132.807 129.028Z" fill="white"/>
</g>
<defs>
<clipPath id="clip0_2023_2822">
<rect width="300" height="300" fill="white"/>
</clipPath>
</defs>
</svg>
