<svg width="300" height="300" viewBox="0 0 300 300" fill="none" xmlns="http://www.w3.org/2000/svg">
<g clip-path="url(#clip0_2023_2410)">
<path d="M76.0722 298.939C58.231 298.128 48.5392 295.159 42.0929 292.644C33.5513 289.318 27.4616 285.36 21.0509 278.958C14.6402 272.556 10.6726 266.467 7.3647 257.925C4.85036 251.479 1.8813 241.787 1.06993 223.946C0.178322 204.66 0 198.874 0 150.013C0 101.153 0.196154 95.3755 1.06102 76.0722C1.87238 58.231 4.85927 48.5571 7.35578 42.0929C10.6815 33.5513 14.6492 27.4616 21.042 21.042C27.4438 14.6402 33.5334 10.6637 42.084 7.35578C48.5303 4.84144 58.2221 1.87238 76.0632 1.06102C95.3577 0.178322 101.153 0 149.996 0C198.856 0 204.633 0.196154 223.937 1.06102C241.778 1.87238 251.452 4.85927 257.916 7.35578C266.458 10.6637 272.547 14.6402 278.958 21.042C285.369 27.4438 289.318 33.5424 292.644 42.084C295.159 48.5303 298.128 58.2221 298.939 76.0632C299.822 95.3666 300 101.144 300 150.004C300 198.847 299.822 204.642 298.939 223.946C298.128 241.787 295.141 251.479 292.644 257.925C289.318 266.467 285.36 272.556 278.958 278.958C272.556 285.36 266.458 289.318 257.916 292.644C251.47 295.159 241.778 298.128 223.937 298.939C204.651 299.822 198.856 300 149.996 300C101.153 300 95.3577 299.831 76.0722 298.939Z" fill="url(#paint0_radial_2023_2410)"/>
<path d="M76.0722 298.939C58.231 298.128 48.5392 295.159 42.0929 292.644C33.5513 289.318 27.4616 285.36 21.0509 278.958C14.6402 272.556 10.6726 266.467 7.3647 257.925C4.85036 251.479 1.8813 241.787 1.06993 223.946C0.178322 204.66 0 198.874 0 150.013C0 101.153 0.196154 95.3755 1.06102 76.0722C1.87238 58.231 4.85927 48.5571 7.35578 42.0929C10.6815 33.5513 14.6492 27.4616 21.042 21.042C27.4438 14.6402 33.5334 10.6637 42.084 7.35578C48.5303 4.84144 58.2221 1.87238 76.0632 1.06102C95.3577 0.178322 101.153 0 149.996 0C198.856 0 204.633 0.196154 223.937 1.06102C241.778 1.87238 251.452 4.85927 257.916 7.35578C266.458 10.6637 272.547 14.6402 278.958 21.042C285.369 27.4438 289.318 33.5424 292.644 42.084C295.159 48.5303 298.128 58.2221 298.939 76.0632C299.822 95.3666 300 101.144 300 150.004C300 198.847 299.822 204.642 298.939 223.946C298.128 241.787 295.141 251.479 292.644 257.925C289.318 266.467 285.36 272.556 278.958 278.958C272.556 285.36 266.458 289.318 257.916 292.644C251.47 295.159 241.778 298.128 223.937 298.939C204.651 299.822 198.856 300 149.996 300C101.153 300 95.3577 299.831 76.0722 298.939Z" fill="url(#paint1_radial_2023_2410)"/>
<path d="M113.168 150.64C113.168 130.123 129.796 113.486 150.313 113.486C170.829 113.486 187.466 130.123 187.466 150.64C187.466 171.157 170.829 187.793 150.313 187.793C129.796 187.793 113.168 171.157 113.168 150.64ZM93.0837 150.64C93.0837 182.247 118.705 207.869 150.313 207.869C181.92 207.869 207.541 182.247 207.541 150.64C207.541 119.032 181.92 93.4108 150.313 93.4108C118.705 93.4108 93.0846 119.03 93.0846 150.64M196.434 91.1417C196.433 93.7869 197.216 96.3729 198.685 98.5729C200.153 100.773 202.242 102.488 204.685 103.501C207.128 104.514 209.817 104.78 212.412 104.265C215.006 103.75 217.39 102.477 219.261 100.608C221.132 98.7381 222.407 96.3556 222.924 93.7615C223.441 91.1673 223.177 88.4781 222.166 86.0339C221.155 83.5897 219.441 81.5003 217.243 80.0298C215.044 78.5594 212.458 77.774 209.813 77.7729H209.808C206.262 77.7746 202.862 79.1834 200.355 81.69C197.847 84.1967 196.437 87.5961 196.434 91.1417ZM105.286 241.359C94.4202 240.864 88.5142 239.054 84.5893 237.525C79.3859 235.5 75.6732 233.087 71.7698 229.189C67.8663 225.291 65.45 221.582 63.4332 216.378C61.9032 212.455 60.0932 206.547 59.5993 195.681C59.059 183.933 58.9511 180.404 58.9511 150.642C58.9511 120.879 59.0679 117.359 59.5993 105.602C60.0941 94.7358 61.9175 88.8396 63.4332 84.9049C65.4589 79.7014 67.8716 75.9888 71.7698 72.0853C75.6679 68.1818 79.377 65.7656 84.5893 63.7488C88.5124 62.2188 94.4202 60.4088 105.286 59.9148C117.034 59.3745 120.563 59.2666 150.313 59.2666C180.062 59.2666 183.595 59.3817 195.352 59.9166C206.218 60.4115 212.115 62.2348 216.049 63.7505C221.253 65.7674 224.965 68.189 228.869 72.0871C232.772 75.9852 235.18 79.7032 237.205 84.9067C238.735 88.8298 240.545 94.7376 241.039 105.604C241.58 117.361 241.687 120.88 241.687 150.643C241.687 180.406 241.58 183.925 241.039 195.683C240.544 206.549 238.725 212.455 237.205 216.38C235.18 221.583 232.767 225.296 228.869 229.191C224.971 233.085 221.253 235.501 216.049 237.527C212.126 239.057 206.218 240.867 195.352 241.361C183.604 241.901 180.075 242.009 150.313 242.009C120.55 242.009 117.031 241.901 105.286 241.361M104.363 39.8634C92.4988 40.4037 84.3914 42.285 77.3111 45.0401C69.983 47.8852 63.7711 51.7022 57.5682 57.8953C51.3653 64.0885 47.5581 70.3012 44.713 77.6383C41.9579 84.723 40.0766 92.8259 39.5363 104.691C38.987 116.574 38.8613 120.373 38.8613 150.64C38.8613 180.906 38.987 184.705 39.5363 196.589C40.0766 208.454 41.9579 216.556 44.713 223.641C47.5581 230.969 51.3662 237.194 57.5682 243.384C63.7702 249.575 69.9741 253.386 77.3111 256.239C84.4048 258.994 92.4988 260.876 104.363 261.416C116.253 261.956 120.046 262.091 150.313 262.091C180.579 262.091 184.378 261.965 196.262 261.416C208.127 260.876 216.229 258.994 223.314 256.239C230.642 253.386 236.854 249.577 243.057 243.384C249.26 237.191 253.059 230.969 255.912 223.641C258.667 216.556 260.557 208.453 261.089 196.589C261.629 184.697 261.755 180.906 261.755 150.64C261.755 120.373 261.629 116.574 261.089 104.691C260.549 92.8251 258.667 84.7185 255.912 77.6383C253.059 70.3101 249.25 64.0983 243.057 57.8953C236.864 51.6924 230.642 47.8852 223.323 45.0401C216.229 42.285 208.126 40.3948 196.271 39.8634C184.385 39.3204 180.588 39.1885 150.326 39.1885C120.064 39.1885 116.258 39.3142 104.368 39.8634" fill="white"/>
</g>
<defs>
<radialGradient id="paint0_radial_2023_2410" cx="0" cy="0" r="1" gradientUnits="userSpaceOnUse" gradientTransform="translate(19.4157 293.428) scale(380.889)">
<stop offset="0.09" stop-color="#FA8F21"/>
<stop offset="0.78" stop-color="#D82D7E"/>
</radialGradient>
<radialGradient id="paint1_radial_2023_2410" cx="0" cy="0" r="1" gradientUnits="userSpaceOnUse" gradientTransform="translate(207.799 283.795) scale(335.186)">
<stop offset="0.64" stop-color="#8C3AAA" stop-opacity="0"/>
<stop offset="1" stop-color="#8C3AAA"/>
</radialGradient>
<clipPath id="clip0_2023_2410">
<rect width="300" height="300" fill="white"/>
</clipPath>
</defs>
</svg>
