<svg width="300" height="300" viewBox="0 0 300 300" fill="none" xmlns="http://www.w3.org/2000/svg">
<g clip-path="url(#clip0_2033_331)">
<path d="M260 164.939C259.972 167.573 258.906 170.088 257.033 171.941C255.161 173.793 252.634 174.832 250 174.832C247.367 174.832 244.839 173.793 242.967 171.941C241.095 170.088 240.029 167.573 240 164.939V75C240.029 72.3665 241.095 69.8506 242.967 67.9985C244.839 66.1463 247.367 65.1075 250 65.1075C252.634 65.1075 255.161 66.1463 257.033 67.9985C258.906 69.8506 259.972 72.3665 260 75V164.939ZM256.511 227.532C254.965 228.855 217.921 259.941 150 259.941C82.0805 259.941 45.0375 228.854 43.4918 227.531C41.4785 225.805 40.2333 223.349 40.03 220.705C39.8267 218.061 40.682 215.444 42.4078 213.43C44.1299 211.419 46.5792 210.174 49.2184 209.967C51.8576 209.76 54.4711 210.609 56.4855 212.326C57.0727 212.818 90.1524 239.939 150.001 239.939C210.601 239.939 243.169 212.623 243.491 212.347C247.676 208.753 254 209.236 257.592 213.431C259.319 215.445 260.174 218.061 259.972 220.706C259.769 223.35 258.524 225.806 256.511 227.532ZM39.9996 75C40.0281 72.3665 41.0943 69.8506 42.9666 67.9985C44.8389 66.1463 47.3662 65.1075 49.9998 65.1075C52.6334 65.1075 55.1607 66.1463 57.033 67.9985C58.9054 69.8506 59.9715 72.3665 60 75V164.939C59.9715 167.573 58.9054 170.088 57.033 171.941C55.1607 173.793 52.6334 174.832 49.9998 174.832C47.3662 174.832 44.8389 173.793 42.9666 171.941C41.0943 170.088 40.0281 167.573 39.9996 164.939V75ZM90.0012 54.9996C90.0414 52.3741 91.1126 49.8697 92.9835 48.0272C94.8544 46.1847 97.3749 45.1519 100.001 45.1519C102.627 45.1519 105.147 46.1847 107.018 48.0272C108.889 49.8697 109.96 52.3741 110 54.9996V188.595C109.96 191.22 108.889 193.724 107.018 195.567C105.147 197.409 102.627 198.442 100.001 198.442C97.3749 198.442 94.8544 197.409 92.9835 195.567C91.1126 193.724 90.0414 191.22 90.0012 188.595V54.9996ZM140 49.9395C140 48.6262 140.259 47.3259 140.761 46.1126C141.264 44.8993 142 43.7969 142.929 42.8683C143.857 41.9397 144.96 41.2032 146.173 40.7007C147.386 40.1982 148.687 39.9397 150 39.9398C151.313 39.9395 152.614 40.198 153.827 40.7004C155.041 41.2028 156.143 41.9393 157.072 42.8679C158.001 43.7965 158.737 44.899 159.24 46.1123C159.742 47.3257 160.001 48.6261 160.001 49.9395V194.939C159.972 197.573 158.906 200.088 157.034 201.941C155.162 203.793 152.634 204.832 150.001 204.832C147.367 204.832 144.84 203.793 142.967 201.941C141.095 200.088 140.029 197.573 140 194.939V49.9395ZM190.001 54.9996C190.041 52.3741 191.112 49.8697 192.983 48.0272C194.854 46.1847 197.375 45.1519 200 45.1519C202.626 45.1519 205.147 46.1847 207.018 48.0272C208.889 49.8697 209.96 52.3741 210 54.9996V188.595C209.96 191.22 208.889 193.724 207.018 195.567C205.147 197.409 202.626 198.442 200 198.442C197.375 198.442 194.854 197.409 192.983 195.567C191.112 193.724 190.041 191.22 190.001 188.595V54.9996ZM262.5 0H37.5C16.7895 0 0 16.7895 0 37.5V262.5C0 283.209 16.7895 300 37.5 300H262.5C283.211 300 300 283.209 300 262.5V37.5C300 16.7895 283.211 0 262.5 0Z" fill="white"/>
</g>
<defs>
<clipPath id="clip0_2033_331">
<rect width="300" height="300" fill="white"/>
</clipPath>
</defs>
</svg>
