<svg width="300" height="300" viewBox="0 0 300 300" fill="none" xmlns="http://www.w3.org/2000/svg">
<g clip-path="url(#clip0_2023_2541)">
<path d="M300 276.562C300 289.507 289.507 300 276.562 300H23.4375C10.493 300 0 289.507 0 276.562V23.4375C0 10.493 10.493 0 23.4375 0H276.562C289.507 0 300 10.493 300 23.4375V276.562Z" fill="#FFE812"/>
<path d="M150 42.1875C82.6898 42.1875 28.125 85.2105 28.125 138.281C28.125 172.593 50.9367 202.699 85.2516 219.7C83.3848 226.138 73.2551 261.118 72.852 263.866C72.852 263.866 72.6094 265.931 73.9465 266.719C75.2836 267.506 76.8563 266.895 76.8563 266.895C80.6906 266.359 121.321 237.819 128.353 232.863C135.379 233.858 142.613 234.375 150 234.375C217.31 234.375 271.875 191.353 271.875 138.281C271.875 85.2105 217.31 42.1875 150 42.1875Z" fill="black"/>
<path d="M82.6172 171.826C78.7395 171.826 75.5859 168.814 75.5859 165.111V123.34H64.6148C60.8098 123.34 57.7148 120.251 57.7148 116.455C57.7148 112.659 60.8109 109.57 64.6148 109.57H100.62C104.425 109.57 107.52 112.659 107.52 116.455C107.52 120.251 104.423 123.34 100.62 123.34H89.6484V165.111C89.6484 168.814 86.4949 171.826 82.6172 171.826ZM144.272 171.735C141.34 171.735 139.097 170.544 138.421 168.629L134.939 159.514L113.498 159.513L110.014 168.634C109.341 170.545 107.099 171.735 104.167 171.735C102.625 171.736 101.1 171.405 99.6973 170.764C97.759 169.87 95.8957 167.412 98.0309 160.78L114.85 116.511C116.034 113.145 119.633 109.676 124.213 109.571C128.805 109.675 132.404 113.145 133.591 116.518L150.403 160.767C152.543 167.414 150.68 169.874 148.741 170.766C147.338 171.405 145.814 171.736 144.272 171.735ZM131.242 147.06L124.219 127.109L117.196 147.06H131.242ZM161.719 170.801C158.003 170.801 154.98 167.909 154.98 164.355V116.602C154.98 112.724 158.201 109.57 162.158 109.57C166.116 109.57 169.336 112.724 169.336 116.602V157.91H184.277C187.993 157.91 191.016 160.802 191.016 164.355C191.016 167.909 187.993 170.801 184.277 170.801H161.719ZM200.782 171.735C196.904 171.735 193.751 168.581 193.751 164.704V116.602C193.751 112.724 196.904 109.57 200.782 109.57C204.66 109.57 207.813 112.724 207.813 116.602V131.714L227.43 112.097C228.439 111.088 229.826 110.532 231.33 110.532C233.086 110.532 234.848 111.289 236.169 112.609C237.401 113.839 238.136 115.423 238.236 117.067C238.338 118.725 237.786 120.245 236.685 121.348L220.662 137.368L237.969 160.297C238.528 161.033 238.935 161.872 239.167 162.766C239.399 163.661 239.45 164.592 239.319 165.506C239.194 166.421 238.888 167.302 238.42 168.098C237.952 168.894 237.33 169.589 236.591 170.143C235.375 171.068 233.889 171.566 232.362 171.562C231.272 171.568 230.197 171.317 229.221 170.832C228.246 170.347 227.398 169.64 226.745 168.768L210.255 146.919L207.816 149.359V164.7C207.813 166.565 207.072 168.353 205.753 169.672C204.435 170.99 202.647 171.732 200.782 171.735Z" fill="#FFE812"/>
</g>
<defs>
<clipPath id="clip0_2023_2541">
<rect width="300" height="300" fill="white"/>
</clipPath>
</defs>
</svg>
