<svg width="300" height="300" viewBox="0 0 300 300" fill="none" xmlns="http://www.w3.org/2000/svg">
<g clip-path="url(#clip0_2022_730)">
<path d="M0 21.4898C0 9.62812 9.93047 0 22.1719 0H277.828C290.074 0 300 9.62812 300 21.4898V278.514C300 290.379 290.074 300 277.828 300H22.1719C9.93164 300 0 290.38 0 278.517V21.4863V21.4898Z" fill="#006699"/>
<path d="M91.1672 251.061V116H46.275V251.061H91.1719H91.1672ZM68.7305 97.5625C84.382 97.5625 94.1262 87.1914 94.1262 74.2305C93.8332 60.9742 84.382 50.8926 69.0281 50.8926C53.6637 50.8926 43.6289 60.9742 43.6289 74.2293C43.6289 87.1902 53.3695 97.5613 68.4363 97.5613H68.727L68.7305 97.5625ZM116.016 251.061H160.904V175.645C160.904 171.613 161.197 167.571 162.383 164.692C165.627 156.624 173.013 148.272 185.418 148.272C201.657 148.272 208.158 160.656 208.158 178.814V251.061H253.045V173.621C253.045 132.138 230.902 112.833 201.367 112.833C177.152 112.833 166.518 126.367 160.609 135.585H160.908V116.004H116.018C116.604 128.675 116.014 251.065 116.014 251.065L116.016 251.061Z" fill="white"/>
</g>
<defs>
<clipPath id="clip0_2022_730">
<rect width="300" height="300" fill="white"/>
</clipPath>
</defs>
</svg>
