<svg width="300" height="300" viewBox="0 0 300 300" fill="none" xmlns="http://www.w3.org/2000/svg">
<g clip-path="url(#clip0_2023_2795)">
<path d="M298.113 186.375C295.113 223.125 263.988 251.625 226.863 251.25H187.488L112.488 300V251.25L187.488 202.5H226.863C238.488 202.875 248.238 194.25 249.738 182.625C251.988 145.125 251.988 107.625 248.988 70.125C248.238 59.625 239.613 51.75 229.488 51C203.988 49.875 176.988 48.75 149.988 48.75C122.988 48.75 95.9878 49.5 70.4878 51.375C59.9878 52.125 51.7378 60 50.9878 70.5C48.3628 108 47.9878 145.5 50.2378 183C51.3628 194.625 61.4878 202.875 73.1128 202.5H112.488V251.25H73.1128C55.2245 251.485 37.9147 244.916 24.6867 232.872C11.4586 220.827 3.30035 204.207 1.86284 186.375C-0.762156 146.25 -0.387156 106.5 2.61284 66.375C3.98651 49.7359 11.2935 34.1444 23.2019 22.4425C35.1104 10.7406 50.8273 3.70742 67.4878 2.625C93.7378 0.75 121.863 0 149.988 0C178.113 0 206.238 0.75 232.863 3C249.523 4.08242 265.24 11.1156 277.149 22.8175C289.057 34.5194 296.364 50.1109 297.738 66.75C300.363 106.5 300.738 146.625 298.113 186.375Z" fill="white"/>
</g>
<defs>
<clipPath id="clip0_2023_2795">
<rect width="300" height="300" fill="white"/>
</clipPath>
</defs>
</svg>
