<svg width="300" height="300" viewBox="0 0 300 300" fill="none" xmlns="http://www.w3.org/2000/svg">
<g clip-path="url(#clip0_2025_3061)">
<path fill-rule="evenodd" clip-rule="evenodd" d="M16.4204 256.98L11.8809 264.36H288.241L283.986 256.98H16.4204ZM26.3528 239.958L22.0977 247.334H278.024L273.484 239.958H26.3528ZM36.5667 222.929L32.5932 230.309H267.813L263.271 222.929H36.5667ZM47.0651 205.904L42.81 213.28H257.596L253.059 205.904H47.0651ZM57.5635 188.878L53.024 196.255H247.382L242.558 188.878H57.5635ZM67.7803 171.85L63.2379 179.229H154.885L158.858 171.85H67.7803ZM77.9914 154.821L73.7363 162.201H164.812L169.641 154.821H77.9914ZM88.2082 137.799L83.9503 145.175H175.313L179.849 137.799H88.2082ZM98.7038 120.77L94.4487 128.149H185.53L189.785 120.77H98.7038ZM108.918 103.745L104.663 111.121H196.028L191.201 103.745H108.918ZM119.135 86.7192L114.877 94.0955H185.53L181.272 86.7192H119.135ZM129.633 69.6908L125.378 77.0699H175.028L170.489 69.6908H129.633ZM139.844 52.6652L135.307 60.0444H164.812L160.275 52.6652H139.844ZM150.061 35.6396L145.806 43.016H154.6L150.061 35.6396Z" fill="white"/>
</g>
<defs>
<clipPath id="clip0_2025_3061">
<rect width="300" height="300" fill="white"/>
</clipPath>
</defs>
</svg>
