<svg width="300" height="300" viewBox="0 0 300 300" fill="none" xmlns="http://www.w3.org/2000/svg">
<path fill-rule="evenodd" clip-rule="evenodd" d="M89.0332 52.1094H219.308V219.193H89.0332V52.1094Z" fill="white"/>
<path fill-rule="evenodd" clip-rule="evenodd" d="M118.875 192.079L129.858 129.366C124.367 125.11 120.346 119.241 118.361 112.583C116.376 105.926 116.526 98.8135 118.79 92.2454C121.055 85.6771 125.32 79.9834 130.986 75.9637C136.653 71.9439 143.436 69.8001 150.383 69.8333V0.227539H65.5538C56.8358 0.227539 48.4748 3.69079 42.3102 9.85536C36.1456 16.02 32.6823 24.381 32.6823 33.0991V194.275C32.6569 197.316 33.3307 200.322 34.6516 203.061C41.7713 217.452 69.8711 263.654 150.308 299.176V194.654C139.776 194.697 129.259 193.836 118.875 192.079Z" fill="#E21D3E"/>
<path fill-rule="evenodd" clip-rule="evenodd" d="M234.985 8.80828e-05H150.307V69.6059C157.223 69.5701 163.98 71.6925 169.634 75.6773C175.288 79.6622 179.558 85.3112 181.85 91.8372C184.142 98.3637 184.342 105.442 182.422 112.088C180.501 118.733 176.555 124.613 171.135 128.911L182.118 191.927C171.613 193.757 160.969 194.669 150.307 194.654V299.025C230.668 263.654 258.843 217.301 265.963 202.91C267.284 200.171 267.958 197.165 267.932 194.124V33.0231C267.952 28.6873 267.114 24.3903 265.467 20.3796C263.819 16.369 261.393 12.724 258.331 9.65451C255.269 6.58508 251.63 4.15181 247.623 2.49486C243.615 0.837922 239.321 -0.00994908 234.985 8.80828e-05Z" fill="#B51E23"/>
</svg>
