<svg width="300" height="300" viewBox="0 0 300 300" fill="none" xmlns="http://www.w3.org/2000/svg">
<g clip-path="url(#clip0_2022_734)">
<path fill-rule="evenodd" clip-rule="evenodd" d="M277.724 189.9C281.999 189.9 288.749 194.85 288.749 206.85C288.749 218.7 283.874 232.2 282.749 235.125C264.899 277.725 222.749 301.5 172.499 300C125.699 298.575 85.7242 273.75 68.2492 233.25C57.2047 232.958 46.6349 228.698 38.4742 221.25C30.049 214.033 24.6419 203.915 23.3242 192.9C22.4801 185.311 23.4307 177.63 26.0992 170.475L16.2742 162.15C-28.7258 123.9 111.899 -33.1497 156.749 6.30034L172.049 21.3753L180.449 17.8503C219.899 1.35034 251.849 9.30034 251.924 35.5503C251.924 49.1253 243.299 65.0253 229.424 79.4253C234.449 84.0753 238.424 91.4253 240.824 99.6753C242.699 105.9 243.074 112.2 243.224 116.175L243.749 134.925L249.299 136.425C259.949 139.425 267.449 143.4 271.124 147.3C274.874 151.2 276.599 154.95 277.274 159.3C278.151 165.272 276.672 171.35 273.149 176.25C273.149 176.25 274.349 178.875 275.549 182.625L277.649 189.9H277.724ZM278.249 210.825C279.374 203.7 277.799 201 275.624 199.65C273.374 198.225 270.674 198.75 270.674 198.75C270.674 198.75 269.399 190.275 265.949 182.55C255.764 190.243 244.246 195.989 231.974 199.5C220.274 202.875 204.374 205.5 186.674 204.375C176.849 203.625 170.324 200.7 167.924 208.725C190.349 216.975 214.124 213.45 214.124 213.45C214.574 213.45 214.949 213.75 215.024 214.2C215.024 214.575 214.874 214.95 214.499 215.1C214.499 215.1 196.274 223.575 167.249 214.575C167.999 221.4 174.674 224.475 177.824 225.75C181.799 227.25 186.224 228 186.224 228C222.149 234.225 255.749 213.6 263.324 208.35C263.849 207.975 264.224 208.35 263.774 209.1L263.024 210.075C253.799 222.075 228.899 236.025 196.499 236.025C182.399 236.025 168.299 231 163.124 223.275C155.024 211.425 162.674 194.025 176.099 195.825L181.949 196.5C202.78 198.498 223.775 195.115 242.924 186.675C261.224 178.125 268.124 168.675 267.074 161.175C266.731 158.812 265.625 156.626 263.924 154.95C258.939 150.825 253.015 147.991 246.674 146.7C243.749 145.95 241.799 145.35 239.699 144.675C235.949 143.4 233.999 142.425 233.624 135.3L232.649 116.775C232.349 108.9 231.374 98.1753 224.774 93.7503C223.082 92.6139 221.11 91.9652 219.074 91.8753C217.124 91.8753 216.074 92.1753 215.699 92.2503C211.949 92.8503 209.699 94.8753 206.849 97.2753C203.752 100.081 200.107 102.216 196.145 103.546C192.182 104.875 187.987 105.37 183.824 105C179.174 104.775 174.224 104.025 168.599 103.725L165.299 103.5C152.324 102.9 138.299 114.15 136.049 130.2C132.749 152.55 148.799 164.1 153.524 170.925C154.124 171.675 154.799 172.875 154.799 173.925C154.799 175.2 153.974 176.25 153.149 177.15C145.958 185.214 141.186 195.142 139.382 205.795C137.578 216.448 138.814 227.393 142.949 237.375C154.724 264.975 191.174 277.875 226.799 266.175C231.524 264.6 236.024 262.65 240.299 260.4C248.324 256.5 255.299 251.1 260.999 244.875C270.185 235.621 276.221 223.706 278.249 210.825ZM218.999 141.825C217.022 138.944 215.692 135.669 215.099 132.225C213.599 125.025 213.749 119.85 217.874 119.175C222.074 118.5 224.024 122.85 225.524 129.975C226.574 134.775 226.349 139.2 225.224 141.75C223.183 141.487 221.116 141.487 219.074 141.75L218.999 141.825ZM183.449 147.45C180.449 146.1 176.624 144.675 171.974 144.9C165.374 145.35 159.599 148.275 157.949 148.05C157.274 147.975 156.974 147.675 156.899 147.3C156.599 146.025 158.549 144 160.499 142.575C166.499 138.225 174.299 137.25 180.899 140.1C184.049 141.45 187.049 143.85 188.549 146.325C189.299 147.45 189.374 148.35 188.924 148.8C188.174 149.55 186.374 148.725 183.449 147.45ZM177.449 150.825C182.774 150.225 186.674 152.7 187.574 154.2C187.949 154.8 187.799 155.25 187.724 155.4C187.274 156.15 186.374 156 184.424 155.775C180.234 155.116 175.944 155.556 171.974 157.05C171.974 157.05 170.024 157.8 169.124 157.8C168.885 157.8 168.657 157.706 168.488 157.537C168.319 157.368 168.224 157.139 168.224 156.9C168.224 156.15 168.974 154.95 170.099 153.9C171.449 152.7 173.549 151.425 177.449 150.9V150.825ZM206.999 163.425C204.374 162.15 203.024 159.525 203.999 157.575C204.899 155.625 207.749 155.175 210.449 156.45C213.074 157.725 214.424 160.35 213.449 162.3C212.549 164.175 209.699 164.7 206.999 163.425ZM223.874 148.575C226.049 148.575 227.699 151.05 227.624 153.975C227.624 156.975 225.899 159.225 223.724 159.225C221.624 159.225 219.974 156.825 219.974 153.825C219.974 150.9 221.774 148.575 223.874 148.575ZM113.099 84.2253C112.649 84.6753 113.249 85.3503 113.774 84.9753C126.629 75.945 141.223 69.688 156.626 66.6021C172.03 63.5162 187.908 63.6688 203.249 67.0503C203.774 67.2003 204.149 66.2253 203.624 65.9253C196.124 61.6503 184.574 58.8003 176.399 58.7253C175.949 58.7253 175.724 58.2753 176.024 57.9753C177.449 56.0253 179.324 54.1503 181.124 52.7253C181.499 52.4253 181.274 51.8253 180.749 51.8253C169.124 52.5753 155.849 58.1253 148.199 63.3753C147.824 63.6753 147.299 63.3753 147.449 62.8503C147.974 60.0003 149.849 56.1753 150.824 54.3753C151.124 54.0003 150.599 53.5503 150.224 53.7753C136.098 61.5802 123.517 71.8995 113.099 84.2253ZM55.1992 145.725C68.0242 111.15 89.4742 79.2003 117.824 57.2253C138.899 39.6003 161.624 26.9253 161.624 26.9253C161.624 26.9253 149.399 12.6753 145.724 11.6253C122.999 5.47534 73.8742 39.4503 42.5242 84.3753C29.8492 102.6 11.7742 134.85 20.3992 151.425C21.4492 153.45 27.5242 158.7 30.7492 161.475C36.5358 153.24 45.3084 147.589 55.1992 145.725ZM72.1492 221.775C88.5742 219 92.8492 201.075 90.1492 183.525C87.1492 163.575 73.6492 156.525 64.6492 156.075C62.0992 155.925 59.7742 156.15 57.8992 156.525C41.6242 159.825 32.4742 173.7 34.2742 191.775C35.9242 207.975 52.2742 221.775 67.4992 222.15C68.9992 222.15 70.5742 222.075 72.1492 221.775ZM78.3742 201.375C79.1242 201.15 80.0242 200.925 80.6242 201.6C80.7742 201.825 81.0742 202.35 80.6992 203.175C80.0992 204.6 77.6992 206.475 74.3242 206.4C70.7992 206.1 66.8242 203.55 66.3742 197.175C66.0742 194.025 67.2742 190.125 68.0242 188.175C68.6243 186.741 68.8144 185.168 68.5733 183.631C68.3322 182.095 67.6694 180.656 66.6586 179.474C65.6478 178.292 64.3288 177.414 62.8484 176.938C61.3681 176.461 59.7845 176.405 58.2742 176.775C56.0242 177.3 54.2242 178.575 53.0242 180.525C52.0244 182.157 51.2665 183.926 50.7742 185.775C50.0242 187.8 48.8992 188.4 48.0742 188.25C47.6992 188.25 47.1742 187.95 46.7992 187.05C45.8992 184.5 46.6492 177.375 51.3742 172.2C52.9074 170.532 54.8163 169.254 56.9424 168.472C59.0684 167.689 61.3505 167.425 63.5992 167.7C68.3242 168.375 72.2992 171.225 74.6992 175.875C77.9242 182.025 75.0742 188.475 73.3492 192.375L72.8992 193.5C71.7742 196.05 71.6992 198.3 72.6742 199.8C73.4242 200.925 74.7742 201.6 76.3492 201.6C77.0992 201.6 77.7742 201.45 78.3742 201.375Z" fill="white"/>
</g>
<defs>
<clipPath id="clip0_2022_734">
<rect width="300" height="300" fill="white"/>
</clipPath>
</defs>
</svg>
