<svg width="300" height="300" viewBox="0 0 300 300" fill="none" xmlns="http://www.w3.org/2000/svg">
<g clip-path="url(#clip0_2022_743)">
<path d="M289.633 66.417C285.296 34.1835 257.203 8.78108 223.9 3.85876C218.281 3.02702 196.993 0 147.679 0H147.311C97.9838 0 87.4014 3.02702 81.7826 3.85876C49.4069 8.64471 19.8406 31.4701 12.6672 64.0853C9.21685 80.1478 8.84864 97.9553 9.48961 114.291C10.4033 137.716 10.5806 161.1 12.7081 184.43C14.1788 199.927 16.7446 215.3 20.386 230.435C27.2048 258.387 54.8073 281.649 81.8506 291.139C110.804 301.036 141.942 302.679 171.777 295.884C175.059 295.121 178.3 294.234 181.501 293.225C188.756 290.921 197.252 288.344 203.498 283.817C203.584 283.753 203.654 283.671 203.703 283.577C203.753 283.483 203.781 283.378 203.784 283.271V260.664C203.783 260.565 203.759 260.467 203.715 260.378C203.67 260.288 203.607 260.21 203.528 260.149C203.45 260.087 203.359 260.044 203.261 260.023C203.164 260.001 203.063 260.001 202.966 260.024C183.851 264.589 164.264 266.877 144.611 266.841C110.79 266.841 101.694 250.792 99.0884 244.111C96.9949 238.337 95.6654 232.314 95.1338 226.195C95.1281 226.092 95.1471 225.989 95.1888 225.895C95.2302 225.801 95.2936 225.718 95.3734 225.653C95.4531 225.588 95.5469 225.543 95.6476 225.521C95.7482 225.499 95.8522 225.501 95.9521 225.526C114.748 230.061 134.017 232.349 153.353 232.344C158.003 232.344 162.64 232.344 167.29 232.221C186.737 231.676 207.235 230.681 226.368 226.945C226.846 226.849 227.323 226.767 227.732 226.645C257.912 220.849 286.633 202.66 289.551 156.6C289.66 154.787 289.933 137.607 289.933 135.725C289.947 129.33 291.992 90.3604 289.633 66.417Z" fill="url(#paint0_linear_2022_743)"/>
<path d="M241.819 102.631V182.711H210.085V104.99C210.085 88.6282 203.266 80.2833 189.397 80.2833C174.15 80.2833 166.513 90.1552 166.513 109.654V152.196H134.969V109.654C134.969 90.1552 127.319 80.2833 112.072 80.2833C98.2839 80.2833 91.3968 88.6282 91.3968 104.99V182.711H59.6758V102.631C59.6758 86.2692 63.8534 73.2705 72.2089 63.6348C80.8277 54.0219 92.1335 49.0859 106.166 49.0859C122.409 49.0859 134.683 55.3309 142.865 67.8071L150.761 81.0606L158.671 67.8071C166.854 55.3309 179.127 49.0859 195.343 49.0859C209.362 49.0859 220.668 54.0219 229.314 63.6348C237.66 73.2614 241.829 86.2601 241.819 102.631Z" fill="white"/>
</g>
<defs>
<linearGradient id="paint0_linear_2022_743" x1="150" y1="0" x2="150" y2="300" gradientUnits="userSpaceOnUse">
<stop stop-color="#6364FF"/>
<stop offset="1" stop-color="#563ACC"/>
</linearGradient>
<clipPath id="clip0_2022_743">
<rect width="300" height="300" fill="white"/>
</clipPath>
</defs>
</svg>
