<svg width="300" height="300" viewBox="0 0 300 300" fill="none" xmlns="http://www.w3.org/2000/svg">
<path d="M87.2182 1.58885L73.2477 15.5593L117.948 59.8707V97.3911L113.359 101.577L50.0864 38.7138L36.5182 52.282L99.3886 115.548L95.5977 119.741H58.4727L13.7727 75.0275L0 88.8002L50.4886 139.296H137.523V51.4911L87.2182 1.58203V1.58885ZM209.114 1.58885L223.091 15.5593L178.391 59.8707V97.3911L182.98 101.577L246.245 38.7138L259.814 52.282L196.95 115.548L200.741 119.741H237.859L282.559 75.0275L296.332 88.8002L245.843 139.296H158.823V51.4911L209.114 1.58203V1.58885ZM87.2182 298.412L73.2477 284.441L117.948 240.13V202.609L113.359 198.423L50.0864 261.287L36.5182 247.718L99.3886 184.452L95.5977 180.259H58.4727L13.7727 224.973L0 211.2L50.4886 160.705H137.523V248.509L87.225 298.418L87.2182 298.412ZM209.114 298.412L223.091 284.441L178.391 240.13V202.609L182.98 198.423L246.245 261.287L259.814 247.718L196.95 184.452L200.741 180.259H237.859L282.559 224.973L296.332 211.2L245.843 160.705H158.823V248.509L209.12 298.418L209.114 298.412Z" fill="white"/>
</svg>
