<svg width="300" height="300" viewBox="0 0 300 300" fill="none" xmlns="http://www.w3.org/2000/svg">
<path d="M84.6104 64.4531C131.34 64.4531 169.218 102.596 169.218 149.644C169.218 196.693 131.337 234.832 84.6104 234.832C37.8841 234.832 0 196.693 0 149.644C0 102.596 37.8812 64.4531 84.6104 64.4531ZM219.727 69.4434C243.092 69.4434 262.033 105.347 262.033 149.644H262.035C262.035 193.93 243.095 229.845 219.73 229.845C196.366 229.845 177.425 193.93 177.425 149.644C177.425 105.358 196.363 69.4434 219.727 69.4434ZM285.121 77.7969C293.337 77.7969 300 109.964 300 149.644C300 189.313 293.34 221.492 285.121 221.492C276.903 221.492 270.245 189.322 270.245 149.644C270.245 109.966 276.906 77.7969 285.121 77.7969Z" fill="white"/>
</svg>
