<svg width="300" height="300" viewBox="0 0 300 300" fill="none" xmlns="http://www.w3.org/2000/svg">
<path d="M1.38477 100.424H297.148V228.814H1.38477V100.424Z" fill="white"/>
<path d="M12.2615 248.68C8.25714 247.14 3.61553 242.742 1.52981 238.509L0 235.404V64.5963L1.52981 61.4907C3.67764 57.1323 8.24907 52.8571 12.4385 51.2894L15.8851 50H284.115L287.673 51.3311C291.95 52.9317 296.66 57.3646 298.642 61.6559L300 64.5963V235.404L298.641 238.344C296.659 242.635 291.949 247.068 287.673 248.668L284.115 250L149.821 249.967C16.5969 249.935 15.5019 249.925 12.2615 248.68ZM296.584 163.354V103.416H3.41615V223.292H296.584V163.354ZM235.801 214.596C234.607 213.711 232.522 202.299 231.66 191.94C231.24 186.899 231.025 186.204 229.418 184.703C226.865 182.318 227.297 179.193 230.179 179.193C231.265 179.193 231.909 177.091 232.367 172.05C232.979 165.313 235.802 154.763 238.342 149.724C241.406 143.643 249.276 136.957 253.368 136.957C254.71 136.957 258.314 138.129 262.733 140.002C263.725 140.419 264.72 140.828 265.719 141.23C267.97 142.135 270.296 147.119 270.83 152.184C271.305 156.678 270.311 162.658 268.368 167C265.368 173.703 252.63 185.077 246.309 186.697L243.168 187.502L243.186 193.441C243.21 200.808 244.089 207.817 245.43 211.329C245.992 212.799 246.248 214.207 246 214.455C245.496 214.959 236.458 215.084 235.801 214.596ZM249.64 172.326C252.177 169.916 254.963 166.586 255.831 164.927C257.743 161.27 258.806 155.199 258.296 150.854C257.713 145.898 257.168 145.542 254.599 148.442C250.355 153.235 247.806 158.845 245.86 167.67C244.125 175.54 243.949 176.709 244.492 176.709C244.786 176.708 247.103 174.736 249.64 172.326ZM171.246 181.301C170.845 174.971 170.381 169.571 170.214 169.301C170.047 169.03 167.744 168.612 165.097 168.372C159.653 167.879 158.696 167.355 158.696 164.866C158.696 162.081 160.69 161.096 165.36 161.574L169.255 161.973L169.227 159.558C169.212 158.23 168.933 155.047 168.607 152.484C166.217 133.721 165.772 120.408 167.39 116.152C167.887 114.845 168.384 114.596 170.502 114.596C172.937 114.596 178.663 116.964 179.498 118.316C179.715 118.666 180.031 126.568 180.202 135.874C180.601 157.666 180.607 156.204 180.106 158.54C179.721 160.334 179.824 160.559 181.03 160.559C182.145 160.559 182.352 160.255 182.187 158.851C182.018 157.401 182.238 157.114 183.646 156.951C184.96 156.799 186.15 157.565 189.391 160.651C191.639 162.792 193.478 164.873 193.478 165.275C193.478 166.165 191.276 166.662 182.481 167.755L179.868 168.08L180.177 179.77C180.527 193.03 180.889 192.117 175.117 192.565L171.973 192.809L171.246 181.301ZM80.1907 191.253C79.9832 190.714 79.8075 189.805 79.7988 189.235C79.7907 188.665 79.0683 186.522 78.1944 184.472C76.4211 180.316 73.3491 170.594 72.3068 165.839C71.1379 160.508 69.7764 156.104 69.4099 156.471C69.2161 156.664 68.8311 162.345 68.5534 169.094C68.2764 175.844 67.6814 182.624 67.2317 184.162L66.4143 186.957L60.2795 187.524L54.1447 188.091L52.7689 186.366C52.0118 185.417 49.6398 181.733 47.4969 178.18C45.354 174.627 43.5224 171.8 43.4255 171.896C43.3298 171.992 43.6335 174.814 44.1019 178.167C44.5708 181.52 44.8149 184.624 44.6453 185.066C44.1 186.487 37.9559 188.727 34.8472 188.639C31.9795 188.557 31.3677 187.366 30.4484 180.07C28.9093 167.858 28.7398 164.302 29.1913 153.781L29.6373 143.39L32.3745 142.658C36.7783 141.48 41.6733 141.706 43.0174 143.148C43.6435 143.821 46.6466 149.201 49.6901 155.105L55.2242 165.839L56.0081 159.938C57.1888 151.045 61.223 137.655 63.9963 133.423C65.0329 131.84 65.1317 131.822 70.3783 132.225C76.6379 132.706 77.5745 133.327 78.8317 137.828C81.6366 147.868 82.5919 151.898 85.4174 165.61C86.0957 168.901 87.0683 172.779 87.5795 174.229C88.0913 175.678 88.5099 177.38 88.5099 178.009C88.5099 178.639 89.2087 181.295 90.0627 183.911C91.6323 188.721 91.9522 190.295 91.2068 189.55C90.982 189.325 90.4224 189.453 89.9627 189.834C89.2994 190.386 82.7559 192.117 80.9677 192.214C80.7472 192.226 80.3981 191.794 80.1907 191.253ZM105.088 190.933C102.139 190.239 100.857 189.56 96.6745 186.478C91.8652 182.932 91.1012 180.818 91.0174 170.807C90.9317 160.671 91.3143 157.005 93.0205 151.606C94.5851 146.657 97.9919 142.483 103.642 138.594C107.479 135.954 107.825 135.937 115.405 138.014C118.283 138.803 119.2 139.374 119.967 140.858C121.939 144.671 122.587 165.757 120.82 168.616C120.206 169.609 110.812 169.666 106.525 168.704C105.191 168.404 103.947 168.312 103.758 168.5C103.571 168.688 103.424 170.821 103.431 173.24C103.447 178.458 104.777 181.863 107.789 184.397C109.625 185.942 110.165 186.086 112.691 185.709C114.253 185.476 116.248 184.863 117.125 184.346C119.283 183.075 125.016 184.202 126.967 186.279L128.322 187.721L125.032 188.97C118.993 191.262 110.173 192.13 105.088 190.933ZM109.006 155.59C109.006 152.174 108.759 149.379 108.457 149.379C107.816 149.379 105.394 155.122 104.657 158.389C104.211 160.365 104.314 160.707 105.491 161.181C108.853 162.538 109.006 162.295 109.006 155.59ZM144.72 189.949C135.52 188.778 132.212 187.053 128.416 181.45C125.604 177.301 125.449 176.847 125.108 171.778C124.814 167.404 125.009 165.466 126.204 160.87C129.775 147.14 130.989 144.707 137.83 137.585C140.947 134.342 141.716 133.853 143.691 133.865C144.941 133.872 147.181 134.431 148.671 135.107C150.16 135.783 151.714 136.335 152.125 136.335C152.537 136.335 153.521 136.94 154.314 137.678C155.711 138.98 155.742 139.232 155.32 145.895C155.081 149.676 154.631 153.076 154.32 153.45C154.009 153.825 153.68 157.784 153.586 162.248L153.417 170.366L149.917 171.345C146.827 172.211 145.883 172.223 141.853 171.455C136.55 170.445 136.148 170.688 136.541 174.667C136.858 177.868 140.168 183.241 142.598 184.498C146.043 186.279 153.068 185.123 154.793 182.491C155.945 180.735 157.152 180.686 159.784 182.291C162.385 183.878 162.525 186.111 160.094 187.24C154.155 189.999 150.361 190.668 144.72 189.949ZM143.397 163.509C143.603 162.741 143.765 159.037 143.755 155.28C143.74 148.732 143.698 148.522 142.769 150.237C141.575 152.441 138.199 162.093 138.199 163.301C138.199 164.336 139.128 164.79 141.387 164.858C142.581 164.894 143.124 164.53 143.397 163.509ZM201.768 188.839C198.566 186.596 195.898 177.194 194.793 164.255C194.185 157.145 194.274 153.709 195.1 152.373C195.685 151.427 199.018 151.855 202.002 153.261C207.519 155.86 207.352 155.439 207.89 168.184C208.436 181.096 208.768 183.724 209.811 183.375C211.186 182.917 216.242 174.779 217.007 171.79C217.446 170.078 217.716 165.739 217.64 161.604C217.457 151.629 218.126 150.996 225.334 154.332C231.081 156.993 231.123 157.075 230.251 163.982C229.468 170.183 228.647 172.683 226.863 174.31C226.249 174.869 225.102 176.547 224.314 178.037C223.526 179.526 222.509 180.745 222.052 180.745C221.596 180.745 221.107 181.165 220.968 181.677C220.742 182.506 220.786 182.506 221.372 181.677C221.734 181.165 222.031 181.025 222.031 181.366C222.031 182.735 215.957 188.562 213.922 189.145C210.64 190.087 203.285 189.901 201.768 188.839Z" fill="#F00101"/>
<path d="M235.8 214.597C234.637 213.733 232.525 202.099 231.63 191.623C231.228 186.917 230.989 186.172 229.409 184.696C226.855 182.31 227.301 179.194 230.199 179.194C231.317 179.194 231.877 177.579 232.278 173.199C232.995 165.374 235.665 155.037 238.342 149.725C241.405 143.645 249.276 136.958 253.368 136.958C254.71 136.958 258.314 138.13 262.733 140.003C263.725 140.42 264.72 140.829 265.719 141.231C266.927 141.717 267.917 142.933 268.942 145.19C271.644 151.143 271.556 158.55 268.696 166.166C266.166 172.899 252.999 184.983 246.33 186.692L243.167 187.502L243.186 193.441C243.209 200.808 244.089 207.817 245.43 211.329C245.991 212.8 246.248 214.207 245.999 214.456C245.495 214.959 236.457 215.084 235.8 214.597ZM249.639 172.327C252.21 169.885 254.988 166.536 255.915 164.765C257.846 161.071 258.814 155.395 258.287 150.843C257.706 145.815 257.175 145.528 254.358 148.728C250.046 153.626 247.795 158.914 245.358 169.876C244.788 172.438 244.183 175.023 244.013 175.622C243.438 177.645 245.01 176.724 249.639 172.327ZM171.245 181.302C170.845 174.972 170.381 169.571 170.214 169.301C170.047 169.031 167.743 168.613 165.096 168.372C159.652 167.879 158.695 167.355 158.695 164.866C158.695 162.082 160.689 161.096 165.359 161.574L169.254 161.974L169.227 159.559C169.212 158.23 168.932 155.047 168.606 152.485C166.217 133.722 165.771 120.408 167.389 116.152C167.886 114.845 168.383 114.597 170.501 114.597C172.939 114.597 178.663 116.964 179.5 118.32C179.809 118.819 180.328 137.39 180.518 154.659C180.53 155.684 180.344 157.431 180.106 158.541C179.72 160.335 179.824 160.559 181.029 160.559C182.144 160.559 182.351 160.255 182.186 158.851C182.017 157.399 182.236 157.114 183.656 156.95C184.994 156.796 186.164 157.563 189.535 160.803C191.849 163.028 193.538 165.053 193.287 165.304C192.343 166.248 188.092 167.373 185.403 167.39C179.456 167.428 179.827 166.548 180.178 179.802C180.527 193.025 180.887 192.118 175.117 192.566L171.973 192.81L171.245 181.302ZM79.8447 189.286C79.4397 187.664 78.431 184.799 77.6031 182.92C75.9857 179.249 73.8999 172.317 71.7155 163.354C70.9664 160.28 70.1316 157.356 69.8614 156.858C69.1633 155.57 68.7478 159.643 68.3757 171.429C68.203 176.895 67.6906 182.625 67.2378 184.162L66.4136 186.957L60.2788 187.525L54.144 188.092L52.7683 186.366C52.0111 185.417 49.6391 181.733 47.4962 178.181C45.3534 174.628 43.5235 171.798 43.4291 171.892C43.3347 171.986 43.6192 174.69 44.0608 177.901C44.5018 181.112 44.7372 184.222 44.5826 184.812C44.1577 186.435 38.3018 188.736 34.8465 188.639C31.977 188.557 31.3664 187.367 30.4534 180.07C28.8944 167.624 28.7559 164.737 29.2018 154.031L29.6453 143.387L32.3776 142.656C36.7776 141.479 41.6726 141.706 43.0161 143.148C43.6422 143.821 46.6453 149.201 49.6888 155.105L55.2229 165.838L56.0068 159.938C57.1614 151.241 60.6018 139.599 63.5664 134.358L64.731 132.298L70.2155 132.432C74.7279 132.543 75.9167 132.783 76.9223 133.789C78.4807 135.347 81.4235 146.489 85.7527 167.218C86.2676 169.687 87.0987 172.866 87.5999 174.285C88.1006 175.703 88.5099 177.379 88.5099 178.008C88.5099 178.638 89.2086 181.294 90.0627 183.91C91.6322 188.72 91.9521 190.294 91.2068 189.549C90.9819 189.325 90.4223 189.453 89.9627 189.833C89.3006 190.383 82.7645 192.114 80.9745 192.213C80.7583 192.226 80.2496 190.908 79.8447 189.286ZM105.087 190.933C102.138 190.24 100.856 189.561 96.6739 186.478C91.8975 182.957 91.0931 180.779 91.0006 171.118C90.9068 161.235 91.3471 156.933 92.9863 151.718C94.5142 146.861 98.1807 142.324 103.486 138.727C106.689 136.556 106.976 136.481 110.248 136.955C116.085 137.802 118.974 138.962 119.957 140.852C121.89 144.568 122.56 165.796 120.833 168.591C120.217 169.588 109.979 169.625 106.551 168.642C105.412 168.316 104.241 168.197 103.948 168.377C103.656 168.558 103.422 170.717 103.429 173.173C103.445 178.463 104.761 181.851 107.787 184.396C109.623 185.941 110.163 186.086 112.689 185.708C114.251 185.476 116.246 184.862 117.124 184.345C119.281 183.075 125.014 184.201 126.965 186.278L128.32 187.72L125.03 188.969C118.992 191.263 110.173 192.131 105.087 190.933ZM109.124 159.472C109.421 155.877 108.958 149.379 108.404 149.379C107.806 149.379 105.366 155.248 104.657 158.389C104.212 160.366 104.314 160.707 105.491 161.182C108.202 162.276 108.92 161.938 109.124 159.472ZM144.72 189.949C135.519 188.778 132.211 187.054 128.415 181.449C125.566 177.243 125.452 176.9 125.092 171.466C124.837 167.588 124.968 165.163 125.517 163.664C125.955 162.469 126.753 159.468 127.291 156.997C129.207 148.205 131.274 144.41 137.91 137.502C140.947 134.34 141.72 133.853 143.689 133.865C144.94 133.872 147.18 134.431 148.67 135.107C150.159 135.783 151.713 136.336 152.125 136.336C152.535 136.336 153.52 136.94 154.312 137.679C155.709 138.981 155.74 139.232 155.319 145.895C155.079 149.676 154.63 153.077 154.319 153.451C154.008 153.825 153.678 157.785 153.585 162.249L153.416 170.367L149.916 171.346C146.826 172.211 145.882 172.223 141.851 171.455C136.801 170.493 136.361 170.686 136.345 173.872C136.332 176.351 138.55 180.744 141.102 183.297C142.887 185.081 143.647 185.404 146.066 185.404C150.045 185.404 153.679 184.191 154.792 182.492C155.943 180.736 157.151 180.687 159.783 182.292C162.912 184.2 162.559 186.167 158.794 187.787C153.514 190.058 149.915 190.611 144.72 189.949ZM143.396 163.51C143.602 162.741 143.764 159.038 143.755 155.28C143.739 148.733 143.697 148.522 142.768 150.238C141.574 152.441 138.198 162.093 138.198 163.302C138.198 164.336 139.127 164.79 141.386 164.858C142.58 164.894 143.124 164.53 143.396 163.51ZM201.774 188.844C198.545 186.581 195.902 177.123 194.74 163.665C194.174 157.112 194.283 153.695 195.099 152.373C195.684 151.427 199.017 151.855 202.001 153.261C207.518 155.86 207.351 155.439 207.889 168.184C208.435 181.097 208.767 183.724 209.81 183.376C211.185 182.918 216.241 174.781 217.006 171.794C217.426 170.155 217.725 166.19 217.671 162.98C217.617 159.77 217.573 156.508 217.572 155.733C217.571 153.948 218.763 152.485 220.218 152.485C221.781 152.485 229.145 155.964 230.153 157.179C230.832 157.997 230.85 159.234 230.25 163.982C229.466 170.183 228.646 172.684 226.862 174.31C226.248 174.869 225.101 176.547 224.313 178.037C223.525 179.527 222.507 180.746 222.05 180.746C221.594 180.746 221.106 181.165 220.966 181.677C220.74 182.506 220.785 182.506 221.371 181.677C221.733 181.165 222.03 181.025 222.03 181.367C222.03 182.735 215.956 188.563 213.921 189.146C210.648 190.085 203.284 189.902 201.774 188.844Z" fill="#030303"/>
</svg>
