<svg width="300" height="300" viewBox="0 0 300 300" fill="none" xmlns="http://www.w3.org/2000/svg">
<g clip-path="url(#clip0_2023_2677)">
<path d="M150.111 114.861C150.159 114.861 150.195 114.873 150.231 114.873C150.267 114.873 150.303 114.861 150.351 114.861C166.6 114.861 179.777 128.026 179.777 144.299C179.777 153.396 175.637 161.532 169.144 166.933C166.312 169.609 162.772 171.577 158.452 172.573C155.883 173.317 153.147 173.725 150.351 173.725H150.231H150.111C147.303 173.725 144.579 173.317 141.999 172.573C137.678 171.577 134.126 169.609 131.306 166.933C124.813 161.532 120.673 153.408 120.673 144.299C120.673 128.026 133.862 114.861 150.111 114.861ZM25.4467 233.273C41.2638 235.265 55.3047 223.744 56.7928 207.567C57.2849 202.107 56.2648 196.803 54.1286 192.11C31.9752 143.495 141.278 142.379 122.809 188.27C122.773 188.33 122.725 188.378 122.677 188.462C113.941 202.419 118.669 220.576 133.202 228.965C138.542 232.049 144.447 233.345 150.231 233.105C156.015 233.345 161.932 232.049 167.26 228.965C181.781 220.564 186.509 202.419 177.773 188.462C177.737 188.378 177.677 188.33 177.641 188.27C159.184 142.379 268.499 143.483 246.321 192.11C244.185 196.803 243.165 202.107 243.657 207.567C245.157 223.756 259.186 235.265 275.003 233.273C282.036 232.385 288.24 228.989 292.825 224.057C292.825 224.057 300.181 217.96 300.061 202.383C299.953 189.698 292.825 182.666 292.825 182.666C287.076 176.857 278.904 173.665 270.143 174.601C249.85 174.145 246.837 158.268 252.574 128.302C254.674 122.998 255.586 117.297 255.406 111.609C255.97 96.296 248.266 81.187 234.081 72.9784C232.353 71.9824 230.576 71.1663 228.764 70.4223C228.284 70.2062 227.78 70.0382 227.288 69.8342C226.724 69.6302 226.184 69.4142 225.62 69.2582C221.204 67.7701 216.487 66.954 211.579 67.014C196.314 67.158 183.017 75.3186 175.565 87.4274C165.34 98.6361 160.732 105.441 150.219 105.441C140.234 105.441 135.086 98.6241 124.861 87.4274C117.433 75.3066 104.136 67.146 88.871 67.002C83.9506 66.954 79.2463 67.7581 74.842 69.2462C74.278 69.4142 73.714 69.6302 73.1739 69.8222C72.6699 70.0142 72.1898 70.1942 71.6858 70.4103C69.8857 71.1543 68.0976 71.9704 66.3815 72.9664C52.1845 81.187 44.492 96.296 45.044 111.609C44.852 117.297 45.7761 122.998 47.8762 128.302C53.6006 158.268 50.5884 174.145 30.3071 174.601C20.3824 173.533 12.9659 177.625 5.46539 185.126C-2.04711 192.626 -1.42307 212.704 5.46539 221.464C10.4577 227.837 17.2382 232.241 25.4467 233.273Z" fill="white"/>
</g>
<defs>
<clipPath id="clip0_2023_2677">
<rect width="300" height="300" fill="white"/>
</clipPath>
</defs>
</svg>
