<svg width="300" height="300" viewBox="0 0 300 300" fill="none" xmlns="http://www.w3.org/2000/svg">
<g clip-path="url(#clip0_2022_736)">
<path d="M32.4016 181.777C32.4016 193.232 34.9148 202.026 38.2022 207.347C42.5112 214.316 48.9376 217.274 55.4897 217.274C63.9392 217.274 71.67 215.177 86.5674 194.572C98.5054 178.057 112.566 154.876 122.028 140.343L138.053 115.722C149.184 98.623 162.068 79.6151 176.841 66.7309C188.905 56.2142 201.911 50.3721 215.004 50.3721C236.986 50.3721 257.924 63.1105 273.949 87.0016C291.486 113.166 299.999 146.124 299.999 180.133C299.999 200.352 296.014 215.208 289.232 226.945C282.681 238.295 269.911 249.636 248.43 249.636V217.269C266.824 217.269 271.413 200.367 271.413 181.025C271.413 153.462 264.987 122.875 250.829 101.018C240.784 85.515 227.764 76.0425 213.439 76.0425C197.946 76.0425 185.479 87.7292 171.468 108.56C164.019 119.63 156.372 133.119 147.786 148.34L138.333 165.085C119.348 198.756 114.538 206.422 105.044 219.074C88.4046 241.231 74.1946 249.631 55.4897 249.631C33.2988 249.631 19.2672 240.022 10.5764 225.541C3.48269 213.743 -0.00195312 198.26 -0.00195312 180.619L32.4016 181.777Z" fill="#0081FB"/>
<path d="M25.5469 89.2794C40.4028 66.3798 61.8422 50.3652 86.432 50.3652C100.672 50.3652 114.832 54.58 129.612 66.6512C145.783 79.8458 163.017 101.586 184.52 137.4L192.229 150.249C210.841 181.255 221.429 197.206 227.627 204.729C235.597 214.388 241.179 217.269 248.429 217.269C266.823 217.269 271.412 200.367 271.412 181.025L299.998 180.128C299.998 200.347 296.013 215.203 289.231 226.94C282.68 238.29 269.91 249.631 248.429 249.631C235.075 249.631 223.245 246.73 210.162 234.388C200.109 224.915 188.347 208.088 179.302 192.96L152.396 148.017C138.898 125.462 126.51 108.644 119.347 101.028C111.636 92.8369 101.725 82.9472 85.9092 82.9472C73.1091 82.9472 62.238 91.9296 53.1413 105.67L25.5469 89.2794Z" fill="url(#paint0_linear_2022_736)"/>
<path d="M85.9102 82.9472C73.1101 82.9472 62.239 91.9296 53.1423 105.67C40.2781 125.085 32.4078 154.003 32.4078 181.775C32.4078 193.23 34.9211 202.024 38.2085 207.345L10.5764 225.54C3.48269 213.741 -0.00195312 198.258 -0.00195312 180.618C-0.00195312 148.537 8.80327 115.101 25.5479 89.2794C40.4038 66.3798 61.8432 50.3652 86.433 50.3652L85.9102 82.9472Z" fill="url(#paint1_linear_2022_736)"/>
</g>
<defs>
<linearGradient id="paint0_linear_2022_736" x1="65.0303" y1="144.834" x2="271.595" y2="155.266" gradientUnits="userSpaceOnUse">
<stop stop-color="#0064E1"/>
<stop offset="0.4" stop-color="#0064E1"/>
<stop offset="0.83" stop-color="#0073EE"/>
<stop offset="1" stop-color="#0082FB"/>
</linearGradient>
<linearGradient id="paint1_linear_2022_736" x1="43.2149" y1="195.379" x2="43.2149" y2="119.221" gradientUnits="userSpaceOnUse">
<stop stop-color="#0082FB"/>
<stop offset="1" stop-color="#0064E0"/>
</linearGradient>
<clipPath id="clip0_2022_736">
<rect width="300" height="300" fill="white"/>
</clipPath>
</defs>
</svg>
