<svg width="300" height="300" viewBox="0 0 300 300" fill="none" xmlns="http://www.w3.org/2000/svg">
<g clip-path="url(#clip0_2023_2851)">
<path d="M223.946 174.047C229.73 176.545 233.185 181.244 233.185 186.599C233.185 193.691 227.78 197.919 218.722 197.919C209.111 197.919 204.645 189.373 203.502 186.763L202.095 183.53H184.095L184.066 183.513H167.389C162.834 191.183 153.658 198.249 142.989 198.249C123.737 198.249 114.13 183.068 112.901 168.08H191.585V164.794C191.585 158.58 190.945 152.73 189.749 147.3C192.001 154.268 197.136 161.493 207.9 166.607C211.83 168.501 217.766 171.326 223.946 174.047ZM141.867 126.419C157.97 126.419 165.858 137.63 168.144 149.051H114.549C117.344 137.606 127.28 126.419 141.866 126.419M299.766 126.75V106.24H283.039V82H262.501V106.24H221.138C202.036 106.251 188.171 119.216 188.171 137.08C188.174 139.137 188.359 141.189 188.723 143.214C182.214 120.454 165.058 106.24 142.018 106.24C113.835 106.24 92.2884 128.387 90.4835 158.39V152.012C90.4835 126.771 70.1334 106.24 45.1245 106.24C20.1153 106.24 -0.234375 126.771 -0.234375 152.012V217.635H20.5537V152.012C20.5537 138.348 31.5721 127.22 45.1245 127.22C58.6703 127.22 69.6954 138.346 69.6954 152.012V217.635H90.4835V166.58C92.3011 196.69 114.123 218.915 142.671 218.915C160.099 218.915 175.472 208.699 184.18 196.867C190.676 210.879 203.371 218.915 219.051 218.915C237.225 218.915 255.62 207.199 255.62 184.798C255.62 171.39 247.905 160.435 233.893 153.939C232.346 153.226 230.806 152.5 229.271 151.761L229.084 151.666C227.436 150.878 225.783 150.101 224.125 149.335C214.967 145.187 210.608 142.15 210.608 136.092C210.608 130.762 215.333 126.75 221.166 126.75H262.502V185.185C262.502 203.791 277.495 218.913 295.921 218.913V198.186C288.819 198.186 283.039 192.353 283.039 185.185V126.75C291.256 126.757 297.583 126.75 299.766 126.75Z" fill="white"/>
</g>
<defs>
<clipPath id="clip0_2023_2851">
<rect width="300" height="300" fill="white"/>
</clipPath>
</defs>
</svg>
