<svg width="300" height="300" viewBox="0 0 300 300" fill="none" xmlns="http://www.w3.org/2000/svg">
<path fill-rule="evenodd" clip-rule="evenodd" d="M0 154.421L134.43 238.234V300L0 216.187V154.421ZM155.109 0L289.539 83.8128V145.583L155.109 61.7702V0ZM155.109 83.6429L289.539 167.46V229.226L155.109 145.413V83.6429ZM255.112 289.48L155.109 227.773V166.003L289.539 249.816V270.27C289.539 282.735 279.435 292.844 266.966 292.844C262.782 292.844 258.675 291.676 255.112 289.48ZM33.3527 7.27957L134.43 69.6571V131.423L0 47.6103V25.8905C0 13.8159 9.79387 4.02627 21.8685 4.02627C25.9245 4.02627 29.8998 5.15176 33.3527 7.27957ZM0 70.7784L134.43 154.591V216.357L0 132.544V70.7784Z" fill="#00E4BF"/>
</svg>
