<svg width="300" height="300" viewBox="0 0 300 300" fill="none" xmlns="http://www.w3.org/2000/svg">
<g clip-path="url(#clip0_2022_774)">
<path d="M165.052 2.08333L158.881 78.0833C155.962 77.75 153.044 77.5833 150.042 77.5833C146.289 77.5833 142.62 77.8333 139.034 78.4167L135.532 41.5833C135.448 40.4167 136.366 39.4167 137.533 39.4167H143.787L140.785 2.16667C140.702 1 141.619 0 142.703 0H163.134C164.301 0 165.219 1 165.052 2.16667V2.08333ZM113.517 5.83333C113.183 4.75 112.016 4.08333 110.932 4.5L91.7521 11.5C90.668 11.9167 90.1677 13.1667 90.668 14.1667L106.262 48.1667L100.341 50.3333C99.2572 50.75 98.7569 52 99.2572 53L115.185 86.4167C120.939 83.25 127.193 80.8333 133.781 79.3333L113.6 5.83333H113.517ZM66.4849 27L110.598 89.1667C105.011 92.8333 99.9243 97.1667 95.588 102.167L69.1534 76.1667C68.3195 75.3333 68.4029 74 69.2368 73.25L74.0734 69.25L47.8056 42.6667C46.9717 41.8333 47.0551 40.5 47.9724 39.75L63.5663 26.6667C64.4836 25.9167 65.7344 26.0833 66.4016 27H66.4849ZM29.4598 63C28.5425 62.3333 27.2083 62.6667 26.6245 63.6667L16.451 81.3333C15.8672 82.3333 16.2842 83.5833 17.2849 84.0833L51.1412 100.083L47.9724 105.5C47.3886 106.5 47.8056 107.833 48.8897 108.25L82.5792 123.667C84.9975 117.417 88.2497 111.583 92.2524 106.333L29.4598 63ZM4.52619 111C4.69297 109.833 5.86043 109.167 6.9445 109.417L80.7446 128.667C78.8267 134.917 77.7426 141.5 77.5758 148.333L40.634 145.333C39.4666 145.25 38.6327 144.167 38.8829 143L39.9669 136.833L2.69161 133.333C1.52415 133.25 0.773643 132.167 0.940423 131L4.4428 110.917L4.52619 111ZM1.77432 160.833C0.606863 160.917 -0.143647 162 0.0231333 163.167L3.6089 183.25C3.77568 184.417 4.94314 185.083 6.02721 184.833L42.2185 175.417L43.3025 181.583C43.4693 182.75 44.6368 183.417 45.7208 183.167L81.4117 173.333C79.327 167.167 77.9928 160.583 77.6592 153.833L1.69093 160.833H1.77432ZM13.6157 213.667C13.032 212.667 13.4489 211.417 14.4496 210.917L83.3297 178.25C85.9148 184.417 89.4172 190.167 93.5867 195.333L63.3995 216.833C62.4822 217.5 61.148 217.25 60.5643 216.25L57.3954 210.75L26.6245 232C25.7072 232.667 24.373 232.333 23.7893 231.333L13.5323 213.667H13.6157ZM97.0891 199.333L43.4693 253.583C42.6354 254.417 42.7188 255.75 43.6361 256.5L59.3134 269.583C60.2307 270.333 61.4815 270.167 62.1487 269.25L83.8301 238.75L88.6667 242.833C89.584 243.583 90.9182 243.417 91.5853 242.417L112.6 211.917C106.929 208.417 101.676 204.167 97.1725 199.333H97.0891ZM86.4985 286.417C85.4145 286 84.9141 284.75 85.4145 283.75L117.186 214.417C123.023 217.417 129.361 219.667 135.949 220.917L126.609 256.75C126.359 257.833 125.108 258.5 124.024 258.083L118.103 255.917L108.18 292C107.846 293.083 106.679 293.75 105.595 293.333L86.4151 286.333L86.4985 286.417ZM141.202 221.833L135.032 297.833C134.948 299 135.865 300 136.949 300H157.38C158.547 300 159.465 299 159.298 297.833L156.296 260.583H162.55C163.718 260.583 164.635 259.583 164.552 258.417L161.049 221.583C157.463 222.167 153.794 222.417 150.042 222.417C147.04 222.417 144.121 222.25 141.202 221.833ZM214.752 16.0833C215.253 15 214.752 13.8333 213.668 13.4167L194.489 6.41667C193.404 6 192.237 6.66667 191.903 7.75L181.98 43.8333L176.059 41.6667C174.975 41.25 173.808 41.9167 173.474 43L164.135 78.8333C170.806 80.1667 177.06 82.4167 182.897 85.3333L214.752 16.0833ZM256.614 46.3333L202.994 100.583C198.491 95.75 193.321 91.5 187.567 88L208.581 57.5C209.249 56.5833 210.583 56.3333 211.5 57.0833L216.337 61.1667L238.018 30.6667C238.685 29.75 240.019 29.5833 240.853 30.3333L256.531 43.4167C257.448 44.1667 257.448 45.5 256.697 46.3333H256.614ZM285.634 89C286.718 88.5 287.051 87.25 286.468 86.25L276.211 68.5833C275.627 67.5833 274.293 67.3333 273.375 67.9167L242.605 89.1667L239.436 83.75C238.852 82.75 237.518 82.4167 236.6 83.1667L206.413 104.667C210.583 109.833 214.002 115.583 216.67 121.75L285.55 89.0833L285.634 89ZM296.474 116.667L299.977 136.75C300.144 137.917 299.393 138.917 298.226 139.083L222.257 146.167C221.924 139.333 220.59 132.833 218.505 126.667L254.196 116.833C255.28 116.5 256.447 117.25 256.614 118.417L257.698 124.583L293.889 115.167C294.973 114.917 296.141 115.583 296.308 116.75L296.474 116.667ZM293.055 190.417C294.14 190.667 295.307 190 295.474 188.833L298.976 168.75C299.143 167.583 298.392 166.583 297.225 166.417L259.95 162.917L261.034 156.75C261.201 155.583 260.45 154.583 259.283 154.417L222.341 151.417C222.174 158.25 221.09 164.833 219.172 171.083L292.972 190.333L293.055 190.417ZM273.375 236.25C272.792 237.25 271.457 237.5 270.54 236.917L207.748 193.583C211.75 188.333 215.002 182.5 217.421 176.25L251.11 191.667C252.194 192.167 252.611 193.417 252.028 194.417L248.859 199.833L282.715 215.833C283.716 216.333 284.133 217.583 283.549 218.583L273.375 236.25ZM189.402 210.667L233.515 272.833C234.182 273.75 235.516 273.917 236.35 273.167L251.944 260.083C252.862 259.333 252.862 258 252.111 257.167L225.843 230.583L230.68 226.583C231.597 225.833 231.597 224.5 230.763 223.667L204.329 197.667C199.909 202.667 194.906 207.083 189.318 210.667H189.402ZM188.985 295.333C187.901 295.75 186.733 295.083 186.4 294L166.219 220.5C172.807 219 179.061 216.583 184.815 213.417L200.743 246.833C201.243 247.917 200.743 249.167 199.659 249.5L193.738 251.667L209.332 285.667C209.832 286.75 209.332 287.917 208.248 288.333L189.068 295.333H188.985Z" fill="white"/>
</g>
<defs>
<clipPath id="clip0_2022_774">
<rect width="300" height="300" fill="white"/>
</clipPath>
</defs>
</svg>
