<svg width="300" height="300" viewBox="0 0 300 300" fill="none" xmlns="http://www.w3.org/2000/svg">
<path d="M114.397 109.621L114.4 109.611L177.378 147.334L214.906 131.542C222.531 128.245 230.754 126.554 239.062 126.562C240.446 126.562 241.814 126.625 243.175 126.716C238.664 109.123 229.139 93.2194 215.759 80.9374C202.379 68.6555 185.72 60.5241 167.806 57.5315C149.892 54.5389 131.494 56.8139 114.848 64.08C98.203 71.3461 84.0262 83.2905 74.041 98.4617C74.3618 98.4576 74.6778 98.4375 74.9993 98.4375C88.9179 98.4186 102.564 102.292 114.397 109.621Z" fill="#0364B8"/>
<path d="M114.401 109.611L114.398 109.621C102.565 102.292 88.9186 98.4187 75 98.4376C74.6784 98.4376 74.362 98.4577 74.0416 98.4618C60.4188 98.6304 47.0995 102.508 35.5149 109.678C23.9304 116.848 14.5186 127.039 8.29098 139.156C2.06336 151.273 -0.744659 164.858 0.168685 178.452C1.08203 192.045 5.68221 205.132 13.4749 216.307L69.0124 192.936L93.7007 182.547L148.671 159.414L177.379 147.334L114.401 109.611Z" fill="#0078D4"/>
<path d="M243.176 126.716C241.815 126.625 240.447 126.563 239.063 126.563C230.755 126.554 222.534 128.251 214.908 131.548L177.379 147.334L188.261 153.852L223.932 175.219L239.496 184.541L292.711 216.417C297.547 207.44 300.052 197.394 299.999 187.198C299.946 177.002 297.335 166.983 292.406 158.057C287.478 149.132 280.388 141.586 271.787 136.11C263.186 130.635 253.349 127.405 243.176 126.716Z" fill="#1490DF"/>
<path d="M239.495 184.541L223.932 175.219L188.261 153.852L177.378 147.334L148.671 159.414L93.7004 182.547L69.0121 192.936L13.4746 216.307C20.3761 226.23 29.5766 234.335 40.2904 239.93C51.0042 245.525 62.9129 248.444 74.9996 248.438H239.062C250.062 248.441 260.858 245.466 270.304 239.828C279.749 234.19 287.492 226.1 292.711 216.417L239.495 184.541Z" fill="#28A8EA"/>
</svg>
