<svg width="300" height="300" viewBox="0 0 300 300" fill="none" xmlns="http://www.w3.org/2000/svg">
<path d="M149.997 149.729C189.439 149.729 221.413 117.755 221.413 78.3122C221.413 38.8699 189.439 6.89551 149.997 6.89551C110.554 6.89551 78.5801 38.8699 78.5801 78.3122C78.5801 117.755 110.554 149.729 149.997 149.729Z" fill="url(#paint0_linear_2022_769)"/>
<path d="M143.911 291.361C97.2698 261.608 58.4796 221.06 30.8214 173.147C29.7523 171.227 29.5198 168.951 30.1785 166.854C30.8371 164.757 32.329 163.023 34.3042 162.058L88.3871 135.517C92.1703 133.673 96.7359 135.072 98.8354 138.72C126.179 184.548 166.61 221.146 214.928 243.803C197.108 261.758 177.375 277.706 156.081 291.361C152.357 293.686 147.635 293.686 143.911 291.361Z" fill="url(#paint1_linear_2022_769)"/>
<path d="M156.081 291.361C202.728 261.616 241.52 221.066 269.171 173.147C270.242 171.232 270.481 168.96 269.83 166.864C269.179 164.767 267.696 163.03 265.728 162.058L211.605 135.517C207.822 133.673 203.256 135.072 201.157 138.72C173.819 184.553 133.386 221.152 85.0645 243.803C102.873 261.77 122.608 277.719 143.911 291.361C147.635 293.686 152.357 293.686 156.081 291.361Z" fill="#2684FF"/>
<defs>
<linearGradient id="paint0_linear_2022_769" x1="7220.25" y1="2380.78" x2="7220.25" y2="17044.4" gradientUnits="userSpaceOnUse">
<stop stop-color="#2684FF"/>
<stop offset="0.82" stop-color="#0052CC"/>
</linearGradient>
<linearGradient id="paint1_linear_2022_769" x1="7652.87" y1="5070.46" x2="11493.7" y2="13109" gradientUnits="userSpaceOnUse">
<stop stop-color="#2684FF"/>
<stop offset="0.62" stop-color="#0052CC"/>
</linearGradient>
</defs>
</svg>
