<svg width="300" height="300" viewBox="0 0 300 300" fill="none" xmlns="http://www.w3.org/2000/svg">
<g clip-path="url(#clip0_2023_2806)">
<mask id="mask0_2023_2806" style="mask-type:luminance" maskUnits="userSpaceOnUse" x="0" y="5" width="301" height="290">
<path d="M300.447 5H0.447266V294.583H300.447V5Z" fill="white"/>
</mask>
<g mask="url(#mask0_2023_2806)">
<path d="M101.283 164.166V198.958C127.742 198.958 153.158 188.75 171.908 170.625C190.658 152.5 201.283 127.708 201.283 102.083H165.45C165.45 118.541 158.575 134.375 146.7 146.041C134.617 157.5 118.367 164.166 101.283 164.166Z" fill="#3BE081"/>
<path d="M101.281 259.999C84.4056 259.999 68.1556 253.541 56.2806 241.874C44.4056 230.208 37.5306 214.583 37.5306 198.124C37.5306 181.666 44.1972 166.041 56.2806 154.374C68.1556 142.708 84.4056 136.249 101.281 136.249V101.666C88.1556 101.666 75.2389 104.166 63.3639 108.958C51.2806 113.749 40.4472 120.833 31.0722 129.791C21.9056 138.749 14.4056 149.374 9.4056 161.041C4.4056 172.708 1.9056 185.208 1.69727 197.916C1.69727 210.624 4.19727 223.124 9.19727 234.791C14.1973 246.458 21.4889 257.083 30.6556 266.041C39.8222 274.999 50.8639 282.083 62.9472 286.874C75.0306 291.666 87.9472 294.166 100.864 294.166H101.072V259.999H101.281Z" fill="#0037FF"/>
<path d="M101.283 260V294.583C127.533 294.583 152.95 284.375 171.492 266.458C190.033 248.541 200.658 223.958 200.658 198.333H165.033C165.033 214.791 158.367 230.416 146.283 242.083C134.408 253.333 118.158 259.791 101.283 260Z" fill="#00CCFF"/>
<path d="M101.283 67.4997V102.083C127.533 102.083 152.95 91.8747 171.492 73.958C190.033 55.833 200.658 31.458 200.658 5.83301H165.033C165.033 22.2913 158.367 37.9164 146.283 49.583C134.408 60.833 118.158 67.4997 101.283 67.4997Z" fill="#861DFF"/>
<path d="M201.072 67.4997V102.083C227.323 102.083 252.739 91.8747 271.281 73.958C289.823 55.833 300.448 31.458 300.448 5.83301H264.823C264.823 22.2913 258.156 37.9164 246.073 49.583C234.198 60.833 218.156 67.4997 201.072 67.4997Z" fill="#FF8110"/>
</g>
</g>
<defs>
<clipPath id="clip0_2023_2806">
<rect width="300" height="300" fill="white"/>
</clipPath>
</defs>
</svg>
