<svg width="300" height="300" viewBox="0 0 300 300" fill="none" xmlns="http://www.w3.org/2000/svg">
<g clip-path="url(#clip0_2022_784)">
<path opacity="0.8" d="M45.4103 86.0302L78.171 104.945C103.504 119.571 112.191 151.967 97.5643 177.3C96.2778 179.528 94.854 181.623 93.31 183.587L15.1418 138.457C10.4111 135.726 6.701 131.906 4.13015 127.505C-1.15792 118.429 -1.56736 106.853 4.06138 97.104C12.4176 82.6306 30.9302 77.6702 45.4103 86.0302Z" fill="#3D53F6"/>
<path opacity="0.5" d="M45.4103 216.062L78.171 197.148C103.504 182.521 112.191 150.126 97.5643 124.792C96.2778 122.564 94.854 120.469 93.31 118.505L15.1418 163.635C10.4111 166.366 6.701 170.186 4.13015 174.588C-1.15792 183.663 -1.56736 195.238 4.06138 204.988C12.4176 219.462 30.9302 224.422 45.4103 216.062Z" fill="#3D53F6"/>
<path opacity="0.5" d="M255.304 86.0302L222.543 104.945C197.21 119.571 188.524 151.967 203.15 177.3C204.436 179.528 205.861 181.623 207.404 183.587L285.572 138.457C290.304 135.726 294.013 131.906 296.584 127.505C301.873 118.429 302.282 106.853 296.653 97.104C288.297 82.6306 269.784 77.6702 255.304 86.0302Z" fill="#3D53F6"/>
<path opacity="0.8" d="M255.304 216.062L222.543 197.148C197.21 182.521 188.524 150.126 203.15 124.792C204.436 122.564 205.861 120.469 207.404 118.505L285.572 163.635C290.304 166.366 294.013 170.186 296.584 174.588C301.873 183.663 302.282 195.238 296.653 204.988C288.297 219.462 269.784 224.422 255.304 216.062Z" fill="#3D53F6"/>
<path d="M150.356 180.63C167.073 180.63 180.624 167.078 180.624 150.362C180.624 133.646 167.073 120.095 150.356 120.095C133.64 120.095 120.09 133.646 120.09 150.362C120.09 167.078 133.64 180.63 150.356 180.63Z" fill="#FF2F1D"/>
<path opacity="0.8" d="M85.3408 255.304L104.255 222.543C118.882 197.21 151.277 188.523 176.61 203.15C178.839 204.436 180.934 205.86 182.898 207.404L137.767 285.572C135.036 290.303 131.217 294.012 126.815 296.584C117.74 301.871 106.164 302.282 96.4146 296.652C81.9412 288.297 76.9807 269.783 85.3408 255.304Z" fill="#FF2F1D"/>
<path opacity="0.5" d="M215.372 255.303L196.457 222.543C181.83 197.21 149.435 188.523 124.102 203.15C121.874 204.436 119.778 205.859 117.814 207.404L162.945 285.572C165.676 290.303 169.496 294.012 173.897 296.584C182.973 301.871 194.548 302.282 204.298 296.652C218.771 288.296 223.732 269.783 215.372 255.303Z" fill="#FF2F1D"/>
<path opacity="0.5" d="M85.3408 45.4103L104.255 78.171C118.882 103.504 151.277 112.191 176.61 97.5643C178.839 96.2778 180.934 94.854 182.898 93.31L137.767 15.1418C135.036 10.4111 131.217 6.70099 126.815 4.13015C117.74 -1.15792 106.164 -1.56736 96.4146 4.06139C81.9412 12.4176 76.9807 30.9302 85.3408 45.4103Z" fill="#3D53F6"/>
<path opacity="0.8" d="M215.372 45.4103L196.457 78.171C181.83 103.504 149.435 112.191 124.102 97.5643C121.874 96.2778 119.778 94.854 117.814 93.31L162.945 15.1418C165.676 10.4111 169.496 6.70099 173.897 4.13015C182.973 -1.15792 194.548 -1.56736 204.298 4.06139C218.771 12.4176 223.732 30.9302 215.372 45.4103Z" fill="#3D53F6"/>
</g>
<defs>
<clipPath id="clip0_2022_784">
<rect width="300" height="300" fill="white"/>
</clipPath>
</defs>
</svg>
