<svg width="300" height="300" viewBox="0 0 300 300" fill="none" xmlns="http://www.w3.org/2000/svg">
<g clip-path="url(#clip0_2022_781)">
<path d="M87.7001 239.975H35.2C34.1845 239.975 33.1811 239.755 32.2589 239.329C31.3367 238.904 30.5177 238.284 29.8583 237.512C29.1989 236.739 28.7148 235.833 28.4393 234.856C28.1638 233.878 28.1034 232.853 28.2624 231.85L63.6625 7.3C63.9839 5.26621 65.0202 3.41375 66.5851 2.07564C68.1501 0.737531 70.141 0.00154823 72.2001 0L162.475 0C205.188 0 236.276 31.1 235.551 68.75C235.476 71.875 235.213 75 234.726 78.0875C231.622 98.1022 221.468 116.349 206.095 129.535C190.722 142.722 171.142 149.98 150.888 150H109.288C107.231 149.999 105.242 150.733 103.679 152.069C102.116 153.405 101.082 155.256 100.763 157.288L96.7001 182.987L96.5376 184.025L87.8876 238.9L87.7001 239.975ZM247.376 76.775C247.251 77.8625 247.251 78.9625 247.088 80.0375C243.606 103.033 231.977 124.011 214.321 139.15C196.665 154.289 174.158 162.58 150.9 162.513H112.588L109.05 184.95L108.888 185.987L100.238 240.862L98.5626 251.4L98.3876 252.5H85.7501L79.5376 291.875C79.3786 292.878 79.4389 293.903 79.7144 294.881C79.9899 295.858 80.4741 296.764 81.1335 297.537C81.7929 298.309 82.6119 298.929 83.534 299.354C84.4562 299.78 85.4596 300 86.4751 300H131.625C135.875 300 139.5 296.888 140.163 292.688L152.063 217.3C152.384 215.266 153.42 213.414 154.985 212.076C156.55 210.738 158.541 210.002 160.6 210H187.175C207.428 209.983 227.008 202.727 242.381 189.543C257.755 176.359 267.91 158.113 271.013 138.1C274.838 113.725 265.176 91.3 247.376 76.775Z" fill="#E2ECFF"/>
<path d="M247.374 76.7754C247.249 77.8629 247.249 78.9629 247.086 80.0379C243.604 103.033 231.975 124.012 214.319 139.15C196.663 154.289 174.156 162.58 150.899 162.513H112.586L109.048 184.95L108.886 185.988L100.236 240.863L98.5609 251.4L98.3859 252.5H85.7484L79.5359 291.875C79.3769 292.878 79.4372 293.904 79.7127 294.881C79.9882 295.859 80.4723 296.765 81.1318 297.537C81.7912 298.309 82.6102 298.929 83.5323 299.355C84.4545 299.78 85.4579 300 86.4734 300H131.624C135.874 300 139.499 296.888 140.161 292.688L152.061 217.3C152.382 215.267 153.419 213.414 154.984 212.076C156.549 210.738 158.54 210.002 160.599 210H187.174C207.426 209.983 227.006 202.728 242.38 189.543C257.753 176.359 267.908 158.114 271.011 138.1C274.836 113.725 265.174 91.3004 247.374 76.7754Z" fill="#68AECC"/>
</g>
<defs>
<clipPath id="clip0_2022_781">
<rect width="300" height="300" fill="white"/>
</clipPath>
</defs>
</svg>
