<svg width="300" height="300" viewBox="0 0 300 300" fill="none" xmlns="http://www.w3.org/2000/svg">
<g clip-path="url(#clip0_2022_794)">
<path d="M54.9443 34.3928C82.0232 12.0047 116.102 -0.167291 151.237 -0.000256589C172.697 0.217814 193.861 5.03858 213.299 14.1365C232.737 23.2344 249.997 36.3975 263.912 52.737C277.827 69.0764 288.074 88.2117 293.96 108.85C299.847 129.489 301.236 151.151 298.034 172.372C294.832 193.594 287.113 213.881 275.399 231.864C263.685 249.847 248.248 265.107 230.131 276.613C212.014 288.119 191.64 295.604 170.383 298.561C149.125 301.518 127.481 299.88 106.912 293.756L97.1337 290.175C64.2993 277.669 36.8969 254.034 19.7055 223.391C2.51416 192.749 -3.37508 157.044 3.06492 122.504C9.50492 87.9643 27.8655 56.7809 54.9443 34.3928Z" fill="white"/>
<path d="M151.237 -0.000256589C116.102 -0.167291 82.0232 12.0047 54.9443 34.3928C27.8655 56.7809 9.50492 87.9643 3.06492 122.504C-3.37508 157.044 2.51416 192.749 19.7055 223.391C36.8969 254.034 64.2993 277.669 97.1337 290.175C95.9149 277.875 94.6774 260.662 97.1337 247.05L114.346 172.05C111.161 165.102 109.483 157.558 109.424 149.915C109.424 129.009 121.724 113.025 136.471 113.025C151.218 113.025 154.912 122.868 154.912 133.931C154.912 144.993 146.306 165.806 142.612 184.34C138.918 202.875 149.99 211.387 164.737 211.387C179.484 211.387 211.462 183.112 211.462 142.537C211.462 101.962 185.643 81.056 148.743 81.056C111.843 81.056 82.3493 114.243 82.3493 147.45C82.3493 159.75 87.2712 174.497 93.4118 181.875C93.8557 182.373 94.1935 182.957 94.4046 183.591C94.6158 184.224 94.6958 184.894 94.6399 185.559L90.9556 202.772C89.7368 205.228 88.4993 206.456 86.0337 205.228C67.5931 196.622 55.2837 169.575 55.2837 147.44C55.2837 100.715 89.7087 56.456 154.874 56.456C220.04 56.456 247.087 93.3466 247.087 142.518C247.087 191.69 213.899 235.968 169.621 235.968C154.865 235.968 140.109 228.59 135.196 218.756L125.352 254.409C121.668 267.937 113.052 283.922 106.912 293.756C127.481 299.88 149.125 301.518 170.382 298.561C191.64 295.604 212.014 288.119 230.131 276.613C248.248 265.107 263.685 249.847 275.399 231.864C287.113 213.881 294.832 193.594 298.034 172.372C301.236 151.151 299.847 129.489 293.96 108.85C288.074 88.2117 277.827 69.0764 263.912 52.737C249.997 36.3975 232.737 23.2344 213.299 14.1365C193.861 5.03858 172.697 0.217814 151.237 -0.000256589Z" fill="#BD081C"/>
</g>
<defs>
<clipPath id="clip0_2022_794">
<rect width="300" height="300" fill="white"/>
</clipPath>
</defs>
</svg>
