<svg width="300" height="300" viewBox="0 0 300 300" fill="none" xmlns="http://www.w3.org/2000/svg">
<g clip-path="url(#clip0_2023_2443)">
<path d="M300 150C300 67.1573 232.843 0 150 0C67.1573 0 0 67.1573 0 150C0 232.843 67.1573 300 150 300C232.843 300 300 232.843 300 150Z" fill="#017737"/>
<path d="M232.299 125.02C232.299 165.603 206.114 193.359 168.673 193.359C150.874 193.359 136.205 186.024 130.712 176.859L130.972 186.284V244.406H92.7518V94.1225C92.7518 92.0319 92.2321 91.5005 89.8699 91.5005H76.7715V59.5634H108.72C123.378 59.5634 127.051 72.1304 128.09 77.6343C133.854 67.9493 149.031 56.6934 170.504 56.6934C207.425 56.6816 232.299 84.1658 232.299 125.02ZM193.287 125.28C193.287 103.548 179.149 88.6304 161.338 88.6304C146.681 88.6304 130.181 98.3154 130.181 125.552C130.181 143.351 140.126 161.941 160.819 161.941C176.008 161.93 193.287 150.934 193.287 125.28Z" fill="white"/>
</g>
<defs>
<clipPath id="clip0_2023_2443">
<rect width="300" height="300" fill="white"/>
</clipPath>
</defs>
</svg>
