<svg width="300" height="300" viewBox="0 0 300 300" fill="none" xmlns="http://www.w3.org/2000/svg">
<path d="M161.271 23.8201C142.43 23.6754 123.798 27.7641 106.749 35.7842C89.7 43.8044 74.67 55.5513 62.7686 70.1576C61.5563 71.6185 60.3768 73.1064 59.2311 74.6201L59.2811 74.5826C62.1811 72.1326 65.1936 70.2701 68.2436 69.0201L68.9686 68.7326C72.7061 67.3326 76.4936 66.8951 80.2186 67.6326C98.2198 71.2451 107.595 100.246 101.157 132.423C94.7198 164.598 74.9073 187.761 56.9073 184.16C44.2811 181.635 35.9311 166.598 34.2561 146.76V146.698V147.348C34.2186 148.998 34.2186 150.673 34.2561 152.348V153.26L34.2811 153.998C34.3436 155.86 34.4436 157.698 34.5811 159.535C34.6436 160.373 34.7311 161.21 34.8186 162.035C36.2139 176.985 40.2826 191.562 46.8311 205.074C47.5811 206.649 47.2061 208.524 45.8561 209.611L42.3936 212.436C40.651 213.867 39.3752 215.785 38.7294 217.945C38.0836 220.105 38.0972 222.409 38.7686 224.561C38.7686 224.636 38.8061 224.686 38.8436 224.774C39.0413 225.384 39.2879 225.978 39.5811 226.549L40.2061 226.061L43.0811 223.886C43.7706 223.363 44.64 223.134 45.498 223.251C46.356 223.369 47.1323 223.822 47.6561 224.511C48.1799 225.201 48.4083 226.07 48.2911 226.928C48.1739 227.786 47.7206 228.563 47.0311 229.086L43.9686 231.411L43.5061 231.761L58.2186 249.863C60.1219 252.183 62.865 253.657 65.8501 253.963C68.8353 254.27 71.8207 253.385 74.1561 251.5L77.3811 248.875C78.0432 248.341 78.8681 248.05 79.7186 248.05C80.569 248.05 81.3939 248.341 82.0561 248.875C105.197 267.281 134.089 276.935 163.646 276.138C188.655 275.522 212.91 267.447 233.299 252.95C234.002 252.44 234.862 252.192 235.73 252.249C236.597 252.306 237.418 252.664 238.049 253.263L240.086 255.213C242.053 257.07 244.617 258.164 247.319 258.299C250.02 258.434 252.681 257.601 254.824 255.95L254.774 255.9L252.149 253.438C251.557 252.835 251.222 252.026 251.212 251.182C251.202 250.337 251.52 249.521 252.097 248.905C252.675 248.289 253.468 247.919 254.312 247.874C255.155 247.829 255.983 248.111 256.624 248.663L259.436 251.288L275.186 234.713C277.247 232.528 278.36 229.617 278.282 226.615C278.205 223.613 276.944 220.763 274.774 218.688L271.486 215.563C270.89 214.994 270.501 214.243 270.378 213.428C270.256 212.613 270.408 211.781 270.811 211.063C284.891 185.689 289.762 156.227 284.599 127.673C288.361 124.198 295.261 117.373 297.962 111.523C300.85 105.248 301.587 98.7726 293.925 101.623C287.975 103.835 283.4 105.26 277.85 103.998C260.137 59.0826 217.26 26.5826 167.209 23.9951C165.239 23.8888 163.268 23.8304 161.296 23.8201H161.271ZM28.3061 78.0826C25.7292 78.1303 23.2058 78.826 20.9686 80.1056C18.7314 81.3852 16.8524 83.2075 15.5049 85.4045C14.1574 87.6015 13.3848 90.1024 13.2583 92.6765C13.1318 95.2507 13.6555 97.8154 14.7811 100.134C12.3924 100.226 10.0582 100.875 7.96389 102.027C5.86956 103.179 4.07279 104.804 2.71629 106.773C1.35978 108.741 0.48091 110.998 0.149477 113.366C-0.181956 115.733 0.0431792 118.145 0.807002 120.41C1.57083 122.675 2.85229 124.731 4.54963 126.414C6.24696 128.098 8.3134 129.362 10.5848 130.107C12.8562 130.852 15.2701 131.057 17.6346 130.706C19.9991 130.354 22.2492 129.457 24.2061 128.084C26.4186 126.534 28.0311 124.471 29.1436 122.209C31.4686 126.484 34.8936 130.046 38.8686 132.496C38.805 134.999 38.8759 137.503 39.0811 139.998C40.3561 155.348 46.8311 166.998 56.5936 168.948C70.5186 171.735 85.8436 153.823 90.8186 128.948C95.8073 104.073 88.5561 81.6464 74.6311 78.8589C69.2061 77.7714 63.5686 79.8589 58.4061 84.2589C52.7811 89.0464 47.7311 96.6089 44.1561 105.884C44.0311 105.859 43.9061 105.846 43.7811 105.796C42.0311 105.296 41.0936 104.159 39.8811 103.896C41.928 101.683 43.2792 98.9177 43.7668 95.9429C44.2543 92.9682 43.8567 89.9157 42.6233 87.1652C41.3898 84.4146 39.3751 82.0873 36.8295 80.4727C34.284 78.8581 31.32 78.0261 28.3061 78.0826ZM64.0811 93.6339C64.7561 93.6339 65.4186 93.6839 66.0811 93.8214C75.1561 95.6089 79.8811 110.221 76.6311 126.421C73.3936 142.648 63.4061 154.298 54.3436 152.485C48.1811 151.26 44.0436 144.11 43.0311 134.573C45.2936 135.448 47.6561 135.985 50.0311 136.098C56.6186 136.398 60.9186 134.173 64.2811 129.685C68.6061 123.873 65.3311 107.773 59.6061 105.685C55.1561 104.06 52.5186 106.023 48.5561 106.31C50.5561 102.585 52.9436 99.5101 55.5186 97.3101C58.2561 94.9976 61.1811 93.6601 64.0936 93.6226L64.0811 93.6339Z" fill="#FF574D"/>
</svg>
