<svg width="300" height="300" viewBox="0 0 300 300" fill="none" xmlns="http://www.w3.org/2000/svg">
<path d="M240.688 37.2793C191.175 -12.2306 110.721 -12.4306 60.9538 36.709L60.3697 37.2902C10.6816 87.006 10.6974 167.881 60.3994 217.578L137.169 294.334C138.76 295.929 140.651 297.194 142.733 298.056C144.815 298.918 147.047 299.36 149.3 299.356C153.689 299.356 158.091 297.687 161.44 294.334C168.133 287.631 168.133 276.763 161.44 270.064L84.6584 193.301C48.4481 157.097 48.3323 98.2355 84.3218 61.8788L84.6722 61.5353C121.003 25.227 180.107 25.2379 216.415 61.5471C246.23 91.364 250.509 142.39 226.349 180.252C221.254 188.235 223.601 198.846 231.584 203.943C239.586 209.055 250.183 206.697 255.275 198.717C288.429 146.767 282.292 78.8801 240.688 37.2793ZM209.966 221.514C216.663 228.217 216.671 239.086 209.966 245.779C208.378 247.378 206.489 248.646 204.409 249.51C202.328 250.375 200.097 250.818 197.844 250.815C195.588 250.818 193.353 250.375 191.267 249.513C189.182 248.65 187.288 247.384 185.693 245.788L108.926 169.032C85.9929 146.092 85.9929 108.758 108.926 85.813C120.039 74.7112 134.812 68.591 150.526 68.591H150.543C166.254 68.591 181.029 74.7191 192.134 85.8388C199.645 93.3436 204.983 102.742 207.583 113.036C210.183 123.331 209.947 134.137 206.901 144.308C204.172 153.389 194.63 158.56 185.544 155.842C176.462 153.134 171.292 143.571 173.998 134.483C175.273 130.244 175.376 125.739 174.295 121.446C173.215 117.153 170.991 113.233 167.86 110.104C163.23 105.467 157.084 102.916 150.535 102.913H150.525C143.975 102.913 137.829 105.462 133.196 110.087C123.639 119.644 123.639 135.2 133.196 144.76L209.966 221.514Z" fill="white"/>
</svg>
