<svg width="300" height="300" viewBox="0 0 300 300" fill="none" xmlns="http://www.w3.org/2000/svg">
<g clip-path="url(#clip0_2033_131)">
<path d="M150 300C232.843 300 300 232.843 300 150C300 67.1573 232.843 0 150 0C67.1573 0 0 67.1573 0 150C0 232.843 67.1573 300 150 300Z" fill="#2CA01C"/>
<path d="M41.666 150C41.666 165.471 47.8118 180.309 58.7515 191.248C69.6911 202.188 84.5284 208.334 99.9994 208.334H108.333V186.667H99.9994C90.2747 186.667 80.9484 182.804 74.0721 175.928C67.1958 169.051 63.3327 159.725 63.3327 150C63.3327 140.276 67.1958 130.949 74.0721 124.073C80.9484 117.197 90.2747 113.334 99.9994 113.334H119.999V226.667C119.999 229.512 120.56 232.33 121.649 234.958C122.737 237.587 124.333 239.976 126.345 241.988C128.357 244 130.746 245.596 133.375 246.684C136.003 247.773 138.821 248.334 141.666 248.334V91.667H99.9994C84.5284 91.667 69.6911 97.8128 58.7515 108.752C47.8118 119.692 41.666 134.529 41.666 150ZM199.999 91.667H191.666V113.334H199.999C209.724 113.334 219.05 117.197 225.927 124.073C232.803 130.949 236.666 140.276 236.666 150C236.666 159.725 232.803 169.051 225.927 175.928C219.05 182.804 209.724 186.667 199.999 186.667H179.999V73.3337C179.999 67.5873 177.717 62.0763 173.653 58.013C169.59 53.9497 164.079 51.667 158.333 51.667V208.334H199.999C207.66 208.334 215.245 206.825 222.323 203.893C229.4 200.962 235.83 196.665 241.247 191.248C246.664 185.831 250.961 179.401 253.892 172.324C256.824 165.246 258.333 157.661 258.333 150C258.333 142.34 256.824 134.754 253.892 127.677C250.961 120.6 246.664 114.169 241.247 108.752C235.83 103.336 229.4 99.0389 222.323 96.1074C215.245 93.1758 207.66 91.667 199.999 91.667Z" fill="white"/>
</g>
<defs>
<clipPath id="clip0_2033_131">
<rect width="300" height="300" fill="white"/>
</clipPath>
</defs>
</svg>
