<svg width="300" height="300" viewBox="0 0 300 300" fill="none" xmlns="http://www.w3.org/2000/svg">
<g clip-path="url(#clip0_2022_804)">
<path d="M150 300C232.843 300 300 232.843 300 150C300 67.1573 232.843 0 150 0C67.1573 0 0 67.1573 0 150C0 232.843 67.1573 300 150 300Z" fill="#FF4500"/>
<path d="M250.049 150C249.895 145.777 248.523 141.69 246.098 138.23C243.673 134.77 240.299 132.086 236.382 130.5C232.466 128.915 228.175 128.496 224.026 129.294C219.877 130.093 216.048 132.074 212.999 135C195.936 123.4 175.877 116.992 155.249 116.55L164.999 69.7496L197.099 76.4996C197.481 80.0468 199.114 83.3419 201.706 85.7934C204.299 88.2448 207.68 89.6921 211.243 89.8754C214.806 90.0587 218.317 88.9661 221.147 86.7936C223.977 84.6211 225.94 81.5111 226.684 78.0217C227.427 74.5324 226.903 70.8922 225.205 67.7547C223.506 64.6172 220.745 62.1877 217.417 60.9024C214.089 59.6171 210.412 59.5602 207.045 60.7418C203.679 61.9234 200.844 64.2662 199.049 67.3496L162.299 59.9996C161.698 59.8678 161.077 59.8565 160.472 59.9665C159.866 60.0765 159.289 60.3056 158.772 60.6404C158.256 60.9753 157.812 61.4093 157.464 61.9172C157.117 62.4252 156.874 62.997 156.749 63.5996L145.649 115.65C124.768 115.964 104.433 122.377 87.1493 134.1C84.8369 131.924 82.0791 130.277 79.067 129.273C76.0548 128.269 72.8604 127.932 69.7051 128.285C66.5498 128.639 63.509 129.674 60.7936 131.319C58.0781 132.965 55.7528 135.181 53.979 137.814C52.2051 140.447 51.025 143.435 50.5204 146.569C50.0159 149.704 50.199 152.911 51.0571 155.968C51.9151 159.025 53.4276 161.859 55.4897 164.273C57.5518 166.687 60.1142 168.624 62.9993 169.95C62.8304 172.146 62.8304 174.353 62.9993 176.55C62.9993 210.15 102.149 237.45 150.449 237.45C198.749 237.45 237.899 210.15 237.899 176.55C238.068 174.353 238.068 172.146 237.899 169.95C241.601 168.11 244.706 165.26 246.856 161.73C249.006 158.199 250.113 154.133 250.049 150ZM100.049 165C100.049 162.033 100.929 159.133 102.577 156.666C104.225 154.199 106.568 152.277 109.309 151.141C112.05 150.006 115.066 149.709 117.976 150.288C120.885 150.867 123.558 152.295 125.656 154.393C127.754 156.491 129.182 159.164 129.761 162.073C130.34 164.983 130.043 167.999 128.908 170.74C127.772 173.481 125.85 175.823 123.383 177.472C120.916 179.12 118.016 180 115.049 180C113.079 180 111.129 179.612 109.309 178.858C107.489 178.104 105.836 176.999 104.443 175.606C103.05 174.213 101.945 172.56 101.191 170.74C100.437 168.92 100.049 166.969 100.049 165ZM187.199 206.25C176.557 214.269 163.464 218.351 150.149 217.8C136.835 218.351 123.741 214.269 113.099 206.25C112.461 205.472 112.135 204.486 112.185 203.482C112.234 202.477 112.655 201.527 113.366 200.816C114.077 200.106 115.027 199.684 116.031 199.635C117.035 199.586 118.022 199.912 118.799 200.55C127.818 207.165 138.826 210.499 149.999 210C161.186 210.608 172.246 207.38 181.349 200.85C182.145 200.074 183.216 199.646 184.327 199.66C184.878 199.667 185.421 199.782 185.927 199.999C186.432 200.216 186.89 200.531 187.274 200.925C187.658 201.319 187.961 201.784 188.165 202.295C188.369 202.806 188.471 203.352 188.464 203.903C188.457 204.453 188.342 204.996 188.125 205.502C187.908 206.008 187.593 206.466 187.199 206.85V206.25ZM184.499 180.6C181.533 180.6 178.632 179.72 176.166 178.072C173.699 176.423 171.776 174.081 170.641 171.34C169.506 168.599 169.209 165.583 169.788 162.673C170.366 159.764 171.795 157.091 173.893 154.993C175.99 152.895 178.663 151.467 181.573 150.888C184.483 150.309 187.499 150.606 190.24 151.741C192.98 152.877 195.323 154.799 196.971 157.266C198.62 159.733 199.499 162.633 199.499 165.6C199.581 167.632 199.248 169.66 198.521 171.56C197.795 173.459 196.689 175.192 195.272 176.651C193.855 178.11 192.156 179.266 190.278 180.048C188.4 180.83 186.383 181.222 184.349 181.2L184.499 180.6Z" fill="white"/>
</g>
<defs>
<clipPath id="clip0_2022_804">
<rect width="300" height="300" fill="white"/>
</clipPath>
</defs>
</svg>
