<svg width="300" height="300" viewBox="0 0 300 300" fill="none" xmlns="http://www.w3.org/2000/svg">
<path d="M278.876 159.143C278.876 182.33 276.274 202.939 271.076 226.126C263.273 259.617 239.871 282.802 206.068 290.53C161.863 300.835 115.057 300.835 70.8524 290.53C39.6489 282.802 13.6461 257.039 8.4454 226.126C3.24489 202.939 0.644531 179.753 0.644531 159.143C0.644531 135.958 3.24489 115.348 8.4454 92.1623C16.2463 58.6716 39.6489 35.4855 73.4528 27.7569C94.255 22.6046 117.658 20.0283 141.06 20.0283C164.462 20.0283 185.265 22.6046 208.667 27.7569C242.471 35.4855 265.875 58.6716 273.675 92.1623C276.274 112.772 278.876 135.958 278.876 159.143Z" fill="#80ADFD"/>
<path d="M226.061 143.689C265.188 143.689 296.906 111.97 296.906 72.8428C296.906 33.7158 265.188 1.99707 226.061 1.99707C186.934 1.99707 155.215 33.7158 155.215 72.8428C155.215 111.97 186.934 143.689 226.061 143.689Z" fill="#005AFF"/>
</svg>
