<svg width="300" height="300" viewBox="0 0 300 300" fill="none" xmlns="http://www.w3.org/2000/svg">
<path d="M66.459 60.1792C66.459 40.4293 85.1621 24.6293 109.771 24.6293C141.271 24.6293 159.975 39.4418 170.803 114.492H177.693L187.537 11.7918C116.662 -12.8956 30.0371 13.7668 29.0527 86.8417C29.0527 166.829 156.037 166.829 156.037 239.904C156.037 261.629 137.334 275.454 115.678 275.454C59.5684 275.454 46.7715 228.054 43.8183 178.679H35.9434L17.2402 271.504C17.2402 271.504 58.584 296.191 103.865 296.191C158.006 295.204 193.443 255.704 195.412 214.229C195.412 134.242 66.459 117.454 66.459 60.1792Z" fill="white"/>
<path d="M225.668 268.543C225.668 253.73 237.481 239.905 254.215 239.905C270.949 239.905 282.762 252.743 282.762 268.543C282.762 284.343 270.949 297.18 254.215 297.18C237.481 297.18 225.668 283.355 225.668 268.543Z" fill="#B4D625"/>
</svg>
