<svg width="300" height="300" viewBox="0 0 300 300" fill="none" xmlns="http://www.w3.org/2000/svg">
<path d="M66.458 60.1792C66.458 40.4293 85.1611 24.6293 109.771 24.6293C141.271 24.6293 159.974 39.4418 170.802 114.492H177.692L187.536 11.7918C116.661 -12.8956 30.0361 13.7668 29.0517 86.8417C29.0517 166.829 156.036 166.829 156.036 239.904C156.036 261.629 137.333 275.454 115.677 275.454C59.5674 275.454 46.7705 228.054 43.8174 178.679H35.9424L17.2393 271.504C17.2393 271.504 58.583 296.191 103.864 296.191C158.005 295.204 193.442 255.704 195.411 214.229C195.411 134.242 66.458 117.454 66.458 60.1792Z" fill="white"/>
<path d="M225.666 268.543C225.666 253.73 237.479 239.905 254.213 239.905C270.947 239.905 282.76 252.743 282.76 268.543C282.76 284.343 270.947 297.18 254.213 297.18C237.479 297.18 225.666 283.355 225.666 268.543Z" fill="#B4D625"/>
</svg>
