<svg width="300" height="300" viewBox="0 0 300 300" fill="none" xmlns="http://www.w3.org/2000/svg">
<path d="M149.872 233.908C149.78 232.234 149.66 231.066 149.66 229.897C149.66 199.691 149.66 169.484 149.66 139.268C149.66 136.958 149.66 135.222 152.689 134.169C183.269 123.642 213.767 112.921 244.293 102.253C244.986 102.014 245.724 101.891 246.749 101.643C246.879 103.068 247.073 104.219 247.073 105.361C247.073 135.718 247.091 166.075 247.119 196.432C247.119 198.867 246.823 200.443 243.915 201.443C213.315 211.952 182.78 222.647 152.218 233.315C151.636 233.447 151.017 233.598 149.872 233.908Z" fill="#51D5FF"/>
<path d="M142.271 233.908C130.284 229.418 118.762 225.052 107.223 220.775C90.0656 214.373 72.9073 207.988 55.7405 201.603C53.8561 200.903 52.1868 200.505 52.1953 197.529C52.3418 166.128 52.2901 134.726 52.3072 103.325C52.3588 102.758 52.4536 102.2 52.5739 101.643C54.0111 102.103 55.3796 102.484 56.6958 102.971C84.0848 113.181 111.465 123.409 138.837 133.637C140.86 134.39 142.71 134.815 142.693 138.021C142.546 169.121 142.607 200.23 142.589 231.33C142.589 231.907 142.452 232.491 142.271 233.908Z" fill="#51D5FF"/>
<path d="M264.402 243.708C269.474 243.708 273.855 243.664 278.235 243.708C282.192 243.759 284.721 246.055 284.654 249.411C284.594 252.658 282.192 254.895 278.407 254.932C269.608 254.998 260.81 254.998 252.019 254.932C248.3 254.932 245.935 252.563 245.972 249.265C246.069 240.87 246.203 232.483 246.307 224.088C246.359 219.701 248.069 217.624 251.684 217.632C255.298 217.639 257.136 219.76 257.262 224.052C257.351 227.13 257.389 230.216 257.463 233.295C257.463 233.383 257.604 233.463 257.976 233.902C259.642 231.708 261.308 229.668 262.847 227.518C307.248 165.231 291.89 79.3466 228.547 35.6914C185.551 6.0615 129.317 2.55884 82.8636 26.6167C80.3204 27.9549 77.8735 29.4612 75.5378 31.1211C73.0091 32.8834 70.5549 32.9492 68.3461 30.9383C65.9736 28.7446 66.0109 26.0756 67.8477 23.6259C68.7549 22.4559 69.9003 21.4834 71.2019 20.7595C102.164 2.85133 135.431 -3.34959 170.818 1.68866C203.312 6.31742 231.239 20.1964 254.532 42.8503C278.012 65.6869 292.708 93.24 297.49 125.378C303.924 168.58 293.437 207.628 265.718 241.975C265.413 242.348 265.138 242.772 264.402 243.708Z" fill="#51D5FF"/>
<path d="M33.923 55.2939H21.2866C17.1306 55.2436 14.5111 52.9844 14.5989 49.6177C14.6867 46.2511 17.0866 44.3519 21.1842 44.3447H46.0618C51.1031 44.3447 52.5813 46.3734 52.4056 51.438C52.1347 59.2075 52.2518 66.9983 52.2518 74.7751C52.2518 78.8899 50.7227 80.9188 47.335 81.0625C43.618 81.2207 41.818 79.3578 41.7229 75.063C41.6497 71.581 41.7229 68.0919 40.8887 64.2722C40.1131 65.2433 39.3083 66.1927 38.5546 67.1928C-0.891135 119.363 2.92832 191.864 48.0228 239.402C77.1735 270.127 113.59 284.501 156.219 282.882C176.669 282.077 196.66 276.602 214.586 266.89C215.998 266.134 217.418 265.394 218.859 264.732C222.152 263.178 225.042 263.883 226.542 266.573C228.115 269.393 227.091 272.408 223.805 274.22C212.852 280.336 201.189 285.105 189.057 288.436C121.997 306.565 50.4885 277.559 18.6598 217.194C-10.3007 162.254 -5.2008 108.817 31.523 58.4377C32.1523 57.5817 32.8181 56.747 33.923 55.2939Z" fill="#51D5FF"/>
<path d="M52.1953 94.6582C64.6684 89.9578 75.7864 85.7764 86.9044 81.5762C105.558 74.5399 124.174 67.4271 142.874 60.5349C145.018 59.737 147.347 59.6604 149.528 60.3234C178.854 71.1849 208.106 82.2391 237.367 93.2544C238.081 93.5139 238.759 93.8408 240.151 94.4467C238.722 95.1965 237.915 95.7343 237.033 96.071C207.958 107.038 178.854 117.967 149.723 128.868C147.867 129.598 145.835 129.684 143.923 129.127C113.79 117.919 83.6746 106.519 52.1953 94.6582Z" fill="#51D5FF"/>
</svg>
