<svg width="300" height="300" viewBox="0 0 300 300" fill="none" xmlns="http://www.w3.org/2000/svg">
<path d="M248.643 58.8821C248.437 57.3821 247.123 56.552 246.037 56.4605C244.953 56.3701 222.013 54.6698 222.013 54.6698C222.013 54.6698 206.081 38.853 204.332 37.1023C202.583 35.3526 199.166 35.8848 197.839 36.2752C197.644 36.3328 194.359 37.3468 188.924 39.0287C183.602 23.7143 174.209 9.641 157.686 9.641C157.229 9.641 156.76 9.6595 156.29 9.68621C151.591 3.47148 145.77 0.771484 140.742 0.771484C102.25 0.771484 83.8609 48.8896 78.0952 73.3417C63.1383 77.9763 52.513 81.2711 51.1558 81.6975C42.8071 84.3163 42.5431 84.5794 41.4469 92.4461C40.6219 98.402 18.7773 267.336 18.7773 267.336L188.994 299.228L281.224 279.276C281.224 279.276 248.847 60.3821 248.643 58.8821ZM179.516 41.9383L165.113 46.3961C165.118 45.3811 165.123 44.3824 165.123 43.2903C165.123 33.7725 163.802 26.1092 161.682 20.0342C170.196 21.1026 175.866 30.79 179.516 41.9383ZM151.121 21.9215C153.488 27.8526 155.027 36.3646 155.027 47.8509C155.027 48.4386 155.022 48.9759 155.016 49.5194C145.65 52.4208 135.471 55.5708 125.27 58.7311C130.998 36.6256 141.734 25.9489 151.121 21.9215ZM139.685 11.0958C141.346 11.0958 143.019 11.6598 144.621 12.7622C132.285 18.567 119.063 33.1869 113.479 62.3824L89.9657 69.6646C96.5061 47.3958 112.037 11.0958 139.685 11.0958Z" fill="#95BF46"/>
<path d="M246.038 56.46C244.954 56.3696 222.014 54.6692 222.014 54.6692C222.014 54.6692 206.082 38.8524 204.334 37.1018C203.679 36.4504 202.797 36.1165 201.874 35.9727L189.004 299.226L281.225 279.276C281.225 279.276 248.848 60.3816 248.644 58.8816C248.438 57.3816 247.124 56.5514 246.038 56.46Z" fill="#5E8E3E"/>
<path d="M157.687 107.422L146.315 141.25C146.315 141.25 136.351 135.932 124.137 135.932C106.232 135.932 105.331 147.169 105.331 150C105.331 165.45 145.605 171.37 145.605 207.559C145.605 236.031 127.546 254.365 103.197 254.365C73.9776 254.365 59.0352 236.18 59.0352 236.18L66.8588 210.331C66.8588 210.331 82.2184 223.518 95.179 223.518C103.648 223.518 107.093 216.85 107.093 211.978C107.093 191.824 74.0516 190.925 74.0516 157.809C74.0516 129.937 94.0571 102.965 134.44 102.965C150 102.965 157.687 107.422 157.687 107.422Z" fill="white"/>
</svg>
