<svg width="300" height="300" viewBox="0 0 300 300" fill="none" xmlns="http://www.w3.org/2000/svg">
<g clip-path="url(#clip0_2022_838)">
<path fill-rule="evenodd" clip-rule="evenodd" d="M110.074 0C93.5231 0.0122324 80.1286 13.4434 80.1408 29.9939C80.1286 46.5443 93.5353 59.9755 110.086 59.9878H140.031V30.0061C140.043 13.4557 126.636 0.0244648 110.074 0C110.086 0 110.086 0 110.074 0ZM110.074 80H30.2448C13.6943 80.0122 0.287606 93.4434 0.299838 109.994C0.275373 126.544 13.6821 139.976 30.2326 140H110.074C126.624 139.988 140.031 126.557 140.019 110.006C140.031 93.4434 126.624 80.0122 110.074 80Z" fill="#36C5F0"/>
<path fill-rule="evenodd" clip-rule="evenodd" d="M299.701 109.994C299.713 93.4434 286.307 80.0122 269.756 80C253.206 80.0122 239.799 93.4434 239.811 109.994V140H269.756C286.307 139.988 299.713 126.557 299.701 109.994ZM219.86 109.994V29.9939C219.872 13.4557 206.478 0.0244648 189.927 0C173.377 0.0122324 159.97 13.4434 159.982 29.9939V109.994C159.958 126.544 173.365 139.976 189.915 140C206.466 139.988 219.872 126.557 219.86 109.994Z" fill="#2EB67D"/>
<path fill-rule="evenodd" clip-rule="evenodd" d="M189.914 300C206.464 299.987 219.871 286.556 219.859 270.006C219.871 253.455 206.464 240.024 189.914 240.012H159.969V270.006C159.957 286.544 173.363 299.975 189.914 300ZM189.914 219.987H269.755C286.305 219.975 299.712 206.544 299.7 189.993C299.724 173.443 286.317 160.012 269.767 159.987H189.926C173.375 160 159.969 173.431 159.981 189.981C159.969 206.544 173.363 219.975 189.914 219.987Z" fill="#ECB22E"/>
<path fill-rule="evenodd" clip-rule="evenodd" d="M0.299813 189.994C0.287581 206.544 13.6943 219.976 30.2448 219.988C46.7952 219.976 60.202 206.544 60.1897 189.994V160H30.2448C13.6943 160.012 0.287581 173.443 0.299813 189.994ZM80.1408 189.994V269.994C80.1163 286.544 93.5231 299.976 110.074 300C126.624 299.988 140.031 286.557 140.018 270.006V190.018C140.043 173.468 126.636 160.037 110.086 160.012C93.5231 160.012 80.1286 173.443 80.1408 189.994Z" fill="#E01E5A"/>
</g>
<defs>
<clipPath id="clip0_2022_838">
<rect width="300" height="300" fill="white"/>
</clipPath>
</defs>
</svg>
