<svg width="300" height="300" viewBox="0 0 300 300" fill="none" xmlns="http://www.w3.org/2000/svg">
<path d="M152.575 9.91289C164.95 9.91289 206.913 13.3629 226.7 57.6754C233.313 72.5879 231.738 97.9129 230.438 118.263L230.4 119.013C230.25 121.263 230.125 123.325 230.025 125.388C230.963 125.95 232.563 126.513 235.038 126.513C238.788 126.313 243.275 125.013 247.95 122.75C250.013 121.65 252.25 121.45 253.75 121.45C256.025 121.45 258.238 121.813 260.113 122.575C265.738 124.438 269.288 128.563 269.288 133.05C269.475 138.663 264.413 143.538 254.125 147.65C253.013 148.013 251.513 148.588 249.825 149.138C244.2 150.825 235.588 153.638 233.163 159.263C232.038 162.063 232.4 165.813 234.663 170.113L234.85 170.3C235.6 172 253.925 213.738 294.738 220.475C297.925 221.025 300.175 223.85 299.988 226.838C299.988 227.775 299.8 228.7 299.425 229.65C296.425 236.763 283.513 242 260.1 245.538C259.363 246.675 258.6 250.225 258.05 252.663C257.688 254.9 257.125 257.163 256.375 259.575C255.425 262.963 253 264.638 249.438 264.638H249.063C247.375 264.638 245.15 264.25 242.338 263.713C237.838 262.775 232.775 262.025 226.425 262.025C222.675 262.025 218.938 262.213 215.013 262.95C207.513 264.25 200.975 268.75 193.475 274C182.813 281.488 170.65 290.1 152.3 290.1C151.55 290.1 150.813 289.913 150.05 289.913H148.188C129.838 289.913 117.85 281.475 107.2 273.813C99.7129 268.563 93.3629 264.075 85.8629 262.763C81.9379 262.2 78.0004 261.838 74.2629 261.838C67.5129 261.838 62.2879 262.95 58.3629 263.7C55.7254 264.238 53.4754 264.625 51.6129 264.625C46.9379 264.625 45.0754 261.825 44.3254 259.375C43.5629 256.975 43.2004 254.513 42.6379 252.288C42.0629 250.025 41.3254 246.113 40.5629 245.163C16.5879 242.388 3.68786 237.138 0.700357 229.838C0.312857 229.05 0.0503573 227.963 0.0128573 227.025C-0.174643 223.988 2.07536 221.213 5.26286 220.663C46.0629 213.913 64.3879 172.175 65.1504 170.413L65.3504 170.05C67.6004 165.738 68.1504 161.988 66.8379 159.188C64.4004 153.763 55.7879 150.963 50.1879 149.075C48.6754 148.713 47.1879 148.15 45.8629 147.588C32.0254 142.15 30.1504 135.963 30.9004 131.675C32.0254 125.688 39.3254 121.763 45.5004 121.763C47.3254 121.763 48.8754 122.125 50.2879 122.688C55.5379 125.113 60.1504 126.438 64.0879 126.438C67.0129 126.438 68.8879 125.688 69.9004 125.125L69.3254 118.013C68.1004 97.6879 66.5129 72.3754 73.1629 57.5504C92.4004 13.4629 134.238 10.0879 146.588 10.0879L151.825 9.90039L152.575 9.91289Z" fill="white"/>
</svg>
