<svg width="300" height="300" viewBox="0 0 300 300" fill="none" xmlns="http://www.w3.org/2000/svg">
<g clip-path="url(#clip0_2022_848)">
<path d="M300 43.2379C300 51.3129 294.775 57.9879 285.738 57.9879C276.7 57.9879 271.463 51.3129 271.463 43.2379C271.463 35.1504 276.7 28.4879 285.738 28.4879C294.775 28.4879 300 35.1504 300 43.2379ZM297.15 43.2379C297.15 36.5754 292.4 31.3504 285.738 31.3504C279.075 31.3504 274.325 36.1004 274.325 43.2254C274.325 49.8879 279.075 55.1254 285.738 55.1254C292.863 55.1254 297.15 49.8879 297.15 43.2379ZM280.025 36.5754H286.213C289.538 36.5754 291.913 38.4754 291.913 41.3254C291.913 43.2379 290.963 44.1879 289.538 45.1379L291.913 48.4629V48.9379H288.588L286.213 45.6129H283.35V48.9379H280.025V36.5754ZM286.213 39.4254H283.35V42.7629H286.213C287.638 42.7629 288.113 42.2879 288.113 41.3379C288.588 40.3754 287.638 39.4254 286.213 39.4254ZM95.0253 155C95.5003 153.113 95.9753 151.2 95.9753 149.3C95.9753 147.875 95.5003 146.45 95.5003 145.025C94.0753 140.738 91.7003 136.938 87.4253 134.55L26.5503 99.8379C17.9878 95.0879 7.0503 97.9379 2.3003 106.5C-2.4622 115.063 0.387804 126 8.9503 130.75L42.7128 150.25L8.9503 169.75C0.387804 174.5 -2.4622 185.45 2.2878 194C7.0378 202.563 17.9878 205.425 26.5378 200.663L86.9378 165.95C91.2253 162.613 94.0753 159.288 95.0253 155ZM111.675 187.825C108.35 187.35 104.55 188.3 101.213 190.2L40.8128 224.913C32.2503 229.663 29.4003 240.613 34.1628 249.163C38.9128 257.738 49.8503 260.588 58.4128 255.825L92.1753 236.325V275.325C92.1753 285.325 100.263 292.925 110.25 292.925C120.238 292.925 127.838 284.838 127.838 275.325V205.425C127.838 195.913 120.713 188.3 111.675 187.825ZM173.5 111.725C176.825 112.2 180.625 111.25 183.963 109.35L244.363 74.6379C252.925 69.8879 255.775 58.9379 251.013 50.3879C246.263 41.8129 235.325 38.9629 226.763 43.7254L193 63.2254V24.6879C193 14.7004 184.913 7.08789 174.925 7.08789C164.938 7.08789 156.85 14.7004 156.85 24.6879V94.1254C156.85 103.625 164.463 111.263 173.5 111.725ZM40.8128 74.6254L101.213 109.338C104.538 111.238 107.875 111.713 111.675 111.713C120.713 111.238 128.313 103.163 128.313 94.1254V24.6879C128.313 14.7004 120.238 7.08789 110.725 7.08789C100.738 7.08789 92.6503 15.1754 92.6503 24.6879V63.6879L58.8878 44.1879C50.3253 39.4379 39.3878 42.2879 34.6378 50.8504C29.4003 58.9254 32.2628 69.8629 40.8128 74.6254ZM154.475 149.763C154.418 148.519 153.912 147.337 153.05 146.438L145.925 139.3C145.505 138.835 144.989 138.467 144.413 138.221C143.837 137.975 143.214 137.857 142.588 137.875C141.344 137.933 140.162 138.439 139.263 139.3L132.125 146.425C131.26 147.328 130.753 148.514 130.7 149.763C130.7 150.713 131.175 152.138 132.125 153.1L139.25 160.225C139.67 160.691 140.185 161.06 140.762 161.306C141.338 161.552 141.961 161.67 142.588 161.65C143.538 161.65 144.963 161.175 145.913 160.225L153.05 153.1C153.915 152.198 154.421 151.011 154.475 149.763ZM174.45 156.425L149.25 181.625C148.763 182.1 147.338 183.05 146.388 183.05H138.788C137.539 182.997 136.352 182.491 135.45 181.625L110.25 156.425C109.652 155.589 109.321 154.591 109.3 153.563V145.963C109.3 145.013 109.775 143.588 110.725 142.625L135.925 117.425C136.827 116.559 138.014 116.052 139.263 116H146.863C148.112 116.052 149.299 116.559 150.2 117.425L175.4 142.625C175.865 143.046 176.233 143.562 176.479 144.138C176.725 144.714 176.843 145.337 176.825 145.963V153.563C175.875 154.525 175.4 155.938 174.45 156.425ZM244.363 224.425L183.963 189.713C180.638 187.813 176.838 187.338 173.5 187.813C164.463 188.288 156.85 196.363 156.85 205.413V274.838C156.85 284.838 164.938 292.438 174.45 292.438C184.438 292.438 192.525 284.35 192.525 274.838V235.838L226.275 255.338C234.85 260.088 245.788 257.238 250.538 248.675C255.775 240.6 252.913 229.663 244.363 224.425ZM276.225 130.263L242.463 149.763L276.213 169.263C284.788 174.013 287.638 184.963 282.875 193.513C278.125 202.075 267.188 204.925 258.625 200.175L198.225 165.45C194.533 163.075 191.699 159.579 190.138 155.475C189.675 153.563 189.188 151.663 189.188 149.763C189.188 148.338 189.675 146.913 189.675 145.488C191.1 141.2 193.95 137.4 197.75 135.025L258.15 100.3C266.713 95.5504 277.65 98.4004 282.4 106.963C288.113 114.575 284.775 125.513 276.225 130.263Z" fill="white"/>
</g>
<defs>
<clipPath id="clip0_2022_848">
<rect width="300" height="300" fill="white"/>
</clipPath>
</defs>
</svg>
