<svg width="300" height="300" viewBox="0 0 300 300" fill="none" xmlns="http://www.w3.org/2000/svg">
<path d="M14.6875 152.813C14.05 152.813 13.5125 153.388 13.425 154.063L10.5125 180.988L13.425 207.3C13.5125 208.025 14.05 208.525 14.6875 208.525C15.3125 208.525 15.8125 208.025 15.925 207.3L19.1125 180.988L15.7375 154.063C15.7375 153.35 15.175 152.813 14.6125 152.813M3.375 163.163C2.625 163.163 2.2375 163.625 2.075 164.338L0 180.988L2.0625 197.338C2.0625 198.025 2.625 198.513 3.1875 198.513C3.75 198.513 4.3 197.95 4.4875 197.213L7.1125 180.725L4.4875 164.05C4.4875 163.288 3.9375 162.925 3.3625 162.925M26.2375 147.563C25.475 147.563 24.7375 148.125 24.7375 148.863L22.1125 180.9L24.925 211.625C24.925 212.375 25.4875 213.125 26.4125 213.125C27.175 213.125 27.725 212.363 27.925 211.625L31.1 180.7L27.925 148.85C27.725 148.1 27.1625 147.35 26.4125 147.35M38.225 146.238C37.2875 146.238 36.5375 146.988 36.35 147.925L33.9375 180.925L36.5625 212.725C36.7625 213.688 37.5 214.45 38.425 214.45C39.3625 214.45 40.1125 213.688 40.3 212.575L43.3 180.925L40.3 148.138C40.3 147.2 39.55 146.45 38.6125 146.45L38.225 146.238ZM52.6625 150.738C52.6 149.613 51.725 148.875 50.675 148.875C49.55 148.875 48.7 149.625 48.625 150.738L45.9125 181.113L48.4125 213.15C48.4125 214.275 49.35 215.113 50.4 215.113C51.325 215.113 52.25 214.263 52.25 213.138L55.0875 181.1L52.25 150.55L52.6625 150.738ZM62.775 129.375C61.5125 129.375 60.525 130.5 60.525 131.638L57.9 181.1L60.2375 213.138C60.2375 214.263 61.2375 215.188 62.4875 215.188C63.6625 215.188 64.6625 214.063 64.7375 212.938L67.35 180.9L64.7375 131.25C64.6375 129.95 63.6375 129 62.4875 129M74.475 117.575C73.1625 117.575 72.0375 118.7 71.9375 120L69.6875 180.9L71.75 212.75C71.75 214.25 72.875 215.363 74.1875 215.363C75.4875 215.363 76.6125 214.25 76.8125 212.75L79.225 180.9L76.825 120.2C76.625 118.7 75.5125 117.575 74.2 117.575M86.5625 111.963C85.05 111.963 83.925 113.075 83.75 114.575L81.6875 180.513L83.75 212.013C83.925 213.5 85.05 214.825 86.5625 214.825C88.05 214.825 89.375 213.513 89.375 212.013L91.8125 180.513L89.3625 114.575C89.3625 113.075 88.05 111.763 86.55 111.763M102.112 112.325C102.112 110.638 100.8 109.325 99.1125 109.325C97.625 109.325 96.1125 110.638 96.1125 112.325L94.25 180.338L96.1125 211.625C96.3125 213.313 97.625 214.625 99.3125 214.625C101 214.625 102.313 213.313 102.313 211.625L104.363 180.338L102.313 112.138L102.112 112.325ZM111.475 110.65C109.788 110.65 108.287 112.138 108.287 113.825L106.412 180.35L108.287 211.263C108.287 213.138 109.788 214.45 111.475 214.45C113.163 214.45 114.663 212.95 114.663 211.075L116.537 180.15L114.475 113.813C114.475 111.963 112.975 110.438 111.088 110.438M123.65 112.513C121.6 112.513 120.1 114.2 120.1 116.075L118.812 180.363L120.5 211.288C120.5 213.15 121.987 214.75 124.05 214.75C125.912 214.75 127.438 213.25 127.6 211.188L129.113 180.65L127.425 116.75C127.275 114.7 125.738 113.188 123.863 113.188M138.663 101.375C138.1 101.013 137.35 100.825 136.6 100.825C135.85 100.825 135.112 101.013 134.537 101.375C133.412 102.05 132.675 103.25 132.675 104.563V105.325L131.375 180.925L132.812 211.538V211.638C132.913 212.388 133.188 213.325 133.738 213.888C134.463 214.65 135.512 215.188 136.662 215.188C137.662 215.188 138.637 214.638 139.275 214.063C140 213.313 140.412 212.375 140.412 211.25L140.6 208.25L142.062 180.713L140.375 104.638C140.375 103.338 139.613 102.225 138.688 101.65L138.663 101.375ZM151.238 94.5377C150.675 93.9752 150.113 93.7752 149.363 93.7752C148.438 93.7752 147.5 93.9752 146.75 94.5377C145.812 95.3002 145.262 96.4127 145.262 97.5377V97.9002L143.55 180.513L144.5 195.7L145.262 210.513C145.262 212.563 147.113 214.438 149.363 214.438C151.625 214.438 153.488 212.563 153.488 210.325L155.363 180.15L153.488 97.1877C153.488 95.6877 152.562 94.4252 151.425 93.7252M263.1 140.938C258.038 140.938 253.163 142.013 248.863 143.838C245.863 110.663 218.113 84.6377 184.012 84.6377C175.775 84.6377 167.7 86.3252 160.4 89.1252C157.587 90.2502 157.025 91.3752 156.837 93.6127V210.713C157.038 212.963 158.712 214.838 160.962 215.025H263.275C283.513 215.225 300 198.925 300 178.5C300 158.075 283.513 141.6 263.275 141.6" fill="white"/>
</svg>
