<svg width="300" height="300" viewBox="0 0 300 300" fill="none" xmlns="http://www.w3.org/2000/svg">
<g clip-path="url(#clip0_2022_858)">
<path d="M249.864 1.85529e-06H50.1364C36.8394 1.85529e-06 24.087 5.28221 14.6846 14.6846C5.28221 24.087 0 36.8394 0 50.1364L0 249.864C0 263.161 5.28221 275.913 14.6846 285.315C24.087 294.718 36.8394 300 50.1364 300H249.864C256.448 300.001 262.968 298.705 269.051 296.185C275.134 293.666 280.662 289.973 285.317 285.317C289.973 280.662 293.666 275.134 296.185 269.051C298.705 262.968 300.001 256.448 300 249.864V50.1364C300.002 43.5519 298.706 37.0315 296.187 30.9479C293.668 24.8643 289.975 19.3366 285.319 14.6806C280.663 10.0247 275.136 6.33171 269.052 3.81276C262.969 1.2938 256.448 -0.0017896 249.864 1.85529e-06ZM245.46 229.656C245.458 233.85 243.791 237.871 240.824 240.836C237.858 243.801 233.836 245.466 229.643 245.466H70.3913C68.3142 245.467 66.2573 245.059 64.338 244.265C62.4187 243.471 60.6746 242.307 59.2052 240.839C57.7359 239.37 56.57 237.627 55.7744 235.709C54.9787 233.79 54.5687 231.734 54.5678 229.656V70.3982C54.5669 68.3199 54.9755 66.2619 55.7704 64.3417C56.5653 62.4215 57.7309 60.6767 59.2004 59.2072C60.6699 57.7377 62.4146 56.5722 64.3349 55.7773C66.2551 54.9824 68.3131 54.5737 70.3913 54.5746H229.636C231.714 54.5746 233.771 54.9839 235.69 55.7792C237.61 56.5745 239.354 57.7402 240.822 59.2096C242.291 60.6791 243.456 62.4235 244.251 64.3432C245.045 66.263 245.454 68.3205 245.453 70.3982V229.656H245.46Z" fill="white"/>
<path d="M118.169 190.912C115.754 190.905 113.442 189.939 111.739 188.228C110.036 186.516 109.082 184.198 109.088 181.784V118.217C109.088 113.178 113.151 109.088 118.169 109.088H181.831C186.863 109.088 190.912 113.178 190.912 118.217V181.784C190.912 186.815 186.863 190.912 181.831 190.912H118.169Z" fill="white"/>
</g>
<defs>
<clipPath id="clip0_2022_858">
<rect width="300" height="300" fill="white"/>
</clipPath>
</defs>
</svg>
