<svg width="300" height="300" viewBox="0 0 300 300" fill="none" xmlns="http://www.w3.org/2000/svg">
<path d="M174.413 143.275H113.6V172.525H172.95C176.463 172.525 179.675 171.05 182.313 168.712C184.65 166.375 186.113 162.863 186.113 158.475C186.198 154.713 185.072 151.023 182.9 147.95C180.55 145.025 177.925 143.275 174.413 143.275ZM176.463 107.9C179.088 106.15 180.263 102.338 180.263 97.3625C180.263 92.9875 179.088 89.7625 177.05 87.725C174.95 85.8704 172.252 84.8324 169.45 84.8H113.6V111.112H168.275C171.2 111.112 174.125 109.65 176.463 107.9ZM265.638 0H36.1254C28.8129 0 22.9629 5.85 22.9629 12.875V242.688C22.9629 249.713 28.8129 254.087 35.8379 254.087H69.7504V300L111.85 254.375H265.65C272.675 254.375 277.063 250 277.063 242.688V13.1625C277.063 6.1375 272.675 0.2875 265.363 0.2875L265.638 0ZM227.05 186.25C224.04 191.555 219.708 195.991 214.475 199.125C208.913 202.625 202.775 205.85 195.763 207.312C188.738 209.062 181.138 210.525 173.25 210.525H69.7379V46.775H187.275C193.125 46.775 198.1 47.95 202.775 50.5875C207.163 52.925 211.263 56.1375 214.475 59.9375C221.025 67.9375 224.55 77.975 224.413 88.3125C224.413 95.9125 222.363 103.213 218.563 110.238C214.623 117.294 208.456 122.846 201.025 126.025C210.375 128.65 217.688 133.337 223.25 140.062C228.5 147.075 231.138 156.138 231.138 167.55C231.138 174.85 229.675 181 226.763 186.263L227.05 186.25Z" fill="white"/>
</svg>
