<svg width="300" height="300" viewBox="0 0 300 300" fill="none" xmlns="http://www.w3.org/2000/svg">
<g clip-path="url(#clip0_2022_836)">
<path d="M128.495 90.5904C128.495 77.5217 139.388 72.4873 156.854 72.4873C182.288 72.4873 214.566 80.2779 240.001 93.9936V15.3092C212.288 4.23731 184.632 0.0185547 156.91 0.0185547C89.1195 0.0185547 43.9414 35.4092 43.9414 94.5842C43.9414 187.106 170.973 172.106 170.973 212.006C170.973 227.475 157.557 232.453 138.92 232.453C111.263 232.453 75.5164 221.025 47.457 205.79V281.081C76.3227 293.54 107.42 299.99 138.863 300.065C208.36 300.065 256.229 270.178 256.229 210.065C256.229 110.344 128.495 128.212 128.495 90.5904Z" fill="#635BFF"/>
</g>
<defs>
<clipPath id="clip0_2022_836">
<rect width="300" height="300" fill="white"/>
</clipPath>
</defs>
</svg>
