<svg width="300" height="300" viewBox="0 0 300 300" fill="none" xmlns="http://www.w3.org/2000/svg">
<path d="M156.15 9.64649C171.497 9.41211 186.731 9.53398 201.956 9.41211C202.463 28.4527 210.188 45.5902 222.478 58.284L222.459 58.2652C235.688 70.1809 252.9 77.9059 271.875 79.2184L272.138 79.2371V126.45C254.213 126 237.356 121.865 222.159 114.759L222.928 115.078C215.578 111.543 209.363 107.915 203.456 103.865L203.944 104.184C203.831 138.393 204.056 172.603 203.709 206.69C202.744 224.062 196.969 239.906 187.706 253.134L187.894 252.843C172.406 275.025 147.319 289.584 118.791 290.446H118.659C117.506 290.503 116.147 290.531 114.778 290.531C98.5594 290.531 83.4 286.012 70.4813 278.165L70.8563 278.381C47.3438 264.234 31.125 240.028 28.125 211.875L28.0875 211.49C27.8531 205.631 27.7406 199.771 27.975 194.034C32.5688 149.231 70.1063 114.571 115.734 114.571C120.863 114.571 125.888 115.012 130.772 115.846L130.247 115.771C130.481 133.106 129.778 150.45 129.778 167.784C125.813 166.35 121.238 165.515 116.466 165.515C98.9531 165.515 84.0563 176.709 78.5438 192.337L78.4594 192.618C77.2125 196.621 76.4906 201.225 76.4906 205.987C76.4906 207.918 76.6125 209.831 76.8375 211.706L76.8188 211.481C79.9313 230.662 96.375 245.137 116.203 245.137C116.775 245.137 117.338 245.128 117.9 245.1H117.816C131.531 244.687 143.438 237.309 150.169 226.406L150.263 226.237C152.766 222.75 154.481 218.531 155.053 213.946L155.063 213.815C156.234 192.843 155.766 171.993 155.878 151.021C155.991 103.809 155.766 56.709 156.113 9.61836L156.15 9.64649Z" fill="white" stroke="white" stroke-width="2"/>
</svg>
