<svg width="300" height="300" viewBox="0 0 300 300" fill="none" xmlns="http://www.w3.org/2000/svg">
<path d="M17.7969 94.068C17.7969 77.2187 31.456 63.5596 48.3053 63.5596C65.1547 63.5596 78.8138 77.2187 78.8138 94.068V208.475C78.8138 225.324 65.1547 238.983 48.3053 238.983C31.456 238.983 17.7969 225.324 17.7969 208.475V94.068Z" fill="white"/>
<path d="M99.1528 151.271C99.1528 114.54 99.1528 96.1748 108.583 83.3471C111.492 79.3906 114.984 75.8984 118.94 72.9898C131.768 63.5596 150.134 63.5596 186.865 63.5596H197.034C233.765 63.5596 252.131 63.5596 264.959 72.9898C268.915 75.8984 272.407 79.3906 275.316 83.3471C284.746 96.1748 284.746 114.54 284.746 151.271C284.746 188.003 284.746 206.368 275.316 219.196C272.407 223.152 268.915 226.644 264.959 229.553C252.131 238.983 233.765 238.983 197.034 238.983H186.865C150.134 238.983 131.768 238.983 118.94 229.553C114.984 226.644 111.492 223.152 108.583 219.196C99.1528 206.368 99.1528 188.003 99.1528 151.271Z" fill="white"/>
</svg>
