<svg width="300" height="300" viewBox="0 0 300 300" fill="none" xmlns="http://www.w3.org/2000/svg">
<g clip-path="url(#clip0_2023_2547)">
<path d="M150 0C67.1566 0 0 67.1566 0 150C0 232.843 67.1555 300 150 300C232.847 300 300 232.843 300 150C300 67.1566 232.847 0 150 0ZM108.527 255.499C110.062 245.643 111.635 235.794 113.248 225.95C80.2113 209.392 59.2746 176.055 64.6148 137.529C71.9016 85.2047 112.191 58.3723 162.855 62.9367C166.698 57.4992 170.914 52.2797 175.716 47.2301C184.262 37.6746 196.973 37.3746 191.257 48.6973C179.733 70.5035 175.179 86.9672 165.281 113.405C155.418 141.524 140.169 182.795 119.871 255.257C118.403 261.894 108.002 260.835 108.527 255.499ZM235.462 159.41C228.874 209.371 182.177 237.723 135.758 232.828C139.127 221.435 140.723 216.578 144.629 207.395C147.575 202.096 158.605 199.931 167.171 196.29C184.57 190.037 197.932 174.507 200.456 154.91C202.233 141.015 198.173 127.702 190.218 117.41C184.655 110.351 179.411 106.072 181.201 99.4453C183.837 90.4969 185.858 83.8559 190.772 72.6117C221.271 88.9945 240.285 123.019 235.462 159.41ZM99.6586 142.008C97.9359 155.372 101.576 168.129 108.872 178.192C113.735 184.688 117.459 188.474 119.284 191.455C125.293 158.904 129.632 142.066 135.413 123.175C138.005 115.283 142.298 104.214 145.405 96.6785C141.7 97.9184 136.441 99.2977 132.148 100.979C115.137 107.357 102.135 122.728 99.6586 142.008Z" fill="white"/>
</g>
<defs>
<clipPath id="clip0_2023_2547">
<rect width="300" height="300" fill="white"/>
</clipPath>
</defs>
</svg>
