<svg width="300" height="300" viewBox="0 0 300 300" fill="none" xmlns="http://www.w3.org/2000/svg">
<path d="M199.425 150C198.313 150.825 196.988 151.775 195.375 152.912C185.05 160.225 170.088 165.225 150.625 165.225H149.325C129.875 165.225 114.888 160.225 104.575 152.912C103.22 151.949 101.87 150.978 100.525 150C101.65 149.162 102.975 148.212 104.575 147.075C114.888 139.775 129.875 134.762 149.325 134.762H150.625C170.088 134.762 185.075 139.775 195.375 147.075C196.988 148.2 198.3 149.162 199.425 150ZM300 89.7621C300 89.7621 291.137 82.9996 263.125 72.6996C238.525 63.6871 219.975 61.6621 219.975 61.6621L220.05 114.7C220.05 122.175 218.025 128.987 212.325 136.762C191.425 129.137 171.65 124.45 150.063 124.45C128.463 124.45 108.713 129.137 87.8125 136.762C82.1 129.025 80.0625 122.162 80.0625 114.7L80.15 61.6621C80.15 61.6621 61.475 63.6621 36.8625 72.6996C8.8625 83.0246 0 89.7621 0 89.7621C1.1625 113.837 22.25 135.237 55.4375 150.012C22.2125 164.75 1.125 186.087 0 210.225C0 210.225 8.8625 216.975 36.8625 227.287C61.4625 236.3 80.025 238.325 80.025 238.325L79.9375 185.275C79.9375 177.812 81.9875 170.987 87.675 163.225C108.575 170.85 128.325 175.512 149.925 175.512C171.513 175.512 191.288 170.837 212.175 163.225C217.888 170.975 219.925 177.812 219.925 185.275L219.85 238.325C219.85 238.325 238.4 236.325 263 227.287C291.013 216.962 299.875 210.225 299.875 210.225C298.712 186.137 277.625 164.725 244.438 149.987C277.65 135.212 298.725 113.887 299.875 89.7371" fill="white"/>
</svg>
