<svg width="300" height="300" viewBox="0 0 300 300" fill="none" xmlns="http://www.w3.org/2000/svg">
<g clip-path="url(#clip0_2023_2679)">
<path d="M137.5 166.237L64.7002 267.9C60.9752 273.1 54.7002 275.837 48.3502 275.05C41.1252 274.15 31.1752 271.437 20.9127 264.062C10.6502 256.687 4.90017 248.112 1.73767 241.537C0.369875 238.704 -0.210301 235.556 0.0580234 232.422C0.326348 229.288 1.43328 226.283 3.26267 223.725L76.0627 122.062C79.5276 117.221 84.0727 113.254 89.3377 110.475L103.663 102.925C106.538 101.412 109.113 99.387 111.263 96.9495C118.213 89.062 136.875 68.3995 169.963 34.987L170.538 32.337C170.605 32.0391 170.752 31.7651 170.963 31.5448C171.175 31.3245 171.443 31.1662 171.738 31.087L173.563 30.6245C173.947 30.5258 174.284 30.2951 174.514 29.9728C174.745 29.6506 174.855 29.2573 174.825 28.862L174.638 26.612C174.617 26.3915 174.642 26.1692 174.71 25.9586C174.779 25.748 174.89 25.5536 175.036 25.3874C175.182 25.2211 175.361 25.0866 175.561 24.9919C175.761 24.8973 175.979 24.8446 176.2 24.837C178.4 24.7745 182.675 25.412 188.713 29.7495C194.75 34.087 196.713 37.9495 197.363 40.0495C197.426 40.2621 197.446 40.4856 197.42 40.706C197.394 40.9265 197.324 41.1394 197.212 41.3315C197.101 41.5235 196.952 41.6908 196.773 41.8229C196.595 41.955 196.391 42.0491 196.175 42.0995L193.988 42.6495C193.601 42.7437 193.261 42.9733 193.03 43.2967C192.798 43.6201 192.69 44.0158 192.725 44.412L192.875 46.287C192.9 46.5912 192.84 46.8964 192.701 47.1681C192.561 47.4397 192.349 47.6671 192.088 47.8245L189.763 49.2245C168.775 91.337 155.213 115.675 149.975 124.8C148.363 127.623 147.275 130.714 146.763 133.925L144.2 149.937C143.262 155.82 140.968 161.405 137.5 166.25V166.237ZM296.738 223.712L223.938 122.05C220.473 117.208 215.928 113.241 210.663 110.462L196.338 102.9C193.462 101.386 190.887 99.3616 188.738 96.9245C186.316 94.1783 183.87 91.4532 181.4 88.7495C181.28 88.6237 181.132 88.5279 180.968 88.4697C180.804 88.4115 180.629 88.3925 180.456 88.4144C180.283 88.4363 180.118 88.4984 179.974 88.5957C179.83 88.6929 179.71 88.8227 179.625 88.9745C172.608 102.539 165.336 115.971 157.813 129.262C156.737 131.136 156.013 133.19 155.675 135.325C154.95 139.892 154.95 144.545 155.675 149.112L155.8 149.912C156.738 155.8 159.038 161.387 162.5 166.225L235.3 267.887C239 273.05 245.175 275.825 251.475 275.062C261.463 273.787 270.964 269.998 279.088 264.05C287.268 258.273 293.859 250.525 298.25 241.525C299.621 238.693 300.202 235.544 299.934 232.409C299.665 229.274 298.57 226.27 296.738 223.712ZM103.825 42.0745L106.013 42.6245C106.398 42.721 106.736 42.9511 106.968 43.274C107.199 43.5968 107.308 43.9913 107.275 44.387L107.125 46.262C107.099 46.5664 107.158 46.8721 107.298 47.1441C107.437 47.416 107.65 47.6432 107.913 47.7995L110.238 49.1995C114.125 56.987 117.725 64.1245 121.1 70.712C121.425 71.3495 122.238 71.462 122.713 70.9495C128.175 65.087 134.763 58.137 142.525 50.0995C142.837 49.7853 143.016 49.3624 143.023 48.9196C143.03 48.4767 142.865 48.0484 142.563 47.7245C138.625 43.6995 134.5 39.487 130.038 34.9745L129.463 32.3245C129.399 32.0265 129.252 31.7524 129.04 31.5335C128.828 31.3147 128.559 31.16 128.263 31.087L126.438 30.6245C126.054 30.5258 125.717 30.2951 125.486 29.9728C125.255 29.6506 125.145 29.2573 125.175 28.862L125.363 26.612C125.383 26.3935 125.359 26.1732 125.292 25.9642C125.225 25.7552 125.117 25.562 124.973 25.3961C124.829 25.2302 124.654 25.0952 124.456 24.9991C124.259 24.903 124.044 24.8479 123.825 24.837C121.638 24.7745 117.35 25.3995 111.3 29.7495C105.263 34.087 103.3 37.9495 102.65 40.0495C102.586 40.2621 102.567 40.4856 102.593 40.706C102.618 40.9265 102.689 41.1394 102.8 41.3315C102.912 41.5235 103.061 41.6908 103.239 41.8229C103.418 41.955 103.621 42.0491 103.838 42.0995L103.825 42.0745Z" fill="#F6BB00"/>
</g>
<defs>
<clipPath id="clip0_2023_2679">
<rect width="300" height="300" fill="white"/>
</clipPath>
</defs>
</svg>
