<svg width="300" height="300" viewBox="0 0 300 300" fill="none" xmlns="http://www.w3.org/2000/svg">
<path fill-rule="evenodd" clip-rule="evenodd" d="M231.522 56.9735C240.615 56.8949 249.629 58.6428 258.035 62.119C266.44 65.5755 274.08 70.7014 280.463 77.1824C286.846 83.6634 291.873 91.362 295.212 99.8069C298.57 108.252 300.181 117.306 299.965 126.379C300.259 135.511 298.708 144.604 295.389 153.108C292.089 161.612 287.081 169.35 280.699 175.89C274.316 182.41 266.656 187.575 258.231 191.071C249.786 194.567 240.732 196.315 231.6 196.216H228.752C225.708 196.099 222.664 195.804 219.64 195.293C216.635 194.783 213.669 194.076 210.743 193.172C207.817 192.269 204.969 191.169 202.2 189.893C199.411 188.616 196.74 187.163 194.148 185.533C193.153 184.904 192.164 184.263 191.182 183.608C190.214 182.94 189.258 182.259 188.315 181.565C187.359 180.872 186.423 180.158 185.507 179.425C184.577 178.692 183.667 177.939 182.777 177.166L171.995 243.331H140.906L157.285 149.946C153.809 144.84 150.529 139.577 147.505 134.176C144.46 128.795 141.652 123.276 139.099 117.639C136.526 112.003 134.209 106.268 132.147 100.435C130.065 94.6025 128.258 88.691 126.687 82.701V127.302C126.687 167.818 100.861 196.138 63.998 196.138C59.6774 196.256 55.3567 195.902 51.095 195.097C46.8529 194.272 42.709 193.015 38.7222 191.326C34.7354 189.637 30.945 187.536 27.4099 185.042C23.8748 182.547 20.6147 179.68 17.6885 176.499C14.7229 173.101 12.0716 169.409 9.79344 165.501C7.51527 161.592 5.61026 157.488 4.09803 153.206C2.60544 148.945 1.50563 144.545 0.818258 140.068C0.15052 135.609 -0.124431 131.073 0.0523234 126.556V60.5675H30.6504V126.556C30.6504 150.614 42.7679 168.329 64.0766 168.329C85.4049 168.329 96.2655 150.535 96.2655 126.556V60.5675H149.508C150.398 64.6132 151.406 68.6327 152.532 72.6261C153.658 76.6194 154.889 80.58 156.224 84.5079C157.573 88.4226 159.033 92.2981 160.604 96.1343C162.175 99.9706 163.858 103.761 165.651 107.506C167.281 100.141 170.188 93.1099 174.253 86.7271C178.319 80.364 183.445 74.7471 189.435 70.1319C195.425 65.5362 202.18 62.0012 209.388 59.723C216.576 57.4252 224.137 56.4236 231.679 56.7182M231.679 168.152C252.909 168.152 269.622 151.439 269.622 126.379C269.622 101.319 253.243 84.6257 231.679 84.6257C210.115 84.6257 193.814 98.4911 188.217 143.092C190.534 146.784 193.284 150.182 196.406 153.226C199.529 156.27 202.986 158.921 206.756 161.141C210.507 163.36 214.514 165.127 218.677 166.384C222.861 167.641 227.162 168.407 231.522 168.662L231.679 168.152Z" fill="#14A800"/>
</svg>
