<svg width="300" height="300" viewBox="0 0 300 300" fill="none" xmlns="http://www.w3.org/2000/svg">
<g clip-path="url(#clip0_2022_894)">
<path d="M36.5934 149.805L36.25 150.23C36.2617 150.212 36.359 150.188 36.5313 150.107C36.5567 150.007 36.5774 149.906 36.5934 149.805ZM34.5918 161.799C34.5918 161.799 34.5742 161.8 34.5766 161.805C34.5648 162.18 34.5766 162.571 34.5684 162.97C34.6949 162.917 34.8098 162.891 34.9246 162.855L34.5918 161.8M140.111 241.606C140.099 241.645 140.091 241.694 140.091 241.694L140.185 241.499C140.168 241.523 140.13 241.561 140.111 241.606ZM141.153 241.997L141.073 242.161L141.133 242.063L141.153 241.997ZM143.527 237.454L143.457 237.571C143.484 237.534 143.507 237.495 143.527 237.454ZM144.407 238.143L144.392 238.161L144.396 238.159C144.396 238.159 144.401 238.154 144.407 238.143Z" fill="#0097E8"/>
<path d="M144.407 238.143L144.402 238.153L144.418 238.147L144.407 238.143ZM219.621 207.403C219.621 207.403 219.619 207.421 219.626 207.419C219.668 207.43 219.679 207.434 219.718 207.447L219.621 207.403Z" fill="#0097E8"/>
<path d="M201.954 9.24765L201.86 9.25468L201.674 9.28984L200.716 9.45742L199.926 9.86171C197.417 11.1297 175.056 23.3933 164.152 62.4473C156.078 91.3539 62.9021 133.614 30.9392 146.123L27.7213 147.35L27.113 150.889C26.9255 151.967 26.4486 155.329 26.2283 160.054C19.1806 163.145 14.2072 168.128 11.7966 174.667C11.4826 175.521 11.206 176.413 10.9787 177.325C8.57047 186.965 11.2834 199.221 18.4974 210.747C26.799 224.025 40.4384 223.571 48.8068 220.83C51.0568 222.741 53.4287 224.556 55.9775 226.11L56.0443 226.155L58.3529 227.48L60.6064 226.828C60.6064 226.828 80.7627 220.879 81.4341 220.688C82.5123 220.491 88.2849 219.712 92.6841 222.817C95.9466 225.129 97.967 229.33 98.6853 235.3C101.365 257.562 99.9111 265.212 99.883 265.388L99.815 265.662L99.7857 265.923C99.6134 267.191 98.2974 278.615 105.054 286.209C107.614 289.091 112.361 292.502 120.447 292.354L120.64 292.347L147.558 289.908L147.773 289.885C147.773 289.885 151.488 288.048 151.497 288.04C152.106 287.4 154.988 284.228 156.82 279.544L156.503 280.432C157.024 279.555 159.729 274.851 161.306 268.534C162.629 263.199 163.154 256.698 160.876 250.403C158.787 244.649 154.745 240.132 148.871 236.896C149.12 236.162 149.399 235.441 149.585 234.678C151.202 228.195 150.644 221.233 145.43 216.343L143.681 214.714C136.798 208.35 134.533 205.384 135.126 202.978C135.147 202.865 135.238 202.77 135.27 202.664C136.149 202.213 137.101 201.774 138.159 201.385L139.048 201.048C139.048 201.048 139.183 200.946 139.294 200.857C141.917 199.746 163.201 192.162 213.787 214.262C218.515 218.055 242.157 235.777 263.703 230.338C275.049 227.479 283.602 218.98 289.104 205.083C289.951 202.908 290.656 200.681 291.216 198.415C295.687 180.471 294.051 153.426 286.477 122.574C278.113 88.491 263.743 55.9598 248.058 35.5445C233.436 16.525 217.504 7.42773 201.954 9.24765Z" fill="white"/>
<path d="M192.347 173.367C191.802 172.327 191.301 171.258 190.782 170.197C188.17 164.622 185.766 158.952 183.575 153.198C176.6 134.288 172.743 116.063 171.502 109.602C169.701 99.3127 168.519 88.3849 168.274 76.9298C168.274 76.9298 158.676 142.865 206.404 198.03C206.404 198.03 199.835 188.893 192.151 173.059C192.275 173.258 192.347 173.367 192.347 173.367ZM213.984 21.5189C213.984 21.5189 176.09 13.4388 197.21 117.338C197.21 117.338 224.545 235.406 273.918 205.275C273.918 205.275 238.852 233.231 208.17 158.495C177.488 83.7431 184.374 15.0666 213.984 21.5189Z" fill="#F8941E"/>
<path d="M246.156 100.111L243.584 100.038L194.605 105.593L194.738 106.732L242.959 101.276C243.422 100.704 243.962 100.333 244.588 100.145C245.09 99.9971 245.632 101.028 246.19 101.151L246.156 100.111Z" fill="#F8941E"/>
<path d="M213.605 165.498L253.385 136.752C249.905 135.477 245.77 129.052 243.256 120.492C240.999 112.8 240.719 105.372 242.546 102.009C242.713 101.714 242.893 101.446 243.083 101.229L196.648 106.42H195.148C198.357 124.787 204.031 145.064 213.444 165.561L213.605 165.498Z" fill="#F8941E"/>
<path d="M243.526 102.551C241.823 105.656 242.133 112.751 244.329 120.191C247.102 129.621 251.486 135.512 254.332 135.873C254.594 135.893 254.858 135.87 255.112 135.805C255.675 135.641 256.165 135.188 256.565 134.469C258.259 131.353 257.939 124.264 255.745 116.83C253.572 109.395 250.009 103.26 246.904 101.553C246.286 101.216 245.721 101.071 245.209 101.145C245.131 101.167 245.046 101.18 244.965 101.203C244.411 101.372 243.921 101.817 243.526 102.551Z" fill="#F8941E"/>
<path d="M246.86 101.202C246.86 101.202 244.776 100.913 241.115 101.387L241.957 100.207C241.957 100.207 245.137 99.342 247.423 100.59L246.86 101.202ZM248.124 132.735L253.926 137.703L255.93 136.685C255.93 136.685 250.024 133.711 248.124 132.735Z" fill="#F8941E"/>
<path d="M242.547 102.01C240.72 105.373 241 112.8 243.257 120.492C245.77 129.054 249.906 135.477 253.385 136.752L254.329 136.067L254.331 135.873C251.486 135.512 247.102 129.621 244.328 120.191C242.132 112.75 241.822 105.656 243.525 102.55C243.92 101.817 244.41 101.372 244.964 101.202C245.046 101.179 245.131 101.167 245.208 101.144L245.188 100.985L243.083 101.229C242.879 101.471 242.699 101.732 242.547 102.01Z" fill="#F8941E"/>
<path d="M213.708 166.684L254.981 136.97L254.967 136.958C254.459 137.026 253.917 136.948 253.37 136.745L213.061 165.757L213.708 166.684ZM241.061 102.764L195.521 107.51L197.835 120.253L238.47 116.259C238.47 116.259 243.846 129.366 248.1 134.348C248.1 134.348 239.034 118.743 241.061 102.764Z" fill="#F8941E"/>
<path d="M268.359 91.4609C268.534 91.9449 268.717 92.4312 268.898 92.9141C269.387 94.2734 269.868 95.6375 270.343 97.0027C270.523 97.5277 270.711 98.0598 270.892 98.5848C271.351 99.9301 271.795 101.284 272.242 102.642C272.418 103.19 272.599 103.741 272.771 104.291C273.201 105.624 273.609 106.957 274.021 108.293L274.553 110.06C274.94 111.37 275.319 112.679 275.688 113.995C275.855 114.607 276.031 115.218 276.202 115.823C276.554 117.12 276.897 118.412 277.241 119.707C277.405 120.339 277.565 120.97 277.721 121.606C278.047 122.874 278.361 124.146 278.666 125.415C278.823 126.069 278.974 126.719 279.127 127.373C279.414 128.615 279.69 129.857 279.96 131.105C280.109 131.77 280.248 132.433 280.389 133.092C280.645 134.315 280.893 135.533 281.134 136.748C281.265 137.428 281.391 138.107 281.516 138.787C281.741 139.968 281.955 141.151 282.159 142.336C282.277 143.027 282.387 143.717 282.507 144.399C282.693 145.557 282.876 146.708 283.05 147.854C283.153 148.55 283.245 149.238 283.342 149.928C283.507 151.06 283.658 152.178 283.798 153.293C283.884 153.975 283.955 154.652 284.033 155.332C284.165 156.437 284.285 157.537 284.39 158.625C284.456 159.296 284.513 159.957 284.574 160.63C284.664 161.694 284.757 162.768 284.832 163.824C284.88 164.485 284.907 165.131 284.948 165.781C285.009 166.824 285.07 167.868 285.114 168.887C285.138 169.523 285.147 170.145 285.165 170.778C285.195 171.794 285.226 172.797 285.229 173.784C285.241 174.397 285.225 174.982 285.222 175.583C285.212 176.566 285.209 177.559 285.182 178.522C285.161 179.079 285.127 179.609 285.106 180.153C285.063 181.13 285.024 182.115 284.956 183.057C284.919 183.543 284.866 184.009 284.827 184.49C284.745 185.459 284.663 186.437 284.554 187.381C284.507 187.763 284.445 188.127 284.395 188.5C284.268 189.507 284.137 190.51 283.973 191.477C283.938 191.676 283.894 191.858 283.863 192.051C283.429 194.45 282.903 196.721 282.268 198.83C282.049 199.604 281.765 200.315 281.506 201.048C281.371 201.409 281.257 201.806 281.117 202.156C278.308 209.234 274.655 214.602 270.229 218.293C270.032 218.462 269.845 218.659 269.643 218.826C269.322 219.072 268.975 219.264 268.653 219.504C268.012 219.954 267.384 220.429 266.717 220.816C266.612 220.879 266.492 220.92 266.38 220.988C265.469 221.498 264.546 221.969 263.582 222.359C262.514 222.805 261.403 223.167 260.26 223.457C240.048 228.553 215.759 208.357 215.528 208.156L215.473 208.107L215.412 208.08L215.381 208.061C214.066 207.484 212.796 206.96 211.523 206.418C182.855 194.266 163.606 191.561 152.383 191.5C146.144 191.485 141.684 192.225 138.71 193.006C135.922 193.727 134.41 194.495 134.022 194.714L133.987 194.725V194.735H133.982C133.912 194.764 133.843 194.8 133.771 194.829C131.779 195.584 129.985 196.432 128.437 197.403C127.522 197.986 126.652 198.637 125.834 199.351C122.837 201.924 121.006 205.029 120.464 208.686C119.063 218.135 126.447 228.077 130.7 231.315C136.692 235.88 135.539 242.349 135.352 243.245C135.371 243.199 135.409 243.16 135.426 243.138L135.33 243.341C135.33 243.341 135.339 243.282 135.352 243.243C135.323 243.283 135.27 243.391 135.233 243.454L135.228 243.453C135.219 243.473 135.208 243.493 135.193 243.508L135.199 243.514C134.824 244.17 134.116 245.752 134.455 248.169C134.569 248.997 134.855 249.827 135.175 250.658L135.171 250.668C135.179 250.692 135.193 250.72 135.201 250.743C135.355 251.129 135.548 251.517 135.752 251.908C136.106 252.629 136.512 253.353 137.041 254.082L137.05 254.088C138.626 256.291 140.871 258.529 143.838 260.791C147.541 263.581 149.553 266.853 149.846 270.499C149.884 270.903 149.799 271.277 149.791 271.672C149.785 271.682 149.779 271.701 149.775 271.712C149.729 273.423 149.414 275.068 148.86 276.527L148.845 276.557L149.286 276.811L148.807 276.63C147.525 279.882 145.505 282.29 144.99 282.859L139.942 283.324L118.45 285.273C114.021 285.343 110.575 284.013 108.195 281.357C103.324 275.889 104.531 266.435 104.542 266.333C104.723 265.487 106.271 257.592 103.449 234.037C102.484 226.139 99.5433 220.381 94.6648 216.935C90.1038 213.693 84.9183 213.235 81.5714 213.361C79.564 213.44 78.2152 213.73 78.0593 213.758L60.0745 219.078L57.4237 219.863C55.4789 218.665 53.6176 217.337 51.8527 215.887C51.6862 215.754 51.5398 215.612 51.3745 215.477C50.7289 214.935 50.096 214.378 49.4761 213.807C49.087 213.446 48.7226 213.069 48.3534 212.702C34.1163 198.584 31.1386 178.644 30.9581 165.395C30.9505 164.627 30.9501 163.859 30.9569 163.092C30.9605 162.793 30.9663 162.514 30.9722 162.222C30.9792 161.772 30.9898 161.322 31.005 160.896L31.039 159.943C31.0577 159.579 31.0741 159.232 31.0882 158.886C31.1046 158.587 31.1257 158.277 31.1409 157.987C31.1562 157.675 31.1843 157.385 31.203 157.093C31.2499 156.434 31.3015 155.82 31.353 155.265C31.3612 155.178 31.3694 155.077 31.3788 154.993C31.4191 154.586 31.4632 154.178 31.5112 153.772C31.5405 153.511 31.5675 153.268 31.5968 153.044L31.6226 152.81C31.6835 152.341 31.7398 151.973 31.7714 151.745C34.9999 150.472 65.0808 138.461 95.9726 122.349C112.396 113.795 126.097 105.675 137.048 98.0211C155.306 85.2664 165.916 73.8031 168.713 63.7625C178.889 27.3277 199.526 16.1211 201.003 15.3652C201 15.3664 200.995 15.3676 200.991 15.3652H200.994L201.007 15.3641L201.003 15.3652C202.593 15.1908 204.195 15.1563 205.791 15.2621C206.336 15.2973 206.88 15.4285 207.423 15.4965C208.485 15.6289 209.55 15.7519 210.621 16.0051C211.318 16.1738 212.027 16.441 212.73 16.6625C213.644 16.9437 214.551 17.2062 215.466 17.5766C216.26 17.9 217.055 18.3195 217.849 18.7074C218.673 19.1082 219.495 19.4937 220.317 19.9648C221.17 20.45 222.018 21.0219 222.871 21.5844C223.638 22.0906 224.408 22.584 225.179 23.1535C226.062 23.8027 226.935 24.5328 227.82 25.2582C228.57 25.8731 229.307 26.5041 230.029 27.1508C230.932 27.9802 231.817 28.8296 232.682 29.6984C233.418 30.4367 234.155 31.1797 234.891 31.9695C235.75 32.8953 236.605 33.8668 237.454 34.8641C238.541 36.1379 239.633 37.4059 240.705 38.7992C240.795 38.9129 240.883 39.0101 240.97 39.125C244.841 44.1582 248.554 49.8359 252.065 55.9894C252.112 56.0633 252.159 56.1371 252.194 56.2133C253.007 57.6406 253.8 59.0795 254.573 60.5293C254.66 60.691 254.753 60.8551 254.845 61.0191C255.585 62.426 256.314 63.8385 257.032 65.2566C257.157 65.5074 257.289 65.7558 257.415 66.0101C258.106 67.4009 258.784 68.7987 259.447 70.2031C259.594 70.523 259.744 70.8336 259.896 71.1523C260.54 72.5269 261.169 73.9238 261.794 75.3266C261.958 75.6957 262.126 76.0555 262.292 76.4281C262.897 77.8121 263.491 79.2055 264.078 80.6117C264.249 81.0125 264.418 81.4145 264.585 81.8164C265.16 83.1945 265.714 84.5961 266.267 85.9941C266.441 86.4359 266.617 86.873 266.791 87.3172C267.324 88.6918 267.842 90.0711 268.358 91.4609H268.359ZM139.434 240.211C145.436 242.41 149.592 245.735 151.885 250.119C152.096 250.693 153.958 256.597 149.221 265.062C148.143 263.203 146.591 261.48 144.521 259.906C137.291 254.416 135.551 250.072 135.441 247.265L139.434 240.211ZM137.355 219.112L139.089 220.738C139.543 221.161 139.91 221.622 140.238 222.092C140.688 223.487 141.021 227.444 134.969 234.539C134.176 233.114 133.035 231.696 131.371 230.434C127.414 227.428 120.243 217.719 121.563 208.864C122.104 205.156 124.014 202.058 127.286 199.539C124.122 206.875 131.11 213.343 137.355 219.112ZM22.2956 206.77C15.5034 195.875 13.196 184.561 16.1843 176.505C18.2784 170.853 22.864 166.848 29.8085 164.606C29.8109 168.582 30.0546 173.177 30.7917 178.059C32.3304 188.379 36.3816 201.563 46.2804 212.125C46.6003 212.457 46.8698 212.82 47.2015 213.153C44.9128 214.209 30.6042 220.03 22.2956 206.77ZM252.617 30.1754C231.846 3.15195 212.101 -0.718758 199.218 0.787101L196.3 1.28046L194.464 2.21562C189.84 4.55234 166.155 18.3336 154.573 59.8215C148.822 80.4043 76.3132 118.541 26.2437 138.14L18.7437 141.004L17.3468 149.068C17.2648 149.548 16.9484 151.488 16.6765 154.529C9.9171 158.567 5.03038 164.333 2.41593 171.42C1.99282 172.563 1.63559 173.73 1.34601 174.914C-1.61297 186.752 1.48546 201.201 9.8421 214.555C18.8222 228.922 33.2093 231.628 45.0909 229.184C46.7116 230.418 48.2433 231.475 49.6612 232.332L55.4948 235.707L61.0612 234.091C61.0612 234.091 78.1448 229.047 81.3464 228.107C82.5698 227.963 84.896 228.002 86.2085 228.932C87.48 229.831 88.4444 232.336 88.8675 235.801C91.1562 254.778 90.2796 262.434 90.1566 263.375L89.9831 264.366C89.6152 267.07 88.237 281.012 97.2089 291.092C102.418 296.968 110.073 300.106 118.918 299.939L146.562 297.458L148.216 297.289L152.907 294.958L154.246 294.446L155.49 293.136C156.421 292.169 159.339 288.907 161.623 284.042L161.626 284.049C162.762 282.104 165.589 276.86 167.295 270.017C169.341 261.764 169.12 254.086 166.62 247.197C164.547 241.498 161.066 236.702 156.23 232.886C157.654 223.732 155.176 215.694 149.089 209.984L147.317 208.338C146.659 207.734 146.078 207.177 145.546 206.67C153.869 205.542 173.176 205.791 207.789 220.767C215.903 227.094 240.092 243.686 263.838 237.686C265.405 237.296 266.947 236.811 268.455 236.233L268.46 236.231C280.163 231.737 289.019 222.092 294.772 207.571C295.745 205.071 296.557 202.511 297.203 199.907C302.022 180.562 300.339 152.254 292.478 120.2C283.86 85.1047 268.959 51.4496 252.616 30.1754H252.617Z" fill="#F8941E"/>
</g>
<defs>
<clipPath id="clip0_2022_894">
<rect width="300" height="300" fill="white"/>
</clipPath>
</defs>
</svg>
