<svg width="300" height="300" viewBox="0 0 300 300" fill="none" xmlns="http://www.w3.org/2000/svg">
<path d="M260.256 18.75H41.1797C29.209 18.75 18.75 27.3633 18.75 39.1934V258.75C18.75 270.65 29.209 281.25 41.1797 281.25H260.191C272.227 281.25 281.25 270.586 281.25 258.756V39.1934C281.32 27.3633 272.227 18.75 260.256 18.75ZM162.891 226.758H102.141L77.7832 81.1172L130.957 76.0664L143.848 179.701C155.877 160.102 170.73 129.311 170.73 108.293C170.73 96.7969 168.762 88.957 165.686 82.5117L214.102 72.7148C219.703 81.9609 222.223 91.4648 222.223 103.518C222.217 141.896 189.457 191.754 162.891 226.758Z" fill="white"/>
</svg>
