<svg width="300" height="300" viewBox="0 0 300 300" fill="none" xmlns="http://www.w3.org/2000/svg">
<g clip-path="url(#clip0_2022_910)">
<path fill-rule="evenodd" clip-rule="evenodd" d="M299.849 81.1209C298.544 110 278.118 149.478 238.712 199.571C197.93 251.952 163.375 278.125 135.134 278.125C117.671 278.125 102.872 262.201 90.789 230.249C82.6926 200.933 74.6492 171.617 66.5705 142.389C57.5745 110.419 47.9434 94.4429 37.6421 94.4429C35.4019 94.4429 27.5877 99.1049 14.1113 108.446L0 90.4445C14.7817 77.6113 29.3517 64.7257 43.7277 51.8749C63.4131 35.0083 78.2124 26.1558 88.0903 25.2304C111.374 22.9955 125.732 38.7621 131.148 72.4779C136.916 108.883 140.973 131.511 143.213 140.381C149.951 170.552 157.324 185.603 165.403 185.603C171.665 185.603 181.084 175.86 193.643 156.357C206.202 136.819 212.888 121.978 213.805 111.746C215.604 94.8794 208.884 86.4986 193.643 86.4986C186.464 86.4986 179.056 88.0002 171.453 91.143C186.27 43.6686 214.493 20.5861 256.192 21.9305C287.078 22.786 301.666 42.5511 299.849 81.1209Z" fill="#00B2EA"/>
</g>
<defs>
<clipPath id="clip0_2022_910">
<rect width="300" height="300" fill="white"/>
</clipPath>
</defs>
</svg>
