<svg width="300" height="300" viewBox="0 0 300 300" fill="none" xmlns="http://www.w3.org/2000/svg">
<g clip-path="url(#clip0_2022_914)">
<path d="M219.788 0.787927C215.021 0.722026 210.408 2.47413 206.888 5.68793H206.875C206.66 5.86739 206.451 6.05503 206.25 6.25043L106.6 116.45L48.4375 68.7504L43.35 64.3754C41.5953 62.9169 39.4749 61.9664 37.2186 61.6271C34.9622 61.2878 32.6561 61.5725 30.55 62.4504C30.4999 62.4709 30.4499 62.4918 30.4 62.5129L7.6875 71.8879C7.36043 72.0242 7.03931 72.1743 6.725 72.3379C6.52601 72.4492 6.33011 72.5659 6.1375 72.6879C5.97717 72.7761 5.8188 72.8678 5.6625 72.9629C5.45838 73.0987 5.25829 73.2404 5.0625 73.3879C4.93559 73.4855 4.81057 73.5855 4.6875 73.6879C4.49994 73.8327 4.31653 73.9827 4.1375 74.1379C3.98416 74.2717 3.83412 74.4093 3.6875 74.5504C3.55073 74.6931 3.41736 74.8389 3.2875 74.9879C3.14604 75.1428 3.00849 75.3012 2.875 75.4629C2.72404 75.6421 2.57815 75.8255 2.4375 76.0129C2.33456 76.1525 2.23454 76.2942 2.1375 76.4379C1.99801 76.6422 1.86462 76.8507 1.7375 77.0629C1.65124 77.2071 1.56789 77.3529 1.4875 77.5004C1.38174 77.7059 1.2817 77.9144 1.1875 78.1254C1.09956 78.3108 1.0162 78.4984 0.9375 78.6879C0.86655 78.8697 0.799865 79.0531 0.7375 79.2379C0.665981 79.4321 0.599294 79.628 0.5375 79.8254C0.468479 80.0528 0.405954 80.282 0.35 80.5129C0.304902 80.6787 0.263226 80.8454 0.225 81.0129C0.18553 81.237 0.152185 81.462 0.125 81.6879C0.0947574 81.8956 0.0697495 82.104 0.05 82.3129C0.0189656 82.6579 0.00228452 83.004 0 83.3504L0 216.675C0.0145393 219.13 0.751282 221.525 2.11835 223.564C3.48542 225.602 5.42232 227.193 7.6875 228.138L30.4 237.688C32.5351 238.576 34.8747 238.855 37.1588 238.493C39.4428 238.131 41.5817 237.143 43.3375 235.638L48.4375 231.263L106.6 183.575L206.263 293.763C206.554 294.043 206.854 294.314 207.163 294.575C207.395 294.79 207.632 294.998 207.875 295.2C208.112 295.381 208.354 295.556 208.6 295.725C208.858 295.915 209.12 296.099 209.388 296.275C209.654 296.441 209.925 296.599 210.2 296.75C210.467 296.907 210.738 297.057 211.013 297.2C211.293 297.337 211.576 297.466 211.863 297.588C212.151 297.72 212.443 297.845 212.738 297.963C213.039 298.075 213.343 298.179 213.65 298.275C213.923 298.365 214.198 298.448 214.475 298.525C214.806 298.618 215.139 298.701 215.475 298.775C215.757 298.84 216.04 298.899 216.325 298.95C216.636 299 216.949 299.042 217.263 299.075C217.574 299.117 217.887 299.15 218.2 299.175C218.504 299.195 218.808 299.208 219.113 299.213C219.433 299.221 219.754 299.221 220.075 299.213C220.401 299.201 220.726 299.18 221.05 299.15C221.33 299.127 221.609 299.098 221.888 299.063C222.252 299.011 222.614 298.949 222.975 298.875C223.226 298.831 223.476 298.781 223.725 298.725C224.061 298.643 224.394 298.551 224.725 298.45C225.01 298.374 225.294 298.29 225.575 298.2C225.87 298.091 226.161 297.974 226.45 297.85C226.83 297.708 227.205 297.554 227.575 297.388L289.375 267.675C291.642 266.582 293.666 265.043 295.325 263.15C295.722 262.702 296.098 262.235 296.45 261.75C296.467 261.721 296.483 261.692 296.5 261.663C296.859 261.159 297.193 260.637 297.5 260.1C297.781 259.612 298.039 259.112 298.275 258.6C298.313 258.53 298.35 258.459 298.388 258.388C298.571 257.944 298.738 257.494 298.888 257.038C298.952 256.885 299.015 256.73 299.075 256.575C299.217 256.134 299.342 255.688 299.45 255.238C299.489 255.084 299.527 254.93 299.563 254.775C299.647 254.361 299.718 253.944 299.775 253.525C299.812 253.318 299.845 253.109 299.875 252.9C299.911 252.526 299.936 252.151 299.95 251.775C299.976 251.443 299.992 251.109 300 250.775V49.2754V49.2379C300.001 49.1046 300.001 48.9713 300 48.8379C299.99 48.2112 299.948 47.5854 299.875 46.9629C299.492 43.84 298.33 40.8635 296.495 38.3077C294.66 35.7519 292.212 33.6989 289.375 32.3379L227.575 2.62543C225.144 1.4658 222.493 0.843353 219.8 0.800427L219.788 0.787927ZM225 86.5004V213.538L147.525 150.038L225 86.5004ZM37.5 107.175L76.2375 150.013L37.4875 192.838L37.5 107.175Z" fill="white"/>
</g>
<defs>
<clipPath id="clip0_2022_914">
<rect width="300" height="300" fill="white"/>
</clipPath>
</defs>
</svg>
