<svg width="300" height="300" viewBox="0 0 300 300" fill="none" xmlns="http://www.w3.org/2000/svg">
<path d="M108.637 27.3496C48.6375 27.3496 0 68.4496 0 119.125C0 146.775 14.625 171.662 37.525 188.5C38.7957 189.421 39.7392 190.725 40.218 192.22C40.6969 193.715 40.6862 195.324 40.1875 196.812L35.3125 215.312C35.075 216.187 34.7125 217.075 34.7125 217.975C34.7125 220.012 36.3375 221.662 38.3375 221.662C39.082 221.632 39.804 221.399 40.425 220.987L64.2125 207.062C65.529 206.222 67.012 205.678 68.5593 205.466C70.1066 205.255 71.6814 205.381 73.175 205.837C84.6985 209.183 96.638 210.879 108.637 210.875C112.088 210.875 115.425 210.537 118.775 210.25C108.062 178.025 120.738 148.1 142.925 129.675C164.212 111.987 191.45 104.925 216.088 106.7C208.888 61.9121 163.637 27.3496 108.637 27.3496ZM72.3125 74.8871C80.3375 74.8871 86.8375 81.4996 86.8375 89.6371C86.8507 91.5577 86.4854 93.4621 85.7626 95.2415C85.0398 97.021 83.9735 98.6406 82.6247 100.008C81.276 101.375 79.6711 102.464 77.9017 103.211C76.1323 103.958 74.2331 104.349 72.3125 104.362C70.3908 104.349 68.4906 103.957 66.7204 103.209C64.9502 102.462 63.3447 101.372 61.9958 100.004C60.6469 98.6348 59.5809 97.0137 58.8588 95.2329C58.1367 93.452 57.7727 91.5463 57.7875 89.6246C57.7875 81.4871 64.2875 74.8746 72.3125 74.8746V74.8871ZM144.975 74.8871C153 74.8871 159.5 81.4996 159.5 89.6371C159.513 91.5577 159.148 93.4621 158.425 95.2415C157.702 97.021 156.636 98.6406 155.287 100.008C153.938 101.375 152.334 102.464 150.564 103.211C148.795 103.958 146.896 104.349 144.975 104.362C143.054 104.349 141.155 103.958 139.386 103.211C137.616 102.464 136.012 101.375 134.663 100.008C133.314 98.6406 132.248 97.021 131.525 95.2415C130.802 93.4621 130.437 91.5577 130.45 89.6371C130.45 81.4996 136.95 74.8871 144.975 74.8871ZM211.725 110.725C189.262 110.075 164.9 117.125 145.725 133.05C124.225 150.9 112.138 179.55 123.475 210.8C135.25 241.462 169.3 263.662 209.525 263.662C219.85 263.662 229.8 262.162 239.037 259.462C240.284 259.084 241.597 258.979 242.887 259.156C244.178 259.333 245.414 259.787 246.513 260.487L266.312 272.062C266.831 272.416 267.436 272.619 268.062 272.65C269.737 272.65 271.062 271.262 271.062 269.562C271.062 268.812 270.775 268.062 270.587 267.35L266.5 251.937C266.316 251.303 266.219 250.647 266.213 249.987C266.208 249.018 266.433 248.062 266.87 247.197C267.307 246.332 267.943 245.584 268.725 245.012C287.8 231 300 210.25 300 187.25C300 147.125 263.362 114.287 216.8 111.15V111.125C215.113 111 213.425 110.787 211.713 110.75L211.725 110.725ZM180.1 151.65C186.788 151.65 192.212 157.15 192.212 163.925C192.224 165.527 191.92 167.115 191.317 168.6C190.715 170.085 189.826 171.436 188.701 172.577C187.576 173.718 186.238 174.626 184.762 175.25C183.286 175.874 181.702 176.201 180.1 176.212C178.498 176.201 176.914 175.874 175.438 175.25C173.962 174.626 172.624 173.718 171.499 172.577C170.374 171.436 169.485 170.085 168.883 168.6C168.28 167.115 167.976 165.527 167.988 163.925C167.988 157.15 173.413 151.65 180.113 151.65H180.1ZM240.65 151.65C247.338 151.65 252.763 157.15 252.763 163.925C252.774 165.527 252.47 167.115 251.867 168.6C251.265 170.085 250.376 171.436 249.251 172.577C248.126 173.718 246.788 174.626 245.312 175.25C243.836 175.874 242.252 176.201 240.65 176.212C239.048 176.201 237.464 175.874 235.988 175.25C234.512 174.626 233.174 173.718 232.049 172.577C230.924 171.436 230.035 170.085 229.433 168.6C228.83 167.115 228.526 165.527 228.538 163.925C228.538 157.15 233.963 151.65 240.65 151.65Z" fill="white"/>
</svg>
