<svg width="300" height="300" viewBox="0 0 300 300" fill="none" xmlns="http://www.w3.org/2000/svg">
<path d="M123.646 258.864C67.4611 258.864 22.0605 230.585 22.0605 195.614C22.0605 160.624 67.4611 132.345 123.646 132.345C179.831 132.345 225.231 160.624 225.231 195.614C225.231 230.585 179.831 258.864 123.646 258.864Z" fill="white"/>
<path fill-rule="evenodd" clip-rule="evenodd" d="M261.697 186.502C261.697 224.129 207.421 271.537 125.83 271.537C63.6237 271.537 0 241.349 0 191.756C0 165.799 16.4323 135.788 44.7117 107.509C82.4963 69.7045 126.578 52.485 143.148 69.0944C150.43 76.4152 151.138 89.0494 146.455 104.163C143.975 111.74 153.578 107.548 153.578 107.548C184.121 94.7564 210.787 94.0086 220.508 107.922C225.723 115.381 225.231 125.771 220.43 137.815C218.225 143.365 221.138 144.191 225.349 145.47C242.569 150.823 261.737 163.733 261.697 186.502ZM210.078 185.794C206.89 153.224 164.009 130.73 114.338 135.67C64.7061 140.59 27.0396 170.975 30.267 203.603C33.4944 236.173 76.376 258.667 126.047 253.727C175.678 248.847 213.345 218.422 210.078 185.794Z" fill="#E6162D"/>
<path d="M296.137 132.305V132.344C294.189 138.347 287.734 141.672 281.692 139.724C275.651 137.776 272.344 131.321 274.273 125.279C280.275 106.722 276.477 85.5663 262.485 70.0392C248.493 54.5121 227.83 48.5886 208.76 52.6622C202.541 53.9808 196.461 50.0449 195.142 43.8262C193.804 37.6665 197.74 31.5462 203.958 30.208C230.781 24.5009 259.828 32.8253 279.547 54.6892C299.246 76.494 304.579 106.269 296.137 132.305Z" fill="#FF9933"/>
<path d="M257.347 119.848C255.655 125.063 250.105 127.877 244.89 126.224C239.675 124.532 236.861 118.943 238.514 113.767C240.541 107.548 239.262 100.464 234.578 95.2488C229.914 90.0731 222.948 88.0855 216.571 89.4631C211.278 90.6242 206.023 87.2196 204.862 81.8865C203.74 76.5337 207.145 71.2399 212.478 70.1182C225.526 67.304 239.675 71.358 249.279 82.0046C258.882 92.6511 261.441 107.135 257.347 119.848Z" fill="#FF9933"/>
<path fill-rule="evenodd" clip-rule="evenodd" d="M157.928 212.577C147.774 235.484 118.628 247.725 93.8912 239.735C70.0397 232.04 59.9048 208.444 70.3743 187.21C80.647 166.389 107.332 154.582 130.967 160.741C155.429 167.078 167.945 190.143 157.928 212.577ZM107.372 195.062C99.677 191.835 89.7389 195.161 84.9764 202.6C80.1747 210.097 82.4575 218.993 90.0734 222.476C97.8075 225.998 108.119 222.653 112.921 214.978C117.644 207.244 115.165 198.428 107.372 195.062ZM126.382 187.25C123.43 186.089 119.75 187.486 118.018 190.398C116.326 193.291 117.231 196.637 120.203 197.837C123.194 199.097 127.031 197.68 128.783 194.708C130.436 191.678 129.354 188.332 126.382 187.25Z" fill="black"/>
</svg>
