<svg width="300" height="300" viewBox="0 0 300 300" fill="none" xmlns="http://www.w3.org/2000/svg">
<g clip-path="url(#clip0_2022_932)">
<mask id="mask0_2022_932" style="mask-type:luminance" maskUnits="userSpaceOnUse" x="0" y="-10" width="300" height="310">
<path d="M159.375 131.25V243.75H140.625V131.25L0 -9.375V300H300V-9.375L159.375 131.25Z" fill="white"/>
</mask>
<g mask="url(#mask0_2022_932)">
<path d="M150 234.375C196.599 234.375 234.375 196.599 234.375 150C234.375 103.401 196.599 65.625 150 65.625C103.401 65.625 65.625 103.401 65.625 150C65.625 196.599 103.401 234.375 150 234.375Z" fill="white"/>
<path d="M150 271.875C217.31 271.875 271.875 217.31 271.875 150C271.875 82.6903 217.31 28.125 150 28.125C82.6903 28.125 28.125 82.6903 28.125 150C28.125 217.31 82.6903 271.875 150 271.875Z" stroke="white" stroke-width="4"/>
</g>
<path d="M150 103.125C175.888 103.125 196.875 82.1384 196.875 56.25C196.875 30.3617 175.888 9.375 150 9.375C124.112 9.375 103.125 30.3617 103.125 56.25C103.125 82.1384 124.112 103.125 150 103.125Z" fill="white"/>
</g>
<defs>
<clipPath id="clip0_2022_932">
<rect width="300" height="300" fill="white"/>
</clipPath>
</defs>
</svg>
