<svg width="300" height="300" viewBox="0 0 300 300" fill="none" xmlns="http://www.w3.org/2000/svg">
<path d="M30.8678 62.877H268.998C284.068 62.877 296.268 75.0834 296.268 90.1633V181.115C296.268 196.195 284.068 208.402 268.998 208.402H183.601L195.323 237.123L143.773 208.402H30.9866C15.9168 208.402 3.71767 196.195 3.71767 181.115V90.1633C3.59768 75.2035 15.7957 62.877 30.8678 62.877Z" fill="#9B5C8F"/>
<path d="M20.3768 87.748C22.0418 85.4862 24.5388 84.297 27.8688 84.0592C33.9347 83.5824 37.3836 86.4376 38.2156 92.626C41.9022 117.496 45.9453 138.559 50.2262 155.812L76.2701 106.192C78.6493 101.67 81.6228 99.2901 85.1906 99.0522C90.4234 98.6955 93.6334 102.026 94.9419 109.047C97.9154 124.873 101.721 138.32 106.239 149.743C109.332 119.519 114.565 97.743 121.938 84.297C123.72 80.965 126.337 79.299 129.786 79.06C132.522 78.8233 135.019 79.6557 137.278 81.4407C139.538 83.2256 140.727 85.4862 140.965 88.2237C141.084 90.3654 140.727 92.1503 139.776 93.9352C135.138 102.503 131.331 116.902 128.24 136.892C125.268 156.288 124.197 171.401 124.91 182.23C125.149 185.203 124.672 187.821 123.484 190.083C122.055 192.7 119.916 194.129 117.18 194.366C114.088 194.604 110.878 193.177 107.786 189.964C96.7258 178.659 87.9252 161.762 81.504 139.272C73.7731 154.503 68.0649 165.926 64.3783 173.542C57.3617 186.989 51.4158 193.891 46.4207 194.248C43.2095 194.485 40.4748 191.748 38.0967 186.038C32.032 170.449 25.4907 140.343 18.4752 95.7202C17.9987 92.626 18.7118 89.8885 20.3768 87.748ZM275.943 106.43C271.662 98.9333 265.359 94.4121 256.916 92.626C254.655 92.1503 252.516 91.9125 250.493 91.9125C239.077 91.9125 229.801 97.8619 222.547 109.762C216.362 119.876 213.271 131.061 213.271 143.318C213.271 152.48 215.174 160.334 218.979 166.879C223.26 174.375 229.563 178.897 238.006 180.682C240.265 181.158 242.406 181.396 244.429 181.396C255.964 181.396 265.24 175.447 272.375 163.547C278.559 153.313 281.651 142.128 281.651 129.872C281.77 120.59 279.748 112.855 275.943 106.43ZM260.959 139.391C259.294 147.244 256.32 153.075 251.92 157.002C248.472 160.096 245.261 161.404 242.288 160.809C239.434 160.215 237.054 157.716 235.272 153.075C233.843 149.386 233.131 145.697 233.131 142.246C233.131 139.272 233.369 136.297 233.963 133.561C235.034 128.682 237.055 123.921 240.266 119.4C244.191 113.568 248.353 111.19 252.634 112.022C255.488 112.617 257.868 115.117 259.65 119.757C261.078 123.446 261.791 127.134 261.791 130.585C261.791 133.68 261.553 136.655 260.959 139.391ZM201.497 106.43C197.216 98.9333 190.794 94.4121 182.47 92.626C180.21 92.1503 178.07 91.9125 176.047 91.9125C164.631 91.9125 155.355 97.8619 148.1 109.762C141.917 119.876 138.825 131.061 138.825 143.318C138.825 152.48 140.727 160.334 144.533 166.879C148.814 174.375 155.117 178.897 163.56 180.682C165.82 181.158 167.96 181.396 169.982 181.396C181.518 181.396 190.794 175.447 197.929 163.547C204.114 153.313 207.205 142.128 207.205 129.872C207.205 120.59 205.302 112.855 201.497 106.43ZM186.394 139.391C184.729 147.244 181.755 153.075 177.356 157.002C173.907 160.096 170.695 161.404 167.722 160.809C164.868 160.215 162.49 157.716 160.705 153.075C159.279 149.386 158.566 145.697 158.566 142.246C158.566 139.272 158.804 136.297 159.398 133.561C160.469 128.682 162.49 123.921 165.702 119.4C169.626 113.568 173.788 111.19 178.069 112.022C180.923 112.617 183.303 115.117 185.085 119.757C186.514 123.446 187.226 127.134 187.226 130.585C187.346 133.68 186.988 136.655 186.394 139.391Z" fill="white"/>
</svg>
