<svg width="300" height="300" viewBox="0 0 300 300" fill="none" xmlns="http://www.w3.org/2000/svg">
<g clip-path="url(#clip0_2023_2681)">
<path d="M21.3223 149.996C21.3223 200.93 50.9224 244.947 93.845 265.806L32.463 97.627C25.3231 113.63 21.3223 131.341 21.3223 149.996Z" fill="white"/>
<path d="M236.869 143.502C236.869 127.599 231.157 116.586 226.258 108.014C219.735 97.4139 213.621 88.4377 213.621 77.838C213.621 66.0092 222.592 54.9982 235.229 54.9982C235.799 54.9982 236.341 55.0692 236.896 55.1011C214.003 34.127 183.501 21.3213 150.001 21.3213C105.046 21.3213 65.4951 44.3863 42.4863 79.3218C45.5054 79.4124 48.3505 79.4761 50.7672 79.4761C64.2267 79.4761 85.0612 77.8429 85.0612 77.8429C91.9979 77.434 92.8157 87.6223 85.8863 88.4426C85.8863 88.4426 78.9154 89.2628 71.1585 89.6693L118.018 229.051L146.179 144.594L126.13 89.6644C119.201 89.2579 112.636 88.4377 112.636 88.4377C105.702 88.0312 106.515 77.4291 113.449 77.838C113.449 77.838 134.7 79.4712 147.344 79.4712C160.801 79.4712 181.638 77.838 181.638 77.838C188.58 77.4291 189.395 87.6174 182.463 88.4377C182.463 88.4377 175.478 89.2579 167.735 89.6644L214.238 227.991L227.073 185.1C232.636 167.302 236.869 154.518 236.869 143.502Z" fill="white"/>
<path d="M152.259 161.252L113.65 273.441C125.178 276.829 137.369 278.683 150.001 278.683C164.986 278.683 179.356 276.092 192.733 271.389C192.387 270.838 192.074 270.253 191.817 269.616L152.259 161.252Z" fill="white"/>
<path d="M262.913 88.2598C263.466 92.3586 263.78 96.7586 263.78 101.492C263.78 114.55 261.341 129.228 253.996 147.582L214.689 261.226C252.945 238.917 278.677 197.471 278.677 149.999C278.679 127.627 272.964 106.589 262.913 88.2598Z" fill="white"/>
<path d="M150.001 0C67.2927 0 0 67.2878 0 149.996C0 232.715 67.2927 300 150.001 300C232.707 300 300.01 232.715 300.01 149.996C300.007 67.2878 232.707 0 150.001 0ZM150.001 293.125C71.0854 293.125 6.87789 228.917 6.87789 149.996C6.87789 71.0805 71.083 6.87789 150.001 6.87789C228.915 6.87789 293.117 71.0805 293.117 149.996C293.117 228.917 228.915 293.125 150.001 293.125Z" fill="white"/>
</g>
<defs>
<clipPath id="clip0_2023_2681">
<rect width="299.993" height="300" fill="white"/>
</clipPath>
</defs>
</svg>
