<svg width="300" height="300" viewBox="0 0 300 300" fill="none" xmlns="http://www.w3.org/2000/svg">
<g clip-path="url(#clip0_2022_940)">
<path d="M-0.0078125 149.492C-0.0078125 155.155 1.48242 160.818 4.36354 165.686L56.621 256.193C61.9859 265.433 70.1327 272.983 80.2661 276.361C100.235 283.017 120.9 274.473 130.735 257.386L143.353 235.529L93.579 149.492L146.134 58.3895L158.752 36.5328C162.527 29.9757 167.594 24.6109 173.555 20.3389H168.091H92.4863C78.279 20.3389 65.1649 27.8894 58.1113 40.2086L4.36354 133.299C1.48242 138.167 -0.0078125 143.83 -0.0078125 149.492Z" fill="white"/>
<path d="M298.035 149.492C298.035 143.829 296.545 138.167 293.664 133.298L240.711 41.5996C230.876 24.6109 210.211 16.0669 190.242 22.6239C180.108 26.0018 171.962 33.5523 166.597 42.7918L154.675 63.357L204.449 149.492L151.893 240.595L139.276 262.452C135.5 268.91 130.434 274.374 124.473 278.646H129.937H205.542C219.749 278.646 232.863 271.096 239.916 258.776L293.664 165.686C296.545 160.818 298.035 155.155 298.035 149.492Z" fill="white"/>
</g>
<defs>
<clipPath id="clip0_2022_940">
<rect width="300" height="300" fill="white" transform="translate(-0.0078125)"/>
</clipPath>
</defs>
</svg>
