<svg width="300" height="300" viewBox="0 0 300 300" fill="none" xmlns="http://www.w3.org/2000/svg">
<g clip-path="url(#clip0_2022_943)">
<path d="M70.3581 124.59C84.8822 124.59 91.7288 127.263 102.244 137.798L158.674 194.303C160.345 195.974 160.681 196.645 161.011 197.646C161.181 197.981 161.181 198.482 161.181 198.817C161.181 199.152 161.181 199.653 161.011 199.988C160.681 200.989 160.345 201.66 158.674 203.331L120.111 242.114C118.44 243.786 117.774 244.121 116.768 244.456C116.438 244.621 115.937 244.621 115.602 244.621C115.267 244.621 114.766 244.621 114.431 244.456C113.43 244.121 112.764 243.786 111.093 242.114L1.73661 132.613C-1.43147 129.435 -0.265335 124.59 5.07985 124.59H70.3581ZM229.627 55.5431C215.103 55.5431 208.257 58.2157 197.742 68.7509L141.312 125.256C139.64 126.927 139.305 127.598 138.975 128.599C138.804 128.934 138.804 129.435 138.804 129.77C138.804 130.105 138.804 130.606 138.975 130.941C139.305 131.942 139.64 132.613 141.312 134.284L179.874 172.902C181.546 174.573 182.212 174.909 183.218 175.244C183.548 175.409 184.048 175.409 184.384 175.409C184.719 175.409 185.219 175.409 185.555 175.244C186.556 174.909 187.221 174.573 188.893 172.902L298.244 63.4007C301.417 60.2226 300.251 55.3779 294.906 55.3779H229.627V55.5431Z" fill="#08CF65"/>
</g>
<defs>
<clipPath id="clip0_2022_943">
<rect width="300" height="300" fill="white" transform="translate(-0.0078125)"/>
</clipPath>
</defs>
</svg>
