<svg width="300" height="300" viewBox="0 0 300 300" fill="none" xmlns="http://www.w3.org/2000/svg">
<g clip-path="url(#clip0_2022_953)">
<mask id="mask0_2022_953" style="mask-type:luminance" maskUnits="userSpaceOnUse" x="-67" y="-67" width="434" height="433">
<path d="M-66.0332 -66.3742H366.286V365.945H-66.0332V-66.3742Z" fill="white"/>
</mask>
<g mask="url(#mask0_2022_953)">
<path d="M149.993 299.428C232.52 299.428 299.421 232.527 299.421 149.999C299.421 67.4728 232.52 0.571564 149.993 0.571564C67.4657 0.571564 0.564453 67.4728 0.564453 149.999C0.564453 232.527 67.4657 299.428 149.993 299.428Z" fill="#1AB4D7"/>
<path d="M72.0943 149.568L97.5954 124.003C98.4409 123.142 98.9126 122.001 98.9126 120.791C98.9126 118.269 96.8629 116.222 94.3413 116.222C93.1131 116.222 91.9616 116.703 91.0933 117.582C91.0908 117.587 65.6151 143.048 65.6151 143.048L40.0229 117.544C39.1582 116.691 38.0123 116.222 36.7973 116.222C34.2788 116.222 32.2285 118.268 32.2285 120.787C32.2285 122.016 32.7191 123.169 33.5996 124.038L59.0972 149.532L33.6128 175.064C32.7171 175.946 32.2285 177.102 32.2285 178.336C32.2285 180.857 34.2788 182.902 36.7973 182.902C38.0143 182.902 39.1612 182.43 40.0229 181.568L65.5754 156.05L91.0308 181.475C91.9337 182.408 93.0984 182.905 94.3413 182.905C96.8603 182.905 98.9101 180.857 98.9101 178.336C98.9101 177.119 98.4388 175.977 97.5812 175.115L72.0943 149.568Z" fill="white"/>
<path d="M223.693 149.56C223.693 154.139 227.416 157.863 232 157.863C236.574 157.863 240.298 154.139 240.298 149.56C240.298 144.981 236.574 141.257 232 141.257C227.416 141.257 223.693 144.981 223.693 149.56Z" fill="white"/>
<path d="M207.945 149.564C207.945 136.306 218.731 125.518 231.991 125.518C245.244 125.518 256.032 136.306 256.032 149.564C256.032 162.819 245.244 173.603 231.991 173.603C218.731 173.603 207.945 162.819 207.945 149.564ZM198.486 149.564C198.486 168.035 213.516 183.063 231.991 183.063C250.465 183.063 265.502 168.035 265.502 149.564C265.502 131.09 250.465 116.058 231.991 116.058C213.516 116.058 198.486 131.09 198.486 149.564Z" fill="white"/>
<path d="M196.11 116.631L194.704 116.627C190.484 116.627 186.414 117.958 183.015 120.577C182.567 118.528 180.735 116.985 178.552 116.985C176.04 116.985 174.028 118.998 174.021 121.515C174.021 121.524 174.037 177.944 174.037 177.944C174.043 180.457 176.093 182.499 178.606 182.499C181.119 182.499 183.168 180.457 183.174 177.939C183.174 177.928 183.176 143.242 183.176 143.242C183.176 131.677 184.234 127.007 194.14 125.769C195.056 125.655 196.051 125.673 196.056 125.673C198.766 125.58 200.692 123.717 200.692 121.2C200.692 118.681 198.636 116.631 196.11 116.631Z" fill="white"/>
<path d="M108.376 144.049C108.376 143.924 108.385 143.794 108.392 143.665C111.044 133.179 120.541 125.419 131.852 125.419C143.299 125.419 152.883 133.369 155.4 144.049H108.376ZM164.756 143.186C162.787 133.864 157.684 126.207 149.912 121.289C138.552 114.077 123.551 114.476 112.578 122.279C103.628 128.647 98.4609 139.063 98.4609 149.792C98.4609 152.483 98.7853 155.199 99.4604 157.872C102.84 171.167 114.269 181.231 127.896 182.899C131.939 183.388 135.875 183.154 139.951 182.099C143.453 181.247 146.842 179.826 149.964 177.825C153.205 175.742 155.913 172.995 158.535 169.706C158.588 169.646 158.641 169.592 158.694 169.529C160.514 167.271 160.177 164.062 158.177 162.529C156.49 161.236 153.658 160.712 151.43 163.566C150.951 164.248 150.417 164.95 149.829 165.652C148.057 167.61 145.859 169.507 143.225 170.978C139.873 172.768 136.054 173.792 131.993 173.815C118.703 173.667 111.592 164.39 109.062 157.768C108.62 156.532 108.28 155.249 108.042 153.929C108.011 153.682 107.988 153.443 107.979 153.223C110.727 153.223 155.671 153.216 155.671 153.216C162.209 153.079 165.728 148.464 164.756 143.186Z" fill="white"/>
</g>
</g>
<defs>
<clipPath id="clip0_2022_953">
<rect width="300" height="300" fill="white" transform="translate(-0.0078125)"/>
</clipPath>
</defs>
</svg>
