<svg width="300" height="300" viewBox="0 0 300 300" fill="none" xmlns="http://www.w3.org/2000/svg">
<g clip-path="url(#clip0_2022_949)">
<path d="M68.2455 59.582C65.6438 59.582 63.455 60.4949 62.3552 62.2805C61.2173 64.1259 61.3934 66.5016 62.6019 68.9055L91.8015 119.453C91.8504 119.552 91.8504 119.61 91.8015 119.698L45.9154 200.672C44.7178 203.058 44.7765 205.452 45.9154 207.299C47.0152 209.074 48.9584 210.244 51.5591 210.244H94.7445C101.202 210.244 104.315 205.886 106.523 201.899C106.523 201.899 151.397 122.535 153.146 119.453C152.968 119.168 123.455 67.6786 123.455 67.6786C121.304 63.8509 118.056 59.582 111.431 59.582H68.2455Z" fill="white"/>
<path d="M249.676 0.445533C243.227 0.445533 240.429 4.5101 238.114 8.6703C238.114 8.6703 145.076 173.662 142.014 179.08C142.171 179.374 203.378 291.66 203.378 291.66C205.519 295.486 208.826 299.883 215.441 299.883H258.578C261.179 299.883 263.212 298.902 264.309 297.125C265.458 295.281 265.429 292.845 264.222 290.452L203.339 179.216C203.31 179.174 203.295 179.124 203.295 179.073C203.295 179.023 203.31 178.973 203.339 178.931L298.957 9.86576C300.156 7.48136 300.185 5.04588 299.045 3.20161C297.945 1.42472 295.904 0.443359 293.304 0.443359H249.676V0.445533Z" fill="#D4D600"/>
</g>
<defs>
<clipPath id="clip0_2022_949">
<rect width="300" height="300" fill="white" transform="translate(-0.0078125)"/>
</clipPath>
</defs>
</svg>
