<svg width="300" height="300" viewBox="0 0 300 300" fill="none" xmlns="http://www.w3.org/2000/svg">
<path d="M192.406 150.191C192.012 150.172 191.553 150.163 191.094 150.163C173.337 150.163 158.881 164.272 158.319 181.888V181.944C158.806 198.951 172.709 212.544 189.791 212.544C190.222 212.544 190.644 212.535 191.066 212.516H191.009C191.487 212.544 192.041 212.554 192.603 212.554C210.266 212.554 224.666 198.566 225.331 181.063V181.007C225.041 163.907 211.109 150.154 193.962 150.154C193.419 150.154 192.875 150.172 192.331 150.191H192.406ZM9.40625 78.0225L69.7437 213.454L48.0687 262.307H101.141L181.512 78.0225H128.797L95.9937 156.866L63.5375 78.0225H9.41563H9.40625ZM230.366 17.6943L176.591 138.482H236.694L290.581 17.6943H230.366Z" fill="white"/>
</svg>
