<svg width="300" height="300" viewBox="0 0 300 300" fill="none" xmlns="http://www.w3.org/2000/svg">
<path d="M288.01 137.413C287.351 137.385 286.691 137.373 286.032 137.377C274.498 137.399 191.562 146.494 195.723 154.947C199.87 163.311 250.94 167.369 287.337 167.385C294.966 166.061 300.492 159.168 299.965 151.286C299.474 144.367 294.455 138.837 288.01 137.413ZM259.885 225.129C227.963 207.64 181.243 186.613 173.582 191.97C165.869 197.368 234.193 245.248 244.3 250.81C244.916 251.144 245.492 251.451 246.046 251.745C252.398 253.594 259.444 251.163 263.208 245.321C267.465 238.672 265.926 229.96 259.885 225.129ZM259.886 81.1761C265.928 76.3445 267.465 67.6328 263.208 60.9894C259.444 55.1441 252.398 52.7253 246.046 54.5687C245.492 54.8535 244.916 55.1628 244.3 55.4945C234.193 61.0644 165.869 108.937 173.582 114.34C181.243 119.695 227.963 98.6699 259.886 81.1761ZM68.4484 209.344C58.9492 236.167 50.1555 248.727 29.9547 248.727C28.0023 248.727 21.2054 248.327 20.7672 248.286C14.2504 247.95 8.16363 252.191 6.40816 258.743C4.39254 266.187 8.76363 273.857 16.1675 275.978C21.5218 276.92 27.0191 277.267 31.9515 277.267C69.1867 277.267 81.4973 255.83 93.7914 224.533L166.436 43.3128C169.055 35.1015 164.493 26.3242 156.332 23.712C148.312 21.162 139.82 25.4019 136.947 33.1925L85.9023 168.105H85.102L31.4066 32.1788C27.7738 24.4984 18.7867 20.7495 10.6796 23.7882C2.36285 26.9077 -1.90981 36.0074 0.823004 44.3745L68.4484 209.345V209.344Z" fill="white"/>
</svg>
