<svg width="300" height="300" viewBox="0 0 300 300" fill="none" xmlns="http://www.w3.org/2000/svg">
<g clip-path="url(#clip0_2022_969)">
<path d="M288.002 137.413C287.343 137.385 286.684 137.373 286.024 137.377C274.49 137.399 191.554 146.494 195.716 154.947C199.862 163.311 250.932 167.369 287.329 167.385C294.958 166.061 300.484 159.168 299.958 151.286C299.467 144.367 294.447 138.837 288.002 137.413ZM259.877 225.129C227.955 207.64 181.235 186.613 173.574 191.97C165.861 197.368 234.185 245.248 244.292 250.81C244.909 251.144 245.484 251.451 246.038 251.745C252.39 253.594 259.436 251.163 263.2 245.321C267.457 238.672 265.918 229.96 259.877 225.129ZM259.878 81.1761C265.92 76.3445 267.457 67.6328 263.2 60.9894C259.436 55.1441 252.39 52.7253 246.038 54.5687C245.484 54.8535 244.909 55.1628 244.292 55.4945C234.185 61.0644 165.861 108.937 173.574 114.34C181.235 119.695 227.955 98.6699 259.878 81.1761ZM68.4406 209.344C58.9414 236.167 50.1476 248.727 29.9468 248.727C27.9945 248.727 21.1976 248.327 20.7593 248.286C14.2425 247.95 8.15582 252.191 6.40035 258.743C4.38472 266.187 8.75582 273.857 16.1597 275.978C21.514 276.92 27.0113 277.267 31.9437 277.267C69.1789 277.267 81.4895 255.83 93.7836 224.533L166.428 43.3128C169.047 35.1015 164.485 26.3242 156.324 23.712C148.304 21.162 139.813 25.4019 136.939 33.1925L85.8945 168.105H85.0941L31.3988 32.1788C27.766 24.4984 18.7789 20.7495 10.6718 23.7882C2.35504 26.9077 -1.91762 36.0074 0.815192 44.3745L68.4406 209.345V209.344Z" fill="white"/>
</g>
<defs>
<clipPath id="clip0_2022_969">
<rect width="300" height="300" fill="white" transform="translate(-0.0078125)"/>
</clipPath>
</defs>
</svg>
