<svg width="300" height="300" viewBox="0 0 300 300" fill="none" xmlns="http://www.w3.org/2000/svg">
<g clip-path="url(#clip0_2022_971)">
<path d="M150 294.643C70.1162 294.643 5.35742 229.884 5.35742 150C5.35742 70.1162 70.1162 5.35742 150 5.35742C229.884 5.35742 294.643 70.1162 294.643 150C294.643 229.884 229.884 294.643 150 294.643Z" fill="#FF0000"/>
<path d="M137.874 259.289C145.773 259.646 152.902 258.933 160.801 259.289C159.005 240.085 164.171 219.675 162.193 200.489C161.64 195.136 162.549 187.463 162.994 182.096C163.473 176.335 168.005 165.441 170.18 160.083C186.779 119.157 197.227 86.2925 212.012 44.6769C204.755 44.541 194.659 44.8129 187.402 44.6769C173.649 79.4535 159.999 115.847 149.799 151.828C132.648 123.136 125.626 94.7253 116.729 65.6441C116.12 63.6566 115.398 61.4957 113.635 60.3941C112.477 59.6722 111.062 59.5363 109.702 59.4332C102.39 58.8801 95.0492 58.7347 87.7227 59.0113C104.766 95.3019 119.565 136.074 131.162 174.455C133.088 180.83 134.94 187.247 135.91 193.833C136.932 200.771 138.005 206.574 138.034 213.581C138.076 227.114 137.827 245.761 137.874 259.289Z" fill="white"/>
<path d="M212.007 42.3426C203.803 42.2113 195.6 42.4738 187.397 42.3426C186.282 42.3238 185.517 43.0973 185.138 44.0629C171.905 77.541 159.239 111.3 149.114 145.861C139.224 128.039 132.277 108.947 126.324 89.4566C124.753 84.3238 123.235 79.1769 121.702 74.0301C120.436 69.7926 119.644 64.6035 117.249 60.8348C114.802 56.9863 110.297 57.0941 106.233 56.8598C100.069 56.5035 93.891 56.4566 87.7176 56.6676C85.8379 56.7332 84.9379 58.5848 85.6926 60.1926C97.5894 85.58 107.841 111.718 116.982 138.216C125.813 163.824 135.694 190.102 135.685 217.514C135.685 231.436 135.483 245.363 135.525 259.285C135.53 260.217 136.003 260.832 136.622 261.188C136.96 261.427 137.353 261.61 137.869 261.628C145.514 261.924 153.155 261.333 160.796 261.628C161.982 261.675 163.247 260.513 163.139 259.285C161.78 243.596 164.7 228.01 164.968 212.344C165.089 205.299 164.1 198.338 164.555 191.297C164.939 185.316 165.493 179.658 167.382 173.949C171.638 161.091 177.319 148.655 182.11 135.989C187.369 122.091 192.352 108.094 197.246 94.0644C202.917 77.8129 208.496 61.5285 214.257 45.3051C214.791 43.8332 213.436 42.366 212.007 42.3426ZM179.466 129.774C174.539 142.964 168.957 155.911 164.119 169.13C162.122 174.582 160.861 179.789 160.341 185.56C160.055 188.757 159.769 191.963 159.694 195.174C159.61 198.755 160.083 202.28 160.228 205.852C160.922 222.914 157.318 239.86 158.339 256.913C152.302 256.814 146.269 257.086 140.236 256.983C140.293 231.891 142.289 206.321 135.732 181.838C128.391 154.425 118.636 127.393 108.263 101.002C102.999 87.6097 97.3363 74.3722 91.3082 61.3082C95.9019 61.2238 100.496 61.2473 105.085 61.4863C107.171 61.5941 110.663 61.1723 112.458 62.4238C114.122 63.5816 114.549 66.5113 115.088 68.2785C117.957 77.7332 120.689 87.2301 123.657 96.6519C129.825 116.218 137.278 135.338 147.778 153.019C148.81 154.758 151.51 154.402 152.063 152.461C162.253 116.616 175.318 81.6754 188.991 47.0301C195.567 47.0957 202.139 46.9973 208.716 47.0301C198.957 74.6066 189.703 102.366 179.466 129.774Z" fill="white"/>
</g>
<defs>
<clipPath id="clip0_2022_971">
<rect width="300" height="300" fill="white"/>
</clipPath>
</defs>
</svg>
