<svg width="300" height="300" viewBox="0 0 300 300" fill="none" xmlns="http://www.w3.org/2000/svg">
<g clip-path="url(#clip0_2022_971)">
<path d="M149.992 294.643C70.1084 294.643 5.34961 229.884 5.34961 150C5.34961 70.1162 70.1084 5.35742 149.992 5.35742C229.877 5.35742 294.635 70.1162 294.635 150C294.635 229.884 229.877 294.643 149.992 294.643Z" fill="#FF0000"/>
<path d="M137.866 259.289C145.765 259.646 152.895 258.933 160.793 259.289C158.998 240.085 164.163 219.675 162.185 200.489C161.632 195.136 162.541 187.463 162.987 182.096C163.465 176.335 167.998 165.441 170.173 160.083C186.771 119.157 197.219 86.2925 212.004 44.6769C204.748 44.541 194.651 44.8129 187.394 44.6769C173.641 79.4535 159.991 115.847 149.791 151.828C132.64 123.136 125.618 94.7253 116.721 65.6441C116.112 63.6566 115.39 61.4957 113.627 60.3941C112.47 59.6722 111.054 59.5363 109.695 59.4332C102.382 58.8801 95.0414 58.7347 87.7148 59.0113C104.759 95.3019 119.557 136.074 131.154 174.455C133.08 180.83 134.932 187.247 135.902 193.833C136.924 200.771 137.998 206.574 138.026 213.581C138.068 227.114 137.82 245.761 137.866 259.289Z" fill="white"/>
<path d="M211.999 42.3426C203.796 42.2113 195.592 42.4738 187.389 42.3426C186.274 42.3238 185.51 43.0973 185.13 44.0629C171.897 77.541 159.232 111.3 149.107 145.861C139.216 128.039 132.269 108.947 126.316 89.4566C124.746 84.3238 123.227 79.1769 121.694 74.0301C120.428 69.7926 119.636 64.6035 117.241 60.8348C114.794 56.9863 110.289 57.0941 106.225 56.8598C100.061 56.5035 93.8832 56.4566 87.7097 56.6676C85.8301 56.7332 84.9301 58.5848 85.6847 60.1926C97.5816 85.58 107.833 111.718 116.974 138.216C125.805 163.824 135.686 190.102 135.677 217.514C135.677 231.436 135.475 245.363 135.518 259.285C135.522 260.217 135.996 260.832 136.614 261.188C136.952 261.427 137.346 261.61 137.861 261.628C145.507 261.924 153.147 261.333 160.788 261.628C161.974 261.675 163.239 260.513 163.132 259.285C161.772 243.596 164.693 228.01 164.96 212.344C165.082 205.299 164.093 198.338 164.547 191.297C164.932 185.316 165.485 179.658 167.374 173.949C171.63 161.091 177.311 148.655 182.102 135.989C187.361 122.091 192.344 108.094 197.238 94.0644C202.91 77.8129 208.488 61.5285 214.249 45.3051C214.783 43.8332 213.428 42.366 211.999 42.3426ZM179.458 129.774C174.532 142.964 168.949 155.911 164.111 169.13C162.114 174.582 160.853 179.789 160.333 185.56C160.047 188.757 159.761 191.963 159.686 195.174C159.602 198.755 160.075 202.28 160.221 205.852C160.914 222.914 157.31 239.86 158.332 256.913C152.294 256.814 146.261 257.086 140.228 256.983C140.285 231.891 142.282 206.321 135.724 181.838C128.383 154.425 118.628 127.393 108.255 101.002C102.991 87.6097 97.3285 74.3722 91.3004 61.3082C95.8941 61.2238 100.488 61.2473 105.077 61.4863C107.163 61.5941 110.655 61.1723 112.45 62.4238C114.114 63.5816 114.541 66.5113 115.08 68.2785C117.949 77.7332 120.682 87.2301 123.649 96.6519C129.818 116.218 137.271 135.338 147.771 153.019C148.802 154.758 151.502 154.402 152.055 152.461C162.246 116.616 175.31 81.6754 188.983 47.0301C195.56 47.0957 202.132 46.9973 208.708 47.0301C198.949 74.6066 189.696 102.366 179.458 129.774Z" fill="white"/>
</g>
<defs>
<clipPath id="clip0_2022_971">
<rect width="300" height="300" fill="white" transform="translate(-0.0078125)"/>
</clipPath>
</defs>
</svg>
