<svg width="300" height="300" viewBox="0 0 300 300" fill="none" xmlns="http://www.w3.org/2000/svg">
<g clip-path="url(#clip0_2022_981)">
<path fill-rule="evenodd" clip-rule="evenodd" d="M138.558 96.3729V263.615H-0.0078125L138.558 96.3729ZM0.0112921 36.3652C0.0112921 54.7057 7.30926 72.3392 20.3195 85.3113C33.2916 98.3215 50.9251 105.62 69.3038 105.62C87.6442 105.62 105.278 98.3215 118.288 85.3113C131.26 72.3392 138.558 54.7057 138.558 36.3652H0.0112921ZM299.954 263.634C299.954 245.274 292.656 227.66 279.665 214.65C266.655 201.658 249.059 194.361 230.681 194.361C212.302 194.361 194.687 201.658 181.696 214.65C168.686 227.66 161.388 245.274 161.388 263.634H299.954ZM161.407 203.588L299.992 36.3652H161.407V203.588Z" fill="white"/>
</g>
<defs>
<clipPath id="clip0_2022_981">
<rect width="300" height="300" fill="white" transform="translate(-0.0078125)"/>
</clipPath>
</defs>
</svg>
