<svg width="300" height="300" viewBox="0 0 300 300" fill="none" xmlns="http://www.w3.org/2000/svg">
<path fill-rule="evenodd" clip-rule="evenodd" d="M138.566 96.3729V263.615H0L138.566 96.3729ZM0.0191046 36.3652C0.0191046 54.7057 7.31707 72.3392 20.3273 85.3113C33.2994 98.3215 50.9329 105.62 69.3116 105.62C87.652 105.62 105.286 98.3215 118.296 85.3113C131.268 72.3392 138.566 54.7057 138.566 36.3652H0.0191046ZM299.962 263.634C299.962 245.274 292.664 227.66 279.673 214.65C266.662 201.658 249.067 194.361 230.688 194.361C212.31 194.361 194.695 201.658 181.704 214.65C168.694 227.66 161.396 245.274 161.396 263.634H299.962ZM161.415 203.588L300 36.3652H161.415V203.588Z" fill="white"/>
</svg>
