<svg width="300" height="300" viewBox="0 0 300 300" fill="none" xmlns="http://www.w3.org/2000/svg">
<path d="M229.989 71.6861L259.919 268.534L59.2401 300L27.0078 102.776L229.985 71.6965" fill="url(#paint0_linear_2023_3037)"/>
<path d="M27.0117 102.763L41.1046 32.4816L243.728 0.00262203L229.994 71.6836L27.0117 102.763Z" fill="#EF463D"/>
<path d="M243.727 -0.000148758L273.436 198.746L259.924 268.523L229.994 71.6809L243.727 -0.000148758Z" fill="#761116"/>
<path d="M208.439 237.191C206.858 235.301 204.728 233.905 202.133 232.998C199.464 232.067 196.24 231.619 192.441 231.619C188.862 231.619 184.772 232.017 180.156 232.808L127.189 241.861C127.748 237.779 129.776 232.415 133.349 225.877C137.341 218.553 143.226 209.756 150.999 199.515L151.003 199.51C153.67 195.945 155.709 193.222 157.118 191.341C158.13 190.088 159.539 188.245 161.365 185.809C173.481 169.914 180.981 156.971 183.856 146.813C185.501 141.054 186.503 135.25 186.865 129.405C186.964 127.805 187.009 126.217 187.009 124.641C187.009 120.452 186.666 116.328 185.973 112.27C185.342 108.571 184.431 105.495 183.211 103.026C181.99 100.562 180.441 98.6885 178.528 97.5067C176.371 96.1938 173.336 95.6367 169.366 95.6302C166.088 95.6302 162.157 96.0276 157.556 96.812L96.3447 107.285C88.932 108.556 83.4583 110.737 79.9662 114.025C77.191 116.629 75.7573 120.002 75.7716 123.873C75.7716 124.883 75.8638 125.929 76.0508 127.011C76.9118 132.212 79.622 136.026 83.992 137.966C86.5711 139.129 89.6878 139.685 93.3253 139.685C95.8031 139.685 98.5251 139.427 101.499 138.92L152.732 130.281C152.819 131.186 152.878 132.09 152.878 132.986C152.878 136.187 152.324 139.313 151.213 142.39C149.693 146.63 145.893 152.692 139.837 160.399C138.122 162.502 135.493 165.78 131.952 170.221C118.136 186.958 108.24 201.228 102.252 213.097C102.252 213.103 102.252 213.103 102.248 213.108L102.247 213.113C97.9965 221.283 95.046 229.33 93.4279 237.252C92.4851 241.873 92.0085 246.309 92.0085 250.566C92.0085 253.614 92.2526 256.564 92.7422 259.42C93.4435 263.517 94.4551 266.897 95.8174 269.575C97.1797 272.241 98.9173 274.235 101.063 275.414C103.06 276.497 105.995 276.927 110.035 276.938C115.163 276.938 122.067 276.183 130.805 274.692L186.346 265.195C196.181 263.503 203.021 261.157 206.997 257.893C210.173 255.284 211.818 251.702 211.801 247.483C211.801 246.415 211.703 245.313 211.504 244.166C211.038 241.427 210.021 239.078 208.439 237.191ZM161.366 185.805L161.37 185.803C161.366 185.805 161.365 185.809 161.365 185.809H161.361L161.366 185.805Z" fill="white"/>
<defs>
<linearGradient id="paint0_linear_2023_3037" x1="128.807" y1="90.3736" x2="160.953" y2="284.442" gradientUnits="userSpaceOnUse">
<stop stop-color="#D92231"/>
<stop offset="1" stop-color="#BA2234"/>
</linearGradient>
</defs>
</svg>
